<svg xmlns="http://www.w3.org/2000/svg" viewBox="0 0 251.22 227.27"><defs><style>.cls-1{fill:#ebebeb;}.cls-2{fill:#dbdbdb;}.cls-3{fill:#a6a6a6;}.cls-4{fill:#c7c7c7;}.cls-5{fill:#fff;}.cls-6{fill:#455a64;}.cls-7{fill:#37474f;}.cls-8{fill:#263238;}.cls-11,.cls-13,.cls-15,.cls-18,.cls-19,.cls-20,.cls-9{fill:#deac47;}.cls-10,.cls-21{fill:#ffc727;}.cls-11{opacity:0.65;}.cls-12,.cls-17{opacity:0.3;}.cls-13{opacity:0.88;}.cls-14,.cls-16{opacity:0.2;}.cls-15{opacity:0.74;}.cls-18{opacity:0.63;}.cls-19{opacity:0.66;}.cls-20{opacity:0.71;}.cls-21{opacity:0.1;}</style></defs><g id="Sun"><path class="cls-1" d="M240.87,84.52H193.55s4.69-12.81,11.91-12.81,9.48,8.84,9.48,8.84,4.87-4.8,8.87-4.8,7.49,6.35,7.49,6.35A7,7,0,0,1,240.87,84.52Z"/><path class="cls-1" d="M204.6,34.33H182.49s4.94-7.16,8.83-7.16,5.05,4.77,5.05,4.77,2.74-2.22,5.29-1.82S204.6,34.33,204.6,34.33Z"/><path class="cls-1" d="M57.61,67H14.54s5.9-13.17,12.21-14,9.33,9.78,9.33,9.78S40.15,59,43.35,59,49,64,49,64,55.42,60.57,57.61,67Z"/><path class="cls-1" d="M89,17.77H59.87s5-9.54,10.42-9.68,8.27,7.22,8.27,7.22S87,8.54,89,17.77Z"/><path class="cls-1" d="M74.42,83.66H54.78s3.37-6.44,7-6.53S67.4,82,67.4,82,73.09,77.44,74.42,83.66Z"/><rect class="cls-2" x="164.77" y="94.22" width="23.95" height="125.57"/><rect class="cls-1" x="168.49" y="98.3" width="4.66" height="4.79"/><rect class="cls-1" x="174.44" y="98.3" width="4.66" height="4.79"/><rect class="cls-1" x="168.49" y="106.44" width="4.66" height="4.79"/><rect class="cls-1" x="174.44" y="106.44" width="4.66" height="4.79"/><rect class="cls-1" x="168.49" y="114.58" width="4.66" height="4.79"/><rect class="cls-1" x="174.44" y="114.58" width="4.66" height="4.79"/><rect class="cls-1" x="168.49" y="122.72" width="4.66" height="4.79"/><rect class="cls-1" x="174.44" y="122.72" width="4.66" height="4.79"/><rect class="cls-1" x="168.49" y="130.86" width="4.66" height="4.79"/><rect class="cls-1" x="174.44" y="130.86" width="4.66" height="4.79"/><rect class="cls-1" x="168.49" y="139" width="4.66" height="4.79"/><rect class="cls-1" x="174.44" y="139" width="4.66" height="4.79"/><rect class="cls-1" x="168.49" y="147.14" width="4.66" height="4.79"/><rect class="cls-1" x="174.44" y="147.14" width="4.66" height="4.79"/><rect class="cls-1" x="168.49" y="155.28" width="4.66" height="4.79"/><rect class="cls-1" x="174.44" y="155.28" width="4.66" height="4.79"/><rect class="cls-1" x="168.49" y="163.42" width="4.66" height="4.79"/><rect class="cls-1" x="174.44" y="163.42" width="4.66" height="4.79"/><rect class="cls-1" x="168.49" y="171.56" width="4.66" height="4.79"/><rect class="cls-1" x="174.44" y="171.56" width="4.66" height="4.79"/><rect class="cls-1" x="168.49" y="179.7" width="4.66" height="4.79"/><rect class="cls-1" x="174.44" y="179.7" width="4.66" height="4.79"/><rect class="cls-1" x="168.49" y="187.84" width="4.66" height="4.79"/><rect class="cls-1" x="174.44" y="187.84" width="4.66" height="4.79"/><rect class="cls-1" x="168.49" y="195.98" width="4.66" height="4.79"/><rect class="cls-1" x="174.44" y="195.98" width="4.66" height="4.79"/><rect class="cls-1" x="168.49" y="204.12" width="4.66" height="4.79"/><rect class="cls-1" x="180.35" y="204.12" width="4.66" height="4.79" transform="translate(365.35 413.03) rotate(180)"/><rect class="cls-1" x="180.35" y="195.98" width="4.66" height="4.79" transform="translate(365.35 396.75) rotate(180)"/><rect class="cls-1" x="180.35" y="187.84" width="4.66" height="4.79" transform="translate(365.35 380.47) rotate(180)"/><rect class="cls-1" x="180.35" y="179.7" width="4.66" height="4.79" transform="translate(365.35 364.19) rotate(180)"/><rect class="cls-1" x="180.35" y="171.56" width="4.66" height="4.79" transform="translate(365.35 347.91) rotate(180)"/><rect class="cls-1" x="180.35" y="163.42" width="4.66" height="4.79" transform="translate(365.35 331.63) rotate(180)"/><rect class="cls-1" x="180.35" y="155.28" width="4.66" height="4.79" transform="translate(365.35 315.35) rotate(180)"/><rect class="cls-1" x="180.35" y="147.14" width="4.66" height="4.79" transform="translate(365.35 299.07) rotate(180)"/><rect class="cls-1" x="180.35" y="139" width="4.66" height="4.79" transform="translate(365.35 282.79) rotate(180)"/><rect class="cls-1" x="180.35" y="130.86" width="4.66" height="4.79" transform="translate(365.35 266.51) rotate(180)"/><rect class="cls-1" x="180.35" y="122.72" width="4.66" height="4.79" transform="translate(365.35 250.23) rotate(180)"/><rect class="cls-1" x="180.35" y="114.58" width="4.66" height="4.79" transform="translate(365.35 233.95) rotate(180)"/><rect class="cls-1" x="180.35" y="106.44" width="4.66" height="4.79" transform="translate(365.35 217.67) rotate(180)"/><rect class="cls-1" x="180.35" y="98.3" width="4.66" height="4.79" transform="translate(365.35 201.39) rotate(180)"/><rect class="cls-1" x="174.44" y="204.12" width="4.66" height="4.79"/><rect class="cls-3" x="188.72" y="94.22" width="18.89" height="125.57"/><rect class="cls-4" x="201.81" y="204.12" width="3.85" height="4.79" transform="translate(407.48 413.03) rotate(180)"/><rect class="cls-4" x="196.9" y="204.12" width="3.85" height="4.79" transform="translate(397.64 413.03) rotate(180)"/><rect class="cls-4" x="201.81" y="195.98" width="3.85" height="4.79" transform="translate(407.48 396.75) rotate(180)"/><rect class="cls-4" x="196.9" y="195.98" width="3.85" height="4.79" transform="translate(397.64 396.75) rotate(180)"/><rect class="cls-4" x="201.81" y="187.84" width="3.85" height="4.79" transform="translate(407.48 380.47) rotate(180)"/><rect class="cls-4" x="196.9" y="187.84" width="3.85" height="4.79" transform="translate(397.64 380.47) rotate(180)"/><rect class="cls-4" x="201.81" y="179.7" width="3.85" height="4.79" transform="translate(407.48 364.19) rotate(180)"/><rect class="cls-4" x="196.9" y="179.7" width="3.85" height="4.79" transform="translate(397.64 364.19) rotate(180)"/><rect class="cls-4" x="201.81" y="171.56" width="3.85" height="4.79" transform="translate(407.48 347.91) rotate(180)"/><rect class="cls-4" x="196.9" y="171.56" width="3.85" height="4.79" transform="translate(397.64 347.91) rotate(180)"/><rect class="cls-4" x="201.81" y="163.42" width="3.85" height="4.79" transform="translate(407.48 331.63) rotate(180)"/><rect class="cls-4" x="196.9" y="163.42" width="3.85" height="4.79" transform="translate(397.64 331.63) rotate(180)"/><rect class="cls-4" x="201.81" y="155.28" width="3.85" height="4.79" transform="translate(407.48 315.35) rotate(180)"/><rect class="cls-4" x="196.9" y="155.28" width="3.85" height="4.79" transform="translate(397.64 315.35) rotate(180)"/><rect class="cls-4" x="201.81" y="147.14" width="3.85" height="4.79" transform="translate(407.48 299.07) rotate(180)"/><rect class="cls-4" x="196.9" y="147.14" width="3.85" height="4.79" transform="translate(397.64 299.07) rotate(180)"/><rect class="cls-4" x="201.81" y="139" width="3.85" height="4.79" transform="translate(407.48 282.79) rotate(180)"/><rect class="cls-4" x="196.9" y="139" width="3.85" height="4.79" transform="translate(397.64 282.79) rotate(180)"/><rect class="cls-4" x="201.81" y="130.86" width="3.85" height="4.79" transform="translate(407.48 266.51) rotate(180)"/><rect class="cls-4" x="196.9" y="130.86" width="3.85" height="4.79" transform="translate(397.64 266.51) rotate(180)"/><rect class="cls-4" x="201.81" y="122.72" width="3.85" height="4.79" transform="translate(407.48 250.23) rotate(180)"/><rect class="cls-4" x="196.9" y="122.72" width="3.85" height="4.79" transform="translate(397.64 250.23) rotate(180)"/><rect class="cls-4" x="201.81" y="114.58" width="3.85" height="4.79" transform="translate(407.48 233.95) rotate(180)"/><rect class="cls-4" x="196.9" y="114.58" width="3.85" height="4.79" transform="translate(397.64 233.95) rotate(180)"/><rect class="cls-4" x="201.81" y="106.44" width="3.85" height="4.79" transform="translate(407.48 217.67) rotate(180)"/><rect class="cls-4" x="196.9" y="106.44" width="3.85" height="4.79" transform="translate(397.64 217.67) rotate(180)"/><rect class="cls-4" x="201.81" y="98.3" width="3.85" height="4.79" transform="translate(407.48 201.39) rotate(180)"/><rect class="cls-4" x="192.02" y="98.3" width="3.85" height="4.79"/><rect class="cls-4" x="192.02" y="106.44" width="3.85" height="4.79"/><rect class="cls-4" x="192.02" y="114.58" width="3.85" height="4.79"/><rect class="cls-4" x="192.02" y="122.72" width="3.85" height="4.79"/><rect class="cls-4" x="192.02" y="130.86" width="3.85" height="4.79"/><rect class="cls-4" x="192.02" y="139" width="3.85" height="4.79"/><rect class="cls-4" x="192.02" y="147.14" width="3.85" height="4.79"/><rect class="cls-4" x="192.02" y="155.28" width="3.85" height="4.79"/><rect class="cls-4" x="192.02" y="163.42" width="3.85" height="4.79"/><rect class="cls-4" x="192.02" y="171.56" width="3.85" height="4.79"/><rect class="cls-4" x="192.02" y="179.7" width="3.85" height="4.79"/><rect class="cls-4" x="192.02" y="187.84" width="3.85" height="4.79"/><rect class="cls-4" x="192.02" y="195.98" width="3.85" height="4.79"/><rect class="cls-4" x="192.02" y="204.12" width="3.85" height="4.79"/><rect class="cls-4" x="196.9" y="98.3" width="3.85" height="4.79" transform="translate(397.64 201.39) rotate(180)"/><rect class="cls-1" x="42.12" y="91.48" width="24.99" height="128.31"/><rect class="cls-4" x="41.51" y="88.92" width="25.59" height="2.55"/><rect class="cls-5" x="44.37" y="95.24" width="2.53" height="124.54"/><rect class="cls-5" x="48.86" y="95.24" width="2.53" height="124.54"/><rect class="cls-5" x="53.34" y="95.24" width="2.53" height="124.54"/><rect class="cls-5" x="57.83" y="95.24" width="2.53" height="124.54"/><rect class="cls-5" x="62.31" y="95.24" width="2.53" height="124.54"/><rect class="cls-1" x="44.37" y="98.47" width="2.53" height="5.04"/><rect class="cls-1" x="48.86" y="98.47" width="2.53" height="5.04"/><rect class="cls-1" x="53.34" y="98.47" width="2.53" height="5.04"/><rect class="cls-1" x="57.83" y="98.47" width="2.53" height="5.04"/><rect class="cls-1" x="62.31" y="98.47" width="2.53" height="5.04"/><rect class="cls-1" x="44.37" y="106.67" width="2.53" height="5.04"/><rect class="cls-1" x="48.86" y="106.67" width="2.53" height="5.04"/><rect class="cls-1" x="53.34" y="106.67" width="2.53" height="5.04"/><rect class="cls-1" x="57.83" y="106.67" width="2.53" height="5.04"/><rect class="cls-1" x="62.31" y="106.67" width="2.53" height="5.04"/><rect class="cls-1" x="44.37" y="114.87" width="2.53" height="5.04"/><rect class="cls-1" x="48.86" y="114.87" width="2.53" height="5.04"/><rect class="cls-1" x="53.34" y="114.87" width="2.53" height="5.04"/><rect class="cls-1" x="57.83" y="114.87" width="2.53" height="5.04"/><rect class="cls-1" x="62.31" y="114.87" width="2.53" height="5.04"/><rect class="cls-1" x="44.37" y="123.06" width="2.53" height="5.04"/><rect class="cls-1" x="48.86" y="123.06" width="2.53" height="5.04"/><rect class="cls-1" x="53.34" y="123.06" width="2.53" height="5.04"/><rect class="cls-1" x="57.83" y="123.06" width="2.53" height="5.04"/><rect class="cls-1" x="62.31" y="123.06" width="2.53" height="5.04"/><rect class="cls-1" x="44.37" y="131.26" width="2.53" height="5.04"/><rect class="cls-1" x="48.86" y="131.26" width="2.53" height="5.04"/><rect class="cls-1" x="53.34" y="131.26" width="2.53" height="5.04"/><rect class="cls-1" x="57.83" y="131.26" width="2.53" height="5.04"/><rect class="cls-1" x="62.31" y="131.26" width="2.53" height="5.04"/><rect class="cls-1" x="44.37" y="139.46" width="2.53" height="5.04"/><rect class="cls-1" x="48.86" y="139.46" width="2.53" height="5.04"/><rect class="cls-1" x="53.34" y="139.46" width="2.53" height="5.04"/><rect class="cls-1" x="57.83" y="139.46" width="2.53" height="5.04"/><rect class="cls-1" x="62.31" y="139.46" width="2.53" height="5.04"/><rect class="cls-1" x="44.37" y="147.65" width="2.53" height="5.04"/><rect class="cls-1" x="48.86" y="147.65" width="2.53" height="5.04"/><rect class="cls-1" x="53.34" y="147.65" width="2.53" height="5.04"/><rect class="cls-1" x="57.83" y="147.65" width="2.53" height="5.04"/><rect class="cls-1" x="62.31" y="147.65" width="2.53" height="5.04"/><rect class="cls-1" x="44.37" y="155.85" width="2.53" height="5.04"/><rect class="cls-1" x="48.86" y="155.85" width="2.53" height="5.04"/><rect class="cls-1" x="53.34" y="155.85" width="2.53" height="5.04"/><rect class="cls-1" x="57.83" y="155.85" width="2.53" height="5.04"/><rect class="cls-1" x="62.31" y="155.85" width="2.53" height="5.04"/><rect class="cls-1" x="44.37" y="164.05" width="2.53" height="5.04"/><rect class="cls-1" x="48.86" y="164.05" width="2.53" height="5.04"/><rect class="cls-1" x="53.34" y="164.05" width="2.53" height="5.04"/><rect class="cls-1" x="57.83" y="164.05" width="2.53" height="5.04"/><rect class="cls-1" x="62.31" y="164.05" width="2.53" height="5.04"/><rect class="cls-1" x="44.37" y="172.25" width="2.53" height="5.04"/><rect class="cls-1" x="48.86" y="172.25" width="2.53" height="5.04"/><rect class="cls-1" x="53.34" y="172.25" width="2.53" height="5.04"/><rect class="cls-1" x="57.83" y="172.25" width="2.53" height="5.04"/><rect class="cls-1" x="62.31" y="172.25" width="2.53" height="5.04"/><rect class="cls-1" x="44.37" y="180.44" width="2.53" height="5.04"/><rect class="cls-1" x="48.86" y="180.44" width="2.53" height="5.04"/><rect class="cls-1" x="53.34" y="180.44" width="2.53" height="5.04"/><rect class="cls-1" x="57.83" y="180.44" width="2.53" height="5.04"/><rect class="cls-1" x="62.31" y="180.44" width="2.53" height="5.04"/><rect class="cls-1" x="44.37" y="188.64" width="2.53" height="5.04"/><rect class="cls-1" x="48.86" y="188.64" width="2.53" height="5.04"/><rect class="cls-1" x="53.34" y="188.64" width="2.53" height="5.04"/><rect class="cls-1" x="57.83" y="188.64" width="2.53" height="5.04"/><rect class="cls-1" x="62.31" y="188.64" width="2.53" height="5.04"/><rect class="cls-1" x="44.37" y="196.84" width="2.53" height="5.04"/><rect class="cls-1" x="48.86" y="196.84" width="2.53" height="5.04"/><rect class="cls-1" x="53.34" y="196.84" width="2.53" height="5.04"/><rect class="cls-1" x="57.83" y="196.84" width="2.53" height="5.04"/><rect class="cls-1" x="62.31" y="196.84" width="2.53" height="5.04"/><rect class="cls-1" x="44.37" y="205.03" width="2.53" height="14.75"/><rect class="cls-1" x="48.86" y="205.03" width="2.53" height="14.75"/><rect class="cls-1" x="53.34" y="205.03" width="2.53" height="14.75"/><rect class="cls-1" x="57.83" y="205.03" width="2.53" height="14.75"/><rect class="cls-1" x="62.31" y="205.03" width="2.53" height="14.75"/><rect class="cls-2" x="67.1" y="91.48" width="16.04" height="128.31"/><rect class="cls-4" x="67.1" y="88.92" width="16.74" height="2.55"/><rect class="cls-4" x="69.36" y="95.24" width="2.53" height="124.54"/><rect class="cls-4" x="73.85" y="95.24" width="2.53" height="124.54"/><rect class="cls-4" x="78.33" y="95.24" width="2.53" height="124.54"/><rect class="cls-2" x="69.36" y="98.47" width="2.53" height="5.04"/><rect class="cls-2" x="73.85" y="98.47" width="2.53" height="5.04"/><rect class="cls-2" x="78.33" y="98.47" width="2.53" height="5.04"/><rect class="cls-2" x="69.36" y="106.67" width="2.53" height="5.04"/><rect class="cls-2" x="73.85" y="106.67" width="2.53" height="5.04"/><rect class="cls-2" x="78.33" y="106.67" width="2.53" height="5.04"/><rect class="cls-2" x="69.36" y="114.87" width="2.53" height="5.04"/><rect class="cls-2" x="73.85" y="114.87" width="2.53" height="5.04"/><rect class="cls-2" x="78.33" y="114.87" width="2.53" height="5.04"/><rect class="cls-2" x="69.36" y="123.06" width="2.53" height="5.04"/><rect class="cls-2" x="73.85" y="123.06" width="2.53" height="5.04"/><rect class="cls-2" x="78.33" y="123.06" width="2.53" height="5.04"/><rect class="cls-2" x="69.36" y="131.26" width="2.53" height="5.04"/><rect class="cls-2" x="73.85" y="131.26" width="2.53" height="5.04"/><rect class="cls-2" x="78.33" y="131.26" width="2.53" height="5.04"/><rect class="cls-2" x="69.36" y="139.46" width="2.53" height="5.04"/><rect class="cls-2" x="73.85" y="139.46" width="2.53" height="5.04"/><rect class="cls-2" x="78.33" y="139.46" width="2.53" height="5.04"/><rect class="cls-2" x="69.36" y="147.65" width="2.53" height="5.04"/><rect class="cls-2" x="73.85" y="147.65" width="2.53" height="5.04"/><rect class="cls-2" x="78.33" y="147.65" width="2.53" height="5.04"/><rect class="cls-2" x="69.36" y="155.85" width="2.53" height="5.04"/><rect class="cls-2" x="73.85" y="155.85" width="2.53" height="5.04"/><rect class="cls-2" x="78.33" y="155.85" width="2.53" height="5.04"/><rect class="cls-2" x="69.36" y="164.05" width="2.53" height="5.04"/><rect class="cls-2" x="73.85" y="164.05" width="2.53" height="5.04"/><rect class="cls-2" x="78.33" y="164.05" width="2.53" height="5.04"/><rect class="cls-2" x="69.36" y="172.25" width="2.53" height="5.04"/><rect class="cls-2" x="73.85" y="172.25" width="2.53" height="5.04"/><rect class="cls-2" x="78.33" y="172.25" width="2.53" height="5.04"/><rect class="cls-2" x="69.36" y="180.44" width="2.53" height="5.04"/><rect class="cls-2" x="73.85" y="180.44" width="2.53" height="5.04"/><rect class="cls-2" x="78.33" y="180.44" width="2.53" height="5.04"/><rect class="cls-2" x="69.36" y="188.64" width="2.53" height="5.04"/><rect class="cls-2" x="73.85" y="188.64" width="2.53" height="5.04"/><rect class="cls-2" x="78.33" y="188.64" width="2.53" height="5.04"/><rect class="cls-2" x="69.36" y="196.84" width="2.53" height="5.04"/><rect class="cls-2" x="73.85" y="196.84" width="2.53" height="5.04"/><rect class="cls-2" x="78.33" y="196.84" width="2.53" height="5.04"/><rect class="cls-2" x="69.36" y="205.03" width="2.53" height="14.75"/><rect class="cls-2" x="73.85" y="205.03" width="2.53" height="14.75"/><rect class="cls-2" x="78.33" y="205.03" width="2.53" height="14.75"/><rect class="cls-1" x="14.22" y="129.91" width="23.7" height="89.88"/><rect class="cls-4" x="17.59" y="123.95" width="20.33" height="5.96"/><rect class="cls-2" x="16.82" y="133.02" width="18.5" height="67.19"/><rect class="cls-5" x="16.82" y="139.43" width="18.5" height="1.59"/><rect class="cls-5" x="16.82" y="146.01" width="18.5" height="1.59"/><rect class="cls-5" x="16.82" y="152.58" width="18.5" height="1.59"/><rect class="cls-5" x="16.82" y="159.16" width="18.5" height="1.59"/><rect class="cls-5" x="16.82" y="165.74" width="18.5" height="1.59"/><rect class="cls-5" x="16.82" y="172.31" width="18.5" height="1.59"/><rect class="cls-5" x="16.82" y="178.89" width="18.5" height="1.59"/><rect class="cls-5" x="16.82" y="185.47" width="18.5" height="1.59"/><rect class="cls-5" x="16.82" y="192.04" width="18.5" height="1.59"/><rect class="cls-5" x="16.82" y="198.62" width="18.5" height="1.59"/><rect class="cls-2" x="37.92" y="129.91" width="14.84" height="89.88"/><rect class="cls-3" x="37.92" y="123.95" width="12.62" height="5.96"/><rect class="cls-4" x="39.97" y="133.02" width="11.41" height="67.19"/><rect class="cls-5" x="39.97" y="139.43" width="11.41" height="1.59"/><rect class="cls-5" x="39.97" y="146.01" width="11.41" height="1.59"/><rect class="cls-5" x="39.97" y="152.58" width="11.41" height="1.59"/><rect class="cls-5" x="39.97" y="159.16" width="11.41" height="1.59"/><rect class="cls-5" x="39.97" y="165.74" width="11.41" height="1.59"/><rect class="cls-5" x="39.97" y="172.31" width="11.41" height="1.59"/><rect class="cls-5" x="39.97" y="178.89" width="11.41" height="1.59"/><rect class="cls-5" x="39.97" y="185.47" width="11.41" height="1.59"/><rect class="cls-5" x="39.97" y="192.04" width="11.41" height="1.59"/><rect class="cls-5" x="39.97" y="198.62" width="11.41" height="1.59"/><rect class="cls-2" x="208.99" y="131.42" width="12.66" height="14.95"/><rect class="cls-4" x="221.64" y="131.42" width="8.03" height="15.5"/><rect class="cls-2" x="222.24" y="138.02" width="7.96" height="8.9"/><rect class="cls-4" x="230.2" y="138.02" width="4.97" height="8.9"/><rect class="cls-1" x="204.13" y="145.4" width="20.47" height="74.38"/><rect class="cls-5" x="206.47" y="148.6" width="6.44" height="2.63"/><rect class="cls-5" x="214.7" y="148.6" width="6.44" height="2.63"/><rect class="cls-5" x="206.47" y="153.06" width="6.44" height="2.63"/><rect class="cls-5" x="214.7" y="153.06" width="6.44" height="2.63"/><rect class="cls-5" x="206.47" y="157.53" width="6.44" height="2.63"/><rect class="cls-5" x="214.7" y="157.53" width="6.44" height="2.63"/><rect class="cls-5" x="206.47" y="161.99" width="6.44" height="2.63"/><rect class="cls-5" x="214.7" y="161.99" width="6.44" height="2.63"/><rect class="cls-5" x="206.47" y="166.46" width="6.44" height="2.63"/><rect class="cls-5" x="214.7" y="166.46" width="6.44" height="2.63"/><rect class="cls-5" x="206.47" y="170.92" width="6.44" height="2.63"/><rect class="cls-5" x="214.7" y="170.92" width="6.44" height="2.63"/><rect class="cls-5" x="206.47" y="175.39" width="6.44" height="2.63"/><rect class="cls-5" x="214.7" y="175.39" width="6.44" height="2.63"/><rect class="cls-5" x="206.47" y="179.85" width="6.44" height="2.63"/><rect class="cls-5" x="214.7" y="179.85" width="6.44" height="2.63"/><rect class="cls-5" x="206.47" y="184.32" width="6.44" height="2.63"/><rect class="cls-5" x="214.7" y="184.32" width="6.44" height="2.63"/><rect class="cls-5" x="206.47" y="188.78" width="6.44" height="2.63"/><rect class="cls-5" x="214.7" y="188.78" width="6.44" height="2.63"/><rect class="cls-5" x="206.47" y="193.25" width="6.44" height="2.63"/><rect class="cls-5" x="214.7" y="193.25" width="6.44" height="2.63"/><rect class="cls-5" x="206.47" y="197.71" width="6.44" height="2.63"/><rect class="cls-5" x="214.7" y="197.71" width="6.44" height="2.63"/><rect class="cls-5" x="206.47" y="202.18" width="6.44" height="2.63"/><rect class="cls-5" x="214.7" y="202.18" width="6.44" height="2.63"/><rect class="cls-5" x="206.47" y="206.64" width="6.44" height="2.63"/><rect class="cls-5" x="214.7" y="206.64" width="6.44" height="2.63"/><rect class="cls-4" x="224.6" y="145.4" width="16.58" height="74.38"/><rect class="cls-1" x="234.24" y="206.64" width="5.28" height="2.63" transform="translate(473.76 415.91) rotate(180)"/><rect class="cls-1" x="227.48" y="206.64" width="5.28" height="2.63" transform="translate(460.24 415.91) rotate(180)"/><rect class="cls-1" x="234.24" y="202.18" width="5.28" height="2.63" transform="translate(473.76 406.98) rotate(180)"/><rect class="cls-1" x="227.48" y="202.18" width="5.28" height="2.63" transform="translate(460.24 406.98) rotate(180)"/><rect class="cls-1" x="234.24" y="197.71" width="5.28" height="2.63" transform="translate(473.76 398.05) rotate(180)"/><rect class="cls-1" x="227.48" y="197.71" width="5.28" height="2.63" transform="translate(460.24 398.05) rotate(180)"/><rect class="cls-1" x="234.24" y="193.25" width="5.28" height="2.63" transform="translate(473.76 389.12) rotate(180)"/><rect class="cls-1" x="227.48" y="193.25" width="5.28" height="2.63" transform="translate(460.24 389.12) rotate(180)"/><rect class="cls-1" x="234.24" y="188.78" width="5.28" height="2.63" transform="translate(473.76 380.19) rotate(180)"/><rect class="cls-1" x="227.48" y="188.78" width="5.28" height="2.63" transform="translate(460.24 380.19) rotate(180)"/><rect class="cls-1" x="234.24" y="184.32" width="5.28" height="2.63" transform="translate(473.76 371.26) rotate(180)"/><rect class="cls-1" x="227.48" y="184.32" width="5.28" height="2.63" transform="translate(460.24 371.26) rotate(180)"/><rect class="cls-1" x="234.24" y="179.85" width="5.28" height="2.63" transform="translate(473.76 362.33) rotate(180)"/><rect class="cls-1" x="227.48" y="179.85" width="5.28" height="2.63" transform="translate(460.24 362.33) rotate(180)"/><rect class="cls-1" x="234.24" y="175.39" width="5.28" height="2.63" transform="translate(473.76 353.41) rotate(180)"/><rect class="cls-1" x="227.48" y="175.39" width="5.28" height="2.63" transform="translate(460.24 353.41) rotate(180)"/><rect class="cls-1" x="234.24" y="170.92" width="5.28" height="2.63" transform="translate(473.76 344.48) rotate(180)"/><rect class="cls-1" x="227.48" y="170.92" width="5.28" height="2.63" transform="translate(460.24 344.48) rotate(180)"/><rect class="cls-1" x="234.24" y="166.46" width="5.28" height="2.63" transform="translate(473.76 335.55) rotate(180)"/><rect class="cls-1" x="227.48" y="166.46" width="5.28" height="2.63" transform="translate(460.24 335.55) rotate(180)"/><rect class="cls-1" x="234.24" y="161.99" width="5.28" height="2.63" transform="translate(473.76 326.62) rotate(180)"/><rect class="cls-1" x="227.48" y="161.99" width="5.28" height="2.63" transform="translate(460.24 326.62) rotate(180)"/><rect class="cls-1" x="234.24" y="157.53" width="5.28" height="2.63" transform="translate(473.76 317.69) rotate(180)"/><rect class="cls-1" x="227.48" y="157.53" width="5.28" height="2.63" transform="translate(460.24 317.69) rotate(180)"/><rect class="cls-1" x="234.24" y="153.06" width="5.28" height="2.63" transform="translate(473.76 308.76) rotate(180)"/><rect class="cls-1" x="227.48" y="153.06" width="5.28" height="2.63" transform="translate(460.24 308.76) rotate(180)"/><rect class="cls-1" x="234.24" y="148.6" width="5.28" height="2.63" transform="translate(473.76 299.83) rotate(180)"/><rect class="cls-1" x="227.48" y="148.6" width="5.28" height="2.63" transform="translate(460.24 299.83) rotate(180)"/><rect class="cls-4" x="126.53" y="171.32" width="24.14" height="48.47"/><rect class="cls-2" x="130.33" y="175.51" width="4.27" height="2.97"/><rect class="cls-2" x="130.33" y="181.85" width="4.27" height="2.97"/><rect class="cls-2" x="130.33" y="188.2" width="4.27" height="2.97"/><rect class="cls-2" x="130.33" y="194.54" width="4.27" height="2.97"/><rect class="cls-2" x="130.33" y="200.88" width="4.27" height="2.97"/><rect class="cls-2" x="130.33" y="207.22" width="4.27" height="2.97"/><rect class="cls-2" x="130.33" y="213.57" width="4.27" height="2.97"/><rect class="cls-2" x="136.47" y="175.51" width="4.27" height="2.97"/><rect class="cls-2" x="136.47" y="181.85" width="4.27" height="2.97"/><rect class="cls-2" x="136.47" y="188.2" width="4.27" height="2.97"/><rect class="cls-2" x="136.47" y="194.54" width="4.27" height="2.97"/><rect class="cls-2" x="136.47" y="200.88" width="4.27" height="2.97"/><rect class="cls-2" x="136.47" y="207.22" width="4.27" height="2.97"/><rect class="cls-2" x="136.47" y="213.57" width="4.27" height="2.97"/><rect class="cls-2" x="142.6" y="175.51" width="4.27" height="2.97"/><rect class="cls-2" x="142.6" y="181.85" width="4.27" height="2.97"/><rect class="cls-2" x="142.6" y="188.2" width="4.27" height="2.97"/><rect class="cls-2" x="142.6" y="194.54" width="4.27" height="2.97"/><rect class="cls-2" x="142.6" y="200.88" width="4.27" height="2.97"/><rect class="cls-2" x="142.6" y="207.22" width="4.27" height="2.97"/><rect class="cls-2" x="142.6" y="213.57" width="4.27" height="2.97"/><rect class="cls-2" x="134.6" y="166.27" width="16.07" height="5.05"/><rect class="cls-1" x="140.48" y="163.14" width="10.19" height="3.13"/><rect class="cls-3" x="150.67" y="171.32" width="16.94" height="48.47"/><rect class="cls-4" x="162.4" y="213.09" width="3.48" height="2.97" transform="translate(328.27 429.16) rotate(180)"/><rect class="cls-4" x="162.4" y="206.75" width="3.48" height="2.97" transform="translate(328.27 416.47) rotate(180)"/><rect class="cls-4" x="162.4" y="200.41" width="3.48" height="2.97" transform="translate(328.27 403.79) rotate(180)"/><rect class="cls-4" x="162.4" y="194.07" width="3.48" height="2.97" transform="translate(328.27 391.1) rotate(180)"/><rect class="cls-4" x="162.4" y="187.72" width="3.48" height="2.97" transform="translate(328.27 378.42) rotate(180)"/><rect class="cls-4" x="162.4" y="181.38" width="3.48" height="2.97" transform="translate(328.27 365.73) rotate(180)"/><rect class="cls-4" x="162.4" y="175.04" width="3.48" height="2.97" transform="translate(328.27 353.05) rotate(180)"/><rect class="cls-4" x="157.4" y="213.09" width="3.48" height="2.97" transform="translate(318.27 429.16) rotate(180)"/><rect class="cls-4" x="157.4" y="206.75" width="3.48" height="2.97" transform="translate(318.27 416.47) rotate(180)"/><rect class="cls-4" x="157.4" y="200.41" width="3.48" height="2.97" transform="translate(318.27 403.79) rotate(180)"/><rect class="cls-4" x="157.4" y="194.07" width="3.48" height="2.97" transform="translate(318.27 391.1) rotate(180)"/><rect class="cls-4" x="157.4" y="187.72" width="3.48" height="2.97" transform="translate(318.27 378.42) rotate(180)"/><rect class="cls-4" x="157.4" y="181.38" width="3.48" height="2.97" transform="translate(318.27 365.73) rotate(180)"/><rect class="cls-4" x="157.4" y="175.04" width="3.48" height="2.97" transform="translate(318.27 353.05) rotate(180)"/><rect class="cls-4" x="152.41" y="213.09" width="3.48" height="2.97" transform="translate(308.29 429.16) rotate(180)"/><rect class="cls-4" x="152.41" y="206.75" width="3.48" height="2.97" transform="translate(308.29 416.47) rotate(180)"/><rect class="cls-4" x="152.41" y="200.41" width="3.48" height="2.97" transform="translate(308.29 403.79) rotate(180)"/><rect class="cls-4" x="152.41" y="194.07" width="3.48" height="2.97" transform="translate(308.29 391.1) rotate(180)"/><rect class="cls-4" x="152.41" y="187.72" width="3.48" height="2.97" transform="translate(308.29 378.42) rotate(180)"/><rect class="cls-4" x="152.41" y="181.38" width="3.48" height="2.97" transform="translate(308.29 365.73) rotate(180)"/><rect class="cls-4" x="152.41" y="175.04" width="3.48" height="2.97" transform="translate(308.29 353.05) rotate(180)"/><rect class="cls-4" x="150.67" y="166.27" width="14.37" height="5.05"/><rect class="cls-2" x="150.67" y="163.14" width="7.79" height="3.13"/><rect class="cls-6" x="177.85" y="103.75" width="36.48" height="112.02"/><rect class="cls-7" x="186.89" y="92.48" width="27.3" height="11.27"/><rect class="cls-6" x="189.17" y="94.22" width="2.33" height="7.79"/><rect class="cls-6" x="193.25" y="94.22" width="2.33" height="7.79"/><rect class="cls-6" x="197.33" y="94.22" width="2.33" height="7.79"/><rect class="cls-6" x="201.42" y="94.22" width="2.33" height="7.79"/><rect class="cls-6" x="205.5" y="94.22" width="2.33" height="7.79"/><rect class="cls-6" x="209.59" y="94.22" width="2.33" height="7.79"/><rect class="cls-6" x="214.19" y="92.48" width="12.41" height="11.27"/><rect class="cls-7" x="215.93" y="94.22" width="1.99" height="7.79"/><rect class="cls-7" x="219.41" y="94.22" width="1.99" height="7.79"/><rect class="cls-7" x="222.88" y="94.22" width="1.99" height="7.79"/><rect class="cls-7" x="214.19" y="103.75" width="18.57" height="112.02"/><rect class="cls-8" x="192.07" y="86.77" width="0.84" height="5.71"/><rect class="cls-8" x="208.18" y="86.77" width="0.84" height="5.71"/><rect class="cls-9" x="188.37" y="76.79" width="24.34" height="9.98"/><rect class="cls-8" x="185.31" y="111.46" width="6.73" height="10.31"/><rect class="cls-8" x="199.02" y="111.46" width="6.73" height="10.31"/><rect class="cls-8" x="185.31" y="127.71" width="6.73" height="10.31"/><rect class="cls-8" x="199.02" y="127.71" width="6.73" height="10.31"/><rect class="cls-8" x="185.31" y="143.96" width="6.73" height="10.31"/><rect class="cls-8" x="199.02" y="143.96" width="6.73" height="10.31"/><rect class="cls-8" x="185.31" y="160.21" width="6.73" height="10.31"/><rect class="cls-8" x="199.02" y="160.21" width="6.73" height="10.31"/><rect class="cls-8" x="185.31" y="176.46" width="6.73" height="10.31"/><rect class="cls-8" x="199.02" y="176.46" width="6.73" height="10.31"/><rect class="cls-8" x="185.31" y="192.71" width="6.73" height="10.31"/><rect class="cls-8" x="199.02" y="192.71" width="6.73" height="10.31"/><rect class="cls-8" x="217.6" y="111.46" width="3.87" height="10.31"/><rect class="cls-8" x="225.48" y="111.46" width="3.87" height="10.31"/><rect class="cls-8" x="217.6" y="127.71" width="3.87" height="10.31"/><rect class="cls-8" x="225.48" y="127.71" width="3.87" height="10.31"/><rect class="cls-8" x="217.6" y="143.96" width="3.87" height="10.31"/><rect class="cls-8" x="225.48" y="143.96" width="3.87" height="10.31"/><rect class="cls-8" x="217.6" y="160.21" width="3.87" height="10.31"/><rect class="cls-8" x="225.48" y="160.21" width="3.87" height="10.31"/><rect class="cls-8" x="217.6" y="176.46" width="3.87" height="10.31"/><rect class="cls-8" x="225.48" y="176.46" width="3.87" height="10.31"/><rect class="cls-8" x="217.6" y="192.71" width="3.87" height="10.31"/><rect class="cls-8" x="225.48" y="192.71" width="3.87" height="10.31"/><rect class="cls-7" x="98.14" y="72.06" width="19.51" height="143.71"/><rect class="cls-6" x="98.14" y="80.11" width="19.51" height="1.51"/><rect class="cls-8" x="100.15" y="86.06" width="3.59" height="8.4"/><rect class="cls-8" x="100.15" y="96.66" width="3.59" height="8.4"/><rect class="cls-8" x="100.15" y="107.26" width="3.59" height="8.4"/><rect class="cls-8" x="100.15" y="117.86" width="3.59" height="8.4"/><rect class="cls-8" x="100.15" y="128.46" width="3.59" height="8.4"/><rect class="cls-8" x="100.15" y="139.06" width="3.59" height="8.4"/><rect class="cls-8" x="100.15" y="149.66" width="3.59" height="8.4"/><rect class="cls-8" x="100.15" y="160.26" width="3.59" height="8.4"/><rect class="cls-8" x="100.15" y="170.86" width="3.59" height="8.4"/><rect class="cls-8" x="100.15" y="181.46" width="3.59" height="8.4"/><rect class="cls-8" x="100.15" y="192.06" width="3.59" height="8.4"/><rect class="cls-8" x="100.15" y="202.66" width="3.59" height="8.4"/><rect class="cls-8" x="100.15" y="86.06" width="3.59" height="8.4"/><rect class="cls-8" x="100.15" y="96.66" width="3.59" height="8.4"/><rect class="cls-8" x="100.15" y="107.26" width="3.59" height="8.4"/><rect class="cls-8" x="100.15" y="117.86" width="3.59" height="8.4"/><rect class="cls-8" x="100.15" y="128.46" width="3.59" height="8.4"/><rect class="cls-8" x="100.15" y="139.06" width="3.59" height="8.4"/><rect class="cls-8" x="100.15" y="149.66" width="3.59" height="8.4"/><rect class="cls-8" x="100.15" y="160.26" width="3.59" height="8.4"/><rect class="cls-8" x="100.15" y="170.86" width="3.59" height="8.4"/><rect class="cls-8" x="100.15" y="181.46" width="3.59" height="8.4"/><rect class="cls-8" x="100.15" y="192.06" width="3.59" height="8.4"/><rect class="cls-8" x="100.15" y="202.66" width="3.59" height="8.4"/><rect class="cls-8" x="106.1" y="86.06" width="3.59" height="8.4"/><rect class="cls-8" x="106.1" y="96.66" width="3.59" height="8.4"/><rect class="cls-8" x="106.1" y="107.26" width="3.59" height="8.4"/><rect class="cls-8" x="106.1" y="117.86" width="3.59" height="8.4"/><rect class="cls-8" x="106.1" y="128.46" width="3.59" height="8.4"/><rect class="cls-8" x="106.1" y="139.06" width="3.59" height="8.4"/><rect class="cls-8" x="106.1" y="149.66" width="3.59" height="8.4"/><rect class="cls-8" x="106.1" y="160.26" width="3.59" height="8.4"/><rect class="cls-8" x="106.1" y="170.86" width="3.59" height="8.4"/><rect class="cls-8" x="106.1" y="181.46" width="3.59" height="8.4"/><rect class="cls-8" x="106.1" y="192.06" width="3.59" height="8.4"/><rect class="cls-8" x="106.1" y="202.66" width="3.59" height="8.4"/><rect class="cls-8" x="106.1" y="86.06" width="3.59" height="8.4"/><rect class="cls-8" x="106.1" y="96.66" width="3.59" height="8.4"/><rect class="cls-8" x="106.1" y="107.26" width="3.59" height="8.4"/><rect class="cls-8" x="106.1" y="117.86" width="3.59" height="8.4"/><rect class="cls-8" x="106.1" y="128.46" width="3.59" height="8.4"/><rect class="cls-8" x="106.1" y="139.06" width="3.59" height="8.4"/><rect class="cls-8" x="106.1" y="149.66" width="3.59" height="8.4"/><rect class="cls-8" x="106.1" y="160.26" width="3.59" height="8.4"/><rect class="cls-8" x="106.1" y="170.86" width="3.59" height="8.4"/><rect class="cls-8" x="106.1" y="181.46" width="3.59" height="8.4"/><rect class="cls-8" x="106.1" y="192.06" width="3.59" height="8.4"/><rect class="cls-8" x="106.1" y="202.66" width="3.59" height="8.4"/><rect class="cls-8" x="112.05" y="86.06" width="3.59" height="8.4"/><rect class="cls-8" x="112.05" y="96.66" width="3.59" height="8.4"/><rect class="cls-8" x="112.05" y="107.26" width="3.59" height="8.4"/><rect class="cls-8" x="112.05" y="117.86" width="3.59" height="8.4"/><rect class="cls-8" x="112.05" y="128.46" width="3.59" height="8.4"/><rect class="cls-8" x="112.05" y="139.06" width="3.59" height="8.4"/><rect class="cls-8" x="112.05" y="149.66" width="3.59" height="8.4"/><rect class="cls-8" x="112.05" y="160.26" width="3.59" height="8.4"/><rect class="cls-8" x="112.05" y="170.86" width="3.59" height="8.4"/><rect class="cls-8" x="112.05" y="181.46" width="3.59" height="8.4"/><rect class="cls-8" x="112.05" y="192.06" width="3.59" height="8.4"/><rect class="cls-8" x="112.05" y="202.66" width="3.59" height="8.4"/><rect class="cls-8" x="112.05" y="86.06" width="3.59" height="8.4"/><rect class="cls-8" x="112.05" y="96.66" width="3.59" height="8.4"/><rect class="cls-8" x="112.05" y="107.26" width="3.59" height="8.4"/><rect class="cls-8" x="112.05" y="117.86" width="3.59" height="8.4"/><rect class="cls-8" x="112.05" y="128.46" width="3.59" height="8.4"/><rect class="cls-8" x="112.05" y="139.06" width="3.59" height="8.4"/><rect class="cls-8" x="112.05" y="149.66" width="3.59" height="8.4"/><rect class="cls-8" x="112.05" y="160.26" width="3.59" height="8.4"/><rect class="cls-8" x="112.05" y="170.86" width="3.59" height="8.4"/><rect class="cls-8" x="112.05" y="181.46" width="3.59" height="8.4"/><rect class="cls-8" x="112.05" y="192.06" width="3.59" height="8.4"/><rect class="cls-8" x="112.05" y="202.66" width="3.59" height="8.4"/><rect class="cls-6" x="64.78" y="72.06" width="33.36" height="143.71"/><rect class="cls-7" x="64.78" y="80.11" width="33.36" height="1.51"/><rect class="cls-7" x="76.67" y="63.99" width="21.47" height="8.07"/><rect class="cls-8" x="98.14" y="63.99" width="10.09" height="8.07" transform="translate(206.36 136.05) rotate(180)"/><rect class="cls-8" x="68.35" y="86.06" width="5.83" height="8.4"/><rect class="cls-8" x="68.35" y="96.66" width="5.83" height="8.4"/><rect class="cls-8" x="68.35" y="107.26" width="5.83" height="8.4"/><rect class="cls-8" x="68.35" y="117.86" width="5.83" height="8.4"/><rect class="cls-8" x="68.35" y="128.46" width="5.83" height="8.4"/><rect class="cls-8" x="68.35" y="139.06" width="5.83" height="8.4"/><rect class="cls-8" x="68.35" y="149.66" width="5.83" height="8.4"/><rect class="cls-8" x="68.35" y="160.26" width="5.83" height="8.4"/><rect class="cls-8" x="68.35" y="170.86" width="5.83" height="8.4"/><rect class="cls-8" x="68.35" y="181.46" width="5.83" height="8.4"/><rect class="cls-8" x="68.35" y="192.06" width="5.83" height="8.4"/><rect class="cls-8" x="68.35" y="202.66" width="5.83" height="8.4"/><rect class="cls-8" x="68.35" y="86.06" width="5.83" height="8.4"/><rect class="cls-8" x="68.35" y="96.66" width="5.83" height="8.4"/><rect class="cls-8" x="68.35" y="107.26" width="5.83" height="8.4"/><rect class="cls-8" x="68.35" y="117.86" width="5.83" height="8.4"/><rect class="cls-8" x="68.35" y="128.46" width="5.83" height="8.4"/><rect class="cls-8" x="68.35" y="139.06" width="5.83" height="8.4"/><rect class="cls-8" x="68.35" y="149.66" width="5.83" height="8.4"/><rect class="cls-8" x="68.35" y="160.26" width="5.83" height="8.4"/><rect class="cls-8" x="68.35" y="170.86" width="5.83" height="8.4"/><rect class="cls-8" x="68.35" y="181.46" width="5.83" height="8.4"/><rect class="cls-8" x="68.35" y="192.06" width="5.83" height="8.4"/><rect class="cls-8" x="68.35" y="202.66" width="5.83" height="8.4"/><rect class="cls-8" x="78.01" y="86.06" width="5.83" height="8.4"/><rect class="cls-8" x="78.01" y="96.66" width="5.83" height="8.4"/><rect class="cls-8" x="78.01" y="107.26" width="5.83" height="8.4"/><rect class="cls-8" x="78.01" y="117.86" width="5.83" height="8.4"/><rect class="cls-8" x="78.01" y="128.46" width="5.83" height="8.4"/><rect class="cls-8" x="78.01" y="139.06" width="5.83" height="8.4"/><rect class="cls-8" x="78.01" y="149.66" width="5.83" height="8.4"/><rect class="cls-8" x="78.01" y="160.26" width="5.83" height="8.4"/><rect class="cls-8" x="78.01" y="170.86" width="5.83" height="8.4"/><rect class="cls-8" x="78.01" y="181.46" width="5.83" height="8.4"/><rect class="cls-8" x="78.01" y="192.06" width="5.83" height="8.4"/><rect class="cls-8" x="78.01" y="202.66" width="5.83" height="8.4"/><rect class="cls-8" x="78.01" y="86.06" width="5.83" height="8.4"/><rect class="cls-8" x="78.01" y="96.66" width="5.83" height="8.4"/><rect class="cls-8" x="78.01" y="107.26" width="5.83" height="8.4"/><rect class="cls-8" x="78.01" y="117.86" width="5.83" height="8.4"/><rect class="cls-8" x="78.01" y="128.46" width="5.83" height="8.4"/><rect class="cls-8" x="78.01" y="139.06" width="5.83" height="8.4"/><rect class="cls-8" x="78.01" y="149.66" width="5.83" height="8.4"/><rect class="cls-8" x="78.01" y="160.26" width="5.83" height="8.4"/><rect class="cls-8" x="78.01" y="170.86" width="5.83" height="8.4"/><rect class="cls-8" x="78.01" y="181.46" width="5.83" height="8.4"/><rect class="cls-8" x="78.01" y="192.06" width="5.83" height="8.4"/><rect class="cls-8" x="78.01" y="202.66" width="5.83" height="8.4"/><rect class="cls-8" x="87.67" y="86.06" width="5.83" height="8.4"/><rect class="cls-8" x="87.67" y="96.66" width="5.83" height="8.4"/><rect class="cls-8" x="87.67" y="107.26" width="5.83" height="8.4"/><rect class="cls-8" x="87.67" y="117.86" width="5.83" height="8.4"/><rect class="cls-8" x="87.67" y="128.46" width="5.83" height="8.4"/><rect class="cls-8" x="87.67" y="139.06" width="5.83" height="8.4"/><rect class="cls-8" x="87.67" y="149.66" width="5.83" height="8.4"/><rect class="cls-8" x="87.67" y="160.26" width="5.83" height="8.4"/><rect class="cls-8" x="87.67" y="170.86" width="5.83" height="8.4"/><rect class="cls-8" x="87.67" y="181.46" width="5.83" height="8.4"/><rect class="cls-8" x="87.67" y="192.06" width="5.83" height="8.4"/><rect class="cls-8" x="87.67" y="202.66" width="5.83" height="8.4"/><rect class="cls-8" x="87.67" y="86.06" width="5.83" height="8.4"/><rect class="cls-8" x="87.67" y="96.66" width="5.83" height="8.4"/><rect class="cls-8" x="87.67" y="107.26" width="5.83" height="8.4"/><rect class="cls-8" x="87.67" y="117.86" width="5.83" height="8.4"/><rect class="cls-8" x="87.67" y="128.46" width="5.83" height="8.4"/><rect class="cls-8" x="87.67" y="139.06" width="5.83" height="8.4"/><rect class="cls-8" x="87.67" y="149.66" width="5.83" height="8.4"/><rect class="cls-8" x="87.67" y="160.26" width="5.83" height="8.4"/><rect class="cls-8" x="87.67" y="170.86" width="5.83" height="8.4"/><rect class="cls-8" x="87.67" y="181.46" width="5.83" height="8.4"/><rect class="cls-8" x="87.67" y="192.06" width="5.83" height="8.4"/><rect class="cls-8" x="87.67" y="202.66" width="5.83" height="8.4"/><polygon class="cls-9" points="52.12 215.77 25.67 215.77 25.67 132.81 52.12 115.67 52.12 215.77"/><polygon class="cls-10" points="48.72 215.77 28.65 215.77 28.65 135.13 48.72 122.12 48.72 215.77"/><polygon class="cls-11" points="48.72 215.77 28.65 215.77 28.65 135.13 48.72 122.12 48.72 215.77"/><g class="cls-12"><rect x="30.95" y="136.52" width="17.77" height="0.64"/><rect x="30.95" y="141.76" width="17.77" height="0.64"/><rect x="30.95" y="147" width="17.77" height="0.64"/><rect x="30.95" y="152.24" width="17.77" height="0.64"/><rect x="30.95" y="157.48" width="17.77" height="0.64"/><rect x="30.95" y="162.72" width="17.77" height="0.64"/><rect x="30.95" y="167.96" width="17.77" height="0.64"/><rect x="30.95" y="173.2" width="17.77" height="0.64"/><rect x="30.95" y="178.44" width="17.77" height="0.64"/><rect x="30.95" y="183.69" width="17.77" height="0.64"/><rect x="30.95" y="188.93" width="17.77" height="0.64"/><rect x="30.95" y="194.17" width="17.77" height="0.64"/><rect x="30.95" y="199.41" width="17.77" height="0.64"/><rect x="30.95" y="204.65" width="17.77" height="0.64"/><rect x="30.95" y="209.89" width="17.77" height="0.64"/><rect x="30.95" y="215.13" width="17.77" height="0.64"/><rect x="-2.83" y="172.78" width="85.33" height="0.64" transform="translate(-133.27 212.93) rotate(-90)"/></g><polygon class="cls-10" points="48.72 122.12 48.72 125 30.95 136.52 30.95 215.77 28.65 215.77 28.65 135.12 48.72 122.12"/><polygon class="cls-13" points="48.72 122.12 48.72 125 30.95 136.52 30.95 215.77 28.65 215.77 28.65 135.12 48.72 122.12"/><rect class="cls-10" x="52.12" y="115.67" width="23.3" height="100.1"/><rect class="cls-9" x="52.12" y="115.67" width="23.3" height="100.1"/><g class="cls-14"><rect x="54.38" y="122.12" width="18.78" height="2.27"/><rect x="54.38" y="127.25" width="18.78" height="2.27"/><rect x="54.38" y="132.38" width="18.78" height="2.27"/><rect x="54.38" y="137.52" width="18.78" height="2.27"/><rect x="54.38" y="142.65" width="18.78" height="2.27"/><rect x="54.38" y="147.78" width="18.78" height="2.27"/><rect x="54.38" y="152.92" width="18.78" height="2.27"/><rect x="54.38" y="158.05" width="18.78" height="2.27"/><rect x="54.38" y="163.18" width="18.78" height="2.27"/><rect x="54.38" y="168.32" width="18.78" height="2.27"/><rect x="54.38" y="173.45" width="18.78" height="2.27"/><rect x="54.38" y="178.58" width="18.78" height="2.27"/><rect x="54.38" y="183.72" width="18.78" height="2.27"/><rect x="54.38" y="188.85" width="18.78" height="2.27"/><rect x="54.38" y="193.99" width="18.78" height="2.27"/><rect x="54.38" y="199.12" width="18.78" height="2.27"/><rect x="54.38" y="204.25" width="18.78" height="2.27"/><rect x="54.38" y="209.39" width="18.78" height="2.27"/></g><rect class="cls-10" x="150.79" y="109.78" width="20.96" height="105.99"/><rect class="cls-15" x="150.79" y="109.78" width="20.96" height="105.99"/><rect class="cls-9" x="150.79" y="106.31" width="22.22" height="3.47" transform="translate(323.8 216.09) rotate(180)"/><rect class="cls-10" x="150.79" y="100.88" width="18.84" height="5.42" transform="translate(320.42 207.19) rotate(180)"/><rect class="cls-16" x="150.79" y="100.88" width="18.84" height="5.42" transform="translate(320.42 207.19) rotate(180)"/><rect class="cls-10" x="150.79" y="88.92" width="14.41" height="11.96" transform="translate(315.99 189.81) rotate(180)"/><rect class="cls-17" x="150.79" y="88.92" width="14.41" height="11.96" transform="translate(315.99 189.81) rotate(180)"/><g class="cls-12"><rect x="152.8" y="113.8" width="2.84" height="11.15"/></g><g class="cls-12"><rect x="152.8" y="128.98" width="2.84" height="11.15"/></g><g class="cls-12"><rect x="152.8" y="144.17" width="2.84" height="11.15"/></g><g class="cls-12"><rect x="152.8" y="159.36" width="2.84" height="11.15"/></g><g class="cls-12"><rect x="152.8" y="174.55" width="2.84" height="11.15"/></g><g class="cls-12"><rect x="152.8" y="189.73" width="2.84" height="11.15"/></g><g class="cls-12"><rect x="157.5" y="113.8" width="2.84" height="11.15"/></g><g class="cls-12"><rect x="157.5" y="128.98" width="2.84" height="11.15"/></g><g class="cls-12"><rect x="157.5" y="144.17" width="2.84" height="11.15"/></g><g class="cls-12"><rect x="157.5" y="159.36" width="2.84" height="11.15"/></g><g class="cls-12"><rect x="157.5" y="174.55" width="2.84" height="11.15"/></g><g class="cls-12"><rect x="157.5" y="189.73" width="2.84" height="11.15"/></g><g class="cls-12"><rect x="162.2" y="113.8" width="2.84" height="11.15"/></g><g class="cls-12"><rect x="162.2" y="128.98" width="2.84" height="11.15"/></g><g class="cls-12"><rect x="162.2" y="144.17" width="2.84" height="11.15"/></g><g class="cls-12"><rect x="162.2" y="159.36" width="2.84" height="11.15"/></g><g class="cls-12"><rect x="162.2" y="174.55" width="2.84" height="11.15"/></g><g class="cls-12"><rect x="162.2" y="189.73" width="2.84" height="11.15"/></g><g class="cls-12"><rect x="166.9" y="113.8" width="2.84" height="11.15"/></g><g class="cls-12"><rect x="166.9" y="128.98" width="2.84" height="11.15"/></g><g class="cls-12"><rect x="166.9" y="144.17" width="2.84" height="11.15"/></g><g class="cls-12"><rect x="166.9" y="159.36" width="2.84" height="11.15"/></g><g class="cls-12"><rect x="166.9" y="174.55" width="2.84" height="11.15"/></g><g class="cls-12"><rect x="166.9" y="189.73" width="2.84" height="11.15"/></g><rect class="cls-9" x="107.82" y="109.78" width="42.97" height="105.99"/><rect class="cls-9" x="109.88" y="100.88" width="40.91" height="5.42"/><rect class="cls-10" x="120.01" y="88.92" width="30.79" height="11.96"/><rect class="cls-16" x="120.01" y="88.92" width="30.79" height="11.96"/><rect class="cls-10" x="106.53" y="106.31" width="44.26" height="3.47"/><rect class="cls-9" x="106.53" y="106.31" width="44.26" height="3.47"/><g class="cls-12"><rect x="111.93" y="113.8" width="5.83" height="11.15"/></g><g class="cls-12"><rect x="111.93" y="128.98" width="5.83" height="11.15"/></g><g class="cls-12"><rect x="111.93" y="144.17" width="5.83" height="11.15"/></g><g class="cls-12"><rect x="111.93" y="159.36" width="5.83" height="11.15"/></g><g class="cls-12"><rect x="111.93" y="174.55" width="5.83" height="11.15"/></g><g class="cls-12"><rect x="111.93" y="189.73" width="5.83" height="11.15"/></g><g class="cls-12"><rect x="121.57" y="113.8" width="5.83" height="11.15"/></g><g class="cls-12"><rect x="121.57" y="128.98" width="5.83" height="11.15"/></g><g class="cls-12"><rect x="121.57" y="144.17" width="5.83" height="11.15"/></g><g class="cls-12"><rect x="121.57" y="159.36" width="5.83" height="11.15"/></g><g class="cls-12"><rect x="121.57" y="174.55" width="5.83" height="11.15"/></g><g class="cls-12"><rect x="121.57" y="189.73" width="5.83" height="11.15"/></g><g class="cls-12"><rect x="131.21" y="113.8" width="5.83" height="11.15"/></g><g class="cls-12"><rect x="131.21" y="128.98" width="5.83" height="11.15"/></g><g class="cls-12"><rect x="131.21" y="144.17" width="5.83" height="11.15"/></g><g class="cls-12"><rect x="131.21" y="159.36" width="5.83" height="11.15"/></g><g class="cls-12"><rect x="131.21" y="174.55" width="5.83" height="11.15"/></g><g class="cls-12"><rect x="131.21" y="189.73" width="5.83" height="11.15"/></g><g class="cls-12"><rect x="140.85" y="113.8" width="5.83" height="11.15"/></g><g class="cls-12"><rect x="140.85" y="128.98" width="5.83" height="11.15"/></g><g class="cls-12"><rect x="140.85" y="144.17" width="5.83" height="11.15"/></g><g class="cls-12"><rect x="140.85" y="159.36" width="5.83" height="11.15"/></g><g class="cls-12"><rect x="140.85" y="174.55" width="5.83" height="11.15"/></g><g class="cls-12"><rect x="140.85" y="189.73" width="5.83" height="11.15"/></g><rect class="cls-17" x="121.57" y="205.26" width="15.47" height="10.5"/><rect class="cls-10" x="193.8" y="155.33" width="20.96" height="60.44"/><rect class="cls-18" x="193.8" y="155.33" width="20.96" height="60.44"/><rect class="cls-9" x="193.8" y="151.86" width="22.22" height="3.47" transform="translate(409.82 307.19) rotate(180)"/><rect class="cls-10" x="193.8" y="146.21" width="21.37" height="5.42" transform="translate(408.97 297.83) rotate(180)"/><rect class="cls-19" x="193.8" y="146.21" width="21.37" height="5.42" transform="translate(408.97 297.83) rotate(180)"/><g class="cls-12"><rect x="195.81" y="159.35" width="2.84" height="11.15"/></g><g class="cls-12"><rect x="195.81" y="174.53" width="2.84" height="11.15"/></g><g class="cls-12"><rect x="195.81" y="189.72" width="2.84" height="11.15"/></g><g class="cls-12"><rect x="200.51" y="159.35" width="2.84" height="11.15"/></g><g class="cls-12"><rect x="200.51" y="174.53" width="2.84" height="11.15"/></g><g class="cls-12"><rect x="200.51" y="189.72" width="2.84" height="11.15"/></g><g class="cls-12"><rect x="205.21" y="159.35" width="2.84" height="11.15"/></g><g class="cls-12"><rect x="205.21" y="174.53" width="2.84" height="11.15"/></g><g class="cls-12"><rect x="205.21" y="189.72" width="2.84" height="11.15"/></g><g class="cls-12"><rect x="209.91" y="159.35" width="2.84" height="11.15"/></g><g class="cls-12"><rect x="209.91" y="174.53" width="2.84" height="11.15"/></g><g class="cls-12"><rect x="209.91" y="189.72" width="2.84" height="11.15"/></g><rect class="cls-9" x="150.83" y="155.33" width="42.97" height="60.44"/><rect class="cls-9" x="152.89" y="146.43" width="40.91" height="5.42"/><rect class="cls-10" x="149.54" y="151.86" width="44.26" height="3.47"/><rect class="cls-20" x="149.54" y="151.86" width="44.26" height="3.47"/><g class="cls-12"><rect x="154.94" y="159.35" width="5.83" height="11.15"/></g><g class="cls-12"><rect x="154.94" y="174.53" width="5.83" height="11.15"/></g><g class="cls-12"><rect x="154.94" y="189.72" width="5.83" height="11.15"/></g><g class="cls-12"><rect x="164.58" y="159.35" width="5.83" height="11.15"/></g><g class="cls-12"><rect x="164.58" y="174.53" width="5.83" height="11.15"/></g><g class="cls-12"><rect x="164.58" y="189.72" width="5.83" height="11.15"/></g><g class="cls-12"><rect x="174.22" y="159.35" width="5.83" height="11.15"/></g><g class="cls-12"><rect x="174.22" y="174.53" width="5.83" height="11.15"/></g><g class="cls-12"><rect x="174.22" y="189.72" width="5.83" height="11.15"/></g><g class="cls-12"><rect x="183.86" y="159.35" width="5.83" height="11.15"/></g><g class="cls-12"><rect x="183.86" y="174.53" width="5.83" height="11.15"/></g><g class="cls-12"><rect x="183.86" y="189.72" width="5.83" height="11.15"/></g><path class="cls-8" d="M177,69.92a7,7,0,0,0-.89-.38,3.64,3.64,0,0,0-1-.22,1.13,1.13,0,0,0-.3,0l-.09.05a.13.13,0,0,0-.06,0l-.11.08c-.13.12-.24.24-.35.36s-.41.5-.6.76l.24-.08a5.63,5.63,0,0,0-1-.21,4.21,4.21,0,0,0-.51,0l-.28,0-.14,0a.51.51,0,0,0-.15.07,1.73,1.73,0,0,0-.39.37,3.81,3.81,0,0,0-.29.41,8.21,8.21,0,0,0-.46.88l.63-.75a3.64,3.64,0,0,1,.34-.34,1.34,1.34,0,0,1,.34-.27.78.78,0,0,1,.39,0l.46.06c.31.06.62.13.93.22l.15,0,.09-.13c.17-.25.37-.5.56-.74s.19-.24.29-.35l.08-.07,0,0h0a.58.58,0,0,1,.17,0,4.92,4.92,0,0,1,.91.09Z"/><path class="cls-8" d="M173.54,79.33a12,12,0,0,0-1.19-.82A5.62,5.62,0,0,0,171,77.9a1.06,1.06,0,0,0-.45,0l-.14,0-.1,0-.18.09c-.22.13-.42.28-.62.42-.39.3-.75.61-1.11.94l.38-.05a10.53,10.53,0,0,0-1.39-.59,5.9,5.9,0,0,0-.75-.21l-.4,0a1.77,1.77,0,0,0-.23,0,2.1,2.1,0,0,0-.24.06,2.35,2.35,0,0,0-.68.44c-.19.16-.37.34-.55.52a10.38,10.38,0,0,0-.93,1.15c.39-.31.76-.62,1.15-.91a5.68,5.68,0,0,1,.59-.41,2.53,2.53,0,0,1,.59-.3,1.39,1.39,0,0,1,.58.06,6.35,6.35,0,0,1,.65.23c.44.17.88.37,1.31.58l.21.11.16-.16c.34-.32.69-.64,1-.93a5.13,5.13,0,0,1,.53-.42l.13-.08.06,0h0a1.11,1.11,0,0,1,.26,0,7,7,0,0,1,1.31.4C172.65,79,173.09,79.15,173.54,79.33Z"/><path class="cls-8" d="M77.21,57.56A7.46,7.46,0,0,0,76.4,57a3.77,3.77,0,0,0-.92-.37.7.7,0,0,0-.3,0l-.09,0-.07,0-.12.07c-.14.09-.27.19-.4.29s-.49.43-.72.65l.25,0a7.64,7.64,0,0,0-.94-.37c-.16,0-.33-.09-.5-.12l-.27,0a.43.43,0,0,0-.16,0l-.15,0a2,2,0,0,0-.45.31,4,4,0,0,0-.35.36,6.57,6.57,0,0,0-.6.79l.75-.63a2.55,2.55,0,0,1,.38-.29,1.67,1.67,0,0,1,.39-.21.89.89,0,0,1,.39,0l.44.14c.3.11.59.23.88.37l.14.06.11-.11c.22-.22.45-.44.68-.64a2.34,2.34,0,0,1,.35-.29L75.2,57l0,0h.19a5,5,0,0,1,.88.24Z"/><path class="cls-8" d="M85.1,56.29a9.8,9.8,0,0,0-.9-1.14,5.56,5.56,0,0,0-1.11-1,1,1,0,0,0-.41-.17h-.16l-.11,0a1.08,1.08,0,0,0-.19,0c-.25.06-.49.14-.72.22-.46.17-.9.36-1.34.57l.38.06a11.9,11.9,0,0,0-1.15-1,5.47,5.47,0,0,0-.65-.41,1.63,1.63,0,0,0-.38-.17,1.16,1.16,0,0,0-.22-.06,1.79,1.79,0,0,0-.24,0,2.63,2.63,0,0,0-.78.22,7.13,7.13,0,0,0-.68.33,10.19,10.19,0,0,0-1.23.83c.46-.18.91-.37,1.37-.53.23-.08.45-.16.68-.22a2.76,2.76,0,0,1,.65-.11,1.4,1.4,0,0,1,.54.23,6.64,6.64,0,0,1,.56.41c.36.3.73.62,1.07,1l.17.16.2-.1c.42-.21.85-.4,1.27-.58a6.34,6.34,0,0,1,.64-.24l.15,0,.07,0h0a.83.83,0,0,1,.24.08,7.14,7.14,0,0,1,1.14.77Q84.55,55.83,85.1,56.29Z"/><path class="cls-8" d="M184.79,77a10.78,10.78,0,0,0-.89-1.13,5.57,5.57,0,0,0-1.11-1,1.66,1.66,0,0,0-.42-.17h-.15l-.11,0-.2,0a5.46,5.46,0,0,0-.72.21c-.46.17-.89.37-1.34.57l.38.06a13.51,13.51,0,0,0-1.15-1,7.14,7.14,0,0,0-.65-.41,3.34,3.34,0,0,0-.38-.17,1.29,1.29,0,0,0-.21-.06h-.25a2.36,2.36,0,0,0-.78.21c-.23.1-.46.21-.68.33a10.19,10.19,0,0,0-1.23.83c.46-.18.91-.37,1.37-.53.23-.08.46-.16.68-.22a2.71,2.71,0,0,1,.65-.1,1.31,1.31,0,0,1,.54.22c.19.12.38.27.56.41.37.3.73.63,1.07,1l.17.16.2-.1c.42-.21.85-.4,1.28-.58a6.19,6.19,0,0,1,.63-.24l.15,0h.07s0,0,0,0a.75.75,0,0,1,.24.07,6.72,6.72,0,0,1,1.14.77C184.05,76.41,184.42,76.72,184.79,77Z"/><path class="cls-7" d="M38.38,215.77s-.47-2.17-1.39-2.51a1.33,1.33,0,0,0-1.5.64s-.22-2.07-1.54-2.69a2,2,0,0,0-2.3.65s-1-2.64-2.82-2.64-2.72,3.86-2.72,3.86-1.06-1.15-2.16-.5-1.09,3.19-1.09,3.19Z"/><path class="cls-6" d="M192.53,215.77s-.47-2.17-1.4-2.51a1.32,1.32,0,0,0-1.49.64s-.22-2.07-1.54-2.69a2,2,0,0,0-2.31.65s-1-2.64-2.81-2.64-2.72,3.86-2.72,3.86-1.07-1.15-2.16-.5-1.09,3.19-1.09,3.19Z"/><path class="cls-7" d="M79.44,215.77H63.11s.54-2.31,1.62-2.47a1.61,1.61,0,0,1,1.59.91s0-3.22,2-3.76S72,212.74,72,212.74a4,4,0,0,1,3-1.52c1.72.11,2.16,2.78,2.16,2.78S78.75,213.07,79.44,215.77Z"/><path class="cls-6" d="M23.86,215.77H15.27s0-1.28.86-1.62a1.15,1.15,0,0,1,1.35.32s.34-2.35,1.92-2.35,2.33,2,2.33,2a1.19,1.19,0,0,1,1.23-.5C23.83,213.76,23.86,215.77,23.86,215.77Z"/><path class="cls-6" d="M86.19,215.77h-8.6s0-1.28.87-1.62a1.14,1.14,0,0,1,1.34.32s.35-2.35,1.92-2.35,2.33,2,2.33,2a1.21,1.21,0,0,1,1.23-.5C86.15,213.76,86.19,215.77,86.19,215.77Z"/><path class="cls-6" d="M227.59,215.77H219s0-1.28.86-1.62a1.15,1.15,0,0,1,1.35.32s.34-2.35,1.92-2.35,2.33,2,2.33,2a1.19,1.19,0,0,1,1.22-.5C227.56,213.76,227.59,215.77,227.59,215.77Z"/><path class="cls-7" d="M240.14,215.77H226s0-2.11,1.43-2.67a1.9,1.9,0,0,1,2.22.53s.57-3.88,3.17-3.88,3.84,3.35,3.84,3.35a2,2,0,0,1,2-.83C240.08,212.46,240.14,215.77,240.14,215.77Z"/><rect class="cls-4" x="12.37" y="215.77" width="230.67" height="4.02"/><path class="cls-8" d="M28.54,215.77a6.63,6.63,0,0,1,.27,2,6.33,6.33,0,0,1-.27,2,7.35,7.35,0,0,1,0-4Z"/><path class="cls-8" d="M46.57,215.77a7,7,0,0,1,.27,2,6.63,6.63,0,0,1-.27,2,7.35,7.35,0,0,1,0-4Z"/><path class="cls-8" d="M64.6,215.77a7,7,0,0,1,.27,2,6.63,6.63,0,0,1-.27,2,7.35,7.35,0,0,1,0-4Z"/><path class="cls-8" d="M82.63,215.77a7,7,0,0,1,.27,2,6.63,6.63,0,0,1-.27,2,7.35,7.35,0,0,1,0-4Z"/><path class="cls-8" d="M100.66,215.77a7,7,0,0,1,.27,2,6.63,6.63,0,0,1-.27,2,7.35,7.35,0,0,1,0-4Z"/><path class="cls-8" d="M118.69,215.77a7.62,7.62,0,0,1,0,4,7.35,7.35,0,0,1,0-4Z"/><path class="cls-8" d="M136.72,215.77a7.62,7.62,0,0,1,0,4,7.35,7.35,0,0,1,0-4Z"/><path class="cls-8" d="M154.75,215.77a7.62,7.62,0,0,1,0,4,7.35,7.35,0,0,1,0-4Z"/><path class="cls-8" d="M172.78,215.77a7.62,7.62,0,0,1,0,4,7.35,7.35,0,0,1,0-4Z"/><path class="cls-8" d="M190.81,215.77a7.62,7.62,0,0,1,0,4,7.35,7.35,0,0,1,0-4Z"/><path class="cls-8" d="M208.84,215.77a7.62,7.62,0,0,1,0,4,7.35,7.35,0,0,1,0-4Z"/><path class="cls-8" d="M226.87,215.77a7.62,7.62,0,0,1,0,4,7.35,7.35,0,0,1,0-4Z"/><polygon class="cls-8" points="14.08 219.78 42.48 219.54 70.89 219.4 127.7 219.29 184.51 219.4 212.92 219.54 241.33 219.78 212.92 220.03 184.51 220.17 127.7 220.28 70.89 220.17 42.48 220.03 14.08 219.78"/><circle class="cls-21" cx="140.01" cy="38.25" r="17.34" transform="translate(11.3 105.34) rotate(-42.81)"/><circle class="cls-9" cx="140.01" cy="38.25" r="10.91"/></g></svg>