<svg xmlns="http://www.w3.org/2000/svg" viewBox="0 0 331.08 210.37"><defs><style>.cls-1,.cls-3{fill:#e0e0e0;}.cls-1,.cls-11{fill-rule:evenodd;}.cls-2{fill:#fafafa;}.cls-18,.cls-4{fill:#fff;}.cls-5{fill:#f5f5f5;}.cls-6{fill:#ebebeb;}.cls-7{fill:#263238;}.cls-8{fill:#e8505b;}.cls-11,.cls-9{fill:#deac47;}.cls-10{fill:#455a64;}.cls-12{opacity:0.59;}.cls-13{opacity:0.4;}.cls-14{fill:none;}.cls-15{opacity:0.17;}.cls-16{fill:#b78876;}.cls-17{fill:#aa6550;}.cls-18,.cls-19{opacity:0.6;}.cls-20{opacity:0.3;}.cls-21{opacity:0.86;}.cls-22{opacity:0.85;}.cls-23{fill:#ffbe9d;}.cls-24{fill:#eb996e;}</style></defs><g id="Character_2" data-name="Character 2"><path class="cls-1" d="M252.88,122.61a9.77,9.77,0,0,1-2.53.06l-1.31,2-3.62-1.4.34-2.32a9.13,9.13,0,0,1-1.83-1.74l-2.3.45-1.58-3.55,1.88-1.4a9.75,9.75,0,0,1-.06-2.53l-2-1.3,1.4-3.62,2.32.33a9.7,9.7,0,0,1,1.74-1.83l-.45-2.3,3.55-1.57,1.4,1.88a9.34,9.34,0,0,1,2.53-.07l1.3-1.94,3.63,1.39-.34,2.32a9.46,9.46,0,0,1,1.83,1.75l2.3-.46,1.58,3.55-1.88,1.4a9.77,9.77,0,0,1,.06,2.53l1.95,1.31-1.4,3.62-2.32-.34a9.51,9.51,0,0,1-1.75,1.84l.46,2.3-3.55,1.57-1.4-1.88Zm0-5.57a4.16,4.16,0,1,0-5.5-2.12A4.15,4.15,0,0,0,252.91,117Z"/><rect class="cls-2" x="44.4" y="170.49" width="69.78" height="28.34"/><path class="cls-3" d="M114.18,198.83s0-.17,0-.5,0-.83,0-1.47c0-1.3,0-3.2,0-5.64,0-4.9,0-12,0-20.73l.08.08-69.77,0h0l.11-.11v28.34l-.11-.1,50,.05,14.51,0h0l-14.49,0-50.1.05h-.1v-.11c0-8.83,0-18.42,0-28.34v-.11h.12l69.77,0h.08v.08c0,8.78,0,15.87,0,20.77,0,2.44,0,4.34,0,5.63,0,.63,0,1.12,0,1.45S114.18,198.83,114.18,198.83Z"/><path class="cls-3" d="M44.47,174.31c0-.06,15.6-.11,34.83-.11s34.84.05,34.84.11-15.59.11-34.84.11S44.47,174.37,44.47,174.31Z"/><circle class="cls-3" cx="46.89" cy="172.6" r="0.51"/><circle class="cls-3" cx="48.62" cy="172.6" r="0.51"/><path class="cls-3" d="M50.84,172.6a.51.51,0,0,1-.51.51.5.5,0,0,1-.5-.51.5.5,0,0,1,.5-.5A.5.5,0,0,1,50.84,172.6Z"/><rect class="cls-3" x="50.33" y="178.92" width="16.85" height="16.85"/><path class="cls-3" d="M109.35,183.44c0,.06-8.67.11-19.37.11s-19.37-.05-19.37-.11,8.67-.12,19.37-.12S109.35,183.37,109.35,183.44Z"/><path class="cls-3" d="M109.35,186.87c0,.06-8.67.11-19.37.11s-19.37,0-19.37-.11,8.67-.11,19.37-.11S109.35,186.81,109.35,186.87Z"/><path class="cls-3" d="M95.55,190.3a.72.72,0,0,1-.25,0l-.73,0-2.67,0-8.82,0-8.82,0-2.67,0-.72,0a.76.76,0,0,1-.26,0,1.33,1.33,0,0,1,.26,0l.72,0,2.67,0,8.82,0,8.82,0,2.67,0,.73,0A1.27,1.27,0,0,1,95.55,190.3Z"/><rect class="cls-4" x="61.31" y="157.19" width="61.64" height="41.65"/><path class="cls-3" d="M123,198.84s0-.26,0-.76,0-1.24,0-2.2c0-1.93,0-4.75,0-8.38,0-7.23,0-17.63,0-30.31l.09.09-61.64,0h0l.11-.11c0,14.83,0,28.94,0,41.65l-.1-.11,44.41.05,12.69,0h0l-12.67,0-44.47.05H61.2V157.08h.11l61.64,0H123v.09c0,12.7,0,23.12-.05,30.37,0,3.61,0,6.43,0,8.36v2.18C123,198.59,123,198.84,123,198.84Z"/><path class="cls-3" d="M61.31,160.9c0-.06,13.79-.11,30.79-.11s30.8.05,30.8.11-13.79.12-30.8.12S61.31,161,61.31,160.9Z"/><path class="cls-3" d="M63.74,159a.5.5,0,1,1-1,0,.5.5,0,1,1,1,0Z"/><ellipse class="cls-3" cx="64.94" cy="159.03" rx="0.49" ry="0.5"/><ellipse class="cls-3" cx="66.61" cy="159.03" rx="0.49" ry="0.5"/><rect class="cls-3" x="66.61" y="165.25" width="16.44" height="16.59"/><path class="cls-3" d="M114.5,169.94c0,.06-6.42.11-14.33.11s-14.32-.05-14.32-.11,6.41-.11,14.32-.11S114.5,169.88,114.5,169.94Z"/><path class="cls-3" d="M114.5,173c0,.06-6.42.11-14.33.11s-14.32,0-14.32-.11,6.41-.11,14.32-.11S114.5,173,114.5,173Z"/><path class="cls-3" d="M114.5,176.1c0,.07-6.42.12-14.33.12s-14.32-.05-14.32-.12,6.41-.11,14.32-.11S114.5,176,114.5,176.1Z"/><path class="cls-3" d="M102.78,179.19a4.45,4.45,0,0,1-.66,0l-1.82,0c-1.53,0-3.65,0-6,0s-4.46,0-6,0l-1.81,0a4.52,4.52,0,0,1-.67,0,3.63,3.63,0,0,1,.67-.05l1.81,0c1.53,0,3.65,0,6,0s4.45,0,6,0l1.82,0A3.58,3.58,0,0,1,102.78,179.19Z"/><rect class="cls-3" x="67.63" y="187.43" width="7.73" height="7.8"/><rect class="cls-3" x="81.65" y="187.43" width="7.73" height="7.8"/><rect class="cls-3" x="95.66" y="187.43" width="7.73" height="7.8"/><rect class="cls-3" x="109.68" y="187.43" width="7.73" height="7.8"/><path class="cls-1" d="M305.76,118.69a13.49,13.49,0,0,1-3.53.09l-1.82,2.71-5.05-1.94.47-3.24a13.36,13.36,0,0,1-2.56-2.43l-3.2.63-2.2-5,2.62-2a13.49,13.49,0,0,1-.08-3.53l-2.72-1.82,1.95-5.05,3.23.47a13.37,13.37,0,0,1,2.44-2.55l-.64-3.21,4.95-2.2,1.95,2.63a13.07,13.07,0,0,1,3.53-.09l1.82-2.72L312,91.49l-.47,3.24a13.08,13.08,0,0,1,2.56,2.43l3.21-.63,2.19,4.94-2.62,2a13,13,0,0,1,.08,3.52l2.72,1.83-1.94,5-3.24-.48a13.38,13.38,0,0,1-2.43,2.56l.63,3.21-5,2.19-1.95-2.62Zm0-7.76a5.81,5.81,0,1,0-7.67-3A5.81,5.81,0,0,0,305.8,110.93Z"/><path class="cls-1" d="M77.51,44.73a9.34,9.34,0,0,1-2.36.06L73.94,46.6l-3.37-1.3.32-2.16a8.73,8.73,0,0,1-1.71-1.62l-2.13.42-1.47-3.29,1.75-1.31A9.25,9.25,0,0,1,67.27,35l-1.81-1.21,1.3-3.37,2.16.32A8.73,8.73,0,0,1,70.54,29l-.42-2.14,3.29-1.46,1.31,1.75a8.81,8.81,0,0,1,2.35-.06l1.21-1.81,3.37,1.3-.32,2.15A8.78,8.78,0,0,1,83,30.38L85.18,30l1.46,3.3-1.75,1.3A8.9,8.9,0,0,1,85,36.91l1.81,1.21-1.3,3.37-2.16-.32a8.41,8.41,0,0,1-1.62,1.7L82.11,45l-3.3,1.47-1.3-1.75Zm0-5.18a3.87,3.87,0,1,0-5.11-2A3.86,3.86,0,0,0,77.53,39.55Z"/><path class="cls-3" d="M57.81,81.4s0-.15,0-.44V79.67c0-1.13,0-2.78,0-4.9,0-4.24,0-10.36,0-17.87l.07.07L15.47,57h0l.09-.09c0,8.67,0,17,0,24.5l-.08-.08,30.45,0,8.75,0h0l-8.73,0-30.5,0h-.08V81.4c0-7.54,0-15.83,0-24.5v-.08h.09l42.34,0h.06v.06c0,7.53,0,13.66,0,17.91,0,2.12,0,3.76,0,4.89,0,.55,0,1,0,1.27Z"/><path class="cls-3" d="M57.82,59.87c0,.05-9.47.09-21.14.09s-21.16,0-21.16-.09,9.47-.09,21.16-.09S57.82,59.82,57.82,59.87Z"/><rect class="cls-5" x="19.14" y="63.91" width="13.08" height="13.08"/><path class="cls-3" d="M54.74,66.07h-.2l-.55,0-2,0-6.69,0-6.69,0-2,0-.55,0h-.19s.06,0,.19,0l.55,0,2,0,6.69,0L52,66l2,0,.55,0C54.67,66.05,54.74,66.06,54.74,66.07Z"/><path class="cls-3" d="M55.16,69H55l-.56,0-2.08,0-6.84,0-6.84,0-2.07,0L36,69h-.19s.07,0,.19,0l.57,0,2.07,0,6.84,0,6.84,0,2.08,0L55,69C55.09,69,55.16,69,55.16,69Z"/><path class="cls-3" d="M55.16,71.91l-.2,0H54.4l-2.08,0-6.84,0-6.84,0-2.07,0H36l-.19,0,.19,0,.57,0,2.07,0,6.84,0,6.84,0,2.08,0,.56,0Z"/><path class="cls-3" d="M55.16,74.83l-.2,0H54.4l-2.08,0-6.84,0-6.84,0-2.07,0H36l-.19,0a.76.76,0,0,1,.19,0h.57l2.07,0,6.84,0,6.84,0,2.08,0H55A.8.8,0,0,1,55.16,74.83Z"/><path class="cls-3" d="M246.22,32.48s0-.1,0-.3v-.86c0-.76,0-1.88,0-3.31,0-2.87,0-7,0-12.06l.05,0-28.58,0h0l.05-.06V32.48l-.05,0,20.55,0h0l-20.59,0h-.06V15.89h28.68v0c0,5.08,0,9.22,0,12.09,0,1.42,0,2.54,0,3.3,0,.37,0,.66,0,.85Z"/><path class="cls-3" d="M246.23,18S239.84,18,232,18s-14.28,0-14.28-.06,6.39-.06,14.28-.06S246.23,17.92,246.23,18Z"/><rect class="cls-5" x="220.11" y="20.68" width="8.83" height="8.83"/><path class="cls-3" d="M244.14,22.13s0,0-.12,0l-.38,0h-1.37l-4.51,0-4.52,0h-1.37l-.37,0c-.09,0-.13,0-.13,0h.5l1.37,0,4.52,0,4.51,0,1.37,0h.5Z"/><path class="cls-3" d="M244.43,24.1l-.13,0h-.38l-1.4,0h-9.24l-1.4,0h-.38l-.13,0h.51l1.4,0h9.24l1.4,0h.51Z"/><path class="cls-3" d="M244.43,26.08h-.51l-1.4,0h-9.24l-1.4,0h-.51l.13,0h1.78l4.62,0,4.62,0h1.78Z"/><path class="cls-3" d="M244.43,28.05h-.51l-1.4,0-4.62,0-4.62,0-1.4,0h-.51s0,0,.13,0h.38l1.4,0,4.62,0,4.62,0,1.4,0h.38C244.38,28,244.43,28,244.43,28.05Z"/><path class="cls-6" d="M289.42,169.86a5.61,5.61,0,0,0-3.18,3,9.9,9.9,0,0,0-.78,4.41,17.55,17.55,0,0,0,3,8.41c2.61-1.9,3.49-5.55,3.82-7.42.52-3-.33-8.64-2.88-8.42"/><path class="cls-6" d="M285.24,190.2a4.79,4.79,0,0,0-1.14-4.66,6.34,6.34,0,0,0-4.53-1.86,2.66,2.66,0,0,0-2.13.74,2,2,0,0,0-.21,2.06,4.15,4.15,0,0,0,1.39,1.64c2,1.5,4.18,2.59,6.62,2.08"/><path class="cls-3" d="M287.53,197.12a10.85,10.85,0,0,0-.72-4,21.11,21.11,0,0,0-1.06-2.33,9.61,9.61,0,0,0-3.12-3.45,7.29,7.29,0,0,0-1.27-.63,1.57,1.57,0,0,0-.51-.12c0,.05.69.28,1.65,1a10.2,10.2,0,0,1,3,3.4c.43.78.75,1.58,1.06,2.29a10,10,0,0,1,.61,2A14.07,14.07,0,0,0,287.53,197.12Z"/><path class="cls-3" d="M289.68,174.24a6.89,6.89,0,0,0-.18,1c-.09.62-.22,1.51-.36,2.62-.3,2.22-.66,5.29-1,8.68s-.53,6.49-.63,8.72c0,1.12-.08,2-.09,2.65a4.54,4.54,0,0,0,0,1,5.4,5.4,0,0,0,.1-1c.05-.69.12-1.57.2-2.64.16-2.23.4-5.31.72-8.71s.66-6.4.89-8.68l.27-2.64A4.18,4.18,0,0,0,289.68,174.24Z"/><path class="cls-6" d="M288.8,191.63a11.23,11.23,0,0,1,7.78-6.62,2.39,2.39,0,0,1,2.49.53,2.32,2.32,0,0,1-.38,2.52,9.55,9.55,0,0,1-9.88,3.82"/><path class="cls-3" d="M295.45,187.4a1.49,1.49,0,0,0-.5.12c-.31.1-.76.27-1.3.5a12.62,12.62,0,0,0-3.86,2.49,7.71,7.71,0,0,0-1.5,2.07,7.29,7.29,0,0,0-.64,2,7.47,7.47,0,0,0-.13,1.39,1.88,1.88,0,0,0,0,.51c.07,0,.06-.72.31-1.85a8,8,0,0,1,.69-1.9,7.9,7.9,0,0,1,1.46-2,14,14,0,0,1,3.73-2.51A16.76,16.76,0,0,0,295.45,187.4Z"/><path class="cls-7" d="M319.92,198.84c0,.07-70,.13-156.37.13s-156.39-.06-156.39-.13,70-.12,156.39-.12S319.92,198.78,319.92,198.84Z"/><path class="cls-8" d="M30.11,191.12a3.21,3.21,0,0,0-1.2-2.9,8,8,0,0,1-2.13-2.48c-.66-1.66.23-3.8-.9-5.18-.66-.81-1.84-1.08-2.43-1.95a4.32,4.32,0,0,1-.53-1.55A15.73,15.73,0,0,0,19,169.74a13.64,13.64,0,0,0,1.53,7.06,8.85,8.85,0,0,1,1.17,2.68c.24,1.57-.63,3.19-.25,4.73C21.9,186,23.89,187.16,24,189c.08,1.53-1.26,2.88-1.16,4.42a4.21,4.21,0,0,0,.68,1.82,6.13,6.13,0,0,0,5.58,3.29l3.24.11Z"/><path class="cls-9" d="M30.11,191.12a3.21,3.21,0,0,0-1.2-2.9,8,8,0,0,1-2.13-2.48c-.66-1.66.23-3.8-.9-5.18-.66-.81-1.84-1.08-2.43-1.95a4.32,4.32,0,0,1-.53-1.55A15.73,15.73,0,0,0,19,169.74a13.64,13.64,0,0,0,1.53,7.06,8.85,8.85,0,0,1,1.17,2.68c.24,1.57-.63,3.19-.25,4.73C21.9,186,23.89,187.16,24,189c.08,1.53-1.26,2.88-1.16,4.42a4.21,4.21,0,0,0,.68,1.82,6.13,6.13,0,0,0,5.58,3.29l3.24.11Z"/><path class="cls-7" d="M33,198.71a2.63,2.63,0,0,0,.89,0,5.61,5.61,0,0,0,1.05-.27,4.69,4.69,0,0,0,1.3-.71,1.86,1.86,0,0,0,.54-.71,3.39,3.39,0,0,0,.15-1c0-.34,0-.69.07-1.05a3,3,0,0,1,.4-1,7.87,7.87,0,0,0,1.22-2.22,7.4,7.4,0,0,0-.09-2.84,6,6,0,0,1,.08-3c.35-1,1.06-1.93,1.41-3.07a15.46,15.46,0,0,0,.26-3.62,4.89,4.89,0,0,1,.43-1.79c.26-.58.62-1.12.91-1.72a12.77,12.77,0,0,0,.83-4c.08-.68.15-1.37.23-2.07a10.31,10.31,0,0,1,.36-2.07,17.72,17.72,0,0,1,.78-2,6.72,6.72,0,0,0,.37-1,10.61,10.61,0,0,0,.11-1.12,14,14,0,0,0-.09-2.24c-.09-.75-.22-1.49-.3-2.24l0-.13v-.14l-.14.06A5.16,5.16,0,0,0,42,160.15a8.27,8.27,0,0,0-1.07,2,24.16,24.16,0,0,0-1,4.24,11.73,11.73,0,0,1-1.33,3.92c-.36.57-.79,1.1-1.16,1.66a4.52,4.52,0,0,0-.81,1.85c-.19,1.37.57,2.57.41,3.79a4.23,4.23,0,0,1-.59,1.68c-.29.51-.64,1-1,1.48a9.33,9.33,0,0,0-.87,1.49,4.94,4.94,0,0,0-.4,1.62c-.07,1.1.08,2.13,0,3.11a7,7,0,0,1-.8,2.66c-.39.8-.83,1.52-1.19,2.22-.18.35-.35.69-.49,1a5,5,0,0,0-.29,1,6.71,6.71,0,0,0,0,1.84,4.59,4.59,0,0,0,.93,2.36,1.89,1.89,0,0,0,.26.29,1.56,1.56,0,0,0,.21.18l.19.13a4.28,4.28,0,0,1-.63-.62,4.74,4.74,0,0,1-.88-2.35,6.25,6.25,0,0,1,0-1.82,4.89,4.89,0,0,1,.29-1c.14-.33.31-.67.49-1,.37-.69.81-1.41,1.21-2.21a7.35,7.35,0,0,0,.83-2.71c.08-1-.07-2,0-3.1a4.55,4.55,0,0,1,.4-1.57,9.48,9.48,0,0,1,.85-1.47c.33-.48.68-1,1-1.49a4.22,4.22,0,0,0,.62-1.75c.16-1.29-.59-2.5-.4-3.77a4.52,4.52,0,0,1,.78-1.77c.37-.55.8-1.08,1.17-1.67a11.81,11.81,0,0,0,1.36-4,24.77,24.77,0,0,1,1-4.21,8.1,8.1,0,0,1,1-1.92,4.83,4.83,0,0,1,1.67-1.41l-.14-.08v.13c.08.75.22,1.5.3,2.24a11.58,11.58,0,0,1,.09,2.2,9.42,9.42,0,0,1-.1,1.08,6.41,6.41,0,0,1-.36,1,17.3,17.3,0,0,0-.78,2,10.26,10.26,0,0,0-.37,2.11c-.08.69-.15,1.38-.23,2.07a12.15,12.15,0,0,1-.81,3.9c-.27.58-.63,1.13-.9,1.72a4.91,4.91,0,0,0-.44,1.86,16,16,0,0,1-.24,3.58c-.34,1.1-1.05,2-1.4,3.07a6,6,0,0,0-.07,3.12,7.31,7.31,0,0,1,.1,2.78,8,8,0,0,1-1.19,2.19,3,3,0,0,0-.4,1.08,8,8,0,0,0-.07,1.07,3.49,3.49,0,0,1-.14.94,1.72,1.72,0,0,1-.5.68,4.3,4.3,0,0,1-1.27.71,5.78,5.78,0,0,1-1,.29,5.25,5.25,0,0,1-.66.06A1.19,1.19,0,0,0,33,198.71Z"/><path class="cls-7" d="M43.21,160.55l0,.1-.07.29c-.07.25-.14.64-.26,1.12s-.43,1-.68,1.69-.52,1.43-.77,2.3-.46,1.82-.69,2.85a12.06,12.06,0,0,1-1,3.16c-.26.53-.56,1.06-.8,1.64a8.32,8.32,0,0,0-.47,1.86,38,38,0,0,1-.69,3.92c-.65,2.65-1.27,5.18-1.84,7.48s-1.09,4.37-1.53,6.11-.77,3.13-1,4.12l-.26,1.12-.07.29c0,.07,0,.11,0,.11l0-.1.09-.29.3-1.11c.26-1,.63-2.38,1.08-4.1s1-3.81,1.58-6.1,1.19-4.83,1.85-7.48a38.92,38.92,0,0,0,.7-3.94,7.61,7.61,0,0,1,.44-1.81c.23-.57.53-1.1.79-1.63a12.24,12.24,0,0,0,1-3.21c.22-1,.43-2,.67-2.85s.48-1.63.73-2.3.52-1.21.64-1.71.18-.87.23-1.13l.05-.3A.82.82,0,0,0,43.21,160.55Z"/><path class="cls-9" d="M33.55,198.72c2.11-1.26,2.72-5.08,1.84-7.38S33,187,32.72,184.5c-.18-1.89.44-3.82,0-5.66-.59-2.48-3-4.41-3-7,0-1.43.83-2.78.76-4.21-.07-1.76-1.42-3.15-2.26-4.7-1.27-2.36-1.36-5.16-1.79-7.82s-1.45-5.49-3.81-6.8c-.34,2.26-.94,3.8-.75,6.85.07,1.1,1.34,3.2,1.51,5.6.11,1.44.18,2.87.27,4.31a13.68,13.68,0,0,0,.67,4.13,30.65,30.65,0,0,1,1.29,2.95c.54,1.95-.17,4.06.27,6,.36,1.67,1.52,3.11,1.76,4.81.33,2.38-1.21,4.85-.42,7.12.39,1.13,1.31,2,1.58,3.2.2.9,0,1.86.16,2.76.3,1.47,3.09,2.6,4.58,2.51"/><path class="cls-7" d="M23.22,150.59s0,0,0,.13l0,.37c.05.32.11.8.22,1.42s.44,1.32.69,2.16.54,1.81.78,2.9.44,2.29.65,3.58a15.19,15.19,0,0,0,1.09,4c.29.68.63,1.35.88,2.07a9.48,9.48,0,0,1,.44,2.29,48.47,48.47,0,0,0,.62,4.93c.65,3.34,1.27,6.52,1.83,9.41s1.13,5.48,1.58,7.67.82,3.93,1.08,5.16c.12.6.23,1.07.3,1.41l.08.36a.64.64,0,0,0,0,.12.69.69,0,0,0,0-.13q0-.13-.06-.36l-.27-1.41c-.24-1.24-.58-3-1-5.18s-1-4.79-1.53-7.68-1.17-6.07-1.81-9.41a45.45,45.45,0,0,1-.62-4.91,9.92,9.92,0,0,0-.46-2.33c-.26-.74-.6-1.42-.9-2.09a15.32,15.32,0,0,1-1.09-4c-.22-1.29-.43-2.49-.68-3.58s-.53-2.06-.81-2.9-.6-1.54-.72-2.15-.19-1.09-.25-1.41l-.07-.37Z"/><path class="cls-7" d="M262.82,48.92a1.23,1.23,0,0,1,0,.18v.51c0,.47,0,1.12,0,1.92,0,1.66,0,4,.05,6.77l-.1-.1,9.38,0s-.23.23-.12.12h0V55.77c0-.83,0-1.64,0-2.42,0-1.58,0-3.07,0-4.43l.1.1L265.43,49l-1.92,0h-.69s.05,0,.16,0l.49,0,1.9,0,6.83-.06h.11v.11c0,1.36,0,2.85,0,4.43v2.42c0,.42,0,.83,0,1.26v1.25h0l-.13.13-9.38,0h-.11V58.3c0-2.81,0-5.16.06-6.83,0-.8,0-1.44,0-1.9l0-.49C262.81,49,262.81,48.91,262.82,48.92Z"/><path class="cls-9" d="M274.16,46.82c.16.13-1.86,2.85-4.5,6.07-.56.66-1.1,1.3-1.59,1.9l-.23.27-.26-.23c-2.21-2-3.72-3.46-3.61-3.58s1.79,1.16,4.06,3l-.49.05,1.55-1.93C271.73,49.2,274,46.69,274.16,46.82Z"/><path class="cls-10" d="M267.23,39.38a.82.82,0,0,1,.23,0l.69,0,.5,0,.61.08.71.1.79.2a12.63,12.63,0,0,1,3.83,1.67,13.54,13.54,0,0,1,6.21,10.16,16.22,16.22,0,0,1,0,1.85c0,.31,0,.63-.07,1s-.09.63-.14,1a13.37,13.37,0,0,1-1.29,3.77,13.43,13.43,0,0,1-6,5.94A12.93,12.93,0,0,1,269,66.41a7.44,7.44,0,0,1-1.15.1,9.14,9.14,0,0,1-1.17,0,14.13,14.13,0,0,1-2.33-.29,13.62,13.62,0,0,1-4.65-2l.14,0-4.73,1.9-.29.11.08-.29,1.4-5.06,0,.12a13.53,13.53,0,0,1-2.53-5.78,12.46,12.46,0,0,1-.18-3,9.49,9.49,0,0,1,.13-1.42c0-.23.08-.46.11-.69s.11-.45.17-.67a13.48,13.48,0,0,1,5.28-7.7,12.8,12.8,0,0,1,3.14-1.66l.71-.26.67-.17.62-.15c.2,0,.39-.06.56-.08.36-.05.68-.11.95-.12l.7,0h.42c.1,0,.15,0,.15,0l-.15,0-.42,0-.69,0c-.27,0-.59.09-.94.14A13.56,13.56,0,0,0,259.41,42a13.41,13.41,0,0,0-5.15,7.62c0,.22-.11.43-.16.66s-.06.45-.1.68a10.56,10.56,0,0,0-.12,1.39,12,12,0,0,0,.19,2.91,13.42,13.42,0,0,0,2.49,5.66l0,.05V61q-.67,2.46-1.39,5.07l-.2-.18L259.74,64l.07,0,.07.05a13.45,13.45,0,0,0,4.54,1.91,13.68,13.68,0,0,0,2.28.29c.39,0,.77,0,1.14,0a10.54,10.54,0,0,0,1.13-.1,12.69,12.69,0,0,0,4.23-1.29,13.26,13.26,0,0,0,5.89-5.8,13.14,13.14,0,0,0,1.27-3.69l.15-.93c.05-.31,0-.62.06-.93a13.76,13.76,0,0,0,0-1.82,13.53,13.53,0,0,0-2.17-6.2,13.8,13.8,0,0,0-3.87-3.84,12.94,12.94,0,0,0-3.77-1.7l-.78-.2-.7-.12-.6-.1-.51,0-.68-.05Z"/><path class="cls-11" d="M250.94,161.75a15.09,15.09,0,0,1-3.26-2.3l-3.48,1.24-3.27-5.17,2.61-2.61a14.8,14.8,0,0,1-.69-3.93l-3.34-1.59,1.34-6h3.7a15,15,0,0,1,2.29-3.26l-1.24-3.48,5.17-3.27,2.62,2.6a15.12,15.12,0,0,1,3.92-.68L258.9,130l6,1.34V135a15,15,0,0,1,3.26,2.29l3.48-1.24,3.28,5.17-2.61,2.62a14.71,14.71,0,0,1,.68,3.92l3.34,1.59-1.34,6h-3.69a15.09,15.09,0,0,1-2.3,3.26l1.24,3.48-5.16,3.28-2.62-2.61a15.2,15.2,0,0,1-3.93.68l-1.59,3.34-6-1.34v-3.69Zm5.26-7a6.56,6.56,0,1,0-5-7.84A6.57,6.57,0,0,0,256.2,154.73Z"/><path class="cls-7" d="M293.14,144.3a3.06,3.06,0,0,1-.9-.28,3.87,3.87,0,0,1-2.16-3.57,4,4,0,0,1,.6-2,3.66,3.66,0,0,1,.73-.85,4.06,4.06,0,0,1,1-.63,4,4,0,0,1,2.43-.24,4,4,0,0,1,2.09,1.26,3.66,3.66,0,0,1,.62,1,3.48,3.48,0,0,1,.3,1.08,3.85,3.85,0,0,1-1.37,3.46,3.81,3.81,0,0,1-2.4.88,3,3,0,0,1-.93-.13s.33.06.93,0a3.76,3.76,0,0,0,2.3-.91,3.64,3.64,0,0,0,1-1.38,3.77,3.77,0,0,0,.26-1.94,3.47,3.47,0,0,0-.29-1,3.4,3.4,0,0,0-.59-.93,3.7,3.7,0,0,0-4.27-1,3.48,3.48,0,0,0-.94.59,3.69,3.69,0,0,0-1.29,2.66,3.68,3.68,0,0,0,.33,1.69,3.77,3.77,0,0,0,1.69,1.8C292.81,144.21,293.15,144.27,293.14,144.3Z"/><path class="cls-7" d="M290.09,148.37v.13c0,.1,0,.24,0,.41,0,.37,0,.91,0,1.6l0,0,3.46.76-.06,0,.91-1.94,0,0h0a8.9,8.9,0,0,0,2.26-.4h0l0,0,1.52,1.5h-.09l3-1.9,0,.1-.72-2,0-.05,0,0a8.79,8.79,0,0,0,1.32-1.87l0-.05H304l-.09.08c.24-1.09.5-2.27.77-3.47l.05.12-1.93-.92-.06,0v-.06a8.67,8.67,0,0,0-.4-2.25V138l0-.05,1.51-1.52v.14l-1.9-3,.13,0-2,.72-.07,0,0-.05a8.8,8.8,0,0,0-1.87-1.31h0l-.06-.1h0v-2.11l.08.1-3.46-.78.12-.05c-.31.65-.62,1.29-.92,1.93l0,.06h-.06a8.92,8.92,0,0,0-2.25.39l-.06,0-.05,0c-.51-.52-1-1-1.52-1.52l.13,0-3,1.89,0-.12.71,2,0,.06,0,0a9.07,9.07,0,0,0-1.32,1.87l0,0h-2.2l.09-.07c-.27,1.22-.53,2.37-.78,3.46l-.05-.09,1.94.92,0,0V141a8.41,8.41,0,0,0,.39,2.26v0l0,0-1.52,1.52v-.08l1.89,3-.06,0,2-.7h0a8.51,8.51,0,0,0,1.38,1.06l.36.23.13.07-.13-.06a3.29,3.29,0,0,1-.38-.21,8,8,0,0,1-1.41-1h0l-2,.73,0,0,0,0-1.91-3,0-.05,0,0,1.51-1.53,0,.07a8.63,8.63,0,0,1-.4-2.29l0,.06-1.94-.91-.06,0,0-.06c.24-1.1.49-2.25.77-3.47v-.07h2.22l-.09.05a9.48,9.48,0,0,1,1.35-1.91l0,.1c-.24-.66-.48-1.33-.72-2l0-.07.07,0,3-1.9.07,0,.06.06,1.52,1.51-.11,0a9,9,0,0,1,2.31-.4l-.09.06.92-1.94,0-.08.09,0,3.46.78.08,0v.09c0,.35,0,.71,0,1.06v1.05h0c-.12-.19,0-.05-.06-.1h0a8.39,8.39,0,0,1,1.91,1.35l-.11,0,2-.72.09,0,0,.07,1.9,3,0,.07-.06.06-1.51,1.52,0-.1a9.11,9.11,0,0,1,.4,2.3l-.06-.09,1.93.92.08,0,0,.08c-.27,1.2-.54,2.37-.78,3.46l0,.07h-2.22l.08-.06a8.58,8.58,0,0,1-1.35,1.91l0-.09.72,2,0,.07-.06,0-3,1.9-.05,0-.05,0L296.7,149l.07,0a9.16,9.16,0,0,1-2.3.39l.06,0c-.33.7-.65,1.35-.93,1.93l0,0h0l-3.46-.79h0v0c0-.69,0-1.22,0-1.59,0-.17,0-.31,0-.41S290.08,148.37,290.09,148.37Z"/><g class="cls-12"><path class="cls-11" d="M272.92,128a7.16,7.16,0,0,1-1.62-1.14l-1.73.62L268,124.86l1.29-1.3a7.81,7.81,0,0,1-.34-1.94l-1.65-.79.66-3h1.84a7.45,7.45,0,0,1,1.13-1.62l-.61-1.73,2.56-1.62,1.3,1.29a8,8,0,0,1,1.95-.34l.79-1.65,3,.66v1.83a7.74,7.74,0,0,1,1.62,1.14l1.72-.61,1.63,2.56-1.3,1.3a7.06,7.06,0,0,1,.34,2l1.66.78-.67,3H283a7.33,7.33,0,0,1-1.14,1.61l.62,1.73-2.56,1.63-1.3-1.3a7.52,7.52,0,0,1-1.95.34l-.79,1.66-3-.67V128Zm2.61-3.48a3.25,3.25,0,1,0-2.47-3.89A3.25,3.25,0,0,0,275.53,124.47Z"/><g class="cls-13"><path class="cls-11" d="M272.92,128a7.16,7.16,0,0,1-1.62-1.14l-1.73.62L268,124.86l1.29-1.3a7.81,7.81,0,0,1-.34-1.94l-1.65-.79.66-3h1.84a7.45,7.45,0,0,1,1.13-1.62l-.61-1.73,2.56-1.62,1.3,1.29a8,8,0,0,1,1.95-.34l.79-1.65,3,.66v1.83a7.74,7.74,0,0,1,1.62,1.14l1.72-.61,1.63,2.56-1.3,1.3a7.06,7.06,0,0,1,.34,2l1.66.78-.67,3H283a7.33,7.33,0,0,1-1.14,1.61l.62,1.73-2.56,1.63-1.3-1.3a7.52,7.52,0,0,1-1.95.34l-.79,1.66-3-.67V128Zm2.61-3.48a3.25,3.25,0,1,0-2.47-3.89A3.25,3.25,0,0,0,275.53,124.47Z"/></g></g><path class="cls-14" d="M102.2,46.33a6.46,6.46,0,0,1-1.81,0l-.93,1.4-2.59-1,.25-1.66a6.46,6.46,0,0,1-1.31-1.25l-1.65.33L93,41.65l1.34-1a6.4,6.4,0,0,1,0-1.8L93,37.91l1-2.59,1.66.25a6.46,6.46,0,0,1,1.25-1.31l-.33-1.65,2.54-1.12,1,1.34a6.86,6.86,0,0,1,1.81,0l.93-1.39,2.59,1-.25,1.66a6.46,6.46,0,0,1,1.31,1.25L108.1,35l1.12,2.54-1.34,1a6.46,6.46,0,0,1,0,1.81l1.39.93-1,2.59-1.66-.25a6.46,6.46,0,0,1-1.25,1.31l.33,1.65-2.54,1.12-1-1.34Zm0-4a3,3,0,1,0-3.92-1.51A3,3,0,0,0,102.22,42.35Z"/><path class="cls-8" d="M102.22,42.35s0,0-.17.09a2.09,2.09,0,0,1-.52.17,3,3,0,0,1-2-.3,3.07,3.07,0,0,1-1.21-4.21,3.07,3.07,0,0,1,3.35-1.49,3,3,0,0,1,1.56.88,3.07,3.07,0,0,1,.75,2.85A3,3,0,0,1,102.88,42a2.69,2.69,0,0,1-.48.28c-.11.05-.18.07-.18.06s.24-.12.6-.42a3,3,0,0,0,1-1.63,2.88,2.88,0,0,0-.74-2.65,2.8,2.8,0,0,0-1.46-.8,2.87,2.87,0,0,0-2,5.31,3,3,0,0,0,1.89.35C102,42.44,102.21,42.33,102.22,42.35Z"/><path class="cls-8" d="M102.2,46.33a.3.3,0,0,1,.07.08l.2.24.76,1h0l2.52-1.15,0,.07-.34-1.64v0l0,0a6.92,6.92,0,0,0,1.22-1.3l0,0h0l1.66.23-.09.06c.31-.82.64-1.69,1-2.59l0,.11-1.39-.93-.05,0v-.06a6.69,6.69,0,0,0,0-1.78v-.07l.06,0,1.34-1,0,.13c-.35-.79-.73-1.65-1.13-2.53l.13.06-1.64.33-.07,0,0-.06a6.85,6.85,0,0,0-1.29-1.22l0,0V34l.24-1.65.07.12-2.58-1,.14-.05-.93,1.4,0,.06h-.08a7,7,0,0,0-1.77,0h0s.11,0-.12,0h0l0,0,0,0-.06-.08-.13-.17-.25-.34-.5-.67.15,0-2.54,1.12.07-.13c.11.55.22,1.1.32,1.64l0,.08-.06,0a6.47,6.47,0,0,0-1.22,1.29l0,0h-.07l-1.65-.24.12-.07c-.34.88-.67,1.74-1,2.58l0-.13,1.39.93,0,0v.07a6.62,6.62,0,0,0,0,1.78v.06l-.06,0-1.34,1,0-.13c.39.9.76,1.74,1.12,2.54l-.11,0,1.65-.32h0l0,0A6.74,6.74,0,0,0,97.16,45l0,0v0c-.1.6-.18,1.15-.25,1.66l0-.08,2.58,1-.06,0c.37-.56.68-1,.94-1.39l0,0h0a6.44,6.44,0,0,0,1.36,0l.33,0h.11l-.11,0-.33,0a6.77,6.77,0,0,1-1.37,0h0c-.25.38-.56.84-.92,1.4l0,0h0l-2.59-1-.06,0v-.06c.08-.52.15-1.06.24-1.66l0,.07a6.47,6.47,0,0,1-1.33-1.25l.08,0-1.64.33-.07,0,0-.07c-.36-.8-.74-1.64-1.13-2.53l0-.08.07,0,1.34-1,0,.1a6.63,6.63,0,0,1,0-1.84l0,.11L92.88,38l-.07,0,0-.09,1-2.59,0-.08H94l1.66.24-.11,0a6.94,6.94,0,0,1,1.26-1.34l0,.12-.33-1.64,0-.1.09,0L99,31.38l.09,0,.06.08.49.67.26.33.12.17.06.09,0,0v0h0l-.12,0h0a6.71,6.71,0,0,1,1.84,0l-.12,0,.94-1.39,0-.08.09,0,2.59,1,.09,0,0,.09-.24,1.66-.05-.11a6.68,6.68,0,0,1,1.33,1.26l-.11,0,1.65-.32.08,0,0,.09,1.12,2.53,0,.08-.07.06-1.35,1,0-.1a6.73,6.73,0,0,1,0,1.84l0-.1,1.39.94.06,0,0,.07-1,2.59,0,.06h-.06l-1.66-.25.07,0A6.91,6.91,0,0,1,105.46,45l0-.07c.12.59.22,1.15.32,1.65v.05h0l-2.54,1.11h0l0,0-.72-1-.19-.27Z"/><path class="cls-9" d="M102.22,42.35l-.08,0-.27.1a3.2,3.2,0,0,1-1.06.12,3,3,0,0,1-2.74-2.49,3,3,0,0,1,.81-2.56,3,3,0,0,1,3-.81,3,3,0,0,1,1.83,4.39,2.88,2.88,0,0,1-.59.76,2.72,2.72,0,0,1-.38.31l-.21.13-.1.06,0,0,0,0h0a.13.13,0,0,0,0-.14l-.14-.06a1.76,1.76,0,0,0,.35-.16A2.88,2.88,0,0,0,103.86,39a2.93,2.93,0,0,0-2.29-2.22,3,3,0,1,0-.77,5.85,2.86,2.86,0,0,0,1.07-.11c.23-.07.35-.14.35-.13s-.1.09-.34.17a2.66,2.66,0,0,1-1.08.17,3.07,3.07,0,0,1-2.87-2.49,3.15,3.15,0,0,1,5.25-2.88,3.13,3.13,0,0,1-.52,5,1.92,1.92,0,0,1-.41.19l-.09,0,0-.09a.15.15,0,0,1,0-.15l0,0h0l0,0,.05,0,.1-.06.19-.12a2.53,2.53,0,0,0,.35-.28,2.81,2.81,0,0,0,.22-3.91,2.81,2.81,0,0,0-4.88,2.27,2.85,2.85,0,0,0,2.58,2.42,3.11,3.11,0,0,0,1-.07A1.88,1.88,0,0,1,102.22,42.35Z"/><path class="cls-9" d="M102.2,46.33l1,1.36h0l2.59-1.15,0,0-.33-1.68h.1l0,.05-.08-.06a6.82,6.82,0,0,0,1.25-1.31l.07.09-.06,0v-.11l1.71.25-.07,0c.32-.84.67-1.73,1-2.68l0,.08-1.44-1,.11-.09,0,.06-.14,0a7,7,0,0,0,0-1.81l.15,0,0,.07-.12-.1,1.39-1,0,.1c-.36-.82-.76-1.72-1.18-2.65l.1,0-1.7.34v-.18l.08,0-.1.14a7.08,7.08,0,0,0-1.31-1.24l.14-.11,0,.08-.18,0c.08-.53.16-1.12.25-1.72l.06.1-2.71-1,.12,0-1,1.45-.13-.15.08,0,0,.2a6.85,6.85,0,0,0-1.8,0h0v-.2h0l-.09.19h0s0,0,0,0l.07-.18,0,0h0l.06,0-.13.17-1-1.4.13,0-2.66,1.18.06-.12c.11.53.23,1.12.34,1.71l-.21,0,0-.08.17.13a7,7,0,0,0-1.23,1.3l-.14-.17.08,0,0,.22-1.73-.25.13-.07c-.33.84-.68,1.77-1,2.7l0-.13,1.45,1-.17.15,0-.07.23,0a6.85,6.85,0,0,0,.05,1.8l-.23,0,0-.07.18.14-1.39,1,0-.15,1.17,2.63-.13-.07,1.69-.33V44l-.06,0,.13-.19a7.28,7.28,0,0,0,1.3,1.23L97,45.2l0-.05.23,0c-.07.53-.16,1.11-.24,1.7l-.08-.13,2.66,1-.15,0,.95-1.42.15.18h0l0-.23a6.13,6.13,0,0,0,1.54,0l.13,0s0,0,0,0a0,0,0,0,1,0,0h0s0,.18.07.16h0l-.26,0c-.17,0-.35,0-.53,0a7.18,7.18,0,0,1-1,0l.11-.06c-.32.48-.63.94-1,1.4l-.14-.18,0,0v.23l-2.58-1,.15-.17,0,.05-.23,0c.09-.57.17-1.13.26-1.69l0,.11a6.55,6.55,0,0,1-1.37-1.31l.11.05-1.68.32,0-.22.07,0-.17.15c-.37-.85-.75-1.7-1.12-2.54h.23l0,.08L93,41.61l1.38-1,0,.11a7.19,7.19,0,0,1,0-1.91l0,.12-1.43-1,.18-.13,0,.1h-.22c.34-.87.67-1.74,1-2.59l.17.14-.09,0,0-.21,1.7.25-.1.05a7,7,0,0,1,1.32-1.39l0,.11-.33-1.69.2,0,0,.09-.14-.15,2.54-1.12v.2l-.1,0,.11-.16,1,1.34,0,0,.06,0h0l-.12.06,0,.13h0l.08-.2h0a6.92,6.92,0,0,1,1.87,0l-.1,0c.34-.5.65-1,1-1.43l.11.15-.1,0v-.19l2.59,1-.12.14,0-.09.18,0c-.09.6-.17,1.16-.25,1.7l0-.09a7,7,0,0,1,1.38,1.32l-.09,0,1.7-.34,0,.17-.09-.05.13-.11,1.12,2.54h-.16l0-.09.13.08-1.38,1,0-.08a6.8,6.8,0,0,1,0,1.9l0-.07,1.43,1-.11.08,0-.08h.14l-1,2.59-.09-.08.06,0,0,.12-1.69-.25.05,0a6.75,6.75,0,0,1-1.29,1.35l0-.05.33,1.68h-.08l0,0,.06.06-2.54,1.12v-.05h0l0,0-1-1.34a1.69,1.69,0,0,1,.27.32l.78,1,0,.06-.07,0h0l-.08,0,.07,0,2.52-1.15.12,0-.06.11,0,0,0,.11,0-.12c-.09-.47-.2-1-.34-1.68v0l0,0a7,7,0,0,0,1.26-1.35l0,0h0l1.7.23.17,0-.15.09-.07,0-.15.09.06-.17c.3-.78.61-1.61,1-2.59l.07-.19.06.19,0,.08.07.2-.17-.12-1.43-1,0,0v0a6.85,6.85,0,0,0,0-1.85v-.05l0,0,1.38-1,.19-.14-.06.23,0,.09-.06.23-.09-.22L107.94,35l-.1-.23.23.12.08,0,.23.12-.25,0-1.69.34h-.06l0-.05A6.58,6.58,0,0,0,105,34.17l0,0v-.05c.08-.55.16-1.11.25-1.71l0-.28.14.24,0,.09.14.24-.26-.1-2.59-1-.27-.1.28-.09.1,0,.27-.09-.16.24-1,1.44,0,.05h-.06a6.48,6.48,0,0,0-1.81,0H100l0,0h0l0-.1c0-.05,0,0,0,0h0l.05.13-.12.06h0l0,0L100,33h0l0,0-1-1.35-.18-.24.3.08.1,0,.3.08-.28.12L96.6,32.79l-.29.13.15-.28.05-.09.14-.28.06.31c.11.55.22,1.11.34,1.69v.07l0,0a6.79,6.79,0,0,0-1.28,1.34l0,.06h-.07l-1.71-.25-.32-.05.28-.16.09-.05.28-.17-.11.31c-.33.85-.67,1.71-1,2.58l-.12.31-.1-.31,0-.1-.1-.32.27.19,1.43,1,.06,0v.07a6.38,6.38,0,0,0,0,1.85v.07l-.06,0-1.38,1-.27.2.09-.33,0-.09.08-.33.14.32,1.12,2.53.14.32-.3-.16-.08,0-.3-.16.34-.06,1.68-.33.07,0,.05.06A6.37,6.37,0,0,0,97.25,45l.06,0v.07c-.09.56-.17,1.13-.26,1.69l-.05.35-.17-.3,0-.06-.18-.3.33.13,2.58,1,.32.12-.33.11h0l-.34.11.2-.29c.31-.47.63-.93,1-1.4l0-.07h.08a6.77,6.77,0,0,0,1,.05l.51,0,.26,0h.07s.1.16.06.16h0l0,0-.06,0-.12,0-.13,0a6.64,6.64,0,0,1-1.6,0l-.44,0,.4-.19h0l.39-.18-.24.36-.94,1.42-.06.08-.09,0-2.65-1-.1,0,0-.1c.08-.58.16-1.16.24-1.7l.06-.43.17.4,0,.06.16.4L97,45.25A7.14,7.14,0,0,1,95.66,44l-.27-.34.41.15.06,0,.4.15-.42.08-1.69.34-.1,0,0-.09c-.4-.91-.8-1.81-1.17-2.63l0-.09.08-.05,1.39-1,.34-.26-.16.4,0,.07-.16.39-.07-.42a7.3,7.3,0,0,1,0-1.86l0-.41.18.38,0,.07.18.38L94.23,39l-1.45-1-.07,0,0-.09,1-2.71,0-.08h.09l1.72.25.4.06-.37.16-.08,0-.37.16.23-.33a7.53,7.53,0,0,1,1.28-1.35l.32-.25-.14.38,0,.08-.14.38-.07-.4c-.12-.59-.24-1.18-.34-1.7l0-.09.08,0L99,31.29l.08,0,0,.07,1,1.4.23.3-.35-.14-.06,0,0,0h0v0l.06-.18s0,0,0,0h0v0l0,.13h0l0,.06h0l-.28-.12.28-.08h0a7.3,7.3,0,0,1,1.86,0l.36,0-.33.16-.08,0-.34.16.21-.31,1-1.44,0-.07.07,0,2.71,1.05.08,0,0,.07c-.08.61-.17,1.2-.25,1.73l0,.33-.13-.31,0-.08-.14-.31.28.2a6.85,6.85,0,0,1,1.34,1.28l.2.25-.3-.11-.08,0-.31-.11.32-.06,1.71-.33.07,0,0,.07,1.16,2.65,0,.06,0,0-1.4,1-.23.17.11-.26,0-.07.11-.27,0,.28a7.24,7.24,0,0,1,0,1.85l0,.27-.12-.24,0-.07-.11-.25.22.16,1.44,1,0,0,0,0c-.37.94-.72,1.84-1,2.68l0,0h-.05l-1.71-.26-.2,0,.19-.08.05,0,.19-.08-.12.17A6.41,6.41,0,0,1,105.48,45l-.15.12.07-.17v0l.07-.18,0,.19c.12.6.22,1.17.32,1.68v0h0l-2.6,1.12h0v0c-.32-.45-.57-.79-.73-1l-.18-.27Z"/><path class="cls-8" d="M99.76,26a4.9,4.9,0,0,1-1.21,0l-.63.93-1.74-.67.16-1.12a4.32,4.32,0,0,1-.88-.83l-1.11.21-.76-1.7.91-.68a4.09,4.09,0,0,1,0-1.21l-.94-.63.67-1.74,1.12.16a4.67,4.67,0,0,1,.84-.88l-.22-1.11L97.65,16l.67.91a4.17,4.17,0,0,1,1.22,0l.63-.94,1.74.67-.17,1.12a4.72,4.72,0,0,1,.89.84l1.1-.22.76,1.71-.9.67a4.54,4.54,0,0,1,0,1.22l.94.63-.67,1.74-1.12-.17a4.37,4.37,0,0,1-.83.89l.21,1.1-1.7.76-.68-.9Zm0-2.68a2,2,0,1,0-2.65-1A2,2,0,0,0,99.78,23.34Z"/><path class="cls-8" d="M99.78,23.34a1.9,1.9,0,0,1-.47.16,2,2,0,0,1-2-.83,2,2,0,0,1-.36-1,1.7,1.7,0,0,1,0-.59,1.87,1.87,0,0,1,.22-.58,2.1,2.1,0,0,1,.95-.86,2.07,2.07,0,0,1,1.27-.12,1.93,1.93,0,0,1,.58.22,1.84,1.84,0,0,1,.46.36,2,2,0,0,1-.23,3,1.59,1.59,0,0,1-.43.24s.16-.08.4-.28a2,2,0,0,0,.69-2,2,2,0,0,0-.5-.9,1.78,1.78,0,0,0-1-.55,2,2,0,0,0-1.21.12,1.9,1.9,0,0,0-.89.81,2.27,2.27,0,0,0-.22.54,2.15,2.15,0,0,0,0,.56,2,2,0,0,0,.34,1,1.81,1.81,0,0,0,.66.61,2,2,0,0,0,1.28.24C99.61,23.41,99.77,23.32,99.78,23.34Z"/><path class="cls-8" d="M99.76,26l0,.05.13.17.51.67h0l1.7-.76v0l-.23-1.11v0h0a4.38,4.38,0,0,0,.83-.88l0,0h0l1.12.16,0,0c.21-.55.44-1.13.67-1.74l0,.05-.94-.62,0,0v0a4.87,4.87,0,0,0,0-1.2v0l0,0,.9-.67,0,.06c-.24-.54-.49-1.12-.76-1.71l.06,0-1.1.22h0l0,0a4.61,4.61,0,0,0-.87-.83l0,0v0l.16-1.12,0,.07L100.14,16l.07,0-.63.94,0,0h0a4.4,4.4,0,0,0-1.2,0h0l-.06,0h0l0,0,0-.06-.09-.11-.16-.23-.34-.45.07,0L96,16.83l0-.06.21,1.11v0l0,0a5.25,5.25,0,0,0-.83.87l0,0h0l-1.12-.16.06,0-.67,1.74,0-.07.94.63,0,0v0a4.44,4.44,0,0,0,0,1.21v0h0l-.91.68,0-.06.75,1.71,0,0,1.11-.21h0l0,0a4.23,4.23,0,0,0,.87.83l0,0v0c-.06.41-.12.77-.17,1.12l0,0,1.74.68h0l.63-.94h0a4.65,4.65,0,0,0,.91,0l.23,0h0l-.23,0a4.56,4.56,0,0,1-.92,0h0l-.62.94h0l-1.75-.67h0v0c0-.35.1-.71.16-1.12l0,0a4.44,4.44,0,0,1-.89-.85l0,0-1.11.22h0v0l-.76-1.7,0,0,0,0,.9-.68,0,.05a4.21,4.21,0,0,1,0-1.23l0,.05-.94-.63,0,0v0l.67-1.74,0,0h0l1.12.16-.06,0a5.16,5.16,0,0,1,.85-.9l0,.06c-.07-.37-.14-.74-.22-1.11v0l0,0,1.7-.76,0,0,0,0,.34.45.17.23.08.11,0,.06,0,0h0l-.06,0h0a4.64,4.64,0,0,1,1.23,0l-.05,0,.63-.94,0,0,0,0,1.74.67,0,0v0c0,.39-.11.77-.16,1.12l0-.06a5.17,5.17,0,0,1,.89.85l0,0,1.1-.21h0l0,0,.76,1.71v0l0,0-.91.67,0-.05a4.66,4.66,0,0,1,0,1.23l0,0,.94.63,0,0,0,0c-.23.61-.46,1.19-.67,1.74v0h0l-1.11-.17h0a4.42,4.42,0,0,1-.84.88v0l.21,1.11v0h0l-1.72.75h0l-.49-.68-.13-.17Z"/><path class="cls-11" d="M120.88,34.73a9.34,9.34,0,0,1-2.36.06l-1.21,1.81-3.37-1.3.32-2.16a8.73,8.73,0,0,1-1.71-1.62l-2.13.42L109,28.65l1.75-1.31a9.25,9.25,0,0,1-.06-2.35l-1.81-1.21,1.3-3.37,2.16.32A8.73,8.73,0,0,1,113.91,19l-.42-2.14,3.29-1.46,1.31,1.75a8.81,8.81,0,0,1,2.35-.06l1.21-1.81L125,16.6l-.32,2.16a8.44,8.44,0,0,1,1.71,1.62l2.14-.43,1.46,3.3-1.75,1.3a8.9,8.9,0,0,1,.06,2.36l1.81,1.21-1.3,3.37-2.16-.32a8.73,8.73,0,0,1-1.62,1.71l.43,2.13-3.3,1.47-1.3-1.75Zm0-5.18a3.87,3.87,0,1,0-5.11-2A3.86,3.86,0,0,0,120.9,29.55Z"/><path class="cls-9" d="M99.76,26a4.9,4.9,0,0,1-1.21,0l-.63.93-1.74-.67.16-1.12a4.32,4.32,0,0,1-.88-.83l-1.11.21-.76-1.7.91-.68a4.09,4.09,0,0,1,0-1.21l-.94-.63.67-1.74,1.12.16a4.67,4.67,0,0,1,.84-.88l-.22-1.11L97.65,16l.67.91a4.17,4.17,0,0,1,1.22,0l.63-.94,1.74.67-.17,1.12a4.72,4.72,0,0,1,.89.84l1.1-.22.76,1.71-.9.67a4.54,4.54,0,0,1,0,1.22l.94.63-.67,1.74-1.12-.17a4.37,4.37,0,0,1-.83.89l.21,1.1-1.7.76-.68-.9Zm0-2.68a2,2,0,1,0-2.65-1A2,2,0,0,0,99.78,23.34Z"/><path class="cls-9" d="M99.78,23.34a1.9,1.9,0,0,1-.47.16,2,2,0,0,1-2-.83,2,2,0,0,1-.36-1,1.7,1.7,0,0,1,0-.59,1.87,1.87,0,0,1,.22-.58,2.1,2.1,0,0,1,.95-.86,2.07,2.07,0,0,1,1.27-.12,1.93,1.93,0,0,1,.58.22,1.84,1.84,0,0,1,.46.36,2,2,0,0,1-.23,3,1.59,1.59,0,0,1-.43.24s.16-.08.4-.28a2,2,0,0,0,.69-2,2,2,0,0,0-.5-.9,1.78,1.78,0,0,0-1-.55,2,2,0,0,0-1.21.12,1.9,1.9,0,0,0-.89.81,2.27,2.27,0,0,0-.22.54,2.15,2.15,0,0,0,0,.56,2,2,0,0,0,.34,1,1.81,1.81,0,0,0,.66.61,2,2,0,0,0,1.28.24C99.61,23.41,99.77,23.32,99.78,23.34Z"/><g class="cls-15"><path class="cls-9" d="M99.76,26l0,.05.13.17.51.67h0l1.7-.76v0l-.23-1.11v0h0a4.38,4.38,0,0,0,.83-.88l0,0h0l1.12.16,0,0c.21-.55.44-1.13.67-1.74l0,.05-.94-.62,0,0v0a4.87,4.87,0,0,0,0-1.2v0l0,0,.9-.67,0,.06c-.24-.54-.49-1.12-.76-1.71l.06,0-1.1.22h0l0,0a4.61,4.61,0,0,0-.87-.83l0,0v0l.16-1.12,0,.07L100.14,16l.07,0-.63.94,0,0h0a4.4,4.4,0,0,0-1.2,0h0l-.06,0h0l0,0,0-.06-.09-.11-.16-.23-.34-.45.07,0L96,16.83l0-.06.21,1.11v0l0,0a5.25,5.25,0,0,0-.83.87l0,0h0l-1.12-.16.06,0-.67,1.74,0-.07.94.63,0,0v0a4.44,4.44,0,0,0,0,1.21v0h0l-.91.68,0-.06.75,1.71,0,0,1.11-.21h0l0,0a4.23,4.23,0,0,0,.87.83l0,0v0c-.06.41-.12.77-.17,1.12l0,0,1.74.68h0l.63-.94h0a4.65,4.65,0,0,0,.91,0l.23,0h0l-.23,0a4.56,4.56,0,0,1-.92,0h0l-.62.94h0l-1.75-.67h0v0c0-.35.1-.71.16-1.12l0,0a4.44,4.44,0,0,1-.89-.85l0,0-1.11.22h0v0l-.76-1.7,0,0,0,0,.9-.68,0,.05a4.21,4.21,0,0,1,0-1.23l0,.05-.94-.63,0,0v0l.67-1.74,0,0h0l1.12.16-.06,0a5.16,5.16,0,0,1,.85-.9l0,.06c-.07-.37-.14-.74-.22-1.11v0l0,0,1.7-.76,0,0,0,0,.34.45.17.23.08.11,0,.06,0,0h0l-.06,0h0a4.64,4.64,0,0,1,1.23,0l-.05,0,.63-.94,0,0,0,0,1.74.67,0,0v0c0,.39-.11.77-.16,1.12l0-.06a5.17,5.17,0,0,1,.89.85l0,0,1.1-.21h0l0,0,.76,1.71v0l0,0-.91.67,0-.05a4.66,4.66,0,0,1,0,1.23l0,0,.94.63,0,0,0,0c-.23.61-.46,1.19-.67,1.74v0h0l-1.11-.17h0a4.42,4.42,0,0,1-.84.88v0l.21,1.11v0h0l-1.72.75h0l-.49-.68-.13-.17Z"/></g><path class="cls-16" d="M132,79.8l.57-.1s4.46,1.48,4.36.61c-.13-1.15-4.19-2.22-4.58-2.24a26.21,26.21,0,0,0-5,.58c-.55.28-3.89,3.4-3.89,3.4l4,4.37A3.76,3.76,0,0,0,130,85.34c.76-.62,1.89-1.72,1.89-1.72s-.05-.32,0-.44c.31-.36.1-.59.1-.59a.77.77,0,0,0,.57-.57.6.6,0,0,0-.1-.42c-.25-.24-.37-.21-.37-.21a1.11,1.11,0,0,0,.74-.69c.12-.52-.62-.77-.62-.77"/><path class="cls-17" d="M136.8,80.51a2.46,2.46,0,0,1-1,.08,5.23,5.23,0,0,1-1.08-.16L133.47,80l-.94-.32h.06a13,13,0,0,1-2.37.28,14.38,14.38,0,0,1,2.33-.51h.06l.94.32,1.23.42a7.09,7.09,0,0,0,1,.21C136.42,80.49,136.79,80.47,136.8,80.51Z"/><path class="cls-16" d="M131.65,80l-1.47,1.13a1.71,1.71,0,0,0-.44.45.54.54,0,0,0,0,.6.52.52,0,0,0,.47.17,1.36,1.36,0,0,0,.48-.16,16.5,16.5,0,0,0,1.74-1"/><path class="cls-17" d="M132.54,81.17a8.68,8.68,0,0,1-1.7,1.09,2.73,2.73,0,0,1-.61.2.94.94,0,0,1-.37,0,.47.47,0,0,1-.32-.25.68.68,0,0,1,.12-.73,2.62,2.62,0,0,1,.47-.43c.31-.25.6-.46.84-.64a3.08,3.08,0,0,1,.83-.49,6.84,6.84,0,0,1-.74.61l-.8.67a2.4,2.4,0,0,0-.43.41.47.47,0,0,0-.1.5.42.42,0,0,0,.47.16,2.78,2.78,0,0,0,.56-.17,6.53,6.53,0,0,0,.92-.47A4,4,0,0,1,132.54,81.17Z"/><path class="cls-16" d="M132,81.56s.46-.43.64-.4a.59.59,0,0,1,.58.43c.08.31,0,.41-.59,1"/><path class="cls-16" d="M132,81.56l-1.21,1a1.38,1.38,0,0,0-.37.39.47.47,0,0,0,0,.51.42.42,0,0,0,.38.14,1.19,1.19,0,0,0,.4-.14,15.83,15.83,0,0,0,1.43-.85"/><path class="cls-17" d="M133.2,81.92a1.92,1.92,0,0,1-.56.74,5.28,5.28,0,0,1-.82.59,4.53,4.53,0,0,1-.54.27,1.37,1.37,0,0,1-.66.16.46.46,0,0,1-.35-.19.52.52,0,0,1-.07-.38,1,1,0,0,1,.36-.54q.44-.37.78-.63a3.23,3.23,0,0,1,.78-.5,4.77,4.77,0,0,1-.69.62l-.74.66a.77.77,0,0,0-.28.42.25.25,0,0,0,.23.33,1.49,1.49,0,0,0,.56-.14c.18-.08.36-.16.52-.25a5.83,5.83,0,0,0,.82-.54C133,82.19,133.17,81.9,133.2,81.92Z"/><path class="cls-16" d="M124.88,82.94a1.05,1.05,0,0,0,1.2.23c.42-.16.76-.44,1.16-.63,1.2-.54,2.69-.07,3.86-.67.16-.09.33-.24.29-.42s-.25-.22-.41-.25l-4.3-.7"/><path class="cls-17" d="M126.68,80.5a1.53,1.53,0,0,1,.47,0l1.28.17,1.88.29.54.08a.9.9,0,0,1,.61.25.36.36,0,0,1,0,.41.77.77,0,0,1-.27.24,2.57,2.57,0,0,1-.6.23,17,17,0,0,1-2.33.21,3.39,3.39,0,0,0-1,.23c-.28.13-.53.29-.78.42a1.52,1.52,0,0,1-1.28.2c-.3-.12-.37-.31-.36-.31a1.31,1.31,0,0,0,.39.22,1.51,1.51,0,0,0,1.17-.26c.23-.13.47-.31.77-.45a3.58,3.58,0,0,1,1-.28,18.78,18.78,0,0,0,2.3-.22,2.33,2.33,0,0,0,.54-.21c.16-.08.26-.22.19-.29s-.25-.12-.44-.15l-.54-.1-1.87-.33-1.26-.25A2.13,2.13,0,0,1,126.68,80.5Z"/><path class="cls-16" d="M132.29,82.9s.34-.31.48-.29.35,0,.42.32,0,.31-.44.74"/><path class="cls-16" d="M132.29,82.9l-.9.73a1.07,1.07,0,0,0-.27.29.37.37,0,0,0,0,.38.31.31,0,0,0,.28.11.84.84,0,0,0,.3-.11,11.22,11.22,0,0,0,1.05-.63"/><path class="cls-17" d="M133.18,83.17a1.21,1.21,0,0,1-.4.56,3.45,3.45,0,0,1-.61.45,3,3,0,0,1-.4.21,1.27,1.27,0,0,1-.5.12.36.36,0,0,1-.34-.46.7.7,0,0,1,.28-.41l.59-.45a2.28,2.28,0,0,1,.58-.37s-.17.21-.49.49l-.55.48a.52.52,0,0,0-.2.3.15.15,0,0,0,.14.2.91.91,0,0,0,.41-.1,2.64,2.64,0,0,0,.38-.18,4,4,0,0,0,.61-.39C133,83.37,133.15,83.15,133.18,83.17Z"/><path class="cls-17" d="M128.88,84.43a5.23,5.23,0,0,0-.11-1,5.19,5.19,0,0,0-.46-.88c0-.06.49.21.67.82A1.17,1.17,0,0,1,128.88,84.43Z"/><path class="cls-10" d="M94.53,77.37A14.3,14.3,0,0,0,88.2,76a73.12,73.12,0,0,0-9-.14s-8.79.69-8.83,7.29l1.4,24.37-1.82,10.86,25.51.77-.19-12.81c.08,5.75-.19-12.43-.1-17.28.39-3.59,2.1-4,2.38-6.34A5.76,5.76,0,0,0,94.53,77.37Z"/><path class="cls-10" d="M89.24,76.18a16.76,16.76,0,0,1,6.43,1.19c2.55,1.25,16.51,9.81,16.51,9.81l10.72-5.94,5.67,5.31-12.3,8.12a8.46,8.46,0,0,1-8.09.77L94.31,89.93Z"/><path class="cls-7" d="M95.13,85.05c.06,0,.13,3.79.14,8.47s0,8.46-.09,8.46-.13-3.79-.15-8.46S95.06,85.05,95.13,85.05Z"/><path class="cls-9" d="M62.59,185.18l-2.41,9.58-4.1,7a1,1,0,0,0,.43,1.42h0a1,1,0,0,0,.93,0c1.83-1,8.58-4.67,8.72-5.38s3.22-9.94,3.22-9.94Z"/><path class="cls-18" d="M56.51,203.21l9.83-6.05-.11.41a1.52,1.52,0,0,1-.62.85c-.8.55-3,2-8.15,4.78a1,1,0,0,1-1,0Z"/><g class="cls-19"><path class="cls-4" d="M65.23,193.55a.61.61,0,0,0-.37.73.58.58,0,0,0,.71.37.64.64,0,0,0,.4-.77.62.62,0,0,0-.79-.31"/></g><path class="cls-7" d="M59.84,199.65a3,3,0,0,0-.63-1,3.45,3.45,0,0,0-1-.52s.14-.06.37,0a1.64,1.64,0,0,1,.81.38,1.6,1.6,0,0,1,.48.77C59.89,199.5,59.86,199.65,59.84,199.65Z"/><path class="cls-7" d="M58.81,200.74c-.06,0-.28-.37-.74-.65a7.73,7.73,0,0,0-.89-.37,1.08,1.08,0,0,1,1,.19C58.71,200.23,58.86,200.72,58.81,200.74Z"/><path class="cls-7" d="M61.55,198.36a11.87,11.87,0,0,0-1.06-1.07,12.21,12.21,0,0,0-1.32-.72,2.28,2.28,0,0,1,1.45.55A2.24,2.24,0,0,1,61.55,198.36Z"/><path class="cls-7" d="M62.53,195.51c0,.05-.51-.31-1.19-.53s-1.26-.2-1.27-.26a2,2,0,0,1,1.34.05A2,2,0,0,1,62.53,195.51Z"/><path class="cls-7" d="M63.31,192.72a4.88,4.88,0,0,0-1.22-.59,5,5,0,0,0-1.35,0s.13-.12.38-.18a2.18,2.18,0,0,1,1,0,2.27,2.27,0,0,1,.91.46C63.25,192.55,63.33,192.7,63.31,192.72Z"/><path class="cls-7" d="M62.25,191.6a1.11,1.11,0,0,1,.09-.36,2.58,2.58,0,0,1,.55-.86,1.12,1.12,0,0,1,.62-.4.4.4,0,0,1,.42.21.64.64,0,0,1,0,.47,1.44,1.44,0,0,1-1.56.94,1.65,1.65,0,0,1-1.34-1.27.58.58,0,0,1,.1-.47.41.41,0,0,1,.46-.09,1.46,1.46,0,0,1,.54.5,2.86,2.86,0,0,1,.44.92.86.86,0,0,1,.06.37,4.32,4.32,0,0,0-.63-1.2,1.21,1.21,0,0,0-.48-.42.21.21,0,0,0-.25,0,.42.42,0,0,0,0,.32,1.48,1.48,0,0,0,1.17,1.09,1.25,1.25,0,0,0,1.34-.79.53.53,0,0,0,0-.33.21.21,0,0,0-.23-.11,1,1,0,0,0-.53.32A3.85,3.85,0,0,0,62.25,191.6Z"/><path class="cls-9" d="M94.92,186.44l-.54,8.05s8,2.66,8.06,4.16l-15.65.11.31-12.58Z"/><g class="cls-19"><path class="cls-4" d="M89.57,193.67a.63.63,0,0,0-.47.71.62.62,0,0,0,.71.47.67.67,0,0,0,.48-.76.63.63,0,0,0-.78-.41"/></g><g class="cls-19"><path class="cls-4" d="M86.79,198.76l0-1.27,15.12.42a1.09,1.09,0,0,1,.58.85Z"/></g><path class="cls-7" d="M94.64,194.42c0,.07-.39.1-.77.33s-.59.55-.66.52.05-.47.52-.75S94.66,194.35,94.64,194.42Z"/><path class="cls-7" d="M96.26,195.15c0,.07-.32.19-.59.51s-.35.65-.43.65-.11-.44.23-.83S96.26,195.07,96.26,195.15Z"/><path class="cls-7" d="M97.13,197.14c-.07,0-.16-.37.05-.78s.57-.57.6-.51-.2.28-.36.63S97.21,197.13,97.13,197.14Z"/><path class="cls-7" d="M94.56,192.57c0,.07-.38,0-.82,0s-.77.14-.81.07.3-.33.81-.34S94.6,192.51,94.56,192.57Z"/><path class="cls-7" d="M94.64,190.94a1.56,1.56,0,0,1-.79,0,3.56,3.56,0,0,1-.81-.28,3.83,3.83,0,0,1-.44-.25,1,1,0,0,1-.23-.19.33.33,0,0,1,0-.41.43.43,0,0,1,.34-.17,1.25,1.25,0,0,1,.3,0,3.41,3.41,0,0,1,.48.18,3.16,3.16,0,0,1,.71.5,1.42,1.42,0,0,1,.44.65s-.21-.22-.57-.51a3.3,3.3,0,0,0-.68-.41,3,3,0,0,0-.45-.16c-.16,0-.31,0-.35,0s0,0,0,.09a.85.85,0,0,0,.17.14,3.77,3.77,0,0,0,.41.25,4.8,4.8,0,0,0,.75.31A6.66,6.66,0,0,1,94.64,190.94Z"/><path class="cls-7" d="M94.53,191.05a1.31,1.31,0,0,1-.18-.76,2.53,2.53,0,0,1,.13-.86,3.92,3.92,0,0,1,.22-.47.64.64,0,0,1,.51-.38.38.38,0,0,1,.32.23,1.21,1.21,0,0,1,.07.29,1.88,1.88,0,0,1,0,.53,1.91,1.91,0,0,1-.36.8c-.32.39-.64.47-.65.45s.25-.18.49-.56a1.85,1.85,0,0,0,.27-.73,1.36,1.36,0,0,0,0-.45c0-.17-.08-.31-.14-.29s-.21.12-.28.25a4,4,0,0,0-.21.41,3.15,3.15,0,0,0-.17.78C94.5,190.75,94.58,191,94.53,191.05Z"/><polygon class="cls-7" points="94.92 116.49 71.06 116.31 59.53 192.03 69.43 193.28 82.12 131.03 85.92 193.5 85.93 193.69 96.64 193.5 94.92 116.49"/><path class="cls-7" d="M92.12,115.42a4.58,4.58,0,0,1-.71.27c-.46.16-1.14.36-2,.56a29.91,29.91,0,0,1-3,.56,33.06,33.06,0,0,1-3.75.25,35.59,35.59,0,0,1-3.74-.23,30.62,30.62,0,0,1-3-.54c-.85-.2-1.53-.39-2-.55a7,7,0,0,1-.71-.26,3.6,3.6,0,0,1,.74.17c.46.13,1.15.29,2,.47s1.86.35,3,.49a32.29,32.29,0,0,0,7.44,0c1.14-.14,2.16-.31,3-.5s1.53-.35,2-.48A5.5,5.5,0,0,1,92.12,115.42Z"/><path class="cls-7" d="M79,60.9a13.56,13.56,0,0,1-.78-2.64,4.69,4.69,0,0,1,.29-2.7,2.86,2.86,0,0,1,2.07-1.66,10.51,10.51,0,0,0,1.69-.13,5.08,5.08,0,0,0,1.57-1.17,4.76,4.76,0,0,1,2.81-1.13,2.8,2.8,0,0,1,1.56.31,1.58,1.58,0,0,1,.85,1.29,7.72,7.72,0,0,1,2-.37,2.56,2.56,0,0,1,1.83.63,1.57,1.57,0,0,1,.35,1.82,1.26,1.26,0,0,1,1.61.54,1.66,1.66,0,0,1-.19,1.76,3.06,3.06,0,0,1-1.87,1,4.46,4.46,0,0,1-1.93-.14"/><path class="cls-16" d="M83.79,81.19h0a4.64,4.64,0,0,0,5.09-4.74c0-1.49-.07-2.76-.06-3a4.44,4.44,0,0,0,3.94-4.09c.22-3.69,0-12.2,0-12.2h0a12.87,12.87,0,0,0-13,1l-.57.4.44,18.07A4.64,4.64,0,0,0,83.79,81.19Z"/><path class="cls-17" d="M88.82,73.45a8.58,8.58,0,0,1-4.75-1.6s1,2.72,4.72,2.56Z"/><path class="cls-16" d="M79.47,62.46c-.06,0-2.5-.87-2.54,1.66a1.9,1.9,0,0,0,2.51,2C79.45,66,79.47,62.46,79.47,62.46Z"/><path class="cls-17" d="M78.68,65.13s0,0-.12.06a.43.43,0,0,1-.32,0,1.07,1.07,0,0,1-.49-1,1.26,1.26,0,0,1,.13-.62c.08-.19.2-.32.34-.34a.22.22,0,0,1,.25.13c0,.07,0,.12,0,.12s.06,0,0-.14a.28.28,0,0,0-.1-.16.33.33,0,0,0-.24-.07.64.64,0,0,0-.47.38,1.61,1.61,0,0,0-.16.71,1.14,1.14,0,0,0,.63,1.1.46.46,0,0,0,.4-.06C78.68,65.19,78.69,65.13,78.68,65.13Z"/><path class="cls-7" d="M92.87,58.35a8.64,8.64,0,0,1-5.38-.53c-1.88-.81-4-1.15-4.48-.75s-.45,2.28-2.24,2.93c0,0,.47,5.33-1,5.33-1.06,0-1-7.46-1-7.46L82.22,56,86,55l3.59-.2,3.39.85Z"/><path class="cls-7" d="M91.87,62.66a.55.55,0,0,1-.52.55.53.53,0,0,1-.56-.49.54.54,0,0,1,.52-.55A.53.53,0,0,1,91.87,62.66Z"/><path class="cls-7" d="M92,62.05c-.07.07-.48-.23-1.06-.23s-1,.3-1.07.22,0-.15.22-.29a1.54,1.54,0,0,1,.86-.26,1.4,1.4,0,0,1,.84.27C92,61.9,92,62,92,62.05Z"/><path class="cls-7" d="M86.18,62.8a.54.54,0,0,1-.52.54.51.51,0,0,1-.56-.48.54.54,0,0,1,.52-.55A.51.51,0,0,1,86.18,62.8Z"/><path class="cls-7" d="M86.27,62.16c-.06.07-.47-.23-1-.23s-1,.29-1.07.22,0-.16.22-.29a1.38,1.38,0,0,1,.86-.26,1.4,1.4,0,0,1,.84.27C86.25,62,86.31,62.13,86.27,62.16Z"/><path class="cls-7" d="M88.38,66.47a4.5,4.5,0,0,1,1-.17c.14,0,.29,0,.31-.15s0-.26-.1-.43c-.14-.36-.28-.74-.44-1.13a18.45,18.45,0,0,1-1-3,20.49,20.49,0,0,1,1.22,2.87c.14.4.28.77.42,1.14a.92.92,0,0,1,.08.58.35.35,0,0,1-.25.21.81.81,0,0,1-.25,0A4.09,4.09,0,0,1,88.38,66.47Z"/><path class="cls-7" d="M86.67,66.87c.1,0,.1.63.64,1.08s1.21.37,1.21.46-.15.12-.43.13a1.57,1.57,0,0,1-1-.35,1.43,1.43,0,0,1-.5-.9C86.56,67,86.63,66.87,86.67,66.87Z"/><path class="cls-7" d="M86.42,59.89c0,.15-.63.08-1.31.16s-1.24.27-1.33.13.06-.22.28-.37a2.29,2.29,0,0,1,1-.35,2.14,2.14,0,0,1,1,.13C86.32,59.69,86.45,59.81,86.42,59.89Z"/><path class="cls-7" d="M91.77,60.37c-.1.13-.5,0-1,0s-.89.09-1,0,0-.2.2-.32a1.4,1.4,0,0,1,1.58,0C91.76,60.17,91.82,60.31,91.77,60.37Z"/><rect class="cls-4" x="37.14" y="98.18" width="69.78" height="28.34"/><path class="cls-9" d="M106.92,126.52s0-.17,0-.51,0-.82,0-1.47c0-1.29,0-3.19,0-5.64,0-4.89,0-12,0-20.72l.08.08-69.77,0h0l.11-.11v28.34l-.11-.1,50,0,14.51,0,3.89,0h0l-3.86,0-14.49,0-50.1,0H37V98.07h.12l69.77,0H107v.08c0,8.78,0,15.87,0,20.77,0,2.44,0,4.33,0,5.62,0,.64,0,1.13,0,1.46S106.92,126.52,106.92,126.52Z"/><path class="cls-9" d="M37.21,102c0-.06,15.6-.11,34.83-.11s34.84,0,34.84.11-15.6.11-34.84.11S37.21,102.06,37.21,102Z"/><g class="cls-20"><path class="cls-8" d="M40.13,100.29a.51.51,0,1,1-.5-.51A.51.51,0,0,1,40.13,100.29Z"/></g><g class="cls-20"><path class="cls-8" d="M41.87,100.29a.51.51,0,1,1-.51-.51A.51.51,0,0,1,41.87,100.29Z"/></g><g class="cls-20"><path class="cls-8" d="M43.58,100.29a.51.51,0,1,1-.51-.51A.51.51,0,0,1,43.58,100.29Z"/></g><rect class="cls-8" x="43.07" y="106.61" width="16.85" height="16.85"/><rect class="cls-9" x="43.07" y="106.61" width="16.85" height="16.85"/><path class="cls-9" d="M102.09,111.12c0,.06-8.67.11-19.37.11s-19.37,0-19.37-.11S72,111,82.72,111,102.09,111.06,102.09,111.12Z"/><path class="cls-9" d="M102.09,114.56c0,.06-8.67.11-19.37.11s-19.37,0-19.37-.11,8.67-.11,19.37-.11S102.09,114.5,102.09,114.56Z"/><path class="cls-9" d="M88.29,118a.72.72,0,0,1-.25,0l-.73,0-2.67,0-8.82,0-8.82,0-2.67,0-.73,0a.72.72,0,0,1-.25,0l.25,0,.73,0,2.67,0,8.82,0,8.82,0,2.67,0,.73,0Z"/><path class="cls-10" d="M72.93,78.11s-3.4,1.76-4.92,8c-.74,3.11-3.82,13.2-4.32,18.84-.31,3.51,3.52,6.77,7,7.29l.16,0a34.32,34.32,0,0,0,14.23-.51l-1.46-6.61s-9.24-1.79-10.42-2.34l3.59-14.18S79.47,78.72,72.93,78.11Z"/><path class="cls-7" d="M73.77,79.54s0,0,.13,0l.37.08a3.92,3.92,0,0,1,1.33.6A4,4,0,0,1,77,82.07a7.69,7.69,0,0,1,.48,3.07,13,13,0,0,1-.19,1.8c-.13.63-.31,1.25-.46,1.92-.33,1.32-.69,2.73-1.06,4.22l-2.46,9.79-.09-.15c1.09.31,2.24.61,3.41.9s2.44.58,3.64.81c.6.11,1.19.21,1.78.28.29,0,.59.06.89.13a3.88,3.88,0,0,1,.45.14.92.92,0,0,1,.38.33,3,3,0,0,1,.29.85l.19.84c.11.56.21,1.11.31,1.65.19,1.08.38,2.12.62,3.11l0,.1-.1,0a34.21,34.21,0,0,1-11,.9,26.88,26.88,0,0,1-4.16-.61,1,1,0,0,1,.28,0l.81.13c.7.1,1.74.24,3.07.33a35.57,35.57,0,0,0,10.92-1l-.08.13c-.25-1-.44-2-.64-3.12-.1-.54-.2-1.09-.31-1.64l-.19-.83a2.56,2.56,0,0,0-.26-.78c-.13-.23-.4-.29-.68-.36A7.91,7.91,0,0,0,82,105c-.6-.07-1.2-.17-1.8-.28-1.2-.23-2.42-.51-3.65-.81s-2.33-.6-3.41-.9l-.12,0,0-.11L75.57,93l1.08-4.22c.16-.66.34-1.3.47-1.9a11.28,11.28,0,0,0,.2-1.78,7.78,7.78,0,0,0-.42-3,4,4,0,0,0-1.35-1.82,4.36,4.36,0,0,0-1.29-.63c-.16,0-.29-.07-.37-.09Z"/><path class="cls-7" d="M68.76,105.62a1.58,1.58,0,0,1,.25-.8,3.75,3.75,0,0,1,1.41-1.48,3.89,3.89,0,0,1,2-.54,1.81,1.81,0,0,1,.83.17s-.33,0-.83,0a4.09,4.09,0,0,0-1.85.57,4.34,4.34,0,0,0-1.38,1.35C68.89,105.33,68.8,105.64,68.76,105.62Z"/><path class="cls-16" d="M84,105.77l2.67-.29A15,15,0,0,1,88.5,103a39.73,39.73,0,0,1,4.44-2.41,1,1,0,0,1,0,1.3,15.29,15.29,0,0,1-2,1.29h0a1,1,0,0,0,1.15,1.28c1.09-.2,2.37-.43,2.53-.43a12.58,12.58,0,0,0,2.08-1.81.68.68,0,0,1,1.14.62.31.31,0,0,1-.09.16s1.14,0,.12,1.51a2.42,2.42,0,0,1-.6,2.08,7,7,0,0,1-.91,2.32c-.54.59-5.82,1.72-5.82,1.72l-5.5.53Z"/><path class="cls-17" d="M92.57,106.12a3.23,3.23,0,0,0,.94,0,5,5,0,0,0,2.22-.58,4.69,4.69,0,0,0,1.55-1.7,2.86,2.86,0,0,0,.4-.86,5.07,5.07,0,0,0-.55.77,5.31,5.31,0,0,1-1.52,1.58,5.66,5.66,0,0,1-2.11.62A3.61,3.61,0,0,0,92.57,106.12Z"/><path class="cls-17" d="M93.11,107.34a1.75,1.75,0,0,0,.86.07,6.31,6.31,0,0,0,.94-.14,2.81,2.81,0,0,0,1.08-.44,4.83,4.83,0,0,0,.81-.83l.58-.73a3.39,3.39,0,0,0,.5-.7s-.27.2-.63.59c-.18.19-.39.43-.62.69a5.75,5.75,0,0,1-.78.78,2.81,2.81,0,0,1-1,.42,8.53,8.53,0,0,1-.89.19C93.44,107.32,93.12,107.31,93.11,107.34Z"/><path class="cls-17" d="M93.85,108.7a6.63,6.63,0,0,0,2.08-.41,1,1,0,0,0,.41-.25,4,4,0,0,0,.29-.29,4.64,4.64,0,0,0,.4-.55c.21-.34.27-.58.24-.59s-.15.19-.38.49a5.57,5.57,0,0,1-.43.5l-.28.26a.79.79,0,0,1-.31.19c-.57.15-1.07.31-1.43.43A2.36,2.36,0,0,0,93.85,108.7Z"/><path class="cls-9" d="M179.37,42h.3a7.42,7.42,0,0,1,.88.07,8.12,8.12,0,0,1,3.26,1.13,8.29,8.29,0,0,1,2,1.6,8.86,8.86,0,0,1,1.66,2.6,9,9,0,0,1,.65,3.53V55c0,11.58,0,28.35,0,49.06s0,45.37,0,72.75c0,3.42,0,6.89,0,10.4v2.63a9.25,9.25,0,0,1-.34,2.66A8.72,8.72,0,0,1,186.7,195a9.59,9.59,0,0,1-1.81,2,8.79,8.79,0,0,1-5,1.94c-1.82.06-3.63,0-5.46,0h-51.3a9.21,9.21,0,0,1-5.66-1.56,8.93,8.93,0,0,1-3.45-4.76,9.8,9.8,0,0,1-.36-2.94V175.11q0-11.55,0-22.73c0-14.91,0-29.28,0-43s0-26.71,0-38.89q0-9.13,0-17.62V50.79c0-.35,0-.7,0-1.06s.08-.69.17-1A9,9,0,0,1,115.75,45,9.08,9.08,0,0,1,119,42.6a9.21,9.21,0,0,1,3.86-.73h13a2.78,2.78,0,0,1,1.72.48,2.91,2.91,0,0,1,1.06,1.39,4.81,4.81,0,0,1,.18,1.72v.85a7.58,7.58,0,0,0,0,.83,2.78,2.78,0,0,0,.65,1.45,2.6,2.6,0,0,0,1.33.83,2.91,2.91,0,0,0,.78.07h3.94l11.47,0h5.05c.4,0,.81,0,1.19,0a2.51,2.51,0,0,0,1.06-.38,2.73,2.73,0,0,0,1.22-1.75,4.6,4.6,0,0,0,.07-1v-1a5,5,0,0,1,0-1,2.78,2.78,0,0,1,.32-.93,2.85,2.85,0,0,1,1.39-1.23,4.49,4.49,0,0,1,1.73-.18l5.64,0h-5.64a4.48,4.48,0,0,0-1.7.19A2.67,2.67,0,0,0,166,43.4a2.9,2.9,0,0,0-.32.91,5.47,5.47,0,0,0,0,1v1a4.85,4.85,0,0,1-.07,1.07,2.82,2.82,0,0,1-1.26,1.82,2.46,2.46,0,0,1-1.1.39c-.4,0-.79,0-1.2,0H141.59a3.86,3.86,0,0,1-.82-.08,2.8,2.8,0,0,1-1.4-.87,3,3,0,0,1-.69-1.53c0-.29,0-.57,0-.85v-.85a4.19,4.19,0,0,0-.17-1.66,2.75,2.75,0,0,0-1-1.33,2.64,2.64,0,0,0-1.63-.44h-13a8.74,8.74,0,0,0-3.79.72,8.9,8.9,0,0,0-3.16,2.36,8.76,8.76,0,0,0-1.79,3.61c-.08.33-.11.68-.17,1s0,.69-.05,1V52.9q0,8.48,0,17.62V189.67a9.26,9.26,0,0,0,.35,2.87,8.66,8.66,0,0,0,3.35,4.63,8.93,8.93,0,0,0,5.52,1.52h51.3c1.82,0,3.65,0,5.45,0a8.52,8.52,0,0,0,4.88-1.9,9.12,9.12,0,0,0,1.77-2,8.73,8.73,0,0,0,1.08-2.39,9,9,0,0,0,.32-2.59c0-.88,0-1.76,0-2.63v-10.4c0-27.38,0-52,0-72.75s0-37.48,0-49.06v-4.1a8.88,8.88,0,0,0-.63-3.5,8.7,8.7,0,0,0-1.63-2.58,8.56,8.56,0,0,0-2-1.61,8,8,0,0,0-3.24-1.14,8.22,8.22,0,0,0-.87-.09Z"/><path class="cls-9" d="M179.43,85.08a5.42,5.42,0,0,1,1.65-.13l-.13.13h0v-.62c0-.2,0-.38,0-.52,0-.3,0-.49.09-.49s.06.19.08.49c0,.14,0,.32,0,.52v.62h0c-.06,0,.12-.12-.12.12A6.07,6.07,0,0,1,179.43,85.08Z"/><path class="cls-9" d="M173.09,85.08a9.73,9.73,0,0,1,3.17,0,10.53,10.53,0,0,1-3.17,0Z"/><path class="cls-9" d="M166.75,85.08a9.73,9.73,0,0,1,3.17,0,10.53,10.53,0,0,1-3.17,0Z"/><path class="cls-9" d="M160.41,85.08a9.73,9.73,0,0,1,3.17,0,10.53,10.53,0,0,1-3.17,0Z"/><path class="cls-9" d="M154.07,85.08a9.73,9.73,0,0,1,3.17,0,10.53,10.53,0,0,1-3.17,0Z"/><path class="cls-9" d="M147.73,85.08a9.73,9.73,0,0,1,3.17,0,10.53,10.53,0,0,1-3.17,0Z"/><path class="cls-9" d="M141.39,85.08a9.73,9.73,0,0,1,3.17,0,10.53,10.53,0,0,1-3.17,0Z"/><path class="cls-9" d="M135.05,85.08a9.73,9.73,0,0,1,3.17,0,10.53,10.53,0,0,1-3.17,0Z"/><path class="cls-9" d="M128.71,85.08a9.73,9.73,0,0,1,3.17,0,10.53,10.53,0,0,1-3.17,0Z"/><path class="cls-9" d="M123.9,83.43a5.63,5.63,0,0,1,.12,1.65c-.24-.25-.07-.07-.12-.13h.64l.52,0c.3,0,.48.05.48.09s-.18.06-.48.08l-.52,0h-.64l-.12-.12A5.63,5.63,0,0,1,123.9,83.43Z"/><path class="cls-9" d="M123.9,77a5.35,5.35,0,0,1,.12,1.61,5.35,5.35,0,0,1-.12,1.61,5.35,5.35,0,0,1-.12-1.61A5.35,5.35,0,0,1,123.9,77Z"/><path class="cls-9" d="M123.9,70.57a5.35,5.35,0,0,1,.12,1.61,5.35,5.35,0,0,1-.12,1.61,5.35,5.35,0,0,1-.12-1.61A5.35,5.35,0,0,1,123.9,70.57Z"/><path class="cls-9" d="M125.54,65.71a5.33,5.33,0,0,1-1.64.13l.12-.12h0v.61c0,.2,0,.38,0,.53s0,.48-.08.48-.07-.19-.09-.48,0-.33,0-.53v-.61h0c0-.06-.13.12.12-.13A6,6,0,0,1,125.54,65.71Z"/><path class="cls-9" d="M131.88,65.71a9.73,9.73,0,0,1-3.17,0,10.53,10.53,0,0,1,3.17,0Z"/><path class="cls-9" d="M138.22,65.71a9.73,9.73,0,0,1-3.17,0,10.53,10.53,0,0,1,3.17,0Z"/><path class="cls-9" d="M144.56,65.71a9.73,9.73,0,0,1-3.17,0,10.53,10.53,0,0,1,3.17,0Z"/><path class="cls-9" d="M150.9,65.71a9.73,9.73,0,0,1-3.17,0,10.53,10.53,0,0,1,3.17,0Z"/><path class="cls-9" d="M157.24,65.71a9.73,9.73,0,0,1-3.17,0,10.53,10.53,0,0,1,3.17,0Z"/><path class="cls-9" d="M163.58,65.71a9.73,9.73,0,0,1-3.17,0,10.53,10.53,0,0,1,3.17,0Z"/><path class="cls-9" d="M169.92,65.71a9.73,9.73,0,0,1-3.17,0,10.53,10.53,0,0,1,3.17,0Z"/><path class="cls-9" d="M176.26,65.71a9.73,9.73,0,0,1-3.17,0,10.53,10.53,0,0,1,3.17,0Z"/><path class="cls-9" d="M181.08,67.36a5.38,5.38,0,0,1-.13-1.64l.13.12h-.64l-.53,0c-.29,0-.48,0-.48-.09s.19-.06.48-.08l.53,0h.64c0,.06-.13-.12.12.13A6,6,0,0,1,181.08,67.36Z"/><path class="cls-9" d="M181.08,73.79a5.16,5.16,0,0,1-.13-1.61,5.16,5.16,0,0,1,.13-1.61,5.77,5.77,0,0,1,.12,1.61A5.77,5.77,0,0,1,181.08,73.79Z"/><path class="cls-9" d="M181.08,80.22a5.16,5.16,0,0,1-.13-1.61,5.16,5.16,0,0,1,.13-1.61,10.86,10.86,0,0,1,0,3.22Z"/><rect class="cls-9" x="123.53" y="65.21" width="1.01" height="1.01"/><rect class="cls-9" x="123.39" y="84.57" width="1.01" height="1.01"/><rect class="cls-9" x="151.98" y="84.57" width="1.01" height="1.01"/><rect class="cls-9" x="151.98" y="65" width="1.01" height="1.01"/><path class="cls-7" d="M181.05,56.08s-1.44.07-3.21.09-3.21,0-3.21,0,1.44-.08,3.21-.1S181.05,56,181.05,56.08Z"/><path class="cls-7" d="M181.06,57.72s-1.43.08-3.21.09-3.21,0-3.21,0,1.44-.08,3.21-.09S181.06,57.68,181.06,57.72Z"/><path class="cls-7" d="M181.08,59.36s-1.44.08-3.21.09-3.21,0-3.21,0,1.43-.08,3.21-.09S181.08,59.32,181.08,59.36Z"/><path class="cls-3" d="M161.44,113.56c0,.06-4.44.11-9.91.11s-9.91,0-9.91-.11,4.44-.12,9.91-.12S161.44,113.49,161.44,113.56Z"/><path class="cls-7" d="M177.25,117.62c0,.07-8,.12-17.82.12s-17.81,0-17.81-.12,8-.11,17.81-.11S177.25,117.56,177.25,117.62Z"/><path class="cls-7" d="M176.83,120.53c0,.06-7.89.11-17.61.11s-17.6,0-17.6-.11,7.88-.11,17.6-.11S176.83,120.47,176.83,120.53Z"/><path class="cls-7" d="M162.41,123.3c0,.06-4.66.11-10.4.11s-10.39,0-10.39-.11,4.65-.11,10.39-.11S162.41,123.24,162.41,123.3Z"/><path class="cls-3" d="M161.44,157.78c0,.06-4.44.11-9.91.11s-9.91,0-9.91-.11,4.44-.12,9.91-.12S161.44,157.71,161.44,157.78Z"/><path class="cls-7" d="M177.25,161.84c0,.07-8,.12-17.82.12s-17.81-.05-17.81-.12,8-.11,17.81-.11S177.25,161.78,177.25,161.84Z"/><path class="cls-7" d="M176.83,164.75c0,.06-7.89.11-17.61.11s-17.6-.05-17.6-.11,7.88-.11,17.6-.11S176.83,164.69,176.83,164.75Z"/><path class="cls-7" d="M162.41,167.52c0,.06-4.66.11-10.4.11s-10.39,0-10.39-.11,4.65-.11,10.39-.11S162.41,167.46,162.41,167.52Z"/><path class="cls-9" d="M161.49,93.55c0,.06-4.43.11-9.91.11s-9.91,0-9.91-.11,4.44-.11,9.91-.11S161.49,93.49,161.49,93.55Z"/><path class="cls-7" d="M177.3,97.62c0,.06-8,.11-17.81.11s-17.82,0-17.82-.11,8-.11,17.82-.11S177.3,97.56,177.3,97.62Z"/><path class="cls-7" d="M176.88,100.52c0,.07-7.88.12-17.6.12s-17.61,0-17.61-.12,7.88-.11,17.61-.11S176.88,100.46,176.88,100.52Z"/><path class="cls-7" d="M162.46,103.3c0,.06-4.65.11-10.39.11s-10.4,0-10.4-.11,4.65-.12,10.4-.12S162.46,103.23,162.46,103.3Z"/><path class="cls-9" d="M133.12,104.15a11.34,11.34,0,0,1,3.29,0,11.34,11.34,0,0,1-3.29,0Z"/><path class="cls-9" d="M126.55,104.15a11.34,11.34,0,0,1,3.29,0,11.34,11.34,0,0,1-3.29,0Z"/><path class="cls-9" d="M125.34,98.79a11.34,11.34,0,0,1,0,3.29,10.47,10.47,0,0,1,0-3.29Z"/><path class="cls-9" d="M126.19,93.08a2.5,2.5,0,0,1-.85.1l.1-.1c0,.23,0,.5,0,.78a6.07,6.07,0,0,1-.12,1.65,5.42,5.42,0,0,1-.13-1.65c0-.28,0-.55,0-.78V93h.11A2.1,2.1,0,0,1,126.19,93.08Z"/><path class="cls-9" d="M132.77,93.08a11.34,11.34,0,0,1-3.29,0,10.47,10.47,0,0,1,3.29,0Z"/><path class="cls-9" d="M136.41,96a5.63,5.63,0,0,1-.12-1.65c0-.52,0-1,0-1.28l.08.07c-.23,0-.36,0-.36-.07s.13-.06.36-.08h.07v.08c0,.29,0,.76,0,1.28A5.63,5.63,0,0,1,136.41,96Z"/><path class="cls-9" d="M136.41,102.58a11.34,11.34,0,0,1,0-3.29,11.34,11.34,0,0,1,0,3.29Z"/><rect class="cls-9" x="135.68" y="103.61" width="1.23" height="1.23"/><rect class="cls-9" x="135.68" y="92.16" width="1.23" height="1.23"/><rect class="cls-9" x="124.72" y="103.61" width="1.23" height="1.23"/><rect class="cls-9" x="124.72" y="92.46" width="1.23" height="1.23"/><path class="cls-3" d="M133.12,124.54a10.47,10.47,0,0,1,3.29,0,11.34,11.34,0,0,1-3.29,0Z"/><path class="cls-3" d="M126.55,124.54a10.47,10.47,0,0,1,3.29,0,11.34,11.34,0,0,1-3.29,0Z"/><path class="cls-3" d="M125.34,119.18a11.27,11.27,0,0,1,0,3.28,10.41,10.41,0,0,1,0-3.28Z"/><path class="cls-3" d="M126.19,113.46a2.1,2.1,0,0,1-.85.11l.1-.11c0,.23,0,.5,0,.79a6,6,0,0,1-.12,1.64,5.33,5.33,0,0,1-.13-1.64c0-.29,0-.56,0-.79v-.11h.11A2.5,2.5,0,0,1,126.19,113.46Z"/><path class="cls-3" d="M132.77,113.46a10.47,10.47,0,0,1-3.29,0,11.34,11.34,0,0,1,3.29,0Z"/><path class="cls-3" d="M136.41,116.39a5.53,5.53,0,0,1-.12-1.64c0-.52,0-1,0-1.29l.08.08c-.23,0-.36-.05-.36-.08s.13,0,.36-.07h.07v.08c0,.3,0,.77,0,1.29A5.53,5.53,0,0,1,136.41,116.39Z"/><path class="cls-3" d="M136.41,123a11.27,11.27,0,0,1,0-3.28,11.27,11.27,0,0,1,0,3.28Z"/><rect class="cls-3" x="135.68" y="124" width="1.23" height="1.23"/><rect class="cls-3" x="135.68" y="112.55" width="1.23" height="1.23"/><rect class="cls-3" x="124.72" y="124" width="1.23" height="1.23"/><rect class="cls-3" x="124.72" y="112.85" width="1.23" height="1.23"/><path class="cls-9" d="M133.18,146.13a10.47,10.47,0,0,1,3.29,0,11.34,11.34,0,0,1-3.29,0Z"/><path class="cls-9" d="M126.61,146.13a10.47,10.47,0,0,1,3.29,0,11.34,11.34,0,0,1-3.29,0Z"/><path class="cls-9" d="M125.4,140.77a11.27,11.27,0,0,1,0,3.28,10.41,10.41,0,0,1,0-3.28Z"/><path class="cls-9" d="M126.25,135.05a2.1,2.1,0,0,1-.85.11l.1-.11c0,.23,0,.5,0,.79a6,6,0,0,1-.12,1.64,5.33,5.33,0,0,1-.13-1.64c0-.29,0-.56,0-.79v-.11h.11A2.5,2.5,0,0,1,126.25,135.05Z"/><path class="cls-9" d="M132.83,135.05a11.34,11.34,0,0,1-3.29,0,11.34,11.34,0,0,1,3.29,0Z"/><path class="cls-9" d="M136.47,138a5.53,5.53,0,0,1-.12-1.64c0-.53,0-1,0-1.29l.08.08c-.23,0-.36,0-.36-.08s.13-.05.36-.07h.07v.08c0,.3.05.76.05,1.29A5.53,5.53,0,0,1,136.47,138Z"/><path class="cls-9" d="M136.47,144.55a11.27,11.27,0,0,1,0-3.28,11.27,11.27,0,0,1,0,3.28Z"/><rect class="cls-9" x="135.74" y="145.59" width="1.23" height="1.23"/><rect class="cls-9" x="135.74" y="134.14" width="1.23" height="1.23"/><rect class="cls-9" x="124.78" y="145.59" width="1.23" height="1.23"/><rect class="cls-9" x="124.78" y="134.44" width="1.23" height="1.23"/><path class="cls-3" d="M133.12,167.66a10.47,10.47,0,0,1,3.29,0,11.34,11.34,0,0,1-3.29,0Z"/><path class="cls-3" d="M126.55,167.66a10.47,10.47,0,0,1,3.29,0,11.34,11.34,0,0,1-3.29,0Z"/><path class="cls-3" d="M125.34,162.3a11.27,11.27,0,0,1,0,3.28,10.41,10.41,0,0,1,0-3.28Z"/><path class="cls-3" d="M126.19,156.58a2.1,2.1,0,0,1-.85.11l.1-.11c0,.23,0,.5,0,.79a6,6,0,0,1-.12,1.64,5.33,5.33,0,0,1-.13-1.64c0-.29,0-.56,0-.79v-.11h.11A2.5,2.5,0,0,1,126.19,156.58Z"/><path class="cls-3" d="M132.77,156.58a10.47,10.47,0,0,1-3.29,0,11.34,11.34,0,0,1,3.29,0Z"/><path class="cls-3" d="M136.41,159.51a5.53,5.53,0,0,1-.12-1.64c0-.52,0-1,0-1.29l.08.08c-.23,0-.36,0-.36-.08s.13-.05.36-.07h.07v.08c0,.3,0,.77,0,1.29A5.53,5.53,0,0,1,136.41,159.51Z"/><path class="cls-3" d="M136.41,166.08a11.27,11.27,0,0,1,0-3.28,11.27,11.27,0,0,1,0,3.28Z"/><rect class="cls-3" x="135.68" y="167.12" width="1.23" height="1.23"/><rect class="cls-3" x="135.68" y="155.67" width="1.23" height="1.23"/><rect class="cls-3" x="124.72" y="167.12" width="1.23" height="1.23"/><rect class="cls-3" x="124.72" y="155.97" width="1.23" height="1.23"/><path class="cls-9" d="M133.12,189.94a10.47,10.47,0,0,1,3.29,0,11.34,11.34,0,0,1-3.29,0Z"/><path class="cls-9" d="M126.55,189.94a10.47,10.47,0,0,1,3.29,0,11.34,11.34,0,0,1-3.29,0Z"/><path class="cls-9" d="M125.34,184.58a11.27,11.27,0,0,1,0,3.28,10.41,10.41,0,0,1,0-3.28Z"/><path class="cls-9" d="M126.19,178.86a2.1,2.1,0,0,1-.85.11l.1-.11c0,.23,0,.5,0,.79a6,6,0,0,1-.12,1.64,5.33,5.33,0,0,1-.13-1.64c0-.29,0-.56,0-.79v-.11h.11A2.5,2.5,0,0,1,126.19,178.86Z"/><path class="cls-9" d="M132.77,178.86a10.47,10.47,0,0,1-3.29,0,11.34,11.34,0,0,1,3.29,0Z"/><path class="cls-9" d="M136.41,181.79a5.53,5.53,0,0,1-.12-1.64c0-.52,0-1,0-1.29l.08.08c-.23,0-.36-.05-.36-.08s.13-.05.36-.07h.07v.08c0,.3,0,.77,0,1.29A5.53,5.53,0,0,1,136.41,181.79Z"/><path class="cls-9" d="M136.41,188.36a11.27,11.27,0,0,1,0-3.28,11.27,11.27,0,0,1,0,3.28Z"/><rect class="cls-9" x="135.68" y="189.4" width="1.23" height="1.23"/><rect class="cls-9" x="135.68" y="177.95" width="1.23" height="1.23"/><rect class="cls-9" x="124.72" y="189.4" width="1.23" height="1.23"/><rect class="cls-9" x="124.72" y="178.25" width="1.23" height="1.23"/><path class="cls-9" d="M161,134.68c0,.06-4.44.11-9.91.11s-9.91,0-9.91-.11,4.44-.11,9.91-.11S161,134.62,161,134.68Z"/><path class="cls-7" d="M176.83,138.75c0,.06-8,.11-17.82.11s-17.81-.05-17.81-.11,8-.12,17.81-.12S176.83,138.69,176.83,138.75Z"/><path class="cls-7" d="M176.41,141.65c0,.07-7.89.12-17.61.12s-17.6-.05-17.6-.12,7.88-.11,17.6-.11S176.41,141.59,176.41,141.65Z"/><path class="cls-7" d="M162,144.42c0,.07-4.66.12-10.4.12s-10.39,0-10.39-.12,4.65-.11,10.39-.11S162,144.36,162,144.42Z"/><path class="cls-9" d="M161,179.83c0,.06-4.44.11-9.91.11s-9.91-.05-9.91-.11,4.44-.12,9.91-.12S161,179.76,161,179.83Z"/><path class="cls-7" d="M176.83,183.89c0,.07-8,.12-17.82.12s-17.81,0-17.81-.12,8-.11,17.81-.11S176.83,183.83,176.83,183.89Z"/><path class="cls-7" d="M176.41,186.8c0,.06-7.89.11-17.61.11s-17.6,0-17.6-.11,7.88-.11,17.6-.11S176.41,186.74,176.41,186.8Z"/><path class="cls-7" d="M162,189.57c0,.06-4.66.11-10.4.11s-10.39-.05-10.39-.11,4.65-.11,10.39-.11S162,189.51,162,189.57Z"/><path class="cls-9" d="M124.1,59.15h.13l.36,0,1.32,0,0,0c0-.29,0-.62,0-1,0-.18,0-.35,0-.56a.52.52,0,0,1,.45-.41c.21,0,.4,0,.64,0a.51.51,0,0,1,.43.51l0,1.41-.06-.06L129,59l-.06.06c0-.67,0-1.37,0-2.08v-.54a.52.52,0,0,0-.24-.39l-.73-.73-.71-.69-.34-.34a.77.77,0,0,0-.35-.26.43.43,0,0,0-.38.07c-.11.09-.21.21-.32.31l-.6.61c-.38.39-.77.75-1.06,1.09a1.2,1.2,0,0,0-.08.62v.6c0,.36,0,.67,0,1v.83a.85.85,0,0,1,0-.21v-.6c0-.27,0-.59,0-1l0-.6v-.33a.73.73,0,0,1,.09-.35c.31-.38.68-.72,1.06-1.12l.6-.61.32-.32a.57.57,0,0,1,.49-.1.87.87,0,0,1,.4.29l.35.34.71.69.73.72a2,2,0,0,1,.19.21.66.66,0,0,1,.09.28V57c0,.72,0,1.42,0,2.09v.07h-1.8v-.06c0-.49,0-1,0-1.41a.4.4,0,0,0-.34-.4h-.61a.41.41,0,0,0-.36.33c0,.17,0,.37,0,.54v1H124.1Z"/><path class="cls-9" d="M123.53,73.42s0,0-.12,0l-.33,0-1.3,0-4.75,0-7,0h-5.25a4.12,4.12,0,0,0-1.07.08,2,2,0,0,0-1.39,1.5,6.7,6.7,0,0,0,0,1.11v3.33c0,1.44,0,2.83,0,4.16,0,2.65,0,5,0,7s0,3.61,0,4.75l0,1.29v.34a1.09,1.09,0,0,0,0,.12s0,0,0-.12v-.34c0-.31,0-.74,0-1.29,0-1.14,0-2.76,0-4.75s0-4.4,0-7V79.56c0-.73,0-1.46,0-2.21V76.23a7.8,7.8,0,0,1,0-1.17,2.26,2.26,0,0,1,1.56-1.67,4.08,4.08,0,0,1,1.14-.09H110l7,0,4.75,0,1.3,0h.45Z"/><path class="cls-9" d="M124.75,73.38a.74.74,0,1,1-.74-.74A.74.74,0,0,1,124.75,73.38Z"/><path class="cls-9" d="M138.27,79.43s0-.17-.11-.45a1.84,1.84,0,0,0-2.38-1.22,1.77,1.77,0,0,0,0,3.33,1.81,1.81,0,0,0,1.69-.23,1.89,1.89,0,0,0,.69-1c.08-.28.08-.45.11-.45a1,1,0,0,1,0,.47,1.81,1.81,0,0,1-.67,1.09,2,2,0,0,1-1.88.31,2,2,0,1,1,1.87-3.44,1.8,1.8,0,0,1,.68,1.1A1,1,0,0,1,138.27,79.43Z"/><path class="cls-7" d="M237,199l-55.15,0a12,12,0,0,1-12-12l0-138.27a12,12,0,0,1,12-12l55.16,0a12,12,0,0,1,12,12l0,138.27A12,12,0,0,1,237,199Z"/><path class="cls-4" d="M237,41.54h-10.7a2.65,2.65,0,0,0-2.59,2.71v1.94a2.66,2.66,0,0,1-2.6,2.71H200.29a2.66,2.66,0,0,1-2.6-2.72V44.23a2.65,2.65,0,0,0-2.6-2.71H182a8.41,8.41,0,0,0-8.41,8.41l0,135a8.42,8.42,0,0,0,8.41,8.42l55,0a8.41,8.41,0,0,0,8.42-8.41l0-135A8.42,8.42,0,0,0,237,41.54Z"/><path class="cls-7" d="M238.64,55.17s-1.39.08-3.1.09-3.11,0-3.11,0,1.39-.08,3.11-.09S238.64,55.13,238.64,55.17Z"/><path class="cls-7" d="M238.66,56.76s-1.39.08-3.11.09-3.11,0-3.11,0,1.39-.08,3.11-.09S238.66,56.72,238.66,56.76Z"/><path class="cls-7" d="M238.67,58.35s-1.39.08-3.11.09-3.1,0-3.1,0,1.39-.08,3.1-.09S238.67,58.31,238.67,58.35Z"/><path class="cls-7" d="M182.14,60.16h.49l1.33,0,0,0,0-1c0-.18,0-.35,0-.56a.51.51,0,0,1,.44-.41H185a.52.52,0,0,1,.44.51c0,.45,0,.92,0,1.41l-.07-.06,1.68,0-.07.06c0-.67,0-1.37,0-2.08v-.53a.54.54,0,0,0-.23-.4l-.74-.72-.7-.7-.34-.33a.77.77,0,0,0-.35-.26.43.43,0,0,0-.38.07l-.32.31-.6.6c-.37.4-.77.75-1.05,1.09a1.23,1.23,0,0,0-.09.63v2.14a2,2,0,0,1,0,.22,1.23,1.23,0,0,1,0-.2l0-.6c0-.27,0-.59,0-1v-.93a.61.61,0,0,1,.09-.35c.31-.38.68-.72,1.06-1.12l.59-.61c.11-.11.2-.21.33-.32a.55.55,0,0,1,.48-.1.92.92,0,0,1,.4.29l.35.34.7.69.74.72a.88.88,0,0,1,.18.2.47.47,0,0,1,.09.28V58c0,.71,0,1.41,0,2.08v.07h-1.8V58.73a.4.4,0,0,0-.34-.4h-.61a.39.39,0,0,0-.36.32c0,.17,0,.37,0,.54v1h-1.73C182.18,60.17,182.14,60.17,182.14,60.16Z"/><rect class="cls-5" x="179.64" y="68.56" width="58.67" height="10.67" rx="4.5"/><path class="cls-7" d="M233.82,79.24l.33,0a5,5,0,0,0,1-.19,4.7,4.7,0,0,0,1.41-.74,4.43,4.43,0,0,0,1.34-1.7,4.06,4.06,0,0,0,.35-1.24,13.39,13.39,0,0,0,.05-1.44,10.36,10.36,0,0,0-.07-1.56,4.3,4.3,0,0,0-.59-1.57,4.43,4.43,0,0,0-3-2.06,12.38,12.38,0,0,0-2-.07h-2.17l-46.29,0a4.41,4.41,0,0,0-4.38,4c0,.53,0,1.09,0,1.63a5.21,5.21,0,0,0,.17,1.59,4.41,4.41,0,0,0,1.82,2.49,4.14,4.14,0,0,0,1.42.6,6.54,6.54,0,0,0,1.54.12h9.13l20.81,0,14,0,3.82,0h1l.34,0h-1.33l-3.82,0-14,0-20.81,0H184.7a6.16,6.16,0,0,1-1.59-.12,4.47,4.47,0,0,1-1.49-.63A4.67,4.67,0,0,1,179.71,76a5.13,5.13,0,0,1-.17-1.65c0-.55,0-1.08,0-1.65a4.61,4.61,0,0,1,4.59-4.23l46.29,0h2.17a11.83,11.83,0,0,1,2.07.09,4.57,4.57,0,0,1,3,2.13,4.49,4.49,0,0,1,.59,1.61,10.69,10.69,0,0,1,.06,1.58,11.45,11.45,0,0,1-.05,1.45,4.58,4.58,0,0,1-.37,1.27,4.39,4.39,0,0,1-1.38,1.71,4.61,4.61,0,0,1-1.43.73,4.43,4.43,0,0,1-1,.17Z"/><path class="cls-7" d="M234.72,73.65s0-.18-.1-.47a1.94,1.94,0,0,0-.71-1,1.84,1.84,0,1,0,0,3,1.94,1.94,0,0,0,.71-1c.08-.29.08-.47.1-.46s0,0,0,.12a1.38,1.38,0,0,1,0,.36,1.92,1.92,0,0,1-.69,1.11,2,2,0,0,1-1.91.32,2,2,0,0,1,0-3.83,2,2,0,0,1,1.91.32,1.92,1.92,0,0,1,.69,1.11,1.38,1.38,0,0,1,0,.36C234.74,73.6,234.73,73.65,234.72,73.65Z"/><path class="cls-7" d="M235.79,77a3.88,3.88,0,0,1-.95-.86c-.48-.52-.83-1-.78-1A4.08,4.08,0,0,1,235,76,3.85,3.85,0,0,1,235.79,77Z"/><path class="cls-3" d="M187.57,72.83h-1v-.27h2.41v.27h-1.05v2.71h-.31Z"/><path class="cls-3" d="M191.08,74.51h-1.87a.82.82,0,0,0,.88.78.89.89,0,0,0,.68-.29l.17.19a1.17,1.17,0,0,1-2-.77A1.08,1.08,0,0,1,190,73.28a1.07,1.07,0,0,1,1.08,1.14Zm-1.87-.22h1.59a.8.8,0,0,0-1.59,0Z"/><path class="cls-3" d="M193.06,75.54l-.71-.94-.71.94h-.34l.88-1.15-.84-1.09h.34l.67.88.67-.88h.34l-.85,1.09.9,1.15Z"/><path class="cls-3" d="M195.09,75.4a.71.71,0,0,1-.47.16.59.59,0,0,1-.66-.65V73.56h-.4V73.3h.4v-.49h.3v.49h.68v.26h-.68v1.33a.36.36,0,0,0,.39.41.52.52,0,0,0,.33-.11Z"/><rect class="cls-9" x="182.12" y="88.02" width="12.84" height="12.84"/><path class="cls-9" d="M219.67,89.4c0,.06-4.3.11-9.59.11s-9.59-.05-9.59-.11,4.29-.11,9.59-.11S219.67,89.34,219.67,89.4Z"/><path class="cls-7" d="M235,93.34c0,.06-7.72.11-17.24.11s-17.23,0-17.23-.11,7.71-.11,17.23-.11S235,93.28,235,93.34Z"/><path class="cls-7" d="M234.56,96.15c0,.06-7.63.11-17,.11s-17-.05-17-.11,7.62-.11,17-.11S234.56,96.09,234.56,96.15Z"/><path class="cls-7" d="M220.6,98.83c0,.06-4.5.11-10.06.11s-10,0-10-.11,4.5-.11,10-.11S220.6,98.77,220.6,98.83Z"/><rect class="cls-8" x="182.12" y="109.41" width="12.84" height="12.84"/><path class="cls-9" d="M219.67,110.8c0,.06-4.3.1-9.59.1s-9.59,0-9.59-.1,4.29-.11,9.59-.11S219.67,110.74,219.67,110.8Z"/><path class="cls-7" d="M235,114.73c0,.06-7.72.11-17.24.11s-17.23,0-17.23-.11,7.71-.11,17.23-.11S235,114.67,235,114.73Z"/><path class="cls-7" d="M234.56,117.54c0,.06-7.63.11-17,.11s-17-.05-17-.11,7.62-.11,17-.11S234.56,117.48,234.56,117.54Z"/><path class="cls-7" d="M220.6,120.23c0,.06-4.5.11-10.06.11s-10,0-10-.11,4.5-.11,10-.11S220.6,120.17,220.6,120.23Z"/><rect class="cls-9" x="182.12" y="130.81" width="12.84" height="12.84"/><path class="cls-9" d="M219.67,132.19c0,.06-4.3.11-9.59.11s-9.59-.05-9.59-.11,4.29-.11,9.59-.11S219.67,132.13,219.67,132.19Z"/><path class="cls-7" d="M235,136.13c0,.06-7.72.11-17.24.11s-17.23-.05-17.23-.11,7.71-.11,17.23-.11S235,136.07,235,136.13Z"/><path class="cls-7" d="M234.56,138.94c0,.06-7.63.11-17,.11s-17-.05-17-.11,7.62-.11,17-.11S234.56,138.88,234.56,138.94Z"/><path class="cls-7" d="M220.6,141.62c0,.06-4.5.11-10.06.11s-10,0-10-.11,4.5-.11,10-.11S220.6,141.56,220.6,141.62Z"/><rect class="cls-8" x="182.12" y="152.21" width="12.84" height="12.84"/><path class="cls-10" d="M219.67,153.59c0,.06-4.3.11-9.59.11s-9.59,0-9.59-.11,4.29-.11,9.59-.11S219.67,153.53,219.67,153.59Z"/><path class="cls-7" d="M235,157.53c0,.06-7.72.1-17.24.1s-17.23,0-17.23-.1,7.71-.11,17.23-.11S235,157.46,235,157.53Z"/><path class="cls-7" d="M234.56,160.34c0,.06-7.63.11-17,.11s-17,0-17-.11,7.62-.11,17-.11S234.56,160.28,234.56,160.34Z"/><path class="cls-7" d="M220.6,163c0,.06-4.5.11-10.06.11s-10,0-10-.11,4.5-.11,10-.11S220.6,163,220.6,163Z"/><rect class="cls-3" x="182.12" y="173.6" width="12.84" height="12.84"/><path class="cls-3" d="M219.67,175c0,.07-4.3.11-9.59.11s-9.59,0-9.59-.11,4.29-.1,9.59-.1S219.67,174.92,219.67,175Z"/><path class="cls-6" d="M235,178.92c0,.06-7.72.11-17.24.11s-17.23-.05-17.23-.11,7.71-.11,17.23-.11S235,178.86,235,178.92Z"/><path class="cls-6" d="M234.56,181.73c0,.06-7.63.11-17,.11s-17-.05-17-.11,7.62-.11,17-.11S234.56,181.67,234.56,181.73Z"/><path class="cls-6" d="M220.6,184.42c0,.06-4.5.1-10.06.1s-10,0-10-.1,4.5-.11,10-.11S220.6,184.35,220.6,184.42Z"/><g class="cls-21"><rect class="cls-9" x="182.12" y="152.21" width="12.84" height="12.84"/></g><g class="cls-22"><rect class="cls-9" x="182.12" y="109.41" width="12.84" height="12.84"/></g><rect class="cls-4" x="141.95" y="6.27" width="69.78" height="28.34"/><path class="cls-9" d="M211.73,34.62s0-.18,0-.51V32.64c0-1.29,0-3.19,0-5.64,0-4.89,0-12,0-20.73l.08.08L142,6.38h0l.11-.11V34.62l-.11-.11,50,.05,14.52,0h0l-14.49,0-50.1,0h-.1v-.1c0-8.84,0-18.42,0-28.35V6.16H142l69.77,0h.08v.07c0,8.78,0,15.87,0,20.78,0,2.44,0,4.33,0,5.62,0,.64,0,1.12,0,1.46S211.73,34.62,211.73,34.62Z"/><path class="cls-9" d="M142,10.1c0-.07,15.6-.12,34.84-.12s34.83,0,34.83.12-15.59.11-34.83.11S142,10.16,142,10.1Z"/><g class="cls-20"><circle class="cls-9" cx="144.44" cy="8.39" r="0.51"/></g><g class="cls-20"><path class="cls-9" d="M146.68,8.39a.5.5,0,0,1-.51.5.5.5,0,0,1-.5-.5.5.5,0,0,1,.5-.51A.51.51,0,0,1,146.68,8.39Z"/></g><g class="cls-20"><path class="cls-9" d="M148.39,8.39a.5.5,0,0,1-.51.5.5.5,0,0,1-.5-.5.5.5,0,0,1,.5-.51A.51.51,0,0,1,148.39,8.39Z"/></g><rect class="cls-8" x="147.88" y="14.7" width="16.85" height="16.85"/><rect class="cls-9" x="147.88" y="14.7" width="16.85" height="16.85"/><path class="cls-9" d="M206.9,19.22c0,.06-8.67.11-19.37.11s-19.37,0-19.37-.11,8.67-.11,19.37-.11S206.9,19.16,206.9,19.22Z"/><path class="cls-9" d="M206.9,22.65c0,.06-8.67.11-19.37.11s-19.37-.05-19.37-.11,8.67-.11,19.37-.11S206.9,22.59,206.9,22.65Z"/><path class="cls-9" d="M193.1,26.09l-.25,0-.73,0-2.67,0-8.82,0-8.81,0-2.68,0-.72,0-.26,0a.9.9,0,0,1,.26,0l.72,0,2.68,0,8.81,0,8.82,0,2.67,0,.73,0A.87.87,0,0,1,193.1,26.09Z"/><polygon class="cls-9" points="253.44 189.23 255.84 198.13 248.02 198.85 246.37 190.37 253.44 189.23"/><path class="cls-9" d="M247.79,198.12a5.32,5.32,0,0,0,1.15,0c.7-.05,1.67-.16,2.74-.3l2.74-.36a6.55,6.55,0,0,0,1.13-.2,5.32,5.32,0,0,0-1.15,0c-.7.06-1.67.17-2.74.31l-2.74.36A7.35,7.35,0,0,0,247.79,198.12Z"/><g class="cls-19"><polyline class="cls-9" points="255.84 198.13 248.02 198.85 247.89 198.2 255.62 197.21 255.84 198.05"/></g><path class="cls-7" d="M252,197.74a34.2,34.2,0,0,0-.75-3.41,33,33,0,0,0-.92-3.37,62.86,62.86,0,0,0,1.67,6.78Z"/><path class="cls-7" d="M248.22,198.07a3.77,3.77,0,0,1,0-1.66A3.11,3.11,0,0,1,251,194a3.35,3.35,0,0,1,2.1.47,3.72,3.72,0,0,1,1.22,1.3,4.94,4.94,0,0,1,.49,1.59s0-.05,0-.12a2.38,2.38,0,0,0,0-.34,3.48,3.48,0,0,0-.37-1.19,3.7,3.7,0,0,0-1.24-1.38,3.47,3.47,0,0,0-2.21-.52,3.4,3.4,0,0,0-2.05,1,3.32,3.32,0,0,0-.86,1.64,3,3,0,0,0,0,1.25,1.8,1.8,0,0,0,.09.33Z"/><path class="cls-9" d="M221.12,186.84l.52,7.91s-7.87,2.61-7.92,4.09l15.39.11-.31-12.36Z"/><g class="cls-19"><path class="cls-4" d="M226.38,193.94a.62.62,0,0,1,.45.7.59.59,0,0,1-.69.46.66.66,0,0,1-.48-.74.62.62,0,0,1,.77-.4"/></g><g class="cls-19"><path class="cls-4" d="M229.11,199l0-1.25-14.86.41a1.08,1.08,0,0,0-.58.84Z"/></g><path class="cls-7" d="M221.39,194.68c0,.08.38.1.76.33s.58.54.65.51-.06-.47-.52-.74S221.37,194.61,221.39,194.68Z"/><path class="cls-7" d="M219.8,195.4c0,.07.31.19.58.5s.34.64.42.64.11-.44-.23-.82S219.8,195.32,219.8,195.4Z"/><path class="cls-7" d="M218.94,197.35c.07,0,.16-.36,0-.77s-.56-.55-.59-.49.19.28.35.61S218.87,197.35,218.94,197.35Z"/><path class="cls-7" d="M221.47,192.86c0,.07.38,0,.8,0s.76.14.8.08-.29-.33-.79-.34S221.43,192.81,221.47,192.86Z"/><path class="cls-7" d="M221.39,191.27a1.56,1.56,0,0,0,.77,0,3.43,3.43,0,0,0,.8-.27,3.28,3.28,0,0,0,.44-.25.93.93,0,0,0,.22-.19.31.31,0,0,0,0-.4.42.42,0,0,0-.34-.16.78.78,0,0,0-.28.05,2.5,2.5,0,0,0-.48.18,2.53,2.53,0,0,0-.69.48,1.37,1.37,0,0,0-.44.64s.2-.21.56-.5a3,3,0,0,1,.67-.41c.14,0,.29-.11.44-.15s.3,0,.34,0,0,0,0,.09a.9.9,0,0,1-.17.14,3.26,3.26,0,0,1-.4.24,4.29,4.29,0,0,1-.73.31A6,6,0,0,0,221.39,191.27Z"/><path class="cls-7" d="M221.5,191.37a1.35,1.35,0,0,0,.18-.75,2.73,2.73,0,0,0-.13-.84,4.69,4.69,0,0,0-.21-.46.65.65,0,0,0-.51-.37.34.34,0,0,0-.31.22.82.82,0,0,0-.07.28,1.5,1.5,0,0,0,0,.52,1.81,1.81,0,0,0,.35.79c.32.39.63.47.64.44s-.24-.17-.48-.55a1.76,1.76,0,0,1-.27-.71,1.7,1.7,0,0,1,0-.45c0-.16.08-.3.14-.28s.21.11.28.24a2.64,2.64,0,0,1,.37,1.18C221.53,191.08,221.45,191.36,221.5,191.37Z"/><polygon class="cls-7" points="221.12 118.11 244.56 117.93 255.89 192.33 246.16 193.57 233.69 132.39 229.96 193.78 229.95 193.97 219.43 193.78 221.12 118.11"/><path class="cls-10" d="M231.78,124.14h-2l-5,0,.12-.11c0,1.48,0,3.12,0,4.86l0-.09.88.81c.9.83,1.77,1.64,2.6,2.39h-.16l3.5-3.06,0,.08c0-1.45,0-2.65,0-3.52,0-.4,0-.72,0-1a2.55,2.55,0,0,1,0-.35,1.7,1.7,0,0,1,0,.32l0,1c0,.88,0,2.09.05,3.57v0l0,0-3.46,3.09-.08.07-.08-.07-2.6-2.39-.89-.81,0,0v-.06c0-1.74,0-3.38,0-4.86v-.11h.11l5.07.15,1.41,0A3.27,3.27,0,0,1,231.78,124.14Z"/><path class="cls-10" d="M242.81,123.81a3.14,3.14,0,0,1-.47.08l-1.27.15-4.49.51.09-.12c.18,1.44.39,3.08.61,4.82l-.05-.08,1,.81,2.48,2-.16,0,2.76-3.42,0,.07c-.15-1.44-.28-2.62-.37-3.49,0-.4-.07-.72-.1-1s0-.35,0-.36a1.43,1.43,0,0,1,.06.32c0,.25.09.56.14,1,.12.88.29,2.08.49,3.54v0l0,0-2.73,3.44-.07.1-.09-.08-2.5-2-1-.81,0,0v-.05c-.21-1.74-.41-3.38-.58-4.82v-.11h.11l4.56-.41,1.26-.1Z"/><path class="cls-10" d="M228.47,135.11a4.9,4.9,0,0,1,1-.66c.63-.38,1.51-.87,2.51-1.36s1.92-.91,2.6-1.19a5.68,5.68,0,0,1,1.11-.39,4.91,4.91,0,0,1-1,.55c-.66.32-1.57.75-2.56,1.24s-1.89,1-2.53,1.3A6.88,6.88,0,0,1,228.47,135.11Z"/><path class="cls-10" d="M228.77,136.91a12.8,12.8,0,0,0,2.31-1.67,13,13,0,0,0,1.71-2.29,6.26,6.26,0,0,1-4,4Z"/><path class="cls-10" d="M222.15,158.41s.22.54.73,1.28a6.09,6.09,0,0,0,6.16,2.6c.89-.15,1.41-.41,1.43-.37a1.57,1.57,0,0,1-.35.2,5.39,5.39,0,0,1-1.05.34,6,6,0,0,1-6.33-2.67,5.2,5.2,0,0,1-.49-1A1.43,1.43,0,0,1,222.15,158.41Z"/><path class="cls-10" d="M223.7,157.78a5.73,5.73,0,0,1,.94.24,11.42,11.42,0,0,0,2.29.31c1.82.07,3.29-.21,3.3-.13a3.32,3.32,0,0,1-.95.23,12.38,12.38,0,0,1-2.36.14,8.58,8.58,0,0,1-2.33-.39A2.73,2.73,0,0,1,223.7,157.78Z"/><path class="cls-10" d="M241.12,158.22a16.24,16.24,0,0,0,3.24,1.79,15.87,15.87,0,0,0,3.61.76,3.39,3.39,0,0,1-1.1,0,9.49,9.49,0,0,1-4.94-1.84A4,4,0,0,1,241.12,158.22Z"/><path class="cls-10" d="M243.18,158.13c0-.07,1,0,2.13,0s2.09-.36,2.11-.29a4.76,4.76,0,0,1-2.09.53A4.88,4.88,0,0,1,243.18,158.13Z"/><path class="cls-10" d="M233.83,132.9a35.9,35.9,0,0,0,3.79,1,36.39,36.39,0,0,0,3.91.28,4.45,4.45,0,0,1-1.15.13,14.54,14.54,0,0,1-2.79-.17,14.89,14.89,0,0,1-2.71-.71A4,4,0,0,1,233.83,132.9Z"/><path class="cls-10" d="M234.47,130.39c.07,0,.12.21.12.47s-.06.47-.13.47-.12-.22-.12-.47S234.4,130.39,234.47,130.39Z"/><path class="cls-10" d="M234.46,128.51c.07,0,.13.21.13.47s-.05.47-.12.47-.12-.21-.13-.47S234.39,128.51,234.46,128.51Z"/><path class="cls-10" d="M234.41,126.63c.07,0,.13.21.14.47s0,.47-.11.47-.13-.21-.13-.47S234.35,126.63,234.41,126.63Z"/><path class="cls-10" d="M234.32,124.76c.07,0,.14.2.15.46s0,.47-.1.47-.13-.2-.14-.46S234.26,124.76,234.32,124.76Z"/><path class="cls-10" d="M234.19,122.88c.07,0,.14.2.16.46s0,.47-.09.48-.14-.2-.15-.46S234.12,122.89,234.19,122.88Z"/><path class="cls-10" d="M234,121c.07,0,.14.2.17.46s0,.47-.08.48-.14-.2-.17-.46S234,121,234,121Z"/><path class="cls-10" d="M247.24,191.82c.07,0,.16.18.21.44s0,.47,0,.48-.16-.18-.21-.43S247.17,191.83,247.24,191.82Z"/><path class="cls-10" d="M246.87,190c.07,0,.16.18.21.44s0,.47,0,.48-.17-.18-.22-.44S246.8,190,246.87,190Z"/><path class="cls-10" d="M246.5,188.14c.07,0,.16.18.21.43s0,.48,0,.49-.16-.18-.22-.44S246.44,188.15,246.5,188.14Z"/><path class="cls-10" d="M246.13,186.3c.07,0,.17.18.22.43s0,.47,0,.49-.16-.18-.21-.44S246.07,186.31,246.13,186.3Z"/><path class="cls-10" d="M245.77,184.46c.06,0,.16.18.21.43s0,.47,0,.49-.16-.19-.21-.44S245.7,184.47,245.77,184.46Z"/><path class="cls-10" d="M245.4,182.61c.06,0,.16.19.21.44s0,.47,0,.48-.16-.18-.21-.43S245.33,182.63,245.4,182.61Z"/><path class="cls-10" d="M245,180.77c.07,0,.16.19.21.44s0,.47,0,.48-.16-.18-.21-.43S245,180.79,245,180.77Z"/><path class="cls-10" d="M244.66,178.93c.07,0,.16.18.21.44s0,.47,0,.48-.17-.18-.22-.43S244.59,178.94,244.66,178.93Z"/><path class="cls-10" d="M244.29,177.09c.07,0,.16.18.21.44s0,.47,0,.48-.16-.18-.22-.44S244.23,177.1,244.29,177.09Z"/><path class="cls-10" d="M243.92,175.25c.07,0,.17.18.22.44s0,.47,0,.48-.16-.18-.21-.44S243.86,175.26,243.92,175.25Z"/><path class="cls-10" d="M243.56,173.41c.06,0,.16.18.21.43s0,.48,0,.49-.16-.18-.21-.44S243.49,173.42,243.56,173.41Z"/><path class="cls-10" d="M243.19,171.57c.06,0,.16.18.21.43s0,.47,0,.49-.16-.19-.21-.44S243.12,171.58,243.19,171.57Z"/><path class="cls-10" d="M242.82,169.73c.07,0,.16.18.21.43s0,.47,0,.49-.16-.19-.21-.44S242.75,169.74,242.82,169.73Z"/><path class="cls-10" d="M242.45,167.88c.07,0,.16.19.21.44s0,.47,0,.48-.17-.18-.22-.43S242.38,167.9,242.45,167.88Z"/><path class="cls-10" d="M242.08,166c.07,0,.16.18.21.44s0,.47,0,.48-.16-.18-.22-.43S242,166.06,242.08,166Z"/><path class="cls-10" d="M241.71,164.2c.07,0,.17.18.22.44s0,.47,0,.48-.16-.18-.21-.43S241.65,164.21,241.71,164.2Z"/><path class="cls-10" d="M241.35,162.36c.06,0,.16.18.21.44s0,.47,0,.48-.16-.18-.21-.44S241.28,162.37,241.35,162.36Z"/><path class="cls-10" d="M241,160.52c.06,0,.16.18.21.43s0,.48,0,.49-.16-.18-.21-.44S240.91,160.53,241,160.52Z"/><path class="cls-10" d="M240.61,158.68c.07,0,.16.18.21.43s0,.47,0,.49-.16-.18-.21-.44S240.54,158.69,240.61,158.68Z"/><path class="cls-10" d="M240.24,156.84c.07,0,.16.18.21.43s0,.47,0,.49-.16-.19-.21-.44S240.17,156.85,240.24,156.84Z"/><path class="cls-10" d="M239.87,155c.07,0,.16.19.21.44s0,.47,0,.49-.16-.19-.22-.44S239.81,155,239.87,155Z"/><path class="cls-10" d="M239.5,153.15c.07,0,.17.19.22.44s0,.47,0,.48-.16-.18-.21-.43S239.44,153.17,239.5,153.15Z"/><path class="cls-10" d="M239.14,151.31c.06,0,.16.18.21.44s0,.47,0,.48-.16-.18-.21-.43S239.07,151.33,239.14,151.31Z"/><path class="cls-10" d="M238.77,149.47c.06,0,.16.18.21.44s0,.47,0,.48-.16-.18-.21-.44S238.7,149.48,238.77,149.47Z"/><path class="cls-10" d="M238.4,147.63c.07,0,.16.18.21.44s0,.47,0,.48-.16-.18-.21-.44S238.33,147.64,238.4,147.63Z"/><path class="cls-10" d="M238,145.79c.07,0,.16.18.21.43s0,.48,0,.49-.16-.18-.21-.44S238,145.8,238,145.79Z"/><path class="cls-10" d="M237.66,144c.07,0,.16.18.21.43s0,.47,0,.49-.16-.18-.22-.44S237.6,144,237.66,144Z"/><path class="cls-10" d="M237.29,142.11c.07,0,.17.18.22.43s0,.47,0,.49-.16-.19-.21-.44S237.23,142.12,237.29,142.11Z"/><path class="cls-10" d="M236.93,140.26c.06,0,.16.19.21.44s0,.47,0,.48-.16-.18-.21-.43S236.86,140.28,236.93,140.26Z"/><path class="cls-10" d="M236.56,138.42c.06,0,.16.18.21.44s0,.47,0,.48-.16-.18-.21-.43S236.49,138.44,236.56,138.42Z"/><path class="cls-10" d="M236.19,136.58c.07,0,.16.18.21.44s0,.47,0,.48-.16-.18-.21-.43S236.12,136.59,236.19,136.58Z"/><path class="cls-10" d="M235.82,134.74c.07,0,.16.18.21.44s0,.47,0,.48-.16-.18-.21-.44S235.75,134.75,235.82,134.74Z"/><path class="cls-10" d="M235.5,133.14c.07,0,.15.13.19.32s0,.35-.05.36-.15-.13-.19-.32S235.43,133.15,235.5,133.14Z"/><path class="cls-23" d="M203.31,83.92s-2.74-4.11-2.82-4.15h0s-2.47-4.17-3.3-4.17-.52.85.33,2.34a6.07,6.07,0,0,1,.82,2.13l-2,1.23s-1.36-.53-1.42.74a8.27,8.27,0,0,0,.24,1.72c.08.45.28.93.71.76a.54.54,0,0,0,.36-.51c0-.75-.11-1,0-1s1.47,3.93,1.47,3.93Z"/><path class="cls-23" d="M197.77,80.69a4.3,4.3,0,0,0-.65-.39,1.35,1.35,0,0,0-.74-.11.6.6,0,0,0-.41.22.65.65,0,0,0-.08.62,2,2,0,0,0,.33.56"/><path class="cls-23" d="M198.7,79.86a3.85,3.85,0,0,0-.62-.36,1.21,1.21,0,0,0-.7-.11.55.55,0,0,0-.46.79,4.84,4.84,0,0,0,.63.82"/><path class="cls-23" d="M202.35,81.6l4,8.48L202,94.54l-2.28-6.32s-1.22.25-1.72-.56a21.76,21.76,0,0,1-1.28-3.52Z"/><path class="cls-24" d="M199.52,81.37c-.07,0-.27-.51-.65-1s-.89-.79-.85-.86a1.6,1.6,0,0,1,1,.71A2,2,0,0,1,199.52,81.37Z"/><path class="cls-24" d="M195.13,81.4s.09-.15.34-.24a1.26,1.26,0,0,1,1,.09,1.77,1.77,0,0,1,.67.75c.11.23.15.38.12.39s-.13-.1-.27-.3a2.26,2.26,0,0,0-.64-.63,1.37,1.37,0,0,0-.86-.13C195.28,81.36,195.15,81.43,195.13,81.4Z"/><path class="cls-24" d="M196.6,80.21c0-.07.58-.08,1.08.37a1.38,1.38,0,0,1,.57,1c-.06,0-.29-.42-.73-.81S196.59,80.28,196.6,80.21Z"/><path class="cls-24" d="M195.63,82c.06,0,.08.26.24.51s.38.38.36.44-.36,0-.57-.31S195.56,82,195.63,82Z"/><path class="cls-23" d="M203.3,83.76s.14-2.53-.47-3.11-2.37,0-2.37,0"/><path class="cls-24" d="M200.22,79.47a6,6,0,0,1,1.09,1.31,5.63,5.63,0,0,1,.89,1.45,6.7,6.7,0,0,1-1.09-1.31A5.63,5.63,0,0,1,200.22,79.47Z"/><path class="cls-23" d="M242.92,81.77c-.06-.34-.14-.73-.26-1.19a3.48,3.48,0,0,0-.5-1.11,5.91,5.91,0,0,0-1-1.17.47.47,0,0,1,.21-.87,3.91,3.91,0,0,1,2.2,2.07c.72,1.32,1.15-1,1.32-1.86s.82-3.44,1.12-3.59c.45-.23.77.2.58,1s-.58,3.41-.13,3.48,1.25-4.26,1.25-4.26,0-1,.55-.89c.94.12-.25,4.65-.38,5.07s.4.39.48.07.71-4.33,1.67-4.23c.74.08-.95,3.74-.62,4.64s1-2.9,1.7-2.8c.26,0,.45.11-.25,2.24-.34,1-1.65,5.87-1.65,5.87l.75,4-6,1.53Z"/><path class="cls-23" d="M235.31,60.29,235.37,80l-8.47.4-.25-4.8s-3,.6-3.78-2.19c-.5-1.79-.37-15.58-.37-15.58Z"/><path class="cls-7" d="M221.38,59.25c1.34.38,1.63,2.56,1.63,2.56l2.09,4.62c1.06-.83,2.5-.78,2.77,1.09.19,1.35-1.49,1.63-1.49,1.63a24.74,24.74,0,0,0,3.07,4.6,4.54,4.54,0,0,0,4.08,1.92h1.85s.9-2.94,2.58-10.27c1.85-8.14-7.77-7.09-9.56-9.17C225.5,52.85,217.18,58.05,221.38,59.25Z"/><path class="cls-7" d="M237.78,66.16c1.56-1,1.7-4,.79-5.73a5.64,5.64,0,0,0-4.8-3,2.32,2.32,0,0,1-.79-.09,2.15,2.15,0,0,1-.84-.8c-1.4-1.81-2.77-3.59-5.36-3.59a3,3,0,0,0-1.64.4,2.59,2.59,0,0,0-1,1.3,5.66,5.66,0,0,0-1.52-.55,1.87,1.87,0,0,0-1.52.38,1.13,1.13,0,0,0-.24,1.46A1.85,1.85,0,0,0,219,57.48c-.14.87,1.11,1.48,1.24,1.55a1.71,1.71,0,0,0,.94,2.28,2,2,0,0,0,1.6-.12"/><path class="cls-10" d="M231.6,68.06c.07,0,.09.67.27,1.45a13.76,13.76,0,0,1,.37,1.43,2.8,2.8,0,0,1-.61-1.38A2.62,2.62,0,0,1,231.6,68.06Z"/><path class="cls-10" d="M230.57,67.09a6.52,6.52,0,0,1,.31,1.4,7.08,7.08,0,0,1,.22,1.42,3.22,3.22,0,0,1-.46-1.37A3.45,3.45,0,0,1,230.57,67.09Z"/><path class="cls-10" d="M227.64,63.84s.29.1.64.45a4.37,4.37,0,0,1,1,1.6,8.16,8.16,0,0,1,.45,1.83,2.27,2.27,0,0,1,0,.77,2.75,2.75,0,0,1-.22-.74,12.64,12.64,0,0,0-.51-1.77,5.58,5.58,0,0,0-.9-1.58A6.45,6.45,0,0,1,227.64,63.84Z"/><path class="cls-10" d="M226.45,61.62a8.88,8.88,0,0,0,.14,1.82,8.35,8.35,0,0,0,.74,1.68,3.21,3.21,0,0,1-.88-3.5Z"/><path class="cls-10" d="M236.56,66.55c0-.06.18-.24.47-.4s.55-.25.59-.19-.18.24-.47.4S236.59,66.61,236.56,66.55Z"/><path class="cls-10" d="M232.47,64.44c.07,0,.2.35.44.74s.49.68.45.73-.4-.17-.66-.6S232.41,64.45,232.47,64.44Z"/><path class="cls-10" d="M231.21,63.76c.07,0,.25.43.57.9s.65.82.61.88-.47-.22-.81-.74A1.6,1.6,0,0,1,231.21,63.76Z"/><path class="cls-10" d="M225,55.5s0,0,.09-.11a2.22,2.22,0,0,1,.33-.26,3,3,0,0,1,1.45-.46,3.93,3.93,0,0,1,2.2.54,5.33,5.33,0,0,1,1.87,2,8.49,8.49,0,0,1,.73,1.91l-.17-.08a4.43,4.43,0,0,1,2-.48,4.51,4.51,0,0,1,1.59.29,4.18,4.18,0,0,1,.93.51,1.66,1.66,0,0,1,.28.25A9.08,9.08,0,0,0,235,59a4.42,4.42,0,0,0-3.42.26l-.13.07,0-.14a8.51,8.51,0,0,0-.72-1.85,5.22,5.22,0,0,0-1.76-2,3.8,3.8,0,0,0-2.08-.56,3,3,0,0,0-1.41.36C225.12,55.38,225,55.52,225,55.5Z"/><path class="cls-10" d="M220.5,56.57s-.21,0-.41.28a.77.77,0,0,0-.14.54.82.82,0,0,0,.45.58,1.24,1.24,0,0,0,.9.1,2.94,2.94,0,0,0,1-.5,10.31,10.31,0,0,1,1.06-.74,4.35,4.35,0,0,1,1.31-.47,5.45,5.45,0,0,1,2.66.2,6.89,6.89,0,0,1,1.92,1,7.47,7.47,0,0,1,1.08,1,1.84,1.84,0,0,1,.33.42s-.52-.56-1.51-1.27a7,7,0,0,0-1.89-.95,5.35,5.35,0,0,0-2.54-.18,4.63,4.63,0,0,0-1.25.44,11.18,11.18,0,0,0-1,.71,2.91,2.91,0,0,1-1.06.52,1.46,1.46,0,0,1-1-.15,1,1,0,0,1-.49-.71.84.84,0,0,1,.19-.62C220.27,56.5,220.52,56.57,220.5,56.57Z"/><path class="cls-9" d="M243.91,81l10.35,18.5a5.24,5.24,0,0,1-.79,4.92l.21-.31a4.41,4.41,0,0,1-3.44,1.64h-.19A4.41,4.41,0,0,1,246,103.1l-2.43-3.69Z"/><path class="cls-9" d="M221.5,79.67a13.81,13.81,0,0,1,6.22-1.33,70.68,70.68,0,0,1,8.89-.14s8.36-.26,8.4,6.22l-1.11,24.89L245.69,120l-25.06.76.18-12.58c-.31-6.55.35-15.82.35-15.82-.39-3.52-2.31-5.1-2.59-7.39A5.66,5.66,0,0,1,221.5,79.67Z"/><path class="cls-7" d="M228.56,109.67s.57.45,1.59,1a9.49,9.49,0,0,0,8.66.15c1-.5,1.59-1,1.62-.93a1.74,1.74,0,0,1-.38.34,8.66,8.66,0,0,1-1.17.75,9.08,9.08,0,0,1-8.81-.16,7,7,0,0,1-1.14-.79A2,2,0,0,1,228.56,109.67Z"/><path class="cls-7" d="M245,84.42a1,1,0,0,1,0,.25c0,.19,0,.42,0,.7,0,.65,0,1.53-.05,2.6-.06,2.18-.15,5.2-.29,8.54s-.31,6.35-.46,8.54c-.07,1.09-.14,2-.2,2.58l-.07.7a.79.79,0,0,1-.05.25,1.61,1.61,0,0,1,0-.25l0-.7c0-.65.08-1.53.13-2.59.1-2.22.23-5.22.38-8.54s.27-6.32.36-8.54l.13-2.59,0-.7A.87.87,0,0,1,245,84.42Z"/><path class="cls-9" d="M250.26,86.57s1,2.79,1.12,3.16a89.28,89.28,0,0,1,3.1,11.34L247,87.56C246.94,87.56,250.16,86.6,250.26,86.57Z"/><path class="cls-7" d="M246.58,85.76a6.09,6.09,0,0,1,.44.69l1.18,1.92c1,1.62,2.43,3.8,3.89,6.32.72,1.26,1.33,2.5,1.86,3.64a6.65,6.65,0,0,1,.69,3.28,4.87,4.87,0,0,1-.66,2.16,4.19,4.19,0,0,1-.36.5l-.15.15s.18-.24.43-.7a5.22,5.22,0,0,0,.57-2.12,6.55,6.55,0,0,0-.73-3.17c-.53-1.13-1.14-2.37-1.87-3.62-1.44-2.5-2.87-4.71-3.82-6.35-.48-.82-.86-1.49-1.11-2A4.61,4.61,0,0,1,246.58,85.76Z"/><path class="cls-9" d="M200.48,92.67l5.79-3.8,3.67,6.34s5.07-7,7.37-11.18c2.13-3.81,4.87-4.83,6.2-5.11a.59.59,0,0,1,.7.65l-2,13.71a116.47,116.47,0,0,1-6.78,9.84c-3.9,5.09-9.66,1.83-11.24-1.73C202.94,98.55,201,94.25,200.48,92.67Z"/><path class="cls-7" d="M208.27,100.94a2.78,2.78,0,0,1-.05-.92,10.71,10.71,0,0,1,.21-2.2,6.12,6.12,0,0,1,.83-2.06,2.08,2.08,0,0,1,.62-.68s-.2.29-.47.77a7.24,7.24,0,0,0-.74,2,18.2,18.2,0,0,0-.28,2.15A4.18,4.18,0,0,1,208.27,100.94Z"/><path class="cls-7" d="M206.57,98.1a1.49,1.49,0,0,1,.05-.78,3.6,3.6,0,0,1,.92-1.67,2.38,2.38,0,0,1,1.7-.85c.52,0,.77.28.74.29a2.85,2.85,0,0,0-.73-.12,2.44,2.44,0,0,0-1.54.85,4.06,4.06,0,0,0-.92,1.54A6.12,6.12,0,0,1,206.57,98.1Z"/><path class="cls-7" d="M223.88,80.62s.07,0,.17.13a2.32,2.32,0,0,1,.44.42,5.38,5.38,0,0,1,1.09,2,7.49,7.49,0,0,1,.28,3.32,7.3,7.3,0,0,1-.5,1.91,19.65,19.65,0,0,1-1,1.89c-1.43,2.5-2.91,4.65-4,6.18-.55.77-1,1.38-1.34,1.79l-.38.48a.85.85,0,0,1-.15.15,4.52,4.52,0,0,1,.46-.68l1.26-1.83c1.06-1.56,2.52-3.72,3.94-6.21.34-.63.68-1.25.94-1.86a7.15,7.15,0,0,0,.49-1.85,7.68,7.68,0,0,0-.21-3.24,5.82,5.82,0,0,0-1-2,5.49,5.49,0,0,0-.4-.45Z"/><g class="cls-20"><path d="M230.36,110.79a5.76,5.76,0,0,1-3.37-4.74,2,2,0,0,1,.46-1.46,1.87,1.87,0,0,1,2.15-.08,9.12,9.12,0,0,1,2.64,2.68,4.77,4.77,0,0,0,3,2.09,8.05,8.05,0,0,0,1.62-.13,2.73,2.73,0,0,1,1.6.2,1.19,1.19,0,0,1,.65,1.34,8.65,8.65,0,0,1-4.52,1.22A13.21,13.21,0,0,1,230.36,110.79Z"/></g><path class="cls-7" d="M223.87,117.06a4.57,4.57,0,0,1,.72.17c.46.13,1.13.3,2,.48s1.83.35,2.95.49a31.83,31.83,0,0,0,7.3,0c1.12-.13,2.13-.3,3-.48s1.5-.33,2-.46a6,6,0,0,1,.73-.17,4.17,4.17,0,0,1-.7.26,18.47,18.47,0,0,1-1.95.54,27.47,27.47,0,0,1-3,.53,30,30,0,0,1-3.68.23,31.79,31.79,0,0,1-3.68-.25,29.16,29.16,0,0,1-3-.54c-.84-.21-1.5-.4-2-.56A3.4,3.4,0,0,1,223.87,117.06Z"/></g></svg>