<svg xmlns="http://www.w3.org/2000/svg" viewBox="0 0 1290.49 1114.02"><defs><style>.cls-1,.cls-8{fill:#455a64;}.cls-2{fill:#5d767f;}.cls-3{fill:#b58530;}.cls-4{fill:#d1f5ff;}.cls-5{fill:#deac47;}.cls-6,.cls-7{fill:none;stroke-miterlimit:10;}.cls-6{stroke:#455a64;stroke-width:4.43px;}.cls-7{stroke:#00224d;stroke-width:3.83px;}.cls-8{opacity:0.04;}.cls-9{fill:#fff;}.cls-10{fill:#ff9f34;}.cls-11{fill:#4d4d4d;}.cls-12{fill:#d9ffff;}.cls-13{fill:#f7a594;}.cls-14{fill:#d97b69;}.cls-15{fill:#231f20;}.cls-16{fill:#e6836f;}.cls-17{fill:#4d261c;}.cls-18{fill:#f7bd0c;}.cls-19{fill:#1d498c;}</style></defs><g id="guard"><rect class="cls-1" x="591.42" y="105.89" width="290.28" height="173.6" rx="10.28"/><rect class="cls-2" x="591.42" y="138.68" width="290.28" height="29.96" transform="translate(1473.11 307.31) rotate(-180)"/><path class="cls-3" d="M815.21,246.18h42.68a4.91,4.91,0,0,1,4.91,4.92h0a4.91,4.91,0,0,1-4.91,4.91H815.21a4.91,4.91,0,0,1-4.92-4.91h0A4.92,4.92,0,0,1,815.21,246.18Z"/><path class="cls-3" d="M749.57,246.18h42.68a4.91,4.91,0,0,1,4.91,4.92h0a4.91,4.91,0,0,1-4.91,4.91H749.57a4.91,4.91,0,0,1-4.91-4.91h0A4.91,4.91,0,0,1,749.57,246.18Z"/><path class="cls-4" d="M683.94,246.18h42.68a4.91,4.91,0,0,1,4.91,4.92h0a4.91,4.91,0,0,1-4.91,4.91H683.94A4.91,4.91,0,0,1,679,251.1h0A4.91,4.91,0,0,1,683.94,246.18Z"/><path class="cls-4" d="M618.3,246.18H661a4.92,4.92,0,0,1,4.92,4.92h0A4.91,4.91,0,0,1,661,256H618.3a4.91,4.91,0,0,1-4.91-4.91h0A4.91,4.91,0,0,1,618.3,246.18Z"/><path class="cls-5" d="M859.85,114.7h0a5.42,5.42,0,0,1,5.42,5.42V122a5.42,5.42,0,0,1-5.42,5.42h0a5.42,5.42,0,0,1-5.42-5.42v-1.91A5.42,5.42,0,0,1,859.85,114.7Z"/><path class="cls-3" d="M848.17,121.08h0a6.37,6.37,0,0,1-6.37,6.37H819.21a6.38,6.38,0,0,1-6.38-6.37h0a6.38,6.38,0,0,1,6.38-6.38H841.8A6.38,6.38,0,0,1,848.17,121.08Z"/><rect class="cls-5" x="813.49" y="184.75" width="46.11" height="42.09" rx="13.52" transform="translate(1673.09 411.58) rotate(180)"/><path class="cls-6" d="M109.84,369.39A72.06,72.06,0,0,0,97,394.26l7.6,2.22a64.87,64.87,0,0,0-2.17,25.35l-7.86.89A72.57,72.57,0,0,0,103,449.44l1.55-.84,5.4-3a64.3,64.3,0,0,0,16.4,19.44l-4.94,6.21a71.6,71.6,0,0,0,24.89,12.88l2.22-7.61a64.57,64.57,0,0,0,25.33,2.2l.89,7.85a72.4,72.4,0,0,0,26.73-8.48l0,0-1.08-2-2.7-4.92a64,64,0,0,0,19.42-16.38l6.21,4.95a71.85,71.85,0,0,0,12.89-24.92l-7.6-2.22a64.44,64.44,0,0,0,2.18-25.31l7.85-.89a72.4,72.4,0,0,0-8.48-26.73l-7,3.8a64,64,0,0,0-16.38-19.42l5-6.2A71.7,71.7,0,0,0,186.82,345l-2.22,7.61a64.25,64.25,0,0,0-25.31-2.18l-.89-7.86A72.29,72.29,0,0,0,131.67,351l0,.07,2.5,4.57,1.27,2.31a64.32,64.32,0,0,0-19.42,16.38Zm29.32,23.34A35.05,35.05,0,1,1,144.71,442,35,35,0,0,1,139.16,392.73Z"/><path class="cls-7" d="M668.8,730.21a83.37,83.37,0,0,0-14.89,28.71l8.78,2.56a75,75,0,0,0-2.51,29.25l-9.06,1a83.36,83.36,0,0,0,9.76,30.83l1.79-1,6.22-3.42a74.27,74.27,0,0,0,18.93,22.43l-5.7,7.16a82.55,82.55,0,0,0,28.72,14.86l2.56-8.78a74.34,74.34,0,0,0,29.24,2.54l1,9.06a83.67,83.67,0,0,0,30.85-9.78l0,0-1.25-2.33-3.11-5.67a74,74,0,0,0,22.42-18.9l7.16,5.71a82.78,82.78,0,0,0,14.88-28.76l-8.78-2.56A74.17,74.17,0,0,0,808.31,774l9.07-1a83.69,83.69,0,0,0-9.79-30.85l-8,4.39a74.1,74.1,0,0,0-18.9-22.42l5.71-7.16A82.78,82.78,0,0,0,757.62,702l-2.56,8.78a74.31,74.31,0,0,0-29.2-2.51l-1-9.07A83.33,83.33,0,0,0,694,709l0,.07,2.89,5.28,1.46,2.67A74.14,74.14,0,0,0,676,735.92Zm33.82,26.94A40.45,40.45,0,1,1,709,814,40.43,40.43,0,0,1,702.62,757.15Z"/><path class="cls-8" d="M584.63,114.17a13.8,13.8,0,0,1,13.79-13.8h51a20.55,20.55,0,0,0,.25-2.5h0a20.07,20.07,0,0,0-18.53-19.94,29.3,29.3,0,0,0,.3-4,29.66,29.66,0,0,0-57-11.54,20.7,20.7,0,0,0-34.49,15.47h-3.87a20.06,20.06,0,0,0-20,20h0a20.07,20.07,0,0,0,20,20h48.57Z"/><path class="cls-3" d="M292.89,209.36c7.1-42.05,71.85-61,70.58-33.59l296.81,1.74c20.56.12,37.22,18.62,37.24,41.33l.62,780.61c0,23.53-16.94,42.77-37.89,43l-303,2.6c-1.88,4-5.4,7.55-10.95,10.55-34.74.74-51.41-16.42-57.5-35.82a46.82,46.82,0,0,1-3-17C287,992.54,290.7,219.22,292.89,209.36Z"/><path class="cls-9" d="M349.54,1055.67l347.8-2.24c21.7-.14,39.26-19.9,39.22-44.11l-1.31-802.79c0-23.35-17.31-42.32-38.6-42.39l-341-1.1c-21.45-.07-39,18.87-39.17,42.32l-6.18,806.5C310.07,1036.19,327.66,1055.81,349.54,1055.67Z"/><path d="M344.74,1049.83a32.19,32.19,0,0,0,4.4.28l347.68-2.64c18.65-.14,33.9-17.46,33.87-38.59L729.48,207c0-20.38-15-37-33.32-37.1l-341-1.48c-.53,0-1.07,0-1.6,0a32.31,32.31,0,0,0-22.6,11,38.56,38.56,0,0,0-9.6,25.53l-6.1,807.32C315.09,1031.4,327.73,1047.55,344.74,1049.83Z"/><polygon class="cls-5" points="333.3 209.01 327.43 1013.52 719.12 1011.17 718.12 209.01 333.3 209.01"/><rect class="cls-10" x="453.44" y="590.85" width="126.6" height="29.79" rx="14.89" transform="translate(1033.49 1211.5) rotate(180)"/><path class="cls-9" d="M394.69,510.08H645a14.94,14.94,0,0,0,14.9-14.9h0A14.94,14.94,0,0,0,645,480.29H394.69a14.93,14.93,0,0,0-14.89,14.89h0A14.94,14.94,0,0,0,394.69,510.08Z"/><rect class="cls-9" x="379.8" y="528.26" width="280.11" height="29.79" rx="14.89" transform="translate(1039.7 1086.3) rotate(180)"/><circle class="cls-1" cx="603.52" cy="544.47" r="5.24"/><circle class="cls-1" cx="585.54" cy="544.47" r="5.24"/><circle class="cls-1" cx="567.56" cy="544.47" r="5.24"/><circle class="cls-1" cx="549.58" cy="544.47" r="5.24"/><circle class="cls-1" cx="531.6" cy="544.47" r="5.24"/><circle class="cls-1" cx="513.63" cy="544.47" r="5.24"/><circle class="cls-1" cx="495.65" cy="544.47" r="5.24"/><circle class="cls-1" cx="477.67" cy="544.47" r="5.24"/><circle class="cls-1" cx="459.69" cy="544.47" r="5.24"/><circle class="cls-9" cx="519.77" cy="381.07" r="57.54" transform="translate(-117.22 479.14) rotate(-45)"/><path class="cls-1" d="M519.69,378.75a18.16,18.16,0,0,1-14.12-6.91,17.69,17.69,0,0,1-3.89-11.24,18.08,18.08,0,1,1,36.16,0A17.69,17.69,0,0,1,534,371.84,18.24,18.24,0,0,1,519.69,378.75Z"/><path class="cls-1" d="M487.79,411.1c0,11.45,64,11.45,64,0l0-13.35c-2.53-18.25-58.75-19-64,0Z"/><path class="cls-11" d="M631.67,540.41V551c0,1.82,13.54,1.82,13.54,0V540.41h-.89v-.8a5.86,5.86,0,0,0-11.72,0v.8Zm10.56,0h-7.58v-.8a3.79,3.79,0,1,1,7.58,0Zm-5.63,3.75a1.88,1.88,0,0,1,3.76,0,1.79,1.79,0,0,1-.94,1.57v3a.9.9,0,0,1-.94.94,1,1,0,0,1-1-.94v-3A1.89,1.89,0,0,1,636.6,544.16Z"/><path class="cls-1" d="M638.44,494.1a3.79,3.79,0,0,1-3-1.46,3.71,3.71,0,0,1-.83-2.37,3.82,3.82,0,1,1,7.63,0,3.7,3.7,0,0,1-.82,2.37A3.82,3.82,0,0,1,638.44,494.1Z"/><path class="cls-1" d="M631.71,500.93c0,2.42,13.57,2.42,13.57,0l-.07-2.82c-.54-3.85-12.4-4-13.5,0Z"/><path class="cls-1" d="M550.76,499.55h54.86a4.38,4.38,0,0,0,4.37-4.37h0a4.39,4.39,0,0,0-4.37-4.37H550.76a4.39,4.39,0,0,0-4.37,4.37h0A4.38,4.38,0,0,0,550.76,499.55Z"/><path class="cls-1" d="M478.41,499.55h54.86a4.38,4.38,0,0,0,4.37-4.37h0a4.39,4.39,0,0,0-4.37-4.37H478.41a4.39,4.39,0,0,0-4.37,4.37h0A4.38,4.38,0,0,0,478.41,499.55Z"/><path class="cls-9" d="M594,782V893.09c0,12.35-161.22,12.35-161.22,0V782Z"/><ellipse class="cls-1" cx="513.43" cy="823.97" rx="19.9" ry="18.65"/><path class="cls-1" d="M513.43,829.71h0a8.16,8.16,0,0,1,8.16,8.16v42.25a0,0,0,0,1,0,0H505.27a0,0,0,0,1,0,0V837.87a8.16,8.16,0,0,1,8.16-8.16Z" transform="translate(1026.86 1709.84) rotate(180)"/><path class="cls-9" d="M447,774.1h16.32v-7.48c0-25.92,22.5-47,50.16-47s50.17,21.08,50.17,47v7.48h16.31v-7.48c0-34.35-29.82-62.29-66.48-62.29S447,732.27,447,766.62Z"/><path class="cls-1" d="M123.05,1060.37H1244.14a3.34,3.34,0,0,0,3.34-3.35h0a3.34,3.34,0,0,0-3.34-3.34H123.05a3.35,3.35,0,0,0-3.34,3.34h0A3.35,3.35,0,0,0,123.05,1060.37Z"/><path class="cls-12" d="M19.51,638.52h0v0Z"/><path class="cls-12" d="M19.51,638.52h0v0Z"/><path class="cls-12" d="M391.72,640.19v0Z"/><path class="cls-12" d="M391.72,640.19v0Z"/><path class="cls-9" d="M206.3,551.06C165.1,595.19,99.36,631.36,29,646.78c0,4.69-.13,30.73-.67,150.71C27.61,957.56,180,1035.77,203.59,1047.78c22.92-10.55,177.17-88.64,177.89-248.71.53-120,.65-146,.67-150.72C311.94,632.32,247.11,595.56,206.3,551.06Z"/><path class="cls-2" d="M205.93,568.42c-42.47,39-101.32,69.59-166,86.28l-.64,142.77C39,862.79,64.93,921.89,116.41,973.12a369,369,0,0,0,87.43,63.93c.77-.39,1.62-.84,2.46-1.28v-467Z"/><path class="cls-1" d="M206.3,568.75v467a369.32,369.32,0,0,0,85.54-61.86c51.93-50.77,78.41-109.64,78.7-175l.64-142.77C306.81,639,248.4,607.93,206.3,568.75Z"/><path class="cls-9" d="M336,711.85c-49.26,7.6-116.34,52.53-158.66,106.55-5.93-25.47-32.58-48.73-46.52-53.81L88.53,807c26.37,11.89,55.19,45.56,59,80l42.2,6.54c17.79-35.14,63.73-119.2,155.13-164.39C343.11,722.35,336.66,712.83,336,711.85Z"/><path class="cls-13" d="M1031.08,440.69l119.47-.8,102.75-1.06.45,15.59c-35.72,13.79-63.75,18-99.32,20.61-36,12-83.74,19.88-120.65,22.47C1001.33,499.05,998.63,442.23,1031.08,440.69Z"/><path class="cls-1" d="M1084.05,437.3c-14.35-.27-56.79-4.77-83.24-1.65-23.93,9.83-18,51.58-7,58.14,0,1.18,46.43,14.15,93.45.35C1094.3,485.86,1091.91,445.57,1084.05,437.3Z"/><path class="cls-2" d="M1093.56,495.79c-7.45,2.65-14.45,4.33-19.68,2.19-3.11.14-6.56-62.39-3.46-62.54l19.56-.93C1096.19,434.22,1099.77,495.49,1093.56,495.79Z"/><path class="cls-13" d="M1241.43,439.12c3.48-16.09,9-39,15.79-39.3,1.45-.07,1.67.87,1.59,5.15-3.35,28.61,4.37,36.37.64,44.45-4.11,7.84-15.41,7.68-15.41,7.68C1237.7,454.26,1237.19,443.67,1241.43,439.12Z"/><path class="cls-13" d="M1249.48,435.65l7-20.78s4.6.81,3.63,6.3-2.14,11.41-2.14,11.41,5.51,11.89,1.12,16.81S1247.2,449.5,1249.48,435.65Z"/><path class="cls-14" d="M1260.1,448.51l-.53-.17c2.4-7.5-1.76-15.55-1.81-15.63l0-.09,0-.1c0-.06,1.18-6,2.14-11.4.38-2.17-.08-3.84-1.36-4.94a4.74,4.74,0,0,0-1.81-1l-7,20.53-.53-.18,7.12-21,.23,0a5.22,5.22,0,0,1,2.31,1.15c1,.86,2.07,2.5,1.55,5.47-.89,5.06-2,10.53-2.12,11.32C1258.76,433.46,1262.44,441.23,1260.1,448.51Z"/><path class="cls-14" d="M1246.4,425.75l-.55-.14c.25-1,6.18-24.25,11.27-26.06l.19.53C1252.5,401.79,1246.46,425.51,1246.4,425.75Z"/><path class="cls-15" d="M882.28,1056.55h55a6,6,0,0,0,2.36-2.21c.87-40.88,4-60.56,4-60.56l-38.36-1.56-7.21,30.41C885.65,1031.4,871.26,1050.21,882.28,1056.55Z"/><path class="cls-15" d="M941.45,1057.29H876.29c-1.66,0-1.54-9.06.12-9.06l64.79.36C942.9,1048.59,943.15,1057.29,941.45,1057.29Z"/><path class="cls-1" d="M934.71,627.6c-3.9,30.27-20.53,105-18.74,187.23-18,104.76-20,127.84-22.17,192.45l54.94,2.06c8.79-45.13,26.84-116.35,35-185.84,17.76-54.76,29.4-132.8,35.11-194.77C1024.63,575.32,949.13,553.73,934.71,627.6Z"/><path class="cls-15" d="M920.66,1009.84l-1.13,0c.1-7.45,22.43-259.4,45.11-361.55l1.09.25C943.07,750.6,920.75,1002.39,920.66,1009.84Z"/><path class="cls-1" d="M989.92,631.3c7.74,104.23,30.56,192.77,30.56,192.77-4.47,71.11,8.14,139.39,17.11,186.1l52.27-.47c3-45.72-3.44-293.26-17-377.22C1066.45,558.25,980.6,554.28,989.92,631.3Z"/><path class="cls-15" d="M1047.49,1010.17c-2.34,16.85-4,30-1.92,45.23l85.48,1.67s8-8.24-3.16-20.59-31.06-5.2-45.17-26.78Z"/><path class="cls-15" d="M1134.93,1057.29H1044.2c-1.65,0-1.65-9.06,0-9.06l90.37.36C1136.27,1048.59,1136.63,1057.29,1134.93,1057.29Z"/><rect class="cls-15" x="1068.19" y="648.96" width="1.12" height="360.4" transform="translate(-39.86 54.1) rotate(-2.85)"/><path class="cls-1" d="M1072.71,619.45,936.85,629.8c1.23-85.06-37.18-143.8-29.19-165.71,11-30.1,91.07-30.31,121.57-18.57,12.11,4.66,31.81,31.61,34.13,65.51.65,15.78.81,26.6-.73,39.21S1072.71,619.45,1072.71,619.45Z"/><path class="cls-13" d="M991.5,462.46c-6.31-5-31.51-12.76-38.21-18.25l1.52-43.73,24.77-2.41a73.34,73.34,0,0,1,20.54,4.76l5.58,28.79,1.23,6.25C1009.74,444,1004.18,451.42,991.5,462.46Z"/><path class="cls-16" d="M963.14,410.38c3.89,6,20.16,21.3,42.56,21.24l-4.82-24.91Z"/><path class="cls-13" d="M1018,352.77c1.94,8.62,5.94,27.53,5.29,36.25-1,13.26-13.39,28-24.19,29.9-12.5,1.27-29.36-2.45-38.52-10.31-5.09-6-14.95-20.14-19.49-32.53-9.46-25.86,8.81-48.54,32-53.78S1011.91,325.91,1018,352.77Z"/><path class="cls-17" d="M948.83,393.16c-4.84-8.51,1.59-12,8.63-5.35-1.21-6.42-8.53-25.23-2-31.47,7.32-7.24,39.54-4.09,56.85-22.14,0,0-12.9-28.29-55.25-11.58C909.19,348,948.83,393.16,948.83,393.16Z"/><ellipse class="cls-13" cx="948.54" cy="390.2" rx="8.11" ry="10.44" transform="translate(-30.39 696.28) rotate(-39.72)"/><path class="cls-15" d="M1012.67,335.38c-5.38-1.65-69.48,23.82-67.79,28.58,0,0,46.41.21,78.31-14.31C1040.61,341.72,1012.67,335.38,1012.67,335.38Z"/><path class="cls-1" d="M935.22,368.05l77.85-32.81-2.66-11-82.48,34C929.57,362,932.38,366.14,935.22,368.05Z"/><path class="cls-1" d="M925.68,360.7c-8.51,3.24-13.08-2-4.47-11.86,13.27-15.27,22.33-54.32,42-61.4,13.59-4.88,23.86,11,41.89,20.9,8.18,4.48,12.76,9.17,9.69,14.67C1005.51,330,934.6,357.3,925.68,360.7Z"/><path class="cls-18" d="M979.74,302.15l-.16-.44a20.58,20.58,0,0,1-5.76,0,16.5,16.5,0,0,1-5-1.51h0v0a15.2,15.2,0,0,1-1.18,2.25,18.58,18.58,0,0,1-2.25,2.86,17.25,17.25,0,0,1-1.37,1.33,19,19,0,0,1-2.31,1.76l1,2.6c.14.38.3.81.49,1.3l.29.77,1.1,2.94a12.42,12.42,0,0,0,3.23,4.83,14.92,14.92,0,0,0,3.16,2.25,19.23,19.23,0,0,0,3.18,1.32,21.52,21.52,0,0,0,3.27.74l.86.09a21.66,21.66,0,0,0,2-2.53,20.4,20.4,0,0,0,1.08-1.78c.18-.33.35-.67.51-1a13.53,13.53,0,0,0,.61-10.61C980.73,304.78,980,302.91,979.74,302.15Z"/><path class="cls-9" d="M979.32,310.59a6.22,6.22,0,1,1-8-3.65A6.2,6.2,0,0,1,979.32,310.59Z"/><path class="cls-1" d="M990.94,450.36l4.09,8.58.63-9.11,5.52,14.65c-1.37-2.43-6-4.56-6-4.56a16.89,16.89,0,0,0-7.57,7.9Z"/><path class="cls-1" d="M953.59,433.69c6.12,7.89,26,13.29,37.35,16.67l-3.38,17.46c-13.63-4.6-31.24-9.82-39.14-26.12C946.64,437.26,948.77,434.8,953.59,433.69Z"/><path class="cls-1" d="M1005.79,430.94c-.61,2.87-1.08,14.13-10.13,18.89l5.52,14.65c12.48-7.14,13.14-13.75,11.22-24.13C1011.61,436.22,1010.23,431.8,1005.79,430.94Z"/><path class="cls-15" d="M1016.59,627.25a.57.57,0,0,1-.56-.51c-1.39-13-2.53-28.42-3.72-44.79-3.27-44.59-7-95.14-17.7-121.82a.55.55,0,0,1,.31-.73.56.56,0,0,1,.73.31c10.8,26.85,14.51,77.48,17.78,122.16,1.19,16.36,2.33,31.81,3.72,44.75a.56.56,0,0,1-.5.62Z"/><path class="cls-15" d="M936.87,615.87c26.56,7.12,130.7,4.4,134.84,1.22,6.33-1.42,7.76,21.35,4.09,26.84-5.62,8.4-139.39,7.06-143.63,1S929.37,613.86,936.87,615.87Z"/><path class="cls-18" d="M1039.74,492.67c0-.26,0-.39,0-.45a19.94,19.94,0,0,1-5.43-1.36,16.17,16.17,0,0,1-4.42-2.6h0v0a14,14,0,0,1-1.64,1.85,18.16,18.16,0,0,1-2.8,2.18c-.51.33-1,.65-1.6.94a21.29,21.29,0,0,1-2.59,1.12c0,.15.09.74.31,2.68,0,.39.1.83.16,1.34q0,.38.09.81c.1.85.22,1.85.35,3a12.28,12.28,0,0,0,1.25,4.16,13.2,13.2,0,0,0,.67,1.17,14.6,14.6,0,0,0,2.46,2.85,17.52,17.52,0,0,0,2.69,2,20.27,20.27,0,0,0,2.92,1.47l.78.29a20.23,20.23,0,0,0,2.51-1.92,19.27,19.27,0,0,0,1.43-1.43c.25-.27.49-.55.73-.85a13.19,13.19,0,0,0,3.06-9.88C1040.06,495.38,1039.83,493.44,1039.74,492.67Z"/><rect class="cls-19" x="1020.27" y="519.56" width="26.3" height="4.82" transform="translate(-45.72 102.6) rotate(-5.56)"/><path class="cls-15" d="M1017.37,704.21h-8l.16-.69c3.61-15.26,4.11-52.4,4.11-52.77h1.13c0,.37-.49,36.55-4,52.33h5.7c.74-3.74,5.74-30.05,4.48-51.39l1.12-.07c1.37,23.07-4.53,51.85-4.59,52.14Z"/><path class="cls-13" d="M886.15,531.87s-10.58,59.85.2,81c11.14,21.81,114,26.55,114,26.55l3.69-31-70.87-18,15.39-45.84Z"/><path class="cls-1" d="M912.81,454.9s-29.88,36.46-31.08,88.67c38.94,28.4,64.6,7.94,64.6,7.94s19.74-52.19,15.36-77.58S921.65,445.69,912.81,454.9Z"/><path class="cls-2" d="M883.05,527.93c5.28,6.42,65.8,18.94,67.05,11.89,1.68,6.73,1.32,13.29-4.11,19.42-1.54,9.79-67.15-.52-65.61-10.3Q874.67,539.85,883.05,527.93Z"/><path class="cls-15" d="M950.1,540.38a.59.59,0,0,1-.29-.07.58.58,0,0,1-.2-.77,91.86,91.86,0,0,0,10.06-27.43.56.56,0,0,1,.66-.44.57.57,0,0,1,.44.66,93.27,93.27,0,0,1-10.19,27.78A.54.54,0,0,1,950.1,540.38Z"/><path class="cls-12" d="M957.36,535.82h0v0Z"/><path class="cls-12" d="M957.36,535.82h0v0Z"/><path class="cls-12" d="M1170.83,538.17s0-.48,0-.55v.55Z"/><path class="cls-12" d="M1170.83,538.17s0-.48,0-.55v.55Z"/><path class="cls-9" d="M1064.92,479.11c-25.06,26.37-64.9,47.84-107.43,56.83,0,2.82-.21,18.47-1,90.58-1.07,96.19,90.59,143.8,104.82,151.11,13.88-6.25,107.33-52.57,108.4-148.77.8-72.11,1-87.75,1-90.58C1128.37,528.37,1089.38,506,1064.92,479.11Z"/><path class="cls-3" d="M1064.55,496.5c-24.51,22.08-58.38,39.35-95.55,48.63l-.91,81.5c-.41,37.3,14.25,71.13,43.58,100.58a211.82,211.82,0,0,0,49.9,36.82l1.42-.72,1.77-266.62Z"/><path class="cls-5" d="M1064.76,496.69,1063,763.31a211.43,211.43,0,0,0,49.29-35c30-28.79,45.39-62.29,45.8-99.58l.91-81.51C1122.13,537.15,1088.75,519.22,1064.76,496.69Z"/><path class="cls-9" d="M1020.86,613.88l-.42,63.15c-.05,7,86.2,7.59,86.24.56l.42-63.14Zm47.26,33.85-.12,17.89a4.36,4.36,0,1,1-8.72,0l.11-17.94a10.6,10.6,0,1,1,8.73.1Z"/><path class="cls-9" d="M1099.58,609.9l-8.73-.06,0-4.25a26.84,26.84,0,0,0-53.68-.35l0,4.25-8.73-.06,0-4.25a35.57,35.57,0,0,1,71.14.47Z"/></g></svg>