<svg id="OBJECTS" xmlns="http://www.w3.org/2000/svg" viewBox="0 0 469.36 289.98"><defs><style>.cls-1,.cls-11,.cls-12,.cls-22,.cls-26,.cls-27,.cls-29,.cls-30,.cls-31,.cls-32,.cls-33,.cls-34,.cls-38,.cls-8{fill:none;}.cls-1{stroke:#fdf4c6;}.cls-1,.cls-11,.cls-18,.cls-20,.cls-22,.cls-26,.cls-27,.cls-28,.cls-29,.cls-30,.cls-31,.cls-32,.cls-33,.cls-34,.cls-35,.cls-38{stroke-miterlimit:10;}.cls-1,.cls-32{stroke-width:0.79px;}.cls-13,.cls-2,.cls-35,.cls-36,.cls-7{fill:#deac47;}.cls-18,.cls-20,.cls-28,.cls-3{fill:#fff;}.cls-10,.cls-4,.cls-6{fill:#fdf4c6;}.cls-5{opacity:0.27;}.cls-6{opacity:0.32;}.cls-37,.cls-7{opacity:0.36;}.cls-11,.cls-12,.cls-28,.cls-29,.cls-30,.cls-32,.cls-35,.cls-38,.cls-8{stroke:#deac47;}.cls-12,.cls-30,.cls-31,.cls-33,.cls-34,.cls-38,.cls-8{stroke-linecap:round;}.cls-12,.cls-8{stroke-linejoin:round;}.cls-8{stroke-dasharray:2.84;}.cls-9{fill:#d37200;}.cls-10{opacity:0.96;}.cls-11,.cls-26,.cls-27,.cls-28,.cls-31{stroke-width:0.9px;}.cls-12,.cls-29,.cls-30{stroke-width:1.67px;}.cls-13{opacity:0.61;}.cls-14{fill:#281616;}.cls-15{fill:#002c54;}.cls-16{fill:#052635;}.cls-17{fill:#e5918f;}.cls-18{stroke:#414042;}.cls-18,.cls-20{stroke-width:0.2px;}.cls-19{fill:#c7e5f2;}.cls-20{stroke:#6d6e71;}.cls-21{fill:#cc6362;}.cls-22,.cls-26,.cls-31,.cls-33{stroke:#fff;}.cls-22{stroke-width:0.5px;}.cls-23{opacity:0.5;}.cls-24{fill:#375f84;}.cls-25{fill:#e49191;}.cls-27{stroke:#e2e3e4;}.cls-33{stroke-width:2px;}.cls-34{stroke:#dee3fc;}.cls-36{opacity:0.26;}.cls-38{stroke-width:1.11px;}</style></defs><path class="cls-1" d="M163.84,89.76v-7a1.23,1.23,0,0,0-1.23-1.23h-1.8a1.12,1.12,0,0,1-1.1-.87,24.65,24.65,0,0,0-3.11-7.53,1.16,1.16,0,0,1,.15-1.43L158,70.47a1.23,1.23,0,0,0,0-1.74l-4.92-4.93a1.24,1.24,0,0,0-1.75,0l-1.26,1.26a1.15,1.15,0,0,1-1.42.15,24.61,24.61,0,0,0-7.53-3.11,1.11,1.11,0,0,1-.87-1.1V59.21A1.23,1.23,0,0,0,139,58h-7a1.24,1.24,0,0,0-1.24,1.23V61a1.12,1.12,0,0,1-.86,1.1,24.56,24.56,0,0,0-7.54,3.11,1.15,1.15,0,0,1-1.42-.15l-1.26-1.26a1.24,1.24,0,0,0-1.75,0l-4.92,4.93a1.23,1.23,0,0,0,0,1.74l1.26,1.26a1.16,1.16,0,0,1,.15,1.43,24.65,24.65,0,0,0-3.11,7.53,1.12,1.12,0,0,1-1.1.87h-1.79a1.24,1.24,0,0,0-1.24,1.23v7A1.24,1.24,0,0,0,108.48,91h1.79a1.14,1.14,0,0,1,1.11.87,24.59,24.59,0,0,0,3.1,7.53,1.15,1.15,0,0,1-.15,1.42l-1.26,1.26a1.24,1.24,0,0,0,0,1.75l4.92,4.92a1.23,1.23,0,0,0,1.75,0l1.26-1.26a1.16,1.16,0,0,1,1.43-.15,24.39,24.39,0,0,0,7.53,3.1,1.14,1.14,0,0,1,.86,1.11v1.8a1.24,1.24,0,0,0,1.24,1.23h7a1.23,1.23,0,0,0,1.24-1.23v-1.8a1.13,1.13,0,0,1,.87-1.11,24.43,24.43,0,0,0,7.52-3.1,1.16,1.16,0,0,1,1.43.15l1.26,1.26a1.23,1.23,0,0,0,1.75,0l4.92-4.92a1.24,1.24,0,0,0,0-1.75l-1.26-1.26a1.15,1.15,0,0,1-.15-1.42,24.59,24.59,0,0,0,3.1-7.53,1.14,1.14,0,0,1,1.11-.87h1.8A1.23,1.23,0,0,0,163.84,89.76Zm-28.3,16.15a19.64,19.64,0,1,1,19.63-19.64A19.63,19.63,0,0,1,135.54,105.91Z"/><path class="cls-2" d="M195.88,113.34v-4.75a.84.84,0,0,0-.84-.84h-1.23a.78.78,0,0,1-.75-.59,16.52,16.52,0,0,0-2.12-5.14.79.79,0,0,1,.11-1l.86-.86a.86.86,0,0,0,0-1.19l-3.36-3.35a.84.84,0,0,0-1.19,0l-.86.86a.8.8,0,0,1-1,.1,16.81,16.81,0,0,0-5.13-2.12.77.77,0,0,1-.59-.75V92.52a.84.84,0,0,0-.85-.84h-4.74a.83.83,0,0,0-.84.84v1.22a.78.78,0,0,1-.59.75,16.52,16.52,0,0,0-5.14,2.12.79.79,0,0,1-1-.11l-.86-.85a.84.84,0,0,0-1.19,0L161.28,99a.84.84,0,0,0,0,1.19l.86.86a.8.8,0,0,1,.1,1,17,17,0,0,0-2.12,5.14.77.77,0,0,1-.75.59h-1.22a.83.83,0,0,0-.84.84v4.75a.84.84,0,0,0,.84.84h1.22a.76.76,0,0,1,.75.59,17.06,17.06,0,0,0,2.12,5.13.78.78,0,0,1-.1,1l-.86.86a.84.84,0,0,0,0,1.19l3.35,3.36a.86.86,0,0,0,1.19,0l.86-.86a.79.79,0,0,1,1-.11,17,17,0,0,0,5.14,2.12.77.77,0,0,1,.59.75v1.23a.84.84,0,0,0,.84.84H179a.85.85,0,0,0,.85-.84v-1.23a.76.76,0,0,1,.59-.75,17.06,17.06,0,0,0,5.13-2.12.79.79,0,0,1,1,.11l.86.86a.86.86,0,0,0,1.19,0l3.36-3.36a.86.86,0,0,0,0-1.19l-.86-.86a.79.79,0,0,1-.11-1,16.81,16.81,0,0,0,2.12-5.13.77.77,0,0,1,.75-.59H195A.85.85,0,0,0,195.88,113.34Zm-19.29,10.25A12.63,12.63,0,1,1,189.21,111,12.63,12.63,0,0,1,176.59,123.59Z"/><circle class="cls-2" cx="106.49" cy="236.72" r="2.3"/><circle class="cls-2" cx="414.77" cy="173.85" r="2.3"/><circle class="cls-2" cx="410.17" cy="91.68" r="2.3"/><circle class="cls-2" cx="327.43" cy="63.75" r="1.44"/><path class="cls-2" d="M115.49,44.52a1.44,1.44,0,1,1-1.44-1.44A1.43,1.43,0,0,1,115.49,44.52Z"/><path class="cls-2" d="M147.44,133.41A1.44,1.44,0,1,1,146,132,1.43,1.43,0,0,1,147.44,133.41Z"/><path class="cls-2" d="M94.49,239A1.45,1.45,0,1,1,93,237.58,1.45,1.45,0,0,1,94.49,239Z"/><circle class="cls-2" cx="381.02" cy="238.08" r="2.3"/><circle class="cls-2" cx="429.95" cy="238.08" r="2.3"/><circle class="cls-2" cx="155.17" cy="38.25" r="2.3"/><path class="cls-2" d="M313.94,142.94a3.08,3.08,0,1,1-3.08-3.08A3.08,3.08,0,0,1,313.94,142.94Z"/><path class="cls-2" d="M86.84,104.87a3.08,3.08,0,1,1-3.08-3.08A3.08,3.08,0,0,1,86.84,104.87Z"/><rect class="cls-3" x="73.85" y="54.13" width="4.77" height="4.77" rx="0.66"/><rect class="cls-3" x="80.24" y="54.13" width="4.77" height="4.77" rx="0.66"/><rect class="cls-3" x="86.63" y="54.13" width="4.77" height="4.77" rx="0.66"/><rect class="cls-4" x="399.09" y="221.81" width="4.77" height="4.77" rx="0.66"/><rect class="cls-4" x="405.48" y="221.81" width="4.77" height="4.77" rx="0.66"/><rect class="cls-4" x="411.87" y="221.81" width="4.77" height="4.77" rx="0.66"/><g class="cls-5"><rect class="cls-2" x="103.83" y="219.2" width="4.77" height="4.77" rx="0.66"/><rect class="cls-2" x="110.22" y="219.2" width="4.77" height="4.77" rx="0.66"/><rect class="cls-2" x="116.61" y="219.2" width="4.77" height="4.77" rx="0.66"/></g><rect class="cls-2" x="174.79" y="31.32" width="120.97" height="233.69" rx="21.35"/><rect class="cls-3" x="177.06" y="33.37" width="116.44" height="228.32" rx="18.7"/><path class="cls-6" d="M288.4,45.68V248.34a8.61,8.61,0,0,1-8.61,8.61h-89a8.61,8.61,0,0,1-8.61-8.61V45.68a8.62,8.62,0,0,1,8.61-8.61h14.85a2.18,2.18,0,0,1,1.94,1.2l1.58,3.15a4.25,4.25,0,0,0,3.81,2.36h44.67a4.25,4.25,0,0,0,3.81-2.36L263,38.27a2.19,2.19,0,0,1,1.95-1.2h14.84A8.62,8.62,0,0,1,288.4,45.68Z"/><path class="cls-7" d="M254,40.1h-36a1.52,1.52,0,0,1-1.52-1.51h0a1.52,1.52,0,0,1,1.52-1.52h36a1.52,1.52,0,0,1,1.52,1.52h0A1.52,1.52,0,0,1,254,40.1Z"/><rect class="cls-8" x="188.52" y="210.26" width="91.44" height="39.65" rx="8.38"/><rect class="cls-8" x="226.39" y="124.77" width="47.93" height="27.84" rx="6.04"/><rect class="cls-9" x="191.85" y="159.29" width="91.8" height="44.38" rx="7.2"/><rect class="cls-2" x="188.52" y="155.7" width="91.44" height="44.38" rx="4.89"/><rect class="cls-10" x="192.74" y="165.8" width="30.67" height="30.67" rx="4.86"/><path class="cls-4" d="M248.62,169.68H227.43a1,1,0,0,1-1-1h0a1,1,0,0,1,1-1h21.19a1,1,0,0,1,1,1h0A1,1,0,0,1,248.62,169.68Z"/><path class="cls-4" d="M239,173.85H227.43a1,1,0,0,1-1-1h0a1,1,0,0,1,1-1H239a1,1,0,0,1,1,1h0A1,1,0,0,1,239,173.85Z"/><path class="cls-4" d="M274.42,173.85H243.21a1,1,0,0,1-1-1h0a1,1,0,0,1,1-1h31.21a1,1,0,0,1,1,1h0A1,1,0,0,1,274.42,173.85Z"/><path class="cls-4" d="M245.28,178H227.43a1,1,0,0,1-1-1h0a1,1,0,0,1,1-1h17.85a1,1,0,0,1,1,1h0A1,1,0,0,1,245.28,178Z"/><path class="cls-4" d="M260.42,178H249.21a1,1,0,0,1-1.05-1h0a1,1,0,0,1,1.05-1h11.21a1,1,0,0,1,1.05,1h0A1,1,0,0,1,260.42,178Z"/><path class="cls-4" d="M274.42,178H264.09a1,1,0,0,1-1-1h0a1,1,0,0,1,1-1h10.33a1,1,0,0,1,1,1h0A1,1,0,0,1,274.42,178Z"/><path class="cls-4" d="M274.42,182.18h-47a1,1,0,0,1-1-1.05h0a1,1,0,0,1,1-1h47a1,1,0,0,1,1,1h0A1,1,0,0,1,274.42,182.18Z"/><path class="cls-4" d="M253.29,186.34H227.43a1,1,0,0,1-1-1h0a1,1,0,0,1,1-1h25.86a1,1,0,0,1,1.05,1h0A1,1,0,0,1,253.29,186.34Z"/><path class="cls-4" d="M274.42,186.34h-17a1,1,0,0,1-1-1h0a1,1,0,0,1,1-1h17a1,1,0,0,1,1,1h0A1,1,0,0,1,274.42,186.34Z"/><path class="cls-4" d="M242.63,190.51h-15.2a1,1,0,0,1-1-1h0a1,1,0,0,1,1-1h15.2a1,1,0,0,1,1,1h0A1,1,0,0,1,242.63,190.51Z"/><path class="cls-4" d="M261.93,190.51H246.74a1,1,0,0,1-1-1h0a1,1,0,0,1,1-1h15.19a1,1,0,0,1,1.05,1h0A1,1,0,0,1,261.93,190.51Z"/><path class="cls-4" d="M274.42,190.51H265.6a1,1,0,0,1-1-1h0a1,1,0,0,1,1-1h8.82a1,1,0,0,1,1,1h0A1,1,0,0,1,274.42,190.51Z"/><path class="cls-4" d="M248.62,194.67H227.43a1,1,0,0,1-1-1h0a1,1,0,0,1,1-1h21.19a1,1,0,0,1,1,1h0A1,1,0,0,1,248.62,194.67Z"/><path class="cls-4" d="M274.42,169.68H253.23a1,1,0,0,1-1-1h0a1,1,0,0,1,1-1h21.19a1,1,0,0,1,1,1h0A1,1,0,0,1,274.42,169.68Z"/><path class="cls-9" d="M280,160.58V162H188.52v-1.46a4.88,4.88,0,0,1,4.89-4.88h81.66A4.88,4.88,0,0,1,280,160.58Z"/><path class="cls-2" d="M262.72,159a1.13,1.13,0,0,1-2.26,0,1.13,1.13,0,1,1,2.26,0Z"/><path class="cls-2" d="M268.52,159a1.14,1.14,0,1,1-1.13-1.13A1.13,1.13,0,0,1,268.52,159Z"/><path class="cls-2" d="M274.32,159a1.14,1.14,0,1,1-1.14-1.13A1.13,1.13,0,0,1,274.32,159Z"/><rect class="cls-11" x="193.87" y="124.79" width="27.82" height="27.82" rx="7.15"/><polyline class="cls-12" points="203.44 134.68 199.44 138.68 203.47 142.72"/><polyline class="cls-12" points="212.12 134.68 216.13 138.68 212.09 142.72"/><line class="cls-12" x1="209.66" y1="134.68" x2="205.9" y2="142.72"/><rect class="cls-13" x="188.52" y="51.34" width="91.44" height="67.71" rx="5.56"/><circle class="cls-2" cx="261.44" cy="69.22" r="13.25"/><path class="cls-3" d="M242.27,119.05H194.08a5.56,5.56,0,0,1-5.56-5.56v-8.91l21.09-36.53a2.86,2.86,0,0,1,5,0l15.92,27.58,11.83,20.48A2.82,2.82,0,0,1,242.27,119.05Z"/><path class="cls-2" d="M263.05,119.05H217l13.52-23.42L237.78,83a2.57,2.57,0,0,1,4.46,0Z"/><rect class="cls-2" x="318.93" y="224.2" width="35.53" height="53.39"/><rect class="cls-9" x="354.46" y="224.2" width="13.6" height="53.39" transform="translate(722.51 501.79) rotate(180)"/><rect class="cls-2" x="356.4" y="226.25" width="9.99" height="1.7"/><rect class="cls-2" x="356.4" y="229.91" width="9.99" height="1.7"/><rect class="cls-2" x="356.4" y="233.57" width="9.99" height="1.7"/><rect class="cls-2" x="356.4" y="237.23" width="9.99" height="1.7"/><rect class="cls-2" x="356.4" y="240.89" width="9.99" height="1.7"/><rect class="cls-2" x="356.4" y="244.55" width="9.99" height="1.7"/><rect class="cls-2" x="356.4" y="248.21" width="9.99" height="1.7"/><rect class="cls-2" x="356.4" y="251.87" width="9.99" height="1.7"/><rect class="cls-2" x="356.4" y="255.53" width="9.99" height="1.7"/><rect class="cls-2" x="356.4" y="259.19" width="9.99" height="1.7"/><rect class="cls-2" x="356.4" y="262.85" width="9.99" height="1.7"/><rect class="cls-2" x="356.4" y="266.52" width="9.99" height="1.7"/><rect class="cls-2" x="356.4" y="270.18" width="9.99" height="1.7"/><rect class="cls-2" x="356.4" y="273.84" width="9.99" height="1.7"/><path class="cls-14" d="M313.16,277.59h18a9.87,9.87,0,0,0-1.17-7.2s-1.46,1.17-5.81.38a20,20,0,0,1-3.07,2.15C319.9,273.53,312.67,274.94,313.16,277.59Z"/><path class="cls-15" d="M314.42,226.68c1.16,7,6.54,30.5,8.86,44.41a21,21,0,0,0,7.33-.38c-.21-4.85-.63-16.45-.58-21.53.08-8.6.49-19.94-3.3-26.16L314,224c.07.67.14,1.22.21,1.61S314.35,226.35,314.42,226.68Z"/><path class="cls-14" d="M280.5,277.59h18.06a9.9,9.9,0,0,0-1.18-7.2s-1.46,1.17-5.81.38a20,20,0,0,1-3.07,2.15C287.24,273.53,280,274.94,280.5,277.59Z"/><path class="cls-16" d="M291.05,270.68a20.92,20.92,0,0,0,7.13.64c1-5.59,2.48-17.89,3.84-23.66,2.12-9,4.19-21.28,2.75-25.68l-12.52-3.14C292.21,219.23,291.19,257,291.05,270.68Z"/><path class="cls-16" d="M340.87,206h0c-.25-2.47-.54-4.28-.54-4.28l-14,3.43-11.88,2.7c-4.4,1-9.72,2.16-14.41,3.22-5.27,1.2-8.76,5.2-7.61,10.47l1.32,6.39c7.36-.1,42-3.42,44.94-4.91C342,221.33,343.05,215.36,340.87,206Z"/><path class="cls-15" d="M361.75,206h0a19.3,19.3,0,0,0-1.46-5.13l-13.07,4.28-11.88,2.7c-4.4,1-9.72,2.16-14.41,3.22-5.27,1.2-8.76,5.2-7.61,10.47l1.32,6.39c7.36-.1,38.13-1.17,44.94-4.91C362.86,221.21,363.93,215.36,361.75,206Z"/><path class="cls-17" d="M322.6,186s6.21-2.81,7.92,0c.94,1.54.29,4.4-1.83,5.6s-14.09,6.27-25.39,9.09a26.92,26.92,0,0,0-1.26-3.22,59.82,59.82,0,0,0,10.11-5.65A64.15,64.15,0,0,1,322.6,186Z"/><path class="cls-17" d="M324.16,166.56l-5.33,21.26s.55,5.38,6,2.74,9-19.58,9-19.58Z"/><path class="cls-18" d="M333.16,178.45q-1-.24-1.89-.51t-1.77-.57a29.76,29.76,0,0,1-7.8-3.82,56,56,0,0,1,5.21-14.61,1.34,1.34,0,0,0,.13-.23l.14-.23a13.29,13.29,0,0,1,3.7-3.85l.45-.31.63,11.1.1,1.14Z"/><path class="cls-19" d="M333.16,178.45q-1-.24-1.89-.51t-1.77-.57c1.06-7.48,2-12.18,2-12.18l.54,1.37Z"/><path class="cls-20" d="M364.59,159.25c-.13,3.29-.7,8.57-1.2,13.87-.16,1.68-.31,3.37-.44,5-.09,1-1.62,6.43-1.68,7.4-.28,4.63-2.55,8.1-.4,15.16a11,11,0,0,1,.65,3.26c0,.48-.63,1-.88,1.13a15,15,0,0,1-4.83,1.15h0a126.42,126.42,0,0,1-13.39.61c-4.63,0-11.57-.73-12.45-1.9s-.06-2.62.31-4.76c1.71-9.68,1.1-14.72,1-21.7,0-.18,0-.35,0-.53-.18-10.77-.89-20-.39-23.31l.45-.31c.73-.5,1.45-.95,2.15-1.34l.21-.13.64-.34a1.08,1.08,0,0,1,.24-.12,50.83,50.83,0,0,1,5.17-2l.44-.15c1.24-.07,2.58-.09,4,0,1.26,0,3.19.21,5.28.48h0a53.78,53.78,0,0,1,7,1.31h0a14.31,14.31,0,0,1,5.5,3.86A18.12,18.12,0,0,1,364.59,159.25Z"/><path class="cls-4" d="M360.87,200.68a11,11,0,0,1,.65,3.26c0,.48-.63,1-.88,1.13a15,15,0,0,1-4.83,1.15,3.42,3.42,0,0,0,2.42-2.78c0-.89-1.15-6.89-.83-10.76s.94-10-.25-14.93-2.34-11.4-2.34-11.4l6.75,4.07s.87,1.22,1.83,2.7c-.16,1.68-.31,3.37-.44,5C362.86,179.13,358.72,193.62,360.87,200.68Z"/><path class="cls-15" d="M331.19,130.79s.58,7.06,2.92,7.53,1.77-2.52,1.77-2.52l-.33-3.35Z"/><path class="cls-17" d="M342,156.37c-4.58-.55-2.87-5-2.24-6,.16-.06.95-.3,1-.34h0a1.29,1.29,0,0,0,.35-.53,11,11,0,0,0,.23-3.67h0v-.42c.08-.28.15-.55.21-.8l2.41-1.89,5.1-4s-1.36,6.71-.27,10.93a1.57,1.57,0,0,0,.68,1h0a1.28,1.28,0,0,0,.51.18C351.24,151.4,349.5,157.26,342,156.37Z"/><path class="cls-21" d="M346,142.94a7.61,7.61,0,0,1-4.9,6.53,10.9,10.9,0,0,0,.23-3.66l2-1.59Z"/><path class="cls-17" d="M332.31,131.8s1.06,14.64,5,15.88a10.25,10.25,0,0,0,8.65-4.39c1-1.4,2.36-1.71,2.79-3.41.7-2.75,1.69-7.82.43-10.87C347.4,124.65,332.48,121.2,332.31,131.8Z"/><path class="cls-15" d="M349.25,126.59a4.31,4.31,0,0,0-2.76-3.65c-2.68-1.26-8.25-.72-14,.56-1.35.3-3-.52-4,.13-1.13.79,0,4.39,0,4.39,2.21,6.71,10.37,4.53,12.81,3.7.59,1.73.51,4.13,2,5.37.83.7,2.27.72,3.73.48.18.34.86.64,1,1.11a23.94,23.94,0,0,1,.38,5.91l.69-.33C349.18,143.74,356.33,126.81,349.25,126.59Z"/><path class="cls-22" d="M336.36,136.73a1.79,1.79,0,1,1-2.09-1.91A2,2,0,0,1,336.36,136.73Z"/><path class="cls-22" d="M341.14,135.84a1.8,1.8,0,1,1-2.09-1.92A2,2,0,0,1,341.14,135.84Z"/><path class="cls-22" d="M336.36,136.73s.21-.34,1.31-.25"/><line class="cls-22" x1="341.18" y1="136.13" x2="345.26" y2="135.47"/><path class="cls-17" d="M345.57,140.66c2.81,1.08,3.69-5.85,1-6.15-2-.24-2.11,2.59-2.11,2.59S344,140,345.57,140.66Z"/><g class="cls-23"><path class="cls-21" d="M346.49,135.55a3.38,3.38,0,0,0-.57,1.69c-.06.57,0,1.17,0,1.89a2.53,2.53,0,0,1-.56-.89,2.57,2.57,0,0,1-.14-1.07,2.06,2.06,0,0,1,.38-1A1.41,1.41,0,0,1,346.49,135.55Z"/><path class="cls-21" d="M346.93,136.86a1.28,1.28,0,0,0-1,1.14l-.69-.24A1.83,1.83,0,0,1,346,137,1.53,1.53,0,0,1,346.93,136.86Z"/></g><path class="cls-17" d="M372.61,188.76h0c-1.24,1.43-5.93,2.48-8.19.49a12.9,12.9,0,0,1-2.29-4.36,132.79,132.79,0,0,1-3.9-13.19l10.5-5.36s1.35,6.06,2.51,11.81l0,.16c.38,1.84.73,3.66,1,5.21a.59.59,0,0,1,0,.13A21.87,21.87,0,0,1,372.61,188.76Z"/><path class="cls-20" d="M354.27,164.36a124.8,124.8,0,0,0,4.2,12.21,16.51,16.51,0,0,0,7.7-.94,14.16,14.16,0,0,0,4.91-3.18s-2.12-5.94-4-10.21c-1.7-3.83-2.73-5.26-3.46-6a16.85,16.85,0,0,0-4.17-3.1Z"/><path class="cls-17" d="M372.61,188.76h0c-.1.77-.31,1.32-.69,1.51l-1,.6a52.06,52.06,0,0,1-6.51,3.36,235.47,235.47,0,0,1-22.72,8.16,26.38,26.38,0,0,0-1.39-3.17,59.62,59.62,0,0,0,9.87-6c4.89-3.74,11.94-8.28,11.94-8.28l1.77-2.09s6.33-5.82,7.34-4.65l0,.16c.15.61.66,2.84,1,5.21a.59.59,0,0,1,0,.13A21.87,21.87,0,0,1,372.61,188.76Z"/><path class="cls-17" d="M341.05,198.88a4,4,0,0,1-2.5.48c-.69-.15-1-.43-1.49-.53a11.82,11.82,0,0,1-2.57-.59c-.67-.33-.94-.37-.92.31s1.37,1.27,1.73,1.46a3.47,3.47,0,0,1,.87.87c.05.08-2.23,1.27-2.85,1a1.83,1.83,0,0,0-.08.86c.11.31.58.41.61.57s-.1.47,0,.71.52.25.69.65,0,.4.1.81.66.49.76.71.05.46.27.61a10.27,10.27,0,0,0,3-.83c.75-.33,2.76-3.21,5-4.19Z"/><path class="cls-24" d="M351.54,211.75h-16v-1.57h16a.78.78,0,0,1,.78.79h0A.78.78,0,0,1,351.54,211.75Z"/><path class="cls-9" d="M342.9,211.75h-40a1.07,1.07,0,0,1-1-.78l-8.18-29.46a1,1,0,0,1,1-1.3h38.66a2,2,0,0,1,1.93,1.47L343.45,211A.57.57,0,0,1,342.9,211.75Z"/><path class="cls-2" d="M341.46,211.75h-40a1.05,1.05,0,0,1-1-.78l-8.19-29.46a1,1,0,0,1,1-1.3h38.66a2,2,0,0,1,1.94,1.47L342,211A.57.57,0,0,1,341.46,211.75Z"/><path class="cls-25" d="M183,192.71l4.63-4.75a12.54,12.54,0,0,1,.41-2.56,12.35,12.35,0,0,1,1.23-2.28,1.7,1.7,0,0,1,1,0,4.35,4.35,0,0,1,.93-.22,2.69,2.69,0,0,1,.83.27s.69,0,1,0a.61.61,0,0,1,.38.08,21.88,21.88,0,0,1,1.66-1.72c.54-.43,1.36-1.23,1.61-1.22s.33.41.16.84a4.65,4.65,0,0,1-.9,1.13l-2.11,3.2a5.6,5.6,0,0,0,.56-.27c.19-.12,1.48-1.32,1.55-1.37s.66-.43,1,0-2.2,3.44-2.61,3.85a22.1,22.1,0,0,1-2.75,1.59s-2.47,4.45-2.71,4.74S183,192.71,183,192.71Z"/><path class="cls-25" d="M187.35,170.79s-2.59,15-5,15.34c0,0-9.72.39-11.89-11.4-1.88-10.23,5.66-12.41,9.18-11.63S188.11,164.39,187.35,170.79Z"/><path class="cls-25" d="M178.76,183.73s-1.36,1.84-1.84,6.28a14.43,14.43,0,0,1-7.78-1.34,55.18,55.18,0,0,0,2.26-13.08"/><path class="cls-15" d="M176,160.59c-5.32,1.18-4.89,4.49-4.89,4.49-2.49.61-3,1.64-3,6.23s1.68,10.1,2.6,10.55,6.1.47,6.54.31,2.25-4.37,1.83-5.11,0-3.65,1.23-3.76,1,1.76,1,1.76l1-.21.77-1.89c7,.42,8.84-7.58,8.84-7.58C190.21,164.28,181.33,159.42,176,160.59Z"/><path class="cls-17" d="M117.05,262.05l5.37.77-1.78,6.27-5.82-1.46a3.78,3.78,0,0,1,1.21-5.58A1.85,1.85,0,0,1,117.05,262.05Z"/><path d="M157.14,245.93l-7.92-24s-2.4-.85-3.63,0c0,0-8.25,4.44-7.37,17.08a206.31,206.31,0,0,0,3.5,24l-21.13-.78a7.22,7.22,0,0,0-.92,7.13s26.54,7.14,30.28,7.8c3,.54,6.37,1,8-.43C160.75,274.36,157.14,245.93,157.14,245.93Z"/><path class="cls-17" d="M142.06,262.05l5.37.77-1.78,6.27-5.82-1.46a3.78,3.78,0,0,1,1.21-5.58A1.85,1.85,0,0,1,142.06,262.05Z"/><path class="cls-2" d="M140.11,265.33c-.12,1.24,1,2.35.76,2.66s-3.81,6.36-3.81,6.36,2.73,1.19,2.29,2.91h-6.91a5.76,5.76,0,0,1-1.76-4,20.16,20.16,0,0,1,1.7-5.06l4-7.73a3.88,3.88,0,0,1,2.31,0,13.72,13.72,0,0,1,3.34,1.5S140.4,262.28,140.11,265.33Z"/><path class="cls-15" d="M195.4,271.75c-1.7-6.36-17.74-33.51-23.16-40.84-11.14-4.84-23-8.95-23-8.95-4.91,1.18-7.33,11.07-4.55,17.67,1.92,4.53,14,15.92,21.46,22.63l-20.6,0s-2.43,3.63-.23,7.07c0,0,34.27,7.8,37.28,8.24a68.27,68.27,0,0,0,9.75,0S196.84,277.1,195.4,271.75Z"/><path class="cls-2" d="M115.1,265.33c-.12,1.24,1,2.35.76,2.66s-3.81,6.36-3.81,6.36,2.73,1.19,2.29,2.91h-6.91a5.76,5.76,0,0,1-1.76-4,20.16,20.16,0,0,1,1.7-5.06l4-7.73a3.88,3.88,0,0,1,2.31,0,13.72,13.72,0,0,1,3.34,1.5S115.39,262.28,115.1,265.33Z"/><path class="cls-25" d="M221.2,188.1l-11,19.44-7.91-7.89-6.55,9.75,1.9.91-.69.57s15.28,7.44,17.11,5.8,10.36-26.37,10.36-26.37Z"/><path class="cls-4" d="M203.65,200.88s-2.09,8.8-6.26,13l-10.68-4.07s-5,8.33-9.8,14.72c-1.86,2.47-2.48,5.94-4.67,6.4l-.4-.13c-5.93-1.78-14.68.11-21.91-2.57-8-3-6.43-4.64-6.43-4.64a103.21,103.21,0,0,0,7.59-18,109.66,109.66,0,0,0,2.63-10.82,12.47,12.47,0,0,1,10.5-10l.17,0c6.05-.77,21.89,1.1,25,2.42S203.65,200.88,203.65,200.88Z"/><path class="cls-2" d="M186.71,209.79s-5,8.33-9.8,14.72c-1.86,2.47-2.48,5.94-4.67,6.4,1-.34,2.55-5.39,3.12-6.52s1.47-2.26,3.43-6.23,4.6-9.78,4.6-9.78Z"/><path d="M166.13,262.26a11.55,11.55,0,0,1,2.73-.35,19.06,19.06,0,0,1,2.73.16,13.66,13.66,0,0,1,5.19,1.72c-.92-.06-1.8-.2-2.69-.31l-2.64-.35C169.69,262.87,167.94,262.65,166.13,262.26Z"/><path class="cls-25" d="M229.46,180.94a10.81,10.81,0,0,0-1.86,1.34l.63-1.2a12.07,12.07,0,0,0,1.14-1.25c.3-.44.14-.88-.1-.91a10.1,10.1,0,0,0-1.74,1.25l.13-.24a12.35,12.35,0,0,0,1.13-1.25c.3-.44.14-.88-.09-.91a15.13,15.13,0,0,0-2.16,1.59l-.93,1.25.7-1.37a5.82,5.82,0,0,0,.62-1c.25-.49.07-.64-.07-.81s-1.43.8-1.75,1.18a20.15,20.15,0,0,0-1.46,2.17l-1.08,2.23c-.07-.65-.18-1.76-.25-2.46-.11-1-1-1.26-1.06-.76a24.46,24.46,0,0,0-.43,4.24c.11,1.32.34,2.18.42,2.92a5.85,5.85,0,0,1-.69,2.23s3.08,1.91,3.58,1.33a23.61,23.61,0,0,0,2.12-2.69,14.26,14.26,0,0,0,1.2-2.72l1-2.05a12.07,12.07,0,0,0,1.14-1.25C229.86,181.41,229.7,181,229.46,180.94Z"/><path class="cls-26" d="M406,119.05H369.92a4.18,4.18,0,0,0-4.18,4.18v8.52a4.18,4.18,0,0,0,3.66,4.15.6.6,0,0,1,.52.6v4.67a.28.28,0,0,0,.51.16l3.67-5.14a.6.6,0,0,1,.49-.25H406a4.19,4.19,0,0,0,4.18-4.19v-8.52A4.18,4.18,0,0,0,406,119.05Z"/><path class="cls-26" d="M375.46,127.48a1.38,1.38,0,1,1-1.38-1.38A1.38,1.38,0,0,1,375.46,127.48Z"/><path class="cls-26" d="M382.39,127.48A1.38,1.38,0,1,1,381,126.1,1.37,1.37,0,0,1,382.39,127.48Z"/><path class="cls-26" d="M389.33,127.48A1.38,1.38,0,1,1,388,126.1,1.38,1.38,0,0,1,389.33,127.48Z"/><path class="cls-26" d="M396.27,127.48a1.38,1.38,0,1,1-1.38-1.38A1.38,1.38,0,0,1,396.27,127.48Z"/><path class="cls-26" d="M403.21,127.48a1.38,1.38,0,1,1-1.38-1.38A1.38,1.38,0,0,1,403.21,127.48Z"/><path class="cls-27" d="M121,156.4h36.06a4.19,4.19,0,0,1,4.19,4.18v8.52a4.19,4.19,0,0,1-3.66,4.15.61.61,0,0,0-.53.6v4.66a.28.28,0,0,1-.5.17l-3.67-5.14a.62.62,0,0,0-.5-.25H121a4.19,4.19,0,0,1-4.18-4.19v-8.52A4.18,4.18,0,0,1,121,156.4Z"/><path class="cls-27" d="M151.56,164.83a1.38,1.38,0,1,0,1.38-1.38A1.38,1.38,0,0,0,151.56,164.83Z"/><path class="cls-27" d="M144.62,164.83a1.38,1.38,0,1,0,1.38-1.38A1.38,1.38,0,0,0,144.62,164.83Z"/><path class="cls-27" d="M137.68,164.83a1.38,1.38,0,1,0,1.38-1.38A1.38,1.38,0,0,0,137.68,164.83Z"/><path class="cls-27" d="M130.74,164.83a1.38,1.38,0,1,0,1.38-1.38A1.38,1.38,0,0,0,130.74,164.83Z"/><path class="cls-27" d="M123.81,164.83a1.38,1.38,0,1,0,1.37-1.38A1.37,1.37,0,0,0,123.81,164.83Z"/><path class="cls-28" d="M338.82,99.39H273.09a6.56,6.56,0,0,1-6.56-6.56h0a6.56,6.56,0,0,1,6.56-6.56h65.73a6.56,6.56,0,0,1,6.56,6.56h0A6.56,6.56,0,0,1,338.82,99.39Z"/><path class="cls-29" d="M337.85,92.38a3.49,3.49,0,1,1-3.49-3.49A3.49,3.49,0,0,1,337.85,92.38Z"/><line class="cls-30" x1="336.83" y1="94.85" x2="338.76" y2="96.77"/><rect class="cls-9" x="217.48" y="250.89" width="27.01" height="27.01" rx="7.71"/><rect class="cls-2" x="212.56" y="250.89" width="27.01" height="27.01" rx="7.71"/><path class="cls-3" d="M222.87,259.3l7.76,4.48a.72.72,0,0,1,0,1.24l-7.76,4.48a.71.71,0,0,1-1.07-.62v-9A.71.71,0,0,1,222.87,259.3Z"/><rect class="cls-9" x="381.83" y="242.6" width="35.31" height="35.31" rx="10.08"/><rect class="cls-2" x="375.4" y="242.6" width="35.31" height="35.31" rx="10.08"/><path class="cls-3" d="M397.3,251.26a4.25,4.25,0,1,1-4.25-4.24A4.24,4.24,0,0,1,397.3,251.26Z"/><path class="cls-3" d="M401.9,265.62v6.27a1,1,0,0,1-1,1H385.23a1,1,0,0,1-1-1v-6.27a8.84,8.84,0,0,1,8.84-8.84h0A8.84,8.84,0,0,1,401.9,265.62Z"/><path class="cls-4" d="M314.09,107H300.2a1,1,0,0,1-1-1h0a1,1,0,0,1,1-1h13.89a1,1,0,0,1,1,1h0A1,1,0,0,1,314.09,107Z"/><path class="cls-4" d="M328,107h-10a1,1,0,0,1-1.05-1h0a1,1,0,0,1,1.05-1h10a1,1,0,0,1,1,1h0A1,1,0,0,1,328,107Z"/><path class="cls-4" d="M306.1,111.54h-5.9a1,1,0,0,1-1-1h0a1,1,0,0,1,1-1h5.9a1,1,0,0,1,1,1h0A1,1,0,0,1,306.1,111.54Z"/><path class="cls-4" d="M328,111.54H309.6a1,1,0,0,1-1-1h0a1,1,0,0,1,1-1H328a1,1,0,0,1,1,1h0A1,1,0,0,1,328,111.54Z"/><path class="cls-4" d="M318.5,116.13H300.2a1,1,0,0,1-1-1h0a1,1,0,0,1,1-1h18.3a1,1,0,0,1,1.05,1h0A1,1,0,0,1,318.5,116.13Z"/><path class="cls-4" d="M328,116.13h-5.89a1,1,0,0,1-1.05-1h0a1,1,0,0,1,1.05-1H328a1,1,0,0,1,1,1h0A1,1,0,0,1,328,116.13Z"/><rect class="cls-2" x="87.22" y="183.85" width="53.66" height="29.66" rx="3.82"/><line class="cls-31" x1="89.5" y1="187.86" x2="138.6" y2="187.86"/><circle class="cls-3" cx="137.31" cy="185.82" r="0.59"/><circle class="cls-3" cx="134.2" cy="185.82" r="0.59"/><circle class="cls-3" cx="131.1" cy="185.82" r="0.59"/><path class="cls-9" d="M98.65,191.85H90.32a.82.82,0,0,1-.82-.82h0a.82.82,0,0,1,.82-.82h8.33a.81.81,0,0,1,.82.82h0A.82.82,0,0,1,98.65,191.85Z"/><path class="cls-9" d="M98.65,195.64H90.32a.82.82,0,0,1-.82-.82h0a.82.82,0,0,1,.82-.82h8.33a.82.82,0,0,1,.82.82h0A.81.81,0,0,1,98.65,195.64Z"/><path class="cls-9" d="M98.65,199.44H90.32a.82.82,0,0,1-.82-.82h0a.82.82,0,0,1,.82-.82h8.33a.81.81,0,0,1,.82.82h0A.82.82,0,0,1,98.65,199.44Z"/><path class="cls-9" d="M98.65,203.23H90.32a.82.82,0,0,1-.82-.82h0a.82.82,0,0,1,.82-.82h8.33a.82.82,0,0,1,.82.82h0A.82.82,0,0,1,98.65,203.23Z"/><path class="cls-9" d="M98.65,207H90.32a.82.82,0,0,1-.82-.82h0a.83.83,0,0,1,.82-.83h8.33a.82.82,0,0,1,.82.83h0A.82.82,0,0,1,98.65,207Z"/><path class="cls-9" d="M98.65,210.82H90.32a.82.82,0,0,1-.82-.82h0a.82.82,0,0,1,.82-.82h8.33a.82.82,0,0,1,.82.82h0A.82.82,0,0,1,98.65,210.82Z"/><path class="cls-9" d="M137.78,191.85h-35.9a.83.83,0,0,1-.83-.82h0a.82.82,0,0,1,.83-.82h35.9a.82.82,0,0,1,.82.82h0A.82.82,0,0,1,137.78,191.85Z"/><path class="cls-9" d="M137.78,195.64h-35.9a.82.82,0,0,1-.83-.82h0a.83.83,0,0,1,.83-.82h35.9a.82.82,0,0,1,.82.82h0A.82.82,0,0,1,137.78,195.64Z"/><path class="cls-9" d="M137.78,199.44h-35.9a.83.83,0,0,1-.83-.82h0a.82.82,0,0,1,.83-.82h35.9a.82.82,0,0,1,.82.82h0A.82.82,0,0,1,137.78,199.44Z"/><path class="cls-9" d="M137.78,203.23h-35.9a.83.83,0,0,1-.83-.82h0a.83.83,0,0,1,.83-.82h35.9a.82.82,0,0,1,.82.82h0A.82.82,0,0,1,137.78,203.23Z"/><path class="cls-9" d="M137.78,207h-35.9a.83.83,0,0,1-.83-.82h0a.83.83,0,0,1,.83-.83h35.9a.83.83,0,0,1,.82.83h0A.82.82,0,0,1,137.78,207Z"/><path class="cls-9" d="M137.78,210.82h-35.9a.83.83,0,0,1-.83-.82h0a.83.83,0,0,1,.83-.82h35.9a.82.82,0,0,1,.82.82h0A.82.82,0,0,1,137.78,210.82Z"/><circle class="cls-32" cx="368.39" cy="53.41" r="22.09" transform="translate(230.61 399.22) rotate(-76.53)"/><circle class="cls-2" cx="368.39" cy="53.41" r="19.21" transform="translate(9.89 153.63) rotate(-23.87)"/><path class="cls-3" d="M370.13,53.41a1.75,1.75,0,1,1-1.74-1.74A1.74,1.74,0,0,1,370.13,53.41Z"/><path class="cls-3" d="M368.19,53.07h0a.54.54,0,0,1-.74-.21L361.8,42.67a.54.54,0,0,1,.22-.74h0a.54.54,0,0,1,.74.21l5.65,10.19A.55.55,0,0,1,368.19,53.07Z"/><path class="cls-3" d="M368.66,53.69h0a.56.56,0,0,1,.78,0l4.88,4.89a.53.53,0,0,1,0,.77h0a.55.55,0,0,1-.77,0l-4.89-4.89A.55.55,0,0,1,368.66,53.69Z"/><line class="cls-33" x1="368.5" y1="38.04" x2="368.5" y2="35.83"/><line class="cls-33" x1="383.76" y1="53.53" x2="385.97" y2="53.53"/><line class="cls-33" x1="368.27" y1="68.79" x2="368.27" y2="70.99"/><line class="cls-33" x1="353.01" y1="53.3" x2="350.8" y2="53.3"/><g class="cls-23"><line class="cls-34" x1="360.8" y1="40.04" x2="359.7" y2="38.13"/><line class="cls-34" x1="381.76" y1="45.83" x2="383.67" y2="44.72"/><line class="cls-34" x1="375.97" y1="66.78" x2="377.07" y2="68.7"/><line class="cls-34" x1="355.01" y1="61" x2="353.1" y2="62.1"/></g><g class="cls-23"><line class="cls-34" x1="355.13" y1="45.63" x2="353.22" y2="44.52"/><line class="cls-34" x1="376.17" y1="40.16" x2="377.28" y2="38.25"/><line class="cls-34" x1="381.64" y1="61.2" x2="383.55" y2="62.31"/><line class="cls-34" x1="360.6" y1="66.67" x2="359.49" y2="68.58"/></g><rect class="cls-9" x="75.16" y="127.32" width="37.26" height="37.26" rx="9.57"/><rect class="cls-35" x="72.27" y="124.09" width="37.26" height="37.26" rx="7.67"/><path class="cls-3" d="M97.36,138.46h-.2v-2.14a6.36,6.36,0,0,0-12.71,0v2.14h0a1.78,1.78,0,0,0-1.78,1.78v8a1.79,1.79,0,0,0,1.78,1.79h13a1.79,1.79,0,0,0,1.78-1.79v-8A1.78,1.78,0,0,0,97.36,138.46Zm-11.3-2.14a4.75,4.75,0,0,1,9.49,0v2.14H86.06Z"/><path class="cls-2" d="M93,142.59a2.07,2.07,0,1,0-3.12,1.79.37.37,0,0,1,.19.41l-.36,1.34a1.24,1.24,0,1,0,2.4,0l-.36-1.32a.38.38,0,0,1,.2-.42A2.09,2.09,0,0,0,93,142.59Z"/><path class="cls-3" d="M98.37,152.89h-15a.76.76,0,0,1-.76-.77h0a.76.76,0,0,1,.76-.76h15a.76.76,0,0,1,.77.76h0A.76.76,0,0,1,98.37,152.89Z"/><path class="cls-3" d="M98.37,155.48h-15a.76.76,0,0,1-.76-.77h0a.76.76,0,0,1,.76-.76h15a.76.76,0,0,1,.77.76h0A.76.76,0,0,1,98.37,155.48Z"/><rect class="cls-9" x="381.34" y="186.45" width="21.94" height="21.94" rx="5.63"/><rect class="cls-35" x="379.64" y="184.55" width="21.94" height="21.94" rx="4.51"/><path class="cls-3" d="M386.17,202.07a.57.57,0,0,1-.18,0,.68.68,0,0,1-.47-.84l3.32-11.74a.68.68,0,1,1,1.31.37l-3.32,11.74A.69.69,0,0,1,386.17,202.07Z"/><path class="cls-3" d="M391.72,202.07a.57.57,0,0,1-.18,0,.68.68,0,0,1-.47-.84l3.32-11.74a.68.68,0,0,1,.83-.47.67.67,0,0,1,.47.84l-3.31,11.74A.69.69,0,0,1,391.72,202.07Z"/><path class="cls-3" d="M396.48,193.54H384.73a.68.68,0,0,1,0-1.36h11.75a.68.68,0,1,1,0,1.36Z"/><path class="cls-3" d="M396.48,198.9H384.73a.68.68,0,0,1,0-1.36h11.75a.68.68,0,0,1,0,1.36Z"/><path class="cls-4" d="M134.61,138.7h-8.49a.94.94,0,0,1-.94-.93h0a.93.93,0,0,1,.94-.93h8.49a.93.93,0,0,1,.93.93h0A.93.93,0,0,1,134.61,138.7Z"/><path class="cls-4" d="M143.17,142.83h-17a.93.93,0,0,1-.94-.93h0a.94.94,0,0,1,.94-.93h17a.93.93,0,0,1,.93.93h0A.93.93,0,0,1,143.17,142.83Z"/><path class="cls-4" d="M128.13,147h-2a.94.94,0,0,1-.94-.93h0a.93.93,0,0,1,.94-.93h2a.93.93,0,0,1,.93.93h0A.93.93,0,0,1,128.13,147Z"/><path class="cls-4" d="M143.17,147H131.29a.93.93,0,0,1-.93-.93h0a.93.93,0,0,1,.93-.93h11.88a.93.93,0,0,1,.93.93h0A.93.93,0,0,1,143.17,147Z"/><path class="cls-4" d="M143.17,138.7H138a.93.93,0,0,1-.93-.93h0a.92.92,0,0,1,.93-.93h5.15a.93.93,0,0,1,.93.93h0A.93.93,0,0,1,143.17,138.7Z"/><path class="cls-3" d="M95.27,265.73a5.89,5.89,0,0,0-3,.84,6.35,6.35,0,0,0-12.66.71,5.37,5.37,0,0,0,0,.7,4.58,4.58,0,0,0-.9-.09,4.85,4.85,0,1,0,0,9.7H95.27a5.93,5.93,0,1,0,0-11.86Z"/><path class="cls-36" d="M53.17,240.27a6.32,6.32,0,0,1,.09-2.67,26.45,26.45,0,0,0-.3-14.37c-3.17-9.91-16-18.69-16-18.69s3.49,14.63,6.36,20.86a78.9,78.9,0,0,0,7.82,12.48,6.09,6.09,0,0,1,1.13,2.56A107,107,0,0,1,54,261l1,0A108,108,0,0,0,53.17,240.27Z"/><path class="cls-2" d="M63.43,231a115.56,115.56,0,0,0,3.75-17.6s-11.54,9.52-12.48,16.88a24.84,24.84,0,0,0,.78,10.26,6.75,6.75,0,0,1,.27,2.79,97.45,97.45,0,0,0-.23,19.27l.86-.1a96.7,96.7,0,0,1,.14-18.09,7.22,7.22,0,0,1,1.59-3.83A30.14,30.14,0,0,0,63.43,231Z"/><path class="cls-7" d="M75.16,213s-12.43,4.61-15.68,14.76a27,27,0,0,0-.27,14.85,5.16,5.16,0,0,1,0,2.53,113.79,113.79,0,0,0-3,23.93h1a112.64,112.64,0,0,1,2.86-23.42,8.61,8.61,0,0,1,1.47-3.14A79.71,79.71,0,0,0,69.39,230C72.33,223.57,75.16,213,75.16,213Z"/><path class="cls-2" d="M53.23,255.8a34.63,34.63,0,0,0-2.87-11.29,3.75,3.75,0,0,1-.29-2,18.64,18.64,0,0,0-.3-6.06c-1-5-7.61-15.74-17.18-16.37a69.92,69.92,0,0,1,5,9.75c2.15,5.62,5.22,11.49,10.3,13.75a3.82,3.82,0,0,1,2,2,33.35,33.35,0,0,1,2.49,10.28Z"/><g class="cls-37"><path class="cls-2" d="M46.76,277.59H62.55l4.1-25a1.82,1.82,0,0,0-1.8-2.11H44.45a1.81,1.81,0,0,0-1.79,2.11Z"/></g><line class="cls-38" x1="14.33" y1="277.59" x2="456.22" y2="277.59"/></svg>