<svg id="Layer_1" data-name="Layer 1" xmlns="http://www.w3.org/2000/svg" xmlns:xlink="http://www.w3.org/1999/xlink" viewBox="0 0 392 271.09"><defs><style>.cls-1,.cls-14,.cls-16,.cls-17,.cls-18,.cls-21,.cls-3,.cls-6{fill:none;}.cls-2,.cls-5{fill:#deac47;}.cls-2,.cls-24,.cls-25{isolation:isolate;}.cls-2{opacity:0.14;}.cls-3{stroke:#deac47;stroke-width:2px;}.cls-14,.cls-15,.cls-18,.cls-3,.cls-6{stroke-miterlimit:10;}.cls-15,.cls-24,.cls-4{fill:#fff;}.cls-14,.cls-15,.cls-18,.cls-6{stroke:#455a64;}.cls-6{stroke-width:1.97px;}.cls-25,.cls-7{fill:#455a64;}.cls-8{fill:#c9963a;}.cls-9{fill:#253f49;}.cls-10{fill:#96b2bc;}.cls-11{clip-path:url(#clip-path);}.cls-12{fill:#85979e;}.cls-13{fill:#997e4f;}.cls-16{stroke:#fff;}.cls-16,.cls-17,.cls-21{stroke-linecap:round;stroke-linejoin:round;}.cls-17{stroke:#221276;}.cls-18{stroke-width:3.66px;}.cls-19{fill:#ffa865;}.cls-20{fill:#ea7f36;}.cls-21{stroke:#0f0b38;stroke-width:1.49px;}.cls-22{fill:#f4f2f2;}.cls-23{fill:#e5e3e3;}.cls-24{font-size:8.39px;letter-spacing:0.05em;}.cls-24,.cls-25{font-family:TimesNewRomanPSMT, Times New Roman;}.cls-25{font-size:27.83px;letter-spacing:0.05em;}.cls-26{letter-spacing:0.01em;}</style><clipPath id="clip-path"><circle class="cls-1" cx="292.19" cy="140.45" r="11.35"/></clipPath></defs><path class="cls-2" d="M330.21,172.61a48.3,48.3,0,0,0-76.13-59.46,71,71,0,0,0-131.86-.51,44.61,44.61,0,0,0-56.67,66.28,47.67,47.67,0,0,0-37.57,76H370.9a51.61,51.61,0,0,0-40.69-82.31Z"/><line class="cls-3" x1="79.42" y1="219.06" x2="326.11" y2="219.06"/><polyline class="cls-3" points="115.81 135.04 165.57 219.06 196.07 100.26"/><line class="cls-3" x1="283.3" y1="143.07" x2="165.57" y2="219.06"/><circle class="cls-4" cx="325.45" cy="220.04" r="30.5"/><path class="cls-5" d="M325.45,191.68A28.36,28.36,0,1,1,297.09,220v0a28.36,28.36,0,0,1,28.36-28.36h0m0-4.28A32.64,32.64,0,1,0,358.09,220h0A32.67,32.67,0,0,0,325.45,187.36Z"/><polyline class="cls-6" points="310.87 225.66 310.87 215.22 340.3 215.22 340.3 225.66"/><line class="cls-6" x1="325.32" y1="202.92" x2="325.32" y2="241.71"/><path class="cls-5" d="M307,224.09a3.6,3.6,0,1,0,3.6-3.6,3.6,3.6,0,0,0-3.6,3.6Z"/><path class="cls-7" d="M315.67,238.42v-6.25a3.53,3.53,0,0,0-3.52-3.54h-3.08a3.53,3.53,0,0,0-3.54,3.52v6.27Z"/><path class="cls-5" d="M336.7,224.09a3.6,3.6,0,1,0,3.6-3.6,3.6,3.6,0,0,0-3.6,3.6Z"/><path class="cls-7" d="M345.37,238.42v-6.25a3.53,3.53,0,0,0-3.52-3.54h-3.08a3.53,3.53,0,0,0-3.54,3.52v6.27Z"/><path class="cls-5" d="M321.72,229.17a3.6,3.6,0,1,0,3.6-3.6,3.6,3.6,0,0,0-3.6,3.6Z"/><path class="cls-7" d="M330.39,243.5v-6.25a3.56,3.56,0,0,0-3.54-3.54h-3.07a3.56,3.56,0,0,0-3.54,3.54v6.25Z"/><path class="cls-5" d="M321.72,197.6a3.6,3.6,0,1,0,3.6-3.6,3.6,3.6,0,0,0-3.6,3.6Z"/><path class="cls-7" d="M330.39,211.93v-6.25a3.53,3.53,0,0,0-3.54-3.54h-3.07a3.53,3.53,0,0,0-3.54,3.54h0v6.25Z"/><circle class="cls-4" cx="281.16" cy="143.07" r="30.5"/><path class="cls-5" d="M281.16,114.71a28.36,28.36,0,1,1-28.36,28.36,28.36,28.36,0,0,1,28.36-28.36h0m0-4.28a32.64,32.64,0,1,0,32.64,32.64h0a32.67,32.67,0,0,0-32.64-32.64Z"/><rect class="cls-8" x="264.03" y="126.76" width="24.08" height="33.97"/><rect class="cls-5" x="268.85" y="122.2" width="24.08" height="33.97"/><rect class="cls-9" x="302.09" y="136.14" width="1.96" height="31.75" transform="translate(-21.78 249.12) rotate(-43.28)"/><path class="cls-9" d="M315.18,161.07a2.62,2.62,0,0,1-.11,3.7h0a2.61,2.61,0,0,1-3.69-.11h0l-9.47-10.06a2.62,2.62,0,0,1,.11-3.7h0a2.62,2.62,0,0,1,3.7.11Z"/><circle class="cls-10" cx="292.19" cy="140.45" r="11.35"/><g class="cls-11"><rect class="cls-4" x="270.27" y="136.28" width="43.18" height="5.54" transform="translate(-9.38 256.41) rotate(-46.76)"/><rect class="cls-4" x="274.96" y="141.25" width="43.18" height="2.8" transform="translate(-10.52 260.96) rotate(-46.76)"/><rect class="cls-4" x="268.88" y="133.32" width="43.18" height="1.31" transform="translate(-6.12 253.8) rotate(-46.76)"/></g><path class="cls-7" d="M300.73,149.53a12.45,12.45,0,1,1,.53-17.61A12.45,12.45,0,0,1,300.73,149.53ZM285.17,133a10.24,10.24,0,1,0,14.48.44A10.24,10.24,0,0,0,285.17,133Z"/><circle class="cls-4" cx="196.61" cy="104.54" r="30.5"/><path class="cls-5" d="M196.61,76.18a28.36,28.36,0,1,1-28.36,28.36,28.36,28.36,0,0,1,28.36-28.36h0m0-4.28a32.64,32.64,0,1,0,32.64,32.64A32.64,32.64,0,0,0,196.61,71.9Z"/><path class="cls-5" d="M196.63,82.85h-.14a21.7,21.7,0,0,0,0,43.4h.14Z"/><path class="cls-12" d="M196.59,126.23h.14a21.7,21.7,0,0,0,0-43.4h-.15Z"/><path class="cls-13" d="M196.59,126.23h.14a21.72,21.72,0,0,0,21.7-21.7v-.07H196.59Z"/><path class="cls-7" d="M196.59,104.47v21.76h.14a21.61,21.61,0,0,0,15.55-6.58Z"/><line class="cls-14" x1="173.27" y1="141.51" x2="202.76" y2="116.85"/><circle class="cls-15" cx="202.76" cy="116.85" r="1.87"/><rect class="cls-7" x="155.76" y="135.85" width="25.42" height="9.36" rx="2.68"/><line class="cls-16" x1="159.51" y1="139.05" x2="177.43" y2="139.05"/><line class="cls-16" x1="159.51" y1="141.73" x2="177.43" y2="141.73"/><line class="cls-14" x1="250.77" y1="103.88" x2="212.93" y2="110.69"/><circle class="cls-15" cx="212.93" cy="110.69" r="1.87"/><rect class="cls-7" x="240.58" y="100.8" width="25.42" height="9.36" rx="2.68"/><line class="cls-16" x1="244.32" y1="104" x2="262.25" y2="104"/><line class="cls-16" x1="244.32" y1="106.68" x2="262.25" y2="106.68"/><line class="cls-14" x1="242.57" y1="75.4" x2="211.75" y2="98.39"/><path class="cls-15" d="M213.53,99a1.87,1.87,0,1,0-2.37,1.18A1.87,1.87,0,0,0,213.53,99Z"/><rect class="cls-7" x="237.37" y="73.5" width="25.42" height="9.36" rx="2.68"/><line class="cls-16" x1="241.11" y1="76.71" x2="259.04" y2="76.71"/><line class="cls-16" x1="241.11" y1="79.39" x2="259.04" y2="79.39"/><line class="cls-14" x1="157.32" y1="76.12" x2="190.91" y2="94.82"/><path class="cls-15" d="M190.73,93a1.87,1.87,0,1,0,2.05,1.67h0A1.87,1.87,0,0,0,190.73,93Z"/><rect class="cls-7" x="136.76" y="72.7" width="25.42" height="9.36" rx="2.68"/><line class="cls-16" x1="140.51" y1="75.91" x2="158.43" y2="75.91"/><line class="cls-16" x1="140.51" y1="78.59" x2="158.43" y2="78.59"/><circle class="cls-4" cx="117.95" cy="135.04" r="30.5"/><path class="cls-5" d="M118,106.68A28.36,28.36,0,1,1,89.59,135,28.36,28.36,0,0,1,118,106.68h0m0-4.28a32.64,32.64,0,1,0,32.59,32.69V135A32.68,32.68,0,0,0,118,102.4Z"/><polygon class="cls-7" points="116.23 123.61 110.67 113.08 124.71 113.66 119.44 123.9 116.23 123.61"/><path class="cls-7" d="M113.47,118.37l2.76,5.24,3.22.29,3.63-7.07C119.87,117.29,116.66,117.79,113.47,118.37Z"/><rect class="cls-7" x="113.34" y="120.54" width="9.14" height="3.55"/><rect class="cls-7" x="103.51" y="122.03" width="28.36" height="33.59" rx="5.6"/><path class="cls-7" d="M126.27,151.14H109.11a5.6,5.6,0,0,1-5.6-5.6h0V150a5.6,5.6,0,0,0,5.6,5.6h17.16a5.6,5.6,0,0,0,5.6-5.6h0v-4.48a5.6,5.6,0,0,1-5.58,5.62Z"/><path class="cls-5" d="M116.32,145.46c-.48,0-.7-.21-.7-.69v-1.05H113c-.49,0-.7-.22-.7-.7v-2.27c0-.49.21-.7.7-.7h5.22a.5.5,0,0,0,.5-.5v-.06c0-.45-.17-.62-.5-.66l-2.92-.41c-1.82-.27-3-1-3-3.22v-2c0-2,1.24-3.18,3.35-3.38V128.7c0-.49.22-.7.7-.7h2.82c.48,0,.69.21.69.7v1h1.89a.61.61,0,0,1,.7.5.67.67,0,0,1,0,.2v2.31c0,.49-.22.7-.7.7H117.2a.51.51,0,0,0-.53.51V134a.57.57,0,0,0,.52.62h0l2.89.39c1.82.27,3,1.05,3,3.22v2c0,2-1.22,3.16-3.28,3.38v1.09c0,.48-.21.69-.69.69Z"/><circle class="cls-4" cx="76.08" cy="216.38" r="30.5"/><path class="cls-5" d="M76.08,188a28.36,28.36,0,1,1-28.37,28.36A28.36,28.36,0,0,1,76.08,188h0m0-4.28a32.64,32.64,0,1,0,32.64,32.64A32.64,32.64,0,0,0,76.08,183.72Z"/><rect class="cls-7" x="58.28" y="221.73" width="6.96" height="10.97"/><rect class="cls-5" x="67.73" y="214.24" width="6.96" height="18.46"/><rect class="cls-12" x="77.19" y="218.25" width="6.96" height="14.45"/><rect class="cls-13" x="86.64" y="204.07" width="6.96" height="28.63"/><line class="cls-17" x1="56.94" y1="232.97" x2="94.4" y2="232.97"/><polyline class="cls-18" points="82.21 201.08 71.2 210.13 68.75 205.97 55.34 215.58"/><polygon class="cls-7" points="76.97 200.58 86.32 197 82.69 206.33 81.25 201.81 76.97 200.58"/><path class="cls-7" d="M271,254.91V222.46a7.84,7.84,0,0,0-7.84-7.83h-36.3a7.85,7.85,0,0,0-7.83,7.83v32.45Z"/><path class="cls-9" d="M271.26,254.91v-34a6.27,6.27,0,1,0-12.54,0v34Z"/><rect class="cls-19" x="217.87" y="178.53" width="13.29" height="28.86"/><path class="cls-20" d="M217.87,202.58h2.31a11.1,11.1,0,0,0,11-9.53V178.53H217.87Z"/><path class="cls-9" d="M219.44,180.06a8.74,8.74,0,0,0,8.74,8.74h0a8.74,8.74,0,0,0,8.74-8.74h0V160.54a8.74,8.74,0,0,0-8.74-8.74h0a8.74,8.74,0,0,0-8.74,8.74h0Z"/><path class="cls-19" d="M231.28,187.59a11.1,11.1,0,0,1-11.1,11.1h-5.54a11.1,11.1,0,0,1-11.1-11.1h0V161.23c0-6.13,5-5.55,11.1-5.55h5.54c6.13,0,11.1-.58,11.1,5.55Z"/><circle class="cls-19" cx="231.15" cy="173.93" r="4.61"/><path class="cls-9" d="M205.11,163.45H231a11,11,0,0,0,5.77-1.63c-.54-5.62-2.83-10-8.6-10H194.05v.65A11.11,11.11,0,0,0,205.11,163.45Z"/><path class="cls-9" d="M234.84,163.59c0-3.19-.17-5.77-3.36-5.77h-5a5.77,5.77,0,0,0,0,11.54h1.39v7.24h3.54v-7.24h.09c3.19,0,4.38-2.58,4.38-5.77Z"/><circle class="cls-9" cx="203.3" cy="153.86" r="9.36"/><path class="cls-21" d="M206,174.82a2.75,2.75,0,0,0,5.5,0"/><path class="cls-21" d="M218.11,174.82a2.75,2.75,0,0,0,5.5,0"/><polygon class="cls-20" points="214.82 175.27 211.1 182.83 214.82 182.83 214.82 175.27"/><path class="cls-4" d="M208.84,185a7.45,7.45,0,0,0,14.9,0Z"/><path class="cls-22" d="M242.37,207.06h-7v-3.5h-21v3.5h-7a11.66,11.66,0,0,0-11.67,11.67v36.18H254V218.73A11.66,11.66,0,0,0,242.37,207.06Z"/><polygon class="cls-23" points="214.62 254.73 254.04 254.73 254.04 228.15 235.31 228.15 214.62 254.73"/><path class="cls-23" d="M204.28,207.47a11.68,11.68,0,0,0-8.59,11.26v36.18h8.59Z"/><path class="cls-19" d="M235.37,228.07v12.25H194.81c-3.7,0-6.71,4.17-6.71,7.88a6.73,6.73,0,0,0,6.71,6.71h49.31a6.7,6.7,0,0,0,6.71-6.71h0V228.07Z"/><rect class="cls-20" x="235.37" y="228.07" width="15.46" height="3.5"/><path class="cls-20" d="M204.3,240.32h-9.49c-3.7,0-6.71,4.17-6.71,7.88a6.73,6.73,0,0,0,6.71,6.71h9.49Z"/><path class="cls-7" d="M226.4,250.39H199.88V206.94a2.82,2.82,0,0,0-2.82-2.82h-65a2.83,2.83,0,0,0-2.82,2.82v45.15a2.82,2.82,0,0,0,2.82,2.82H226.4a2.26,2.26,0,0,0,0-4.52Z"/><path class="cls-9" d="M226.4,250.39H199.88V206.94a2.82,2.82,0,0,0-2.82-2.82H195.7v50.79h30.7a2.26,2.26,0,0,0,0-4.52Z"/><path class="cls-5" d="M176.48,233.17a13.35,13.35,0,0,0,.47-2.94l-2-.09v-.52a11.19,11.19,0,0,0-.18-2l2-.35a13.63,13.63,0,0,0-.85-2.86l-1.85.78a11.57,11.57,0,0,0-1.23-2.2l1.63-1.18a13,13,0,0,0-2-2.2l-1.34,1.5a11.46,11.46,0,0,0-2.06-1.46l1-1.76a13,13,0,0,0-2.75-1.15l-.56,1.93a12.36,12.36,0,0,0-2.49-.43l.12-2h-.82a14,14,0,0,0-2.95.32l.44,2a11.25,11.25,0,0,0-2.39.82l-.86-1.81a12.72,12.72,0,0,0-2.53,1.57l1.25,1.58a12.12,12.12,0,0,0-1,.9c-.28.28-.54.57-.79.87l-1.56-1.27a13.16,13.16,0,0,0-1.61,2.5l1.81.89a11.32,11.32,0,0,0-.87,2.38l-2-.47a13.24,13.24,0,0,0-.38,2.94h2v.18a11.45,11.45,0,0,0,.24,2.33l-2,.41a13.24,13.24,0,0,0,.94,2.83l1.82-.83a11.31,11.31,0,0,0,1.31,2.16l-1.6,1.22a13.6,13.6,0,0,0,2,2.15l1.3-1.55a10.53,10.53,0,0,0,2.1,1.4l-.92,1.79a13.17,13.17,0,0,0,2.78,1.06l.5-2a11.78,11.78,0,0,0,2.5.36l-.06,2h.41a12.82,12.82,0,0,0,2.55-.25l-.38-2A11.23,11.23,0,0,0,168,240l.81,1.84a13.44,13.44,0,0,0,2.57-1.49l-1.2-1.62a11.43,11.43,0,0,0,1.29-1.11c.2-.2.38-.4.56-.61l1.53,1.32a13.29,13.29,0,0,0,1.68-2.45l-1.77-.94a11.06,11.06,0,0,0,.93-2.35Zm-12.92,3.09a6.65,6.65,0,1,1,6.64-6.66v0A6.64,6.64,0,0,1,163.56,236.26Z"/><rect class="cls-7" x="103.06" y="44.12" width="187.09" height="13.5" rx="5.63"/><text class="cls-24" transform="translate(142.73 53.74)">Enterprise resource planning</text><text class="cls-25" transform="translate(175.13 38.26)">ER<tspan class="cls-26" x="38.35" y="0">P</tspan></text></svg>