<svg xmlns="http://www.w3.org/2000/svg" viewBox="0 0 448.68 302.23"><defs><style>.cls-1{fill:#ebebeb;}.cls-2{fill:#dbdbdb;}.cls-3{fill:#fff;}.cls-4{fill:#263238;}.cls-5{fill:#ffc727;}.cls-6{fill:#996d1f;opacity:0.76;}.cls-7{fill:#deab48;}.cls-8{fill:#455a64;}.cls-9{fill:#f7a9a0;}.cls-10{fill:#a6a6a6;}.cls-11{opacity:0.1;}.cls-12{fill:#37474f;}.cls-13{fill:#ad6359;}.cls-14{fill:#c7c7c7;}.cls-15{fill:#ff9cbd;}.cls-16{fill:#d3766a;}.cls-17{fill:#e89d9a;}</style></defs><g id="Speech_Bubbles" data-name="Speech Bubbles"><polygon class="cls-1" points="27.21 234.02 144.78 234.02 147.23 185.78 24.76 185.78 27.21 234.02"/><path class="cls-2" d="M139.21,207.86H90.05l-.92-16.75h51.15Zm-48.59-.59h48l1-15.56H89.76Z"/><path class="cls-2" d="M138.3,227.13H92L91.23,212h48Zm-45.76-.59h45.2l.87-13.93H91.85Z"/><path class="cls-2" d="M119.36,201.3H111.1l-.52-4h9.31Zm-7.73-.59h7.21l.37-2.85h-7.95Z"/><path class="cls-2" d="M119.36,221.59H111.1l-.52-4h9.31Zm-7.73-.59h7.21l.37-2.86h-7.95Z"/><path class="cls-2" d="M81.39,207.86H32.24l-.93-16.75H82.47Zm-48.59-.59h48l1-15.56H31.94Z"/><path class="cls-2" d="M80.48,227.13H34.16L33.41,212h48Zm-45.75-.59h45.2l.87-13.93H34Z"/><path class="cls-2" d="M61.55,201.3H53.29l-.52-4h9.3Zm-7.74-.59H61l.37-2.85h-8Z"/><path class="cls-2" d="M61.55,221.59H53.29l-.52-4h9.3ZM53.81,221H61l.37-2.86h-8Z"/><polygon class="cls-1" points="37.75 234.02 37.01 239.28 35.53 249.84 32.62 249.84 32.62 234.02 37.75 234.02"/><polygon class="cls-2" points="37.75 234.02 37.01 239.28 32.62 239.28 32.62 234.02 37.75 234.02"/><polygon class="cls-1" points="134.24 234.02 134.97 239.28 136.46 249.84 139.36 249.84 139.36 234.02 134.24 234.02"/><polygon class="cls-2" points="134.24 234.02 134.97 239.28 139.36 239.28 139.36 234.02 134.24 234.02"/><path class="cls-1" d="M396.43,205.73l8.41-.17,4.14-.08,4.12,0-.28.28,0-7,.31.32-8.34,0c-2.78,0-5.55-.07-8.33-.1l.17-.18c0,1.16-.06,2.32-.08,3.49Zm0,0-.09-3.49c0-1.17-.07-2.36-.09-3.56v-.17h.18c2.78,0,5.55-.1,8.33-.1l8.34,0h.32v.31l0,7V206h-.28c-1.4,0-2.81,0-4.21,0l-4.2-.07Z"/><path class="cls-1" d="M405.73,214.62l8.41-.18,4.14-.07c1.38,0,2.75,0,4.12,0l-.28.28,0-7.05.31.31-8.33,0c-2.78,0-5.56-.07-8.34-.1l.17-.17c0,1.15,0,2.31-.08,3.49Zm0,0-.09-3.49c0-1.18-.07-2.36-.08-3.56v-.17h.17c2.78,0,5.56-.1,8.34-.11l8.33,0h.32v.32l0,7.05v.28h-.28c-1.4,0-2.81,0-4.21,0l-4.2-.07Z"/><path class="cls-1" d="M387.12,214.62l8.41-.18,4.15-.07c1.38,0,2.75,0,4.12,0l-.28.28,0-7.05.31.31-8.34,0c-2.78,0-5.56-.07-8.34-.1l.18-.17c0,1.15-.06,2.31-.09,3.49Zm0,0-.09-3.49c0-1.18-.07-2.36-.08-3.56v-.17h.17c2.78,0,5.56-.1,8.34-.11l8.34,0h.32v.32l0,7.05v.28h-.28c-1.41,0-2.81,0-4.22,0l-4.19-.07Z"/><path class="cls-1" d="M38,214.62l8.41-.18,4.15-.07c1.38,0,2.75,0,4.12,0l-.28.28,0-7.05.31.31-8.34,0c-2.78,0-5.56-.07-8.34-.1l.18-.17c0,1.15-.06,2.31-.09,3.49Zm0,0-.09-3.49c0-1.18-.07-2.36-.08-3.56v-.17H38c2.78,0,5.56-.1,8.34-.11l8.34,0H55v.32l0,7.05v.28h-.28c-1.41,0-2.81,0-4.22,0l-4.19-.07Z"/><path class="cls-1" d="M307.59,73.55l8.42-.18,4.14-.07c1.38,0,2.75,0,4.12,0l-.28.28,0-7,.31.32-8.34,0c-2.78,0-5.56-.07-8.34-.11l.18-.17c0,1.15-.06,2.31-.09,3.49Zm0,0-.08-3.49c0-1.17-.08-2.36-.09-3.56v-.17h.17c2.78,0,5.56-.1,8.34-.1l8.34,0h.32v.31l0,7v.28h-.28c-1.4,0-2.81,0-4.22,0l-4.19-.07Z"/><path class="cls-1" d="M38,40.89l8.41-.18,4.15-.07c1.38,0,2.75,0,4.12,0l-.28.28,0-7,.31.32-8.34,0c-2.78,0-5.56-.07-8.34-.11l.18-.17c0,1.16-.06,2.32-.09,3.49Zm0,0-.09-3.49c0-1.17-.07-2.36-.08-3.56v-.17H38c2.78,0,5.56-.1,8.34-.1l8.34,0H55v.31l0,7v.28h-.28c-1.41,0-2.81,0-4.22,0l-4.19-.07Z"/><path class="cls-1" d="M28.65,49.77l8.41-.17,4.15-.07c1.37,0,2.74,0,4.12,0l-.28.28,0-7,.32.31L37,43c-2.78,0-5.56-.07-8.34-.1l.17-.17c0,1.15-.05,2.31-.08,3.48Zm0,0-.09-3.48c0-1.18-.07-2.37-.08-3.56v-.17h.17c2.78,0,5.56-.1,8.34-.11l8.34,0h.31v.32l0,7v.29h-.28c-1.41,0-2.82,0-4.22,0L36.92,50Z"/><path class="cls-1" d="M405.73,40.9l8.41-.18,4.14-.07c1.38,0,2.75,0,4.12,0l-.28.28,0-7,.31.31-8.33,0c-2.78,0-5.56-.07-8.34-.1l.17-.17c0,1.15,0,2.31-.08,3.49Zm0,0-.09-3.49c0-1.18-.07-2.36-.08-3.56v-.17h.17c2.78,0,5.56-.1,8.34-.11l8.33,0h.32v.32l0,7v.28h-.28c-1.4,0-2.81,0-4.21,0l-4.2-.07Z"/><path class="cls-1" d="M250.9,107.36l-8.42.18-4.14.07c-1.38,0-2.75,0-4.12,0l.28-.28,0,7-.31-.32,8.34,0c2.78,0,5.56.07,8.34.11l-.18.17c0-1.15.06-2.31.09-3.49Zm0,0,.08,3.49c0,1.17.08,2.36.09,3.56v.17h-.17c-2.78,0-5.56.1-8.34.1l-8.34,0h-.32v-.32l0-7v-.28h.28c1.4,0,2.81,0,4.22,0l4.19.07Z"/><path class="cls-1" d="M241.59,98.48l-8.41.17-4.14.07c-1.38,0-2.75,0-4.12,0l.28-.28,0,7-.31-.31,8.33,0c2.78,0,5.56.07,8.34.1l-.17.17c0-1.15.06-2.31.08-3.48Zm0,0,.09,3.48c0,1.18.07,2.37.08,3.56v.17h-.18c-2.78,0-5.56.1-8.34.1l-8.33,0h-.32v-.32l0-7v-.29h.28c1.4,0,2.81,0,4.21,0l4.2.07Z"/><path class="cls-1" d="M386.39,58a9.41,9.41,0,0,1,1.6,3.26,6,6,0,0,1-.52,3.82c-.18.44-.42,1-.72,1.57a12.39,12.39,0,0,0-.74,1.94,6.43,6.43,0,0,0-.26,2.08,3.44,3.44,0,0,0,.73,2,3.24,3.24,0,0,0,1.15,1A3.42,3.42,0,0,0,389,74a3.6,3.6,0,0,0,1.4-.2,4.68,4.68,0,0,0,1.29-.68,4,4,0,0,0,1.13-1.21,5.56,5.56,0,0,0,.61-1.4,6.79,6.79,0,0,0,.22-1.48,10.24,10.24,0,0,0,0-1.38l4.3-.13a7.83,7.83,0,0,1,.2,2.63,8.64,8.64,0,0,1-.62,2.51,9.66,9.66,0,0,1-1.35,2.26,10.49,10.49,0,0,1-1.95,1.87,10.61,10.61,0,0,1-2.72,1.45,7.69,7.69,0,0,1-3,.46,7.33,7.33,0,0,1-3.05-.85,8.1,8.1,0,0,1-2.77-2.48,7.81,7.81,0,0,1-1.12-2,6.29,6.29,0,0,1-.37-2,7.42,7.42,0,0,1,.21-2,13.46,13.46,0,0,1,.66-2.05c.24-.59.49-1.16.75-1.72a9.41,9.41,0,0,0,.6-1.68,4.75,4.75,0,0,0,.14-1.67,3.35,3.35,0,0,0-.69-1.65Zm-5.7-7.58L384,54.91l-3.63,2.69-3.33-4.52Z"/><path class="cls-1" d="M402.06,50.66a10.2,10.2,0,0,1,.71-3.93,6.49,6.49,0,0,1,3-3c.45-.27,1-.58,1.66-.92a13.49,13.49,0,0,0,1.92-1.23,7.24,7.24,0,0,0,1.59-1.68,3.86,3.86,0,0,0,.65-2.21,3.58,3.58,0,0,0-.36-1.65,3.76,3.76,0,0,0-.94-1.21,3.82,3.82,0,0,0-1.36-.74,5.49,5.49,0,0,0-1.59-.25,4.68,4.68,0,0,0-1.79.34,6,6,0,0,0-1.45.85,7.13,7.13,0,0,0-1.17,1.16,12.91,12.91,0,0,0-.87,1.23l-3.89-2.68a8.89,8.89,0,0,1,1.54-2.46,9.53,9.53,0,0,1,2.2-1.81,10,10,0,0,1,2.66-1.12,11.53,11.53,0,0,1,3-.38,12,12,0,0,1,3.35.49,8.49,8.49,0,0,1,3,1.57,8,8,0,0,1,2.15,2.75,9,9,0,0,1,.83,4,8.47,8.47,0,0,1-.34,2.53,6.92,6.92,0,0,1-1,2A8.66,8.66,0,0,1,414,43.87a17,17,0,0,1-1.92,1.38c-.59.36-1.19.7-1.79,1a10.56,10.56,0,0,0-1.63,1.1,5.46,5.46,0,0,0-1.21,1.38,3.67,3.67,0,0,0-.47,1.9Zm.09,10.42V54.91h5v6.17Z"/><path class="cls-1" d="M44.67,77.88a10.21,10.21,0,0,1-.11-4,6.46,6.46,0,0,1,2.25-3.59c.38-.36.86-.77,1.43-1.24a14.43,14.43,0,0,0,1.63-1.6,7.13,7.13,0,0,0,1.2-2,3.89,3.89,0,0,0,.18-2.3,3.62,3.62,0,0,0-.7-1.55,3.86,3.86,0,0,0-1.16-1,3.91,3.91,0,0,0-1.49-.44,5.42,5.42,0,0,0-1.61.09,4.53,4.53,0,0,0-1.68.7,6.09,6.09,0,0,0-1.24,1.13,7.12,7.12,0,0,0-.9,1.38,12.68,12.68,0,0,0-.59,1.38l-4.37-1.82a8.7,8.7,0,0,1,1-2.72,9.56,9.56,0,0,1,1.77-2.23,10.12,10.12,0,0,1,2.37-1.64,11.3,11.3,0,0,1,2.81-1,11.94,11.94,0,0,1,3.38-.21,8.52,8.52,0,0,1,3.23.91,8.12,8.12,0,0,1,2.67,2.25,8.86,8.86,0,0,1,1.64,3.74,8.48,8.48,0,0,1,.2,2.54,7,7,0,0,1-.53,2.15,8,8,0,0,1-1.11,1.88,15.74,15.74,0,0,1-1.59,1.75c-.51.48-1,.94-1.54,1.38a11.35,11.35,0,0,0-1.37,1.41,5.54,5.54,0,0,0-.89,1.61,3.63,3.63,0,0,0-.07,2Zm2.25,10.18-1.28-6,4.86-1,1.28,6Z"/><polygon class="cls-1" points="280.32 62.35 340.15 62.35 340.15 30.96 280.32 30.96 280.32 30.96 280.32 62.35 280.32 62.35"/><polygon class="cls-1" points="349.41 62.35 340.15 62.35 340.15 52.71 349.41 62.35"/><rect class="cls-3" x="286.05" y="36.39" width="48.37" height="0.6"/><rect class="cls-3" x="286.05" y="39.61" width="30" height="0.6"/><rect class="cls-3" x="286.05" y="46.05" width="41.09" height="0.6"/><rect class="cls-3" x="286.05" y="49.27" width="48.37" height="0.6"/><rect class="cls-3" x="286.05" y="52.49" width="48.37" height="0.6"/><rect class="cls-3" x="286.05" y="55.72" width="23.85" height="0.6"/><rect class="cls-2" x="99.13" y="133.25" width="59.82" height="27.69"/><polygon class="cls-2" points="89.87 160.94 99.13 160.94 99.13 151.3 89.87 160.94"/><rect class="cls-3" x="104.97" y="147.71" width="43.45" height="0.6"/><rect class="cls-3" x="104.97" y="150.93" width="36.64" height="0.6"/><rect class="cls-3" x="104.97" y="141.27" width="38.62" height="0.6"/><rect class="cls-3" x="104.97" y="138.04" width="47.27" height="0.6"/><rect class="cls-3" x="104.97" y="154.15" width="39.37" height="0.6"/><rect class="cls-2" x="304.59" y="69.57" width="59.82" height="18.24"/><polygon class="cls-2" points="295.33 87.82 304.59 87.82 304.59 78.17 295.33 87.82"/><rect class="cls-3" x="310.43" y="74.58" width="43.45" height="0.6"/><rect class="cls-3" x="310.43" y="77.81" width="36.64" height="0.6"/><rect class="cls-3" x="310.43" y="81.03" width="39.37" height="0.6"/><ellipse class="cls-1" cx="304.19" cy="283.17" rx="130.57" ry="8.21"/><polygon class="cls-4" points="22.93 249.99 73.98 249.74 125.03 249.65 227.14 249.49 329.25 249.65 380.3 249.74 431.36 249.99 380.3 250.23 329.25 250.32 227.14 250.48 125.03 250.32 73.98 250.23 22.93 249.99"/><path class="cls-5" d="M65.27,239.39v-112A10.41,10.41,0,0,1,75.71,117h62.06a10.53,10.53,0,0,1,0,21.06H86.34v34.73h44.22a10.53,10.53,0,0,1,0,21.06H86.34v45.55a10.58,10.58,0,0,1-10.63,10.44A10.42,10.42,0,0,1,65.27,239.39Z"/><path class="cls-6" d="M65.27,239.39v-112A10.41,10.41,0,0,1,75.71,117h62.06a10.53,10.53,0,0,1,0,21.06H86.34v34.73h44.22a10.53,10.53,0,0,1,0,21.06H86.34v45.55a10.58,10.58,0,0,1-10.63,10.44A10.42,10.42,0,0,1,65.27,239.39Z"/><path class="cls-7" d="M57.35,239.39v-112A10.4,10.4,0,0,1,67.79,117h62.05a10.53,10.53,0,0,1,0,21.06H78.41v34.73h44.22a10.53,10.53,0,0,1,0,21.06H78.41v45.55a10.57,10.57,0,0,1-10.62,10.44A10.41,10.41,0,0,1,57.35,239.39Z"/><path class="cls-5" d="M216.81,218.51H170.69l-9.3,24.68a10.64,10.64,0,0,1-9.86,6.64,11.06,11.06,0,0,1-3.61-.57,10.77,10.77,0,0,1-6.26-13.67L183.6,123.82a10.61,10.61,0,0,1,10.06-6.64,10.42,10.42,0,0,1,10.05,6.64l41.94,111.77a10.77,10.77,0,0,1-6.26,13.67,10.62,10.62,0,0,1-13.28-6.07ZM209,197.64l-15.37-40.8-15.38,40.8Z"/><path class="cls-6" d="M216.81,218.51H170.69l-9.3,24.68a10.64,10.64,0,0,1-9.86,6.64,11.06,11.06,0,0,1-3.61-.57,10.77,10.77,0,0,1-6.26-13.67L183.6,123.82a10.61,10.61,0,0,1,10.06-6.64,10.42,10.42,0,0,1,10.05,6.64l41.94,111.77a10.77,10.77,0,0,1-6.26,13.67,10.62,10.62,0,0,1-13.28-6.07ZM209,197.64l-15.37-40.8-15.38,40.8Z"/><path class="cls-7" d="M208.88,218.51H162.77l-9.3,24.68a10.65,10.65,0,0,1-9.87,6.64,11,11,0,0,1-3.6-.57,10.78,10.78,0,0,1-6.27-13.67l41.94-111.77a10.62,10.62,0,0,1,10.06-6.64,10.43,10.43,0,0,1,10.06,6.64l41.94,111.77a10.77,10.77,0,0,1-6.26,13.67,10.63,10.63,0,0,1-13.29-6.07Zm-7.78-20.87-15.37-40.8-15.37,40.8Z"/><path class="cls-5" d="M393.09,268.61c-10.44,8-21.26,12-31.32,12h-.57c-13.28,0-24.48-5.31-34.72-11.39a23.81,23.81,0,0,0-11.58-2.84,32.45,32.45,0,0,0-13.47,3.22,10,10,0,0,1-11-.57c-.19-.19-.57-.19-1.14-.38-.19-.18-.19-.18-.38-.18a14.14,14.14,0,0,1-2.66-4.37,10.81,10.81,0,0,1,5.13-14.61l.57-.38a83.29,83.29,0,0,1-21.07-14.42,74.32,74.32,0,0,1-19-49.54,72.85,72.85,0,0,1,19-49,64.34,64.34,0,0,1,47.45-21.06,62.59,62.59,0,0,1,47.06,21.06,70.48,70.48,0,0,1,19.36,49,71.89,71.89,0,0,1-19.36,49.54,73.37,73.37,0,0,1-21.07,15L340,251.35c8,4.36,15.18,6.83,21.25,6.83,5.51,0,10.82-1.33,18.6-7.21a10.91,10.91,0,0,1,15.37,1.89C399,257.61,398.21,264.44,393.09,268.61ZM287.38,219.27a41.3,41.3,0,0,0,30.94,13.67c12.14,0,23-5.13,31.31-13.67a49.57,49.57,0,0,0,13.09-34.16c0-13.47-4.93-25.43-13.09-33.78-8.35-8.72-19.17-13.85-31.31-13.85a40.83,40.83,0,0,0-30.94,13.85c-8.16,8.35-13.09,20.31-13.09,33.78A49.57,49.57,0,0,0,287.38,219.27Z"/><path class="cls-6" d="M393.09,268.61c-10.44,8-21.26,12-31.32,12h-.57c-13.28,0-24.48-5.31-34.72-11.39a23.81,23.81,0,0,0-11.58-2.84,32.45,32.45,0,0,0-13.47,3.22,10,10,0,0,1-11-.57c-.19-.19-.57-.19-1.14-.38-.19-.18-.19-.18-.38-.18a14.14,14.14,0,0,1-2.66-4.37,10.81,10.81,0,0,1,5.13-14.61l.57-.38a83.29,83.29,0,0,1-21.07-14.42,74.32,74.32,0,0,1-19-49.54,72.85,72.85,0,0,1,19-49,64.34,64.34,0,0,1,47.45-21.06,62.59,62.59,0,0,1,47.06,21.06,70.48,70.48,0,0,1,19.36,49,71.89,71.89,0,0,1-19.36,49.54,73.37,73.37,0,0,1-21.07,15L340,251.35c8,4.36,15.18,6.83,21.25,6.83,5.51,0,10.82-1.33,18.6-7.21a10.91,10.91,0,0,1,15.37,1.89C399,257.61,398.21,264.44,393.09,268.61ZM287.38,219.27a41.3,41.3,0,0,0,30.94,13.67c12.14,0,23-5.13,31.31-13.67a49.57,49.57,0,0,0,13.09-34.16c0-13.47-4.93-25.43-13.09-33.78-8.35-8.72-19.17-13.85-31.31-13.85a40.83,40.83,0,0,0-30.94,13.85c-8.16,8.35-13.09,20.31-13.09,33.78A49.57,49.57,0,0,0,287.38,219.27Z"/><path class="cls-7" d="M385.16,268.61c-10.44,8-21.25,12-31.31,12h-.57c-13.28,0-24.48-5.31-34.73-11.39A23.78,23.78,0,0,0,307,266.34a32.51,32.51,0,0,0-13.48,3.22,10,10,0,0,1-11-.57c-.19-.19-.56-.19-1.13-.38-.19-.18-.19-.18-.38-.18a14.14,14.14,0,0,1-2.66-4.37,10.81,10.81,0,0,1,5.12-14.61l.57-.38A83.23,83.23,0,0,1,263,234.65a74.28,74.28,0,0,1-19-49.54,72.81,72.81,0,0,1,19-49,64.3,64.3,0,0,1,47.44-21.06,62.59,62.59,0,0,1,47.07,21.06,70.52,70.52,0,0,1,19.35,49,71.92,71.92,0,0,1-19.35,49.54,73.51,73.51,0,0,1-21.07,15L332,251.35c8,4.36,15.18,6.83,21.25,6.83,5.5,0,10.82-1.33,18.6-7.21a10.92,10.92,0,0,1,15.37,1.89C391.05,257.61,390.29,264.44,385.16,268.61Zm-105.7-49.34a41.3,41.3,0,0,0,30.93,13.67c12.15,0,23-5.13,31.31-13.67a49.58,49.58,0,0,0,13.1-34.16c0-13.47-4.94-25.43-13.1-33.78-8.35-8.72-19.16-13.85-31.31-13.85a40.83,40.83,0,0,0-30.93,13.85c-8.16,8.35-13.1,20.31-13.1,33.78A49.58,49.58,0,0,0,279.46,219.27Z"/><path class="cls-5" d="M54.92,200.19c-6.78,9.18-13.84,19.82-15.56,31.33,0,.17.26.23.3.06a68.4,68.4,0,0,1,3-9.22c4.46-1.22,8.83-2.23,11.17-6.65s2.08-10.47,1.63-15.42C55.41,200,55.05,200,54.92,200.19Z"/><path class="cls-4" d="M42.72,222.28A75.56,75.56,0,0,1,54.64,203s.08,0,0,.05a81.66,81.66,0,0,0-8.13,12.79c2.24-2.28,4.7-4.32,6.82-6.73,0-.05.11,0,.07.07a37.3,37.3,0,0,1-7.16,7.15c-.74,1.36-1.48,2.73-2.24,4.09l.57-.29s.06,0,0,0c-.21.11-.42.22-.63.31l-1.08,1.94C42.86,222.55,42.66,222.42,42.72,222.28Z"/><path class="cls-4" d="M45,219.9a38.63,38.63,0,0,0,5.2-3.48s.11,0,.07.07A27.62,27.62,0,0,1,45.06,220C45,220.07,44.9,219.94,45,219.9Z"/><path class="cls-7" d="M38.58,229.81c0,.14.25.14.24,0,0-3.79,0-7.6.06-11.4,1-2,3.06-3.05,4.51-4.62a20.61,20.61,0,0,0,2.7-3.76,27,27,0,0,0,3.13-10.45c.4-4-1.13-17.43-2.84-17-.89.24-3.76,6.86-4.52,9a63.25,63.25,0,0,0-2.69,11.1A118.24,118.24,0,0,0,38.58,229.81Z"/><path class="cls-4" d="M38.55,213.46h0a85.09,85.09,0,0,1,2.29-14.29c1.09-5,2.37-9.72,4.94-14.19a.08.08,0,0,1,.13.08,52.73,52.73,0,0,0-4,10.89c.18-.27.39-.53.57-.78a.09.09,0,1,1,.16.1,7.44,7.44,0,0,1-.8,1.13l0,0c-.88,3.58-1.52,7.24-2.07,10.89a1.79,1.79,0,0,0,.13-.14s.07,0,.05.05-.14.24-.22.36c-.27,1.85-.52,3.7-.78,5.54a26.07,26.07,0,0,0,7.71-10.25s0,0,0,0a21.31,21.31,0,0,1-7.79,10.61L38.7,215c0,.1-.18.07-.18,0,0-.44,0-.88,0-1.32A.1.1,0,0,1,38.55,213.46Z"/><path class="cls-4" d="M40.1,206.52a76,76,0,0,0,6.73-11.59s.1,0,.08,0a37.58,37.58,0,0,1-6.68,11.65C40.17,206.68,40.05,206.59,40.1,206.52Z"/><path class="cls-4" d="M43.46,194c1-1.85,2.14-3.65,3.13-5.53a0,0,0,0,1,.08,0,29.39,29.39,0,0,1-3.05,5.59A.09.09,0,0,1,43.46,194Z"/><path class="cls-4" d="M43.05,194.81a0,0,0,1,1,0,0A0,0,0,1,1,43.05,194.81Z"/><path class="cls-7" d="M36,218.85a38.29,38.29,0,0,1-.88,7.47c0,.27.07.54.11.81a35.07,35.07,0,0,0,1.34-8.32.25.25,0,0,0,0-.25h0a55.47,55.47,0,0,0-.84-11.28c-1.17-7-3.73-13.64-8.59-18.86a.35.35,0,0,0-.54.11c-1.95,5-1.27,10.93.4,15.9A28.94,28.94,0,0,0,30.87,212C32.53,214.31,34.66,216.29,36,218.85Z"/><path class="cls-4" d="M27.74,190.74c4.6,7.47,7.8,16.33,8.19,25.15,0,.16-.25.2-.28,0-.11-.8-.23-1.58-.35-2.36h0a29.65,29.65,0,0,1-5.22-6s0-.09.06,0A64.63,64.63,0,0,0,35.2,213q-.5-2.92-1.18-5.77l-.36-.42c-.08-.1.05-.23.13-.14l.11.12a65.69,65.69,0,0,0-2.4-7.64,23.05,23.05,0,0,1-3.34-4.29,0,0,0,1,1,.06,0c.69,1,1.35,1.93,2.13,2.82.31.36.65.69,1,1a58.74,58.74,0,0,0-3.77-7.85A.11.11,0,0,1,27.74,190.74Z"/><path class="cls-4" d="M28.67,200c1.48,2,3.18,3.92,4.56,6a.06.06,0,0,1-.09.07,30,30,0,0,1-4.57-6C28.53,200,28.62,199.9,28.67,200Z"/><path class="cls-4" d="M33.44,206.4l.06.06a0,0,0,1,1-.07.07l-.06-.06C33.33,206.42,33.4,206.36,33.44,206.4Z"/><path class="cls-5" d="M20.52,205.1a23,23,0,0,0,4.86,11.39,12.07,12.07,0,0,0,3.94,3.08c1.71.84,3.49,1.81,5.26,2.51a35.1,35.1,0,0,1,1.86,6.61c.05-.2.11-.4.17-.59-1.14-9.73-7.43-18-15.48-23.38A.39.39,0,0,0,20.52,205.1Z"/><path class="cls-4" d="M23.31,208c-.06-.05,0-.15.08-.1a33,33,0,0,1,10.26,12.64.12.12,0,0,1-.2.12c-.37-.65-.76-1.29-1.14-1.92h0a11,11,0,0,1-4.94-2.87s0-.08.05-.05a11.09,11.09,0,0,0,2.33,1.63c.75.38,1.55.62,2.33.93-.68-1.08-1.39-2.12-2.13-3.13a21.12,21.12,0,0,1-5.52-3.1c-.06,0,0-.13,0-.09a52.7,52.7,0,0,0,5.13,2.74A46.39,46.39,0,0,0,26,210.55c-.63-.33-1.26-.66-1.87-1,0,0,0-.11,0-.09a6.31,6.31,0,0,1,1.43.7C24.86,209.41,24.11,208.68,23.31,208Z"/><path class="cls-4" d="M23.48,211.33l.31.22s0,.07,0,.06a2.46,2.46,0,0,1-.32-.19C23.37,211.39,23.42,211.3,23.48,211.33Z"/><polygon class="cls-8" points="49.17 249.75 27.11 249.75 28.89 229.66 29.28 225.23 47 225.23 47.39 229.66 49.17 249.75"/><polygon class="cls-4" points="47.39 229.66 28.89 229.66 29.28 225.23 47 225.23 47.39 229.66"/><rect class="cls-8" x="28.22" y="222.13" width="19.83" height="4.39"/><path class="cls-9" d="M429,281.06c-1.35.42-39.58-.21-41-1.16-.55-.36-.78-5.93-.87-12.67,0-1.46,0-3,0-4.49,0-9.92.09-19,.09-19l25.59.67-.8,18.71-.19,4.48s14.53,6.8,16,8S430.36,280.63,429,281.06Z"/><path class="cls-3" d="M429,281.06c-1.35.42-39.58-.21-41-1.16-.66-.44-.87-8.57-.9-17.16l24.88.34-.19,4.48s14.53,6.8,16,8S430.36,280.63,429,281.06Z"/><path class="cls-10" d="M429,281.06c-1.35.42-39.58-.21-41-1.16-.55-.36-.78-5.93-.87-12.67l24.66.33s14.53,6.8,16,8S430.36,280.63,429,281.06Z"/><path class="cls-11" d="M406.77,281c-9.29-.23-18.1-.6-18.78-1.05s-.78-5.93-.87-12.68l5.05.07C396.05,271,403.07,277.5,406.77,281Z"/><path class="cls-4" d="M428.49,279.52c-6.4-.27-32.27-.73-38.62-.5-.06,0-.06,0,0,0,6.34.4,32.21.65,38.62.56C428.63,279.62,428.63,279.52,428.49,279.52Z"/><path class="cls-4" d="M425.34,274.15a5.15,5.15,0,0,0-3.86,1.5,5,5,0,0,0-1.49,3.4s.07,0,.08,0a6,6,0,0,1,5.27-4.82C425.39,274.22,425.4,274.15,425.34,274.15Z"/><path class="cls-4" d="M414.25,268.24c-2.56-.08-5.55.78-7.18,2.85-.06.08.05.17.13.13a35.84,35.84,0,0,1,7.09-2.66A.16.16,0,0,0,414.25,268.24Z"/><path class="cls-4" d="M416.22,269.05c-2.56-.08-5.55.78-7.18,2.85-.07.08,0,.17.13.13a35.41,35.41,0,0,1,7.09-2.67A.16.16,0,0,0,416.22,269.05Z"/><path class="cls-4" d="M418.19,269.85c-2.57-.08-5.56.78-7.19,2.85-.06.08.06.17.13.13a35.69,35.69,0,0,1,7.1-2.66A.16.16,0,0,0,418.19,269.85Z"/><path class="cls-4" d="M420.16,270.66c-2.57-.08-5.56.78-7.19,2.85-.06.08,0,.17.13.13a35.87,35.87,0,0,1,7.09-2.67A.16.16,0,0,0,420.16,270.66Z"/><path class="cls-4" d="M391.6,273c-2.88,0-2.94,4.43-.06,4.47S394.48,273,391.6,273Z"/><path class="cls-4" d="M417.14,261.44c-1.28-1.1-2.94-.07-3.75,1A13.46,13.46,0,0,0,411,269c0,.05,0,.07.07.07a.32.32,0,0,0,.46.22c1.85-1.24,4-2.33,5.39-4.09C417.7,264.17,418.35,262.48,417.14,261.44Zm-3.24,5.4c-.89.63-1.81,1.21-2.68,1.87a39.5,39.5,0,0,1,1.51-3.77,13.74,13.74,0,0,1,1-1.72c.57-.84,3.13-2.94,3.34-.14C417.14,264.62,415,266.09,413.9,266.84Z"/><path class="cls-4" d="M404.56,269.84c2.22.38,4.54-.22,6.74-.52a.31.31,0,0,0,.2-.46s.05-.07,0-.11a13.44,13.44,0,0,0-6.16-3.26c-1.34-.28-3.26.05-3.49,1.72S403.25,269.62,404.56,269.84ZM403,268.36c-1.7-2.23,1.61-2.36,2.59-2.11a15.12,15.12,0,0,1,1.86.64,37.52,37.52,0,0,1,3.64,1.83c-1.09.08-2.17.26-3.25.38C406.57,269.25,404,269.58,403,268.36Z"/><path class="cls-8" d="M413,261.12H385s5.28-59.65,5.05-60.79c-.27-1.46-1.93-8.09-4.13-16.74-.69-2.71-1.43-5.61-2.21-8.62-2.09-8.14-4.39-17-6.39-24.78l-5.37-20.61h23.75s2.76,8.78,6.25,20.19c5.68,18.55,13.28,44.07,14,50.28C417.15,210.07,413,261.12,413,261.12Z"/><path class="cls-4" d="M411.73,256.34c-4.27-.09-3-.12-7.32-.16-2.1,0-15.86-.14-17.81.18a0,0,0,0,0,0,.09c1.95.32,15.71.2,17.81.18,4.28,0,3-.07,7.32-.16A.07.07,0,1,0,411.73,256.34Z"/><path class="cls-4" d="M395.29,196.33c-.92-4.05-2.29-8-3.49-12q-3.65-12.12-7.33-24.22-1.83-6-3.69-12.1l-1.89-6.1c-.63-2-1.34-4-1.9-6-.23-.81-.35-.37-.06.67q.88,3.13,1.78,6.27,1.82,6.18,3.65,12.37,3.64,12.31,7.35,24.61,1.85,6.16,3.7,12.33a50.52,50.52,0,0,1,1.52,6,27.8,27.8,0,0,1,.25,6.38c-.27,4.28-.77,8.56-1.16,12.84s-.8,8.57-1.19,12.86c-.79,8.52-1.22,11.27-2,19.8-.1,1.08-.2,2.16-.28,3.24,0,.37.52.34.56,0,.92-8.43,1.26-11.11,2.05-19.56s1.58-16.8,2.36-25.21c.2-2.11.43-4.22.43-6.34A26.61,26.61,0,0,0,395.29,196.33Z"/><path class="cls-4" d="M393,129.58c-1.65,12.76-4.79,36.67-7.08,54-5.36-21-14-54-14-54Z"/><path class="cls-9" d="M400.68,281.17c-1.33.46-39.57,1-41,.05-.56-.34-.95-5.9-1.24-12.64-.06-1.46-.12-3-.17-4.48-.32-9.92-.47-19-.47-19l25.6-.09-.25,18.73-.06,4.49s14.73,6.36,16.23,7.53S402,280.71,400.68,281.17Z"/><path class="cls-3" d="M400.68,281.17c-1.33.46-39.57,1-41,.05-.68-.41-1.12-8.54-1.41-17.12l24.88-.4-.06,4.49s14.73,6.36,16.23,7.53S402,280.71,400.68,281.17Z"/><path class="cls-10" d="M400.68,281.17c-1.33.46-39.57,1-41,.05-.56-.34-.95-5.9-1.24-12.64l24.65-.39s14.73,6.36,16.23,7.53S402,280.71,400.68,281.17Z"/><path class="cls-4" d="M400.11,279.65c-6.41-.08-32.28.22-38.62.64-.05,0-.05,0,0,0,6.35.21,32.22-.3,38.63-.58C400.25,279.75,400.25,279.65,400.11,279.65Z"/><path class="cls-4" d="M396.81,274.37A5.15,5.15,0,0,0,393,276a5,5,0,0,0-1.39,3.44s.07,0,.08,0a6,6,0,0,1,5.13-5A0,0,0,0,0,396.81,274.37Z"/><path class="cls-4" d="M385.55,268.8c-2.57,0-5.53.94-7.1,3.06-.06.08.06.16.13.12a36.24,36.24,0,0,1,7-2.87A.16.16,0,0,0,385.55,268.8Z"/><path class="cls-4" d="M387.54,269.54c-2.57,0-5.53.95-7.1,3.06-.06.09.06.17.13.13a36.07,36.07,0,0,1,7-2.87A.17.17,0,0,0,387.54,269.54Z"/><path class="cls-4" d="M389.53,270.29c-2.57,0-5.53.94-7.1,3.06-.06.08.06.17.13.13a34.86,34.86,0,0,1,7-2.87A.17.17,0,0,0,389.53,270.29Z"/><path class="cls-4" d="M391.52,271c-2.57,0-5.53.94-7.1,3.06-.06.08.06.16.13.12a36.07,36.07,0,0,1,7-2.87A.16.16,0,0,0,391.52,271Z"/><path class="cls-4" d="M363,274.18c-2.88,0-2.81,4.52.07,4.47S365.93,274.13,363,274.18Z"/><path class="cls-4" d="M388.23,261.92c-1.31-1.07-2.93,0-3.72,1.14a13.5,13.5,0,0,0-2.25,6.59.07.07,0,0,0,.08.07.32.32,0,0,0,.47.2c1.81-1.29,3.9-2.44,5.26-4.24C388.87,264.63,389.47,262.92,388.23,261.92Zm-3.08,5.49c-.87.65-1.77,1.26-2.62,1.95a39.58,39.58,0,0,1,1.39-3.82,16.19,16.19,0,0,1,.92-1.75c.54-.85,3-3,3.33-.24C388.33,265.09,386.2,266.63,385.15,267.41Z"/><path class="cls-4" d="M375.9,270.68c2.24.32,4.53-.35,6.73-.72a.31.31,0,0,0,.18-.47s.05-.07,0-.11a13.51,13.51,0,0,0-6.25-3.07c-1.35-.25-3.26.14-3.44,1.82S374.59,270.5,375.9,270.68Zm-1.57-1.44c-1.76-2.18,1.54-2.4,2.53-2.18a13.66,13.66,0,0,1,1.88.59c1.28.47,2.47,1.12,3.69,1.71-1.09.12-2.16.33-3.24.48C377.9,270,375.3,270.44,374.33,269.24Z"/><path class="cls-8" d="M394.89,129.58s-.55,11.36-3.15,20.36c-.21.74-.43,1.48-.68,2.18a41.73,41.73,0,0,0-6.84,3.52s-.27,9.14-.55,19.33c-.3,11.39,1.46,24.1,1.53,26.8.24,10.09-1,59.24-1,59.24l-28,.11S361,205.49,361,201.8c-.06-5.94,2-47.26,1.68-48.18-4.51-11.79,1.45-24,1.45-24Z"/><path class="cls-4" d="M383.25,256c-4.28-.08-3.05-.12-7.33-.14-2.09,0-15.85-.07-17.81.26a0,0,0,0,0,0,.09c2,.31,15.72.14,17.81.11,4.28-.06,3.05-.09,7.33-.2A.06.06,0,0,0,383.25,256Z"/><path class="cls-4" d="M392.23,151.44a51.77,51.77,0,0,0-8,4.2.09.09,0,0,0,.08.16c2.71-1.31,5.46-2.58,8.09-4A.18.18,0,0,0,392.23,151.44Z"/><path class="cls-4" d="M388,147.63c.09-1.28.18-2.56.3-3.84.25-2.92.56-5.85,1.07-8.73,0-.23.36-.14.34.07-.2,2.27-.46,4.53-.67,6.8s-.48,4.52-.52,6.77c0,.68,0,1.84.86,2,1.13.25,1.65-1.23,1.92-2a36.5,36.5,0,0,0,1.41-6.17c.37-2.38.56-4.79.79-7.19,0-.08.15-.07.15,0,0,4.75-.05,9.72-1.82,14.21a2.66,2.66,0,0,1-2,1.88h-.05a.11.11,0,0,1,0,.08c0,.14-.05.27-.08.4a1.91,1.91,0,0,1-.06.33c-.05.23-.08.47-.14.7a.18.18,0,0,1-.35,0,.16.16,0,0,1-.09-.14,3.73,3.73,0,0,1,.3-1.35,1.67,1.67,0,0,1-1.22-1A5.89,5.89,0,0,1,388,147.63Z"/><path class="cls-4" d="M365.48,153.62a52.64,52.64,0,0,0-1.22-5.84c-1-4.35-.34-10.27.78-14.52,0-.11-.16-.16-.19,0a35,35,0,0,0-1.5,12.66c.21,1.81,1.66,7.3,1.62,9.26-.09,3.87.21,36.85-.05,50.31-.17,8.83-2,38.46-2.28,47.3,0,.08.13.07.14,0,1-15.74,2.36-31.83,2.57-47.26C365.55,190.47,365.73,155.76,365.48,153.62Z"/><path class="cls-4" d="M379.31,134.22c-.13,1.36-.18,2.72-.38,4.07a5.45,5.45,0,0,1-1.51,3.28,8.05,8.05,0,0,1-3.16,1.79,30,30,0,0,1-7.81.25c-.4-.06-.37.25.39.41a47,47,0,0,0,5.17.38,11.13,11.13,0,0,0,2.51-.18,7,7,0,0,0,3.66-1.9,5.87,5.87,0,0,0,1.5-3.68,21.76,21.76,0,0,0-.17-4.42C379.5,134.11,379.32,134.12,379.31,134.22Z"/><path class="cls-4" d="M380.27,97.57c0,.07.1.07.11,0,.31-3.45,3.85-5.55,3.94-9.08a8.26,8.26,0,0,0-1.28-4.4,24.25,24.25,0,0,0-1.83-2.44l-.26-.39a18.17,18.17,0,0,1-1.44-2.63,9.76,9.76,0,0,1-.64-3.34c-.09-2.18,0-4.39-1.45-6.2-1.18-1.51-2.43-3.36-5.06-4.26-4-1.38-8.76.44-11.72,3.83a7.53,7.53,0,0,0-1.26,2A4.49,4.49,0,0,0,356,73.8c-.79,2.45.7,5.83.47,7.06a11.14,11.14,0,0,1-1.42,3,18,18,0,0,0-1.38,2.5,6.73,6.73,0,0,0-.33,3.87,7.33,7.33,0,0,0,1.37,3.25,6,6,0,0,0,2.76,1.85l.77.26,0,0c.88.55,1.85,1,2.68,1.62a4.69,4.69,0,0,1,1.77,2.83c.24,1,.27,2.11.44,3.17a7.9,7.9,0,0,0,1,2.78,9,9,0,0,0,4.46,3.64,13.7,13.7,0,0,0,6.72.64,7.29,7.29,0,0,0,5.18-2.74,6.39,6.39,0,0,0,1.06-5.15,17.72,17.72,0,0,0-1.29-3,5.16,5.16,0,0,1-.47-3.14c.68-3.54,4.28-6.09,3.6-10a8.72,8.72,0,0,0-1.09-2.79,8.73,8.73,0,0,1,1.75,4.46,7.74,7.74,0,0,1-1.6,4.82C381.5,94.21,380.35,95.73,380.27,97.57Zm-22.61-2.41a5.85,5.85,0,0,1-3.39-2.93,8,8,0,0,1-.68-5,9.5,9.5,0,0,1,1-2.27l0-.06a9.21,9.21,0,0,0,.31,6.67,8.76,8.76,0,0,0,2.82,3.63Z"/><path class="cls-12" d="M403,70.18,399.52,88c-.16.53.12.93.63.91l9.06-.5a1.45,1.45,0,0,0,1.2-1l3.46-17.81c.16-.52-.12-.93-.63-.9l-9.06.5A1.47,1.47,0,0,0,403,70.18Z"/><path class="cls-8" d="M404.05,70.11l-3.46,17.8c-.16.53.12.93.63.91l9.06-.5a1.47,1.47,0,0,0,1.21-1L415,69.51c.16-.53-.13-.93-.63-.91l-9.06.5A1.47,1.47,0,0,0,404.05,70.11Z"/><path class="cls-4" d="M406.58,70.77a.78.78,0,0,1-.75.8.77.77,0,0,1-.79-.75.76.76,0,0,1,.74-.79A.77.77,0,0,1,406.58,70.77Z"/><path class="cls-9" d="M375.23,98.38c5.63,10.69,17.81,24.35,22.58,24.19,2.27-.07,6.34.28,9.2-2.46,6.23-6,11.15-17.12,12-23.39.29-2.24-10.7-6.53-12.21-4.66-3.53,4.4-7.48,12.88-8.14,12.86-2.45-.07-12.35-7.57-19.27-12.86C371,85.64,373,94.12,375.23,98.38Z"/><path class="cls-9" d="M418.72,85.26c-1.35-4.44-2.38-5.38-1.52-9.73.56-2.86-1-4.44-2.92-2.08-3.11,3.86-2.57,10-1.78,12Z"/><path class="cls-9" d="M418.55,98.67s1.71-6.36.75-11.24c-.67-3.37-2.95-10.54-12.63-13.94-2.3-.8-6.15-.32-2.87,2.36,2.32,1.9,4.37,2.4,5.53,3.76,0,0-4.82,1.19-5.54,3.52a45.17,45.17,0,0,0-1.44,6.23,8.82,8.82,0,0,0,1.15.38A7.25,7.25,0,0,0,404.65,95Z"/><path class="cls-9" d="M418.14,84.32a26.82,26.82,0,0,0-7.64-4.38c-3.51-1.11-10.56-2.29-11.35.3-.57,1.91,2.08,2.6,2.08,2.6s-3,.12-3.17,2c-.13,1.67,1.95,2.08,1.95,2.08s-1.82.39-1.63,2c.21,2,4,.82,5.93,2.62C404.74,91.93,418.14,84.32,418.14,84.32Z"/><path class="cls-4" d="M410,83.84a14.63,14.63,0,0,0-8.67-1.06c-.07,0-.1.08,0,.08a36.21,36.21,0,0,1,8.69,1S410,83.85,410,83.84Z"/><path class="cls-4" d="M408.73,87.34a16.38,16.38,0,0,0-8.71-.53c-.08,0-.1.08,0,.08a38.54,38.54,0,0,1,8.73.49S408.74,87.35,408.73,87.34Z"/><path class="cls-7" d="M419.3,101.27s-8,17.84-13.08,20.09a17.54,17.54,0,0,1-10.05,1.75,5.2,5.2,0,0,1-2.06-.88c-5.35-3.46-15.2-16.1-19.3-23.27-3.07-5.39-3-10.4,1.36-9a14.52,14.52,0,0,1,4.06,2.34c8.17,6.23,17.58,12.09,18,11.84s4.62-7.61,4.62-7.61Z"/><path class="cls-4" d="M417.26,104.55c-.6-.3-6.24-2.2-7.47-2.59s-6.26-2-7.56-2.31c-.06,0-.09.07,0,.09,1.22.53,6.29,2.19,7.54,2.61s6.86,2.18,7.5,2.28C417.29,104.64,417.3,104.57,417.26,104.55Z"/><path class="cls-1" d="M394.09,101.9a81.94,81.94,0,0,1-10.55,9.52c-1.37-1.7-2.7-3.44-3.93-5.15a72.27,72.27,0,0,0,9.08-7.89C390.7,99.74,392.56,101,394.09,101.9Z"/><path class="cls-11" d="M409.53,118.39a10.3,10.3,0,0,1-3.31,3,17.54,17.54,0,0,1-10.05,1.75,5,5,0,0,1-2.06-.89c-5.34-3.45-15.2-16.09-19.3-23.26-2.79-4.89-3-9.46.25-9.22C383.73,96.9,400.23,110.64,409.53,118.39Z"/><path class="cls-7" d="M389.67,113.54l7.13,18s-25.93.55-33.91.46c0,0-5-29.14,3-38.93,4-4.9,7.49-4.62,10.88-1.57.86.78,12.19,9.41,13.5,14.22A12.38,12.38,0,0,1,389.67,113.54Z"/><path class="cls-4" d="M384,112.65a33,33,0,0,0-4.83.84c-.78.2-1.55.45-2.32.71-.38.13-.77.25-1.16.36a5.25,5.25,0,0,1-1.24.25s0,0,0,0a8,8,0,0,0,1.2,0,8.82,8.82,0,0,0,1.14-.22c.8-.21,1.59-.45,2.38-.66,1.61-.43,3.22-.86,4.85-1.17C384.1,112.77,384.08,112.64,384,112.65Z"/><path class="cls-4" d="M388,114.06a34.11,34.11,0,0,0-4-.16c-.68,0-1.35.06-2,.13l-1,.12c-.35,0-.69.14-1,.19,0,0,0,.06,0,.06.33,0,.67,0,1,0l1,0,2-.06c1.34-.06,2.68-.1,4-.11A.06.06,0,0,0,388,114.06Z"/><path class="cls-7" d="M365.45,92c-11.57,7.89-24,23.94-22.51,28.55,1.61,5.15,18.26-6.05,18-6.82s2.77-6.79,7.07-15.58S368.32,90,365.45,92Z"/><path class="cls-1" d="M363.81,106.74c-1.32,2.75-2.26,4.83-2.67,6A89.47,89.47,0,0,1,348,109.23c1.27-1.73,2.72-3.53,4.3-5.32A73.67,73.67,0,0,0,363.81,106.74Z"/><path class="cls-9" d="M342.94,120.54c1.56,3.54,7.36,5.29,21.55,11.08,2,.8,11.34-11.54,9.29-12.5-2.59-1.21-12.88-5.36-13.68-5.57C353.43,111.8,341.88,118.15,342.94,120.54Z"/><path class="cls-9" d="M371,117.87s6.07,2.17,8.9,4.3a22.84,22.84,0,0,1,6.68,8.61c1.62,3.62,3,13.52.27,14.43-2.52.83-3.46-9.37-3.46-9.37s2.68,10.24-.53,10.67-3.64-11.46-3.64-11.46,2.52,10.57-.87,10.49c-2.55,0-3.54-10.81-3.54-10.81s2.1,9.11-.53,9.16c-2.91.06-4.45-9.81-4.45-9.81-6.71-1-9.5-4.2-11.22-6.73C358.16,126.74,371,117.87,371,117.87Z"/><path class="cls-4" d="M382.65,132.24c.36,1.19.73,2.4,1,3.62s.46,2.44.6,3.68a21.2,21.2,0,0,1,.07,4.86,46.46,46.46,0,0,0-1-8.49c-.25-1.21-.44-2.44-.69-3.66C382.59,132.22,382.64,132.21,382.65,132.24Z"/><path class="cls-4" d="M378.23,133.07c.39,1.54.84,3.06,1.16,4.61s.49,3,.71,4.62c0,.12-.05.09-.08,0-.27-1.56-.65-3-.94-4.53s-.54-3.13-.89-4.66C378.19,133.05,378.23,133.05,378.23,133.07Z"/><path class="cls-4" d="M374.31,133.1a35.71,35.71,0,0,1,1.24,7.19c0,.12-.08.07-.09,0-.37-2.4-.64-4.28-1.23-7.12C374.22,133.08,374.3,133.05,374.31,133.1Z"/><path class="cls-7" d="M373.84,117.82s-13.73,13.56-13.9,13.52-16.25-6.88-17-10.8,11.25-8.46,17.15-7S373.84,117.82,373.84,117.82Z"/><path class="cls-4" d="M368.46,116.8c-.55.44-4.85,4.93-5.77,5.93s-4.69,5-5.54,6.14a0,0,0,0,0,.07.07c1-.93,4.86-5,5.82-6s5.11-5.53,5.5-6.09C368.57,116.81,368.5,116.77,368.46,116.8Z"/><path class="cls-4" d="M353.24,113.82a14.08,14.08,0,0,1,7.95-.06,0,0,0,1,1,0,0,24.35,24.35,0,0,0-7.91,0S353.21,113.83,353.24,113.82Z"/><path class="cls-4" d="M373,118.65l.8-.89,0,.12-3.23-1.06q-1.6-.52-3.24-1c-2.15-.69-4.31-1.34-6.5-1.9l-.41-.1.16-.39c.9-2.26,1.82-4.5,2.87-6.69a63.74,63.74,0,0,1,3.46-6.41q-1.55,3.3-2.94,6.64c-.93,2.23-1.87,4.46-2.7,6.73l-.25-.5c2.2.59,4.37,1.28,6.51,2,1.07.39,2.13.8,3.18,1.21s2.1.87,3.14,1.33l.11,0-.08.08Z"/><path class="cls-4" d="M364.46,105.21a6.89,6.89,0,0,1,.92-1.56,6,6,0,0,1,1.29-1.28,5.82,5.82,0,0,1-.89,1.58,6.48,6.48,0,0,1-.6.68A3.73,3.73,0,0,1,364.46,105.21Z"/><path class="cls-9" d="M368.71,92.81c.28.59,4.09,4,6.88,3.2.91-.24-.2-5.25-.2-5.25v-.39l0-5.44-6.94-2.59-1-.33s.08,1.49.21,3.34c0,.09,0,.18,0,.27s0,.2,0,.3c0,.28,0,.56.05.84s0,.42.06.65,0,.44.07.67A35.41,35.41,0,0,0,368.71,92.81Z"/><path class="cls-4" d="M375.39,90.44a11.26,11.26,0,0,1-7.59-3.59v-.09c0-.28,0-.56-.06-.84,0-.1,0-.2,0-.3a2.45,2.45,0,0,0,0-.27c-.13-1.85-.22-3.34-.22-3.34l1,.33,6.95,2.59,0,5.44Z"/><path class="cls-9" d="M381.39,77.18c.73,9.52-4.89,11-6.94,11.19-1.87.14-8.23.38-9.94-9S367,66.6,371.24,66.06,380.66,67.65,381.39,77.18Z"/><path class="cls-4" d="M379.33,74.91c-.23,0-.44-.06-.66-.09a1.1,1.1,0,0,1-.66-.23.34.34,0,0,1,0-.42.87.87,0,0,1,.82-.25,1.25,1.25,0,0,1,.81.39A.36.36,0,0,1,379.33,74.91Z"/><path class="cls-4" d="M373,76a4.74,4.74,0,0,0,.65-.16,1.09,1.09,0,0,0,.62-.29.33.33,0,0,0,0-.42.85.85,0,0,0-.84-.17,1.26,1.26,0,0,0-.77.48A.36.36,0,0,0,373,76Z"/><path class="cls-4" d="M374.56,77.7s-.05,0-.05.06c.06.66,0,1.41-.55,1.67,0,0,0,0,0,0C374.68,79.32,374.72,78.31,374.56,77.7Z"/><path class="cls-4" d="M373.93,77.05c-1.06,0-1,2.11,0,2.12S374.82,77.07,373.93,77.05Z"/><path class="cls-4" d="M373.52,77.18c-.19.12-.36.34-.58.36s-.46-.18-.64-.39c0,0,0,0,0,0,0,.41.17.82.6.87s.68-.32.77-.73C373.66,77.24,373.59,77.13,373.52,77.18Z"/><path class="cls-4" d="M378.35,77.23s0,0,0,.06c0,.66.13,1.41.73,1.6a0,0,0,1,1,0,0C378.4,78.85,378.25,77.86,378.35,77.23Z"/><path class="cls-4" d="M378.9,76.52c1.05-.12,1.23,2,.25,2.11S378,76.63,378.9,76.52Z"/><path class="cls-4" d="M379.35,76.63c.18.09.36.28.56.28s.38-.25.51-.48c0,0,0,0,0,0,0,.41-.06.84-.44,1s-.63-.23-.76-.62C379.23,76.71,379.28,76.59,379.35,76.63Z"/><path class="cls-4" d="M374.51,82.81c.15.16.3.37.54.4a1.74,1.74,0,0,0,.71-.15,0,0,0,0,1,0,0,.89.89,0,0,1-.84.34.71.71,0,0,1-.51-.59A0,0,0,0,1,374.51,82.81Z"/><path class="cls-4" d="M377.46,80.23s.17,1,.19,1.44a2.53,2.53,0,0,1-2.46-.66s0-.1.07-.07a3.23,3.23,0,0,0,2,.5c0-.13-.35-1.66-.27-1.67a4,4,0,0,1,1.06.2c-.3-2-.92-4-1.19-6.08,0-.07.1-.1.12,0a33.34,33.34,0,0,1,1.56,6.49C378.62,80.61,377.65,80.3,377.46,80.23Z"/><path class="cls-4" d="M365.08,80.32c1.83.17,2.17-4,2.17-4s7.7-1.55,8.17-7.87A10.66,10.66,0,0,0,381,74.11s-.49-6.9-6-8.08c0,0-6.87-2.27-10.53,3.25S363.86,80.2,365.08,80.32Z"/><path class="cls-4" d="M375.43,68a6.92,6.92,0,0,1-.26,2.89,7.13,7.13,0,0,1-1.38,2.59,6.51,6.51,0,0,1-.51.54l-.26.26-.29.23c-.2.15-.39.31-.59.45l-.63.37-.32.17-.34.15-.67.28c-.47.14-.94.26-1.41.38.44-.21.89-.37,1.32-.58l.63-.33.32-.17.29-.19.59-.4c.19-.14.36-.3.54-.45l.27-.22.25-.25c.15-.18.33-.33.47-.52a8.61,8.61,0,0,0,1.79-3.78A8.36,8.36,0,0,0,375.43,68Z"/><path class="cls-9" d="M366.08,80s-2.06-3-3.42-2.28.16,5.07,1.75,5.68a1.62,1.62,0,0,0,2.17-.85Z"/><path class="cls-4" d="M363.13,78.93s0,0,0,0a4.07,4.07,0,0,1,2.08,2.57.89.89,0,0,0-1.33-.25s0,.06,0,.06a1,1,0,0,1,1.09.35,5.3,5.3,0,0,1,.52.89c.05.1.23,0,.19-.06v0C365.74,81.08,364.65,79.08,363.13,78.93Z"/><path class="cls-9" d="M264.78,284.15c1.32-.55,30.59-26.06,31.1-27.74.19-.63-3.28-5.11-7.62-10.41-.94-1.14-1.91-2.32-2.91-3.5-6.46-7.72-13.5-15.76-13.5-15.76l-19.64,17,14,15.3,3.08,3.35s-6.84,14.78-7.2,16.68S263.45,284.7,264.78,284.15Z"/><path class="cls-3" d="M264.78,284.15c1.32-.55,30.59-26.06,31.1-27.74.23-.77-4.94-7.22-10.53-13.91L266.26,259l3.08,3.35s-6.84,14.78-7.2,16.68S263.45,284.7,264.78,284.15Z"/><path class="cls-12" d="M264.78,284.15c1.32-.55,30.59-26.06,31.1-27.74.19-.63-3.28-5.11-7.62-10.41l-18.92,16.39s-6.84,14.78-7.2,16.68S263.45,284.7,264.78,284.15Z"/><path class="cls-4" d="M264.18,282.61c4.8-4.39,24.58-21.67,29.67-25.65,0,0,.06,0,0,0-4.66,4.46-24.59,21.58-29.63,25.7C264.14,282.78,264.07,282.71,264.18,282.61Z"/><path class="cls-4" d="M263.11,276.38a5.23,5.23,0,0,1,4-1.36,5.08,5.08,0,0,1,3.38,1.67s0,.07-.06.05a6.05,6.05,0,0,0-7.25-.3A0,0,0,1,1,263.11,276.38Z"/><path class="cls-4" d="M267.86,264.54c1.94-1.74,4.82-3,7.44-2.49.1,0,.07.17,0,.19a35.73,35.73,0,0,0-7.25,2.57A.16.16,0,0,1,267.86,264.54Z"/><path class="cls-4" d="M266.86,266.45c1.94-1.74,4.82-3,7.44-2.48.1,0,.07.16,0,.18a36,36,0,0,0-7.26,2.57C266.87,266.81,266.72,266.58,266.86,266.45Z"/><path class="cls-4" d="M265.86,268.37c1.94-1.74,4.82-3,7.44-2.49.1,0,.07.16,0,.18a36.83,36.83,0,0,0-7.25,2.58A.16.16,0,0,1,265.86,268.37Z"/><path class="cls-4" d="M264.85,270.28c1.95-1.74,4.83-3,7.45-2.49.1,0,.07.17,0,.19a36.16,36.16,0,0,0-7.25,2.57A.16.16,0,0,1,264.85,270.28Z"/><path class="cls-3" d="M288.53,253.38c2.21-1.91,5.19,1.52,3,3.44S286.32,255.3,288.53,253.38Z"/><path class="cls-4" d="M263.83,263.89c2.26.45,4.62-.1,6.86-.35a.32.32,0,0,0,.22-.47.07.07,0,0,0,0-.11,13.71,13.71,0,0,0-6.16-3.47c-1.36-.32-3.32,0-3.59,1.66S262.52,263.63,263.83,263.89Zm-1.5-1.55C260.66,260,264,260,265,260.28a13.49,13.49,0,0,1,1.87.69c1.27.56,2.44,1.28,3.64,1.95-1.1.06-2.2.21-3.3.3C265.9,263.34,263.24,263.62,262.33,262.34Z"/><path class="cls-4" d="M276.8,255.63c-1.27-1.15-3-.15-3.83.95a13.61,13.61,0,0,0-2.65,6.56.06.06,0,0,0,.08.07.32.32,0,0,0,.46.23c1.9-1.2,4.09-2.25,5.57-4C277.3,258.42,278,256.72,276.8,255.63Zm-3.42,5.4c-.93.61-1.88,1.18-2.78,1.83.52-1.28,1-2.57,1.63-3.8a14.1,14.1,0,0,1,1-1.71c.6-.84,3.25-2.91,3.39-.06C276.72,258.85,274.48,260.3,273.38,261Z"/><path class="cls-4" d="M230.37,213.57c1.84,10.5,29.15,39.87,32.31,43.24l.72.77,20.82-17.46-.27-.31-20-24,56.51-2.73-22.17-15.78s-1.7,1.08-5.34.71c-12.55-1.3-40.85-4.15-47.47-3.6C236.94,195.12,228.68,203.94,230.37,213.57Z"/><path class="cls-12" d="M256.75,206.87a25.06,25.06,0,0,1,2.06,2.42c.71.85,1.43,1.69,2.13,2.54l0,0c-.13-.25-.25-.51-.39-.76-.46-.85-.83-1.74-1.37-2.56,0,0,.05-.1.08,0,.55.81,1.18,1.57,1.65,2.43.23.4.44.81.64,1.22.11.23.22.46.32.69s.1.22.14.33l.94,1.2c.67.9,1.28,1.85,2,2.74a0,0,0,1,1-.07.05c-.69-.83-1.46-1.61-2.16-2.43s-1.4-1.71-2.07-2.59l-1.95-2.57a26.33,26.33,0,0,1-2-2.64S256.72,206.84,256.75,206.87Z"/><path class="cls-12" d="M260.3,252.71c1.19-1.09,2.46-2.11,3.71-3.13s2.51-2,3.77-3.06c2.53-2,5.05-4.06,7.61-6.05,1.4-1.1,2.82-2.18,4.28-3.19.06-.05.14.06.08.11-2.4,2.18-4.95,4.17-7.48,6.19s-5.07,4-7.63,6c-1.4,1.08-2.8,2.2-4.26,3.2C260.32,252.85,260.25,252.76,260.3,252.71Z"/><path class="cls-13" d="M304.59,165.93c-3.1,6-14.15,22.69-22.91,25.92-4.83,1.78-29.56,6.26-33.24,3.69-4.32-3-3.14-16.52-.09-17,9.32-1.59,26.9.05,31.1-1.47,1.9-.69,11.41-8.73,21.8-15.53C305.17,158.93,306.59,162.09,304.59,165.93Z"/><path class="cls-8" d="M257.26,177.18s.13,20.41,1.09,20.12,22-3,27.24-6,13.6-15.16,18.41-23.15.23-9.71-4.86-5.68S279.78,176,278.85,176.12,257.26,177.18,257.26,177.18Z"/><path class="cls-4" d="M261.19,195c.11-2.76.17-5.51.12-8.27,0-1.37-.08-2.75-.14-4.12s-.28-2.75-.33-4.12c0-.07-.13-.07-.12,0,.12,1.37.06,2.76.1,4.13s.09,2.76.12,4.13c.06,2.75.13,5.5.13,8.25C261.07,195.13,261.19,195.12,261.19,195Z"/><path class="cls-12" d="M287.07,190.24c5.26-4.14,12.55-14.85,16.93-22.13,3.43-5.7,2.08-8.21-.82-7.71Z"/><rect class="cls-14" x="258.16" y="196.2" width="36.39" height="1.63"/><polygon class="cls-10" points="286.76 196.2 288 197.83 258.16 197.83 258.16 196.2 286.76 196.2"/><polygon class="cls-14" points="285.2 197.83 249.74 197.83 246.79 173.75 282.25 173.75 285.2 197.83"/><path class="cls-3" d="M268.15,185.79A2.11,2.11,0,0,1,266,188a2.2,2.2,0,0,1-2.19-2.16,2.11,2.11,0,0,1,2.12-2.16A2.2,2.2,0,0,1,268.15,185.79Z"/><path class="cls-9" d="M247.08,176.07c-1.34,2.07-4.64,4.48-5.09,6.25a2.1,2.1,0,0,0,.86,2.35s-1.91.65-2.06,2.33c-.07.86,1.24,1.74,1.24,1.74a2.5,2.5,0,0,0-1.55,2.09,2.41,2.41,0,0,0,1.28,1.89,3,3,0,0,0-.82,2.47c.73,2.48,10.88,3.83,12.94.29,1-1.64-1.54-1.84-1.54-1.84s3.66-.59,4-2.67-2.93-2.14-2.93-2.14,3.54-.6,3.67-2.8-3.14-1.78-3.14-1.78,2.45-1.24,2.16-2.94c-.47-2.81-6.26.18-8.42-.65Z"/><path class="cls-4" d="M242,192.86a0,0,0,1,0,0,0,17.68,17.68,0,0,0,10.54.76c.11,0,.11-.22,0-.21A36.28,36.28,0,0,1,242,192.86Z"/><path class="cls-4" d="M242,188.75s-.05.06,0,.07a16.65,16.65,0,0,0,11.55.12c.13-.05.19-.23,0-.18C251,189.55,245.21,189.46,242,188.75Z"/><path class="cls-4" d="M254.17,184.05a22.9,22.9,0,0,1-11.18.68c-.05,0-.06.06,0,.08a15,15,0,0,0,6.17.83,10.25,10.25,0,0,0,5.07-1.46C254.27,184.14,254.24,184,254.17,184.05Z"/><path class="cls-8" d="M291.1,205s40.65,6.17,40.85,5.92-5.78-43.82-19.73-50.79c-2.21-1.11-7.48-1.64-9.65.72C296.38,167.57,290.55,204.44,291.1,205Z"/><path class="cls-12" d="M291.41,201.37l40,5.63c-.19-1.2-.43-2.63-.73-4.24L292,197.33C291.77,198.86,291.57,200.23,291.41,201.37Z"/><path class="cls-12" d="M292.39,195.18l37.89,5.33c-.14-.71-.29-1.45-.45-2.2l-37.07-5.21C292.62,193.81,292.5,194.51,292.39,195.18Z"/><path class="cls-9" d="M304.15,168.66c2.26.09,5.33-3.92,6.28-6.87.06-.2-.59-2.08-1.27-4.39-.41-1.41-.83-3-1.11-4.46l-8.78,4a23.48,23.48,0,0,1,2,5.47,3.2,3.2,0,0,1,.05.61.38.38,0,0,0,0,.1C301.33,164.3,302,168.56,304.15,168.66Z"/><path class="cls-4" d="M299.27,156.94a24,24,0,0,1,2,5.47,2.56,2.56,0,0,1,.05.61.38.38,0,0,0,0,.1,5.1,5.1,0,0,0,1-.13c5.33-1.15,5.57-8.07,5.53-9.93Z"/><path class="cls-9" d="M307.15,141c1.63,3.07,1.73,12.83-.18,15.38-2.77,3.7-8.23,5.06-11.6,1.52s-3.18-16.16-1-18.57C297.69,135.82,304.74,136.51,307.15,141Z"/><path class="cls-4" d="M298.87,148.75s.05,0,.05.06c0,.65.05,1.4.64,1.62,0,0,0,0,0,0C298.83,150.36,298.74,149.36,298.87,148.75Z"/><path class="cls-4" d="M299.46,148.07c1.05-.07,1.11,2,.13,2.1S298.58,148.13,299.46,148.07Z"/><path class="cls-4" d="M295,148.85s0,0,0,.06c0,.65,0,1.41-.6,1.64,0,0,0,0,0,0C295.1,150.46,295.18,149.46,295,148.85Z"/><path class="cls-4" d="M294.43,148.19c-1.05-.05-1.07,2.05-.1,2.1S295.31,148.23,294.43,148.19Z"/><path class="cls-4" d="M300.26,147.09c-.29-.07-.55-.18-.82-.27a1.32,1.32,0,0,1-.79-.43.44.44,0,0,1,.05-.54,1.11,1.11,0,0,1,1.11-.15,1.62,1.62,0,0,1,1,.68A.48.48,0,0,1,300.26,147.09Z"/><path class="cls-4" d="M293.59,147.15c.29-.06.55-.16.83-.24a1.44,1.44,0,0,0,.8-.41.45.45,0,0,0,0-.54,1.11,1.11,0,0,0-1.11-.18,1.6,1.6,0,0,0-1,.65A.48.48,0,0,0,293.59,147.15Z"/><path class="cls-4" d="M299.72,154.49c-.12.19-.22.43-.45.5a1.59,1.59,0,0,1-.72,0s0,0,0,0a.88.88,0,0,0,.89.16.67.67,0,0,0,.37-.67S299.74,154.47,299.72,154.49Z"/><path class="cls-4" d="M298.85,152.64a2.22,2.22,0,0,1-1.46,1,2.68,2.68,0,0,1-.8.06l-.29,0a.17.17,0,0,1-.14-.14h0v-1.39c-.18.09-1.1.54-1.09.28a32.67,32.67,0,0,1,.67-6.75c0-.07.12-.06.11,0,0,2.1-.33,4.18-.34,6.29a3.45,3.45,0,0,1,1-.35s-.05,1.71,0,1.72a3,3,0,0,0,2.27-.78C298.83,152.54,298.88,152.59,298.85,152.64Z"/><path class="cls-4" d="M296.8,153.62a2.76,2.76,0,0,0,1.17.77,1.31,1.31,0,0,0,.76,0c.53-.19.51-.69.37-1.11a2.64,2.64,0,0,0-.29-.64A3.59,3.59,0,0,1,296.8,153.62Z"/><path class="cls-15" d="M298,154.39a1.31,1.31,0,0,0,.76,0c.53-.19.51-.69.37-1.11A1.28,1.28,0,0,0,298,154.39Z"/><path class="cls-4" d="M293.12,143c.33-.87.71-1.75,1.22-1.94s.9,1,2.08,1.07c1.58,0,2.28-1.45,4.48-1.71,3.16-.36,4.68,2.22,5,6.72.25,4,2.7,4.29,2.7,4.29s1.06-8.94-1.57-11.76-8.43-3.85-12.15-.88C293.49,139.83,293.12,143,293.12,143Z"/><path class="cls-9" d="M306.36,149.76s1.61-3.43,3.13-2.91.68,5.23-.85,6.12a1.68,1.68,0,0,1-2.37-.5Z"/><path class="cls-4" d="M309.21,148.19a0,0,0,0,1,0,.05,4.24,4.24,0,0,0-1.71,3,.92.92,0,0,1,1.32-.48s0,.06,0,.06a1,1,0,0,0-1.06.55,6,6,0,0,0-.38,1c0,.11-.23.09-.21,0v0C306.9,150.85,307.68,148.61,309.21,148.19Z"/><path class="cls-10" d="M297.39,137.13a14.24,14.24,0,0,1,3.83-1.59c1.51-.35,6.37-.47,7.63.38s2,5.36,2.13,6,.21,4.71-1.15,5.83-2.19-5.69-4.72-7.72S297.39,137.13,297.39,137.13Z"/><path class="cls-11" d="M297.39,137.13s5.19.89,7.72,2.92,3.37,8.84,4.73,7.72a3.21,3.21,0,0,0,1-2.25,16.7,16.7,0,0,0-3.51-7c-1.77-1.85-4.55-2.59-7.45-2.62A16.86,16.86,0,0,0,297.39,137.13Z"/><path class="cls-10" d="M309.85,151.87c-.31-1.81-2.66-6.49-4.89-9.08s-8.1-3.64-8.89-3.51c-1.93.31-2.26,1.28-2.58,1.14s1.38-2.54,1.9-2.93a6.23,6.23,0,0,1,2.6-.94c.85-.07,6.09-.09,8.21,1.93s5.42,8,5.09,9.59c-.08.39-.56.69-.67,1.25-.14.73-.2,1.56-.36,2.08S309.88,152,309.85,151.87Z"/><path class="cls-4" d="M304.38,141.58a9,9,0,0,0,1.17-1.05,7,7,0,0,0,1-1.26s.07,0,.05,0a5.16,5.16,0,0,1-.84,1.39,4.54,4.54,0,0,1-1.28,1C304.38,141.7,304.34,141.62,304.38,141.58Z"/><path class="cls-4" d="M309.68,150.05c0-.14.12-.26.17-.4a2.39,2.39,0,0,0,.12-.46,3.5,3.5,0,0,1,.12-.91,3,3,0,0,1,.36-.65,1.16,1.16,0,0,0,.28-.77s.06-.05.06,0a3.13,3.13,0,0,1-.46,1.47,5.31,5.31,0,0,0-.16,1,1.39,1.39,0,0,1-.4.81S309.67,150.09,309.68,150.05Z"/><path class="cls-4" d="M308.86,148.15a7.91,7.91,0,0,0,.44-.68,4.64,4.64,0,0,0,.32-.72c.09-.24.17-.49.25-.73s.24-.57.33-.86a0,0,0,1,1,.05,0c-.09.3-.12.63-.21.93a5.13,5.13,0,0,1-.27.78,3.86,3.86,0,0,1-.36.7,2.1,2.1,0,0,1-.53.58S308.84,148.16,308.86,148.15Z"/><path class="cls-4" d="M308,146.43a5.13,5.13,0,0,0,.88-1.22c.22-.43.42-.88.61-1.34,0,0,.06,0,.06,0a6.7,6.7,0,0,1-.49,1.45,3.44,3.44,0,0,1-.4.62,3.73,3.73,0,0,1-.61.52S308,146.46,308,146.43Z"/><path class="cls-4" d="M307.12,144.81a2,2,0,0,0,.43-.54c.13-.22.27-.44.39-.67l.36-.65a1.8,1.8,0,0,0,.26-.7,0,0,0,1,1,.06,0,1.85,1.85,0,0,1-.13.73,6.36,6.36,0,0,1-.34.75,6.28,6.28,0,0,1-.45.69,1.21,1.21,0,0,1-.54.46C307.11,144.89,307.07,144.84,307.12,144.81Z"/><path class="cls-4" d="M306.37,142.7a5.68,5.68,0,0,0,.44-.56,6.17,6.17,0,0,0,.39-.6c.13-.21.27-.42.38-.64a0,0,0,0,1,.06,0,5.2,5.2,0,0,1-.27.69,6,6,0,0,1-.38.64,5.92,5.92,0,0,1-.45.57,1.66,1.66,0,0,1-.55.47,0,0,0,0,1-.05-.05A4.53,4.53,0,0,1,306.37,142.7Z"/><path class="cls-4" d="M302.88,140.69c.16-.24.31-.48.49-.71s.38-.44.59-.65a7.64,7.64,0,0,1,1.31-1.1s.07,0,0,.05c-.78.82-1.6,1.61-2.38,2.45A0,0,0,0,1,302.88,140.69Z"/><path class="cls-4" d="M301.62,139.25a3.91,3.91,0,0,1,.56-.65,7.92,7.92,0,0,1,1.47-1,0,0,0,0,1,0,.05c-.44.36-.89.71-1.31,1.1a8.35,8.35,0,0,0-.59.6c-.19.21-.32.46-.5.68,0,0,0,0,0,0A2.29,2.29,0,0,1,301.62,139.25Z"/><path class="cls-4" d="M300,138.69a3.57,3.57,0,0,1,.51-.65,4.62,4.62,0,0,1,1.24-.91,0,0,0,1,1,0,.05,9.48,9.48,0,0,0-1.16,1l-.51.58a6,6,0,0,1-.5.61s0,0,0,0A3.82,3.82,0,0,1,300,138.69Z"/><path class="cls-4" d="M298.85,137.89c.17-.17.36-.34.54-.5a2.31,2.31,0,0,1,.6-.42s.05,0,0,.05c-.34.33-.68.68-1,1a5.86,5.86,0,0,0-.75,1.09s0,0,0,0A2.39,2.39,0,0,1,298.85,137.89Z"/><path class="cls-4" d="M297.45,137.74a3.79,3.79,0,0,1,1.14-.88s.06,0,0,0a4.84,4.84,0,0,0-1,1,6.44,6.44,0,0,0-.76,1.16s0,0,0,0A3.08,3.08,0,0,1,297.45,137.74Z"/><path class="cls-4" d="M295.75,138.74a1.51,1.51,0,0,1,.13-.29,2.78,2.78,0,0,1,.35-.54,6.75,6.75,0,0,1,.95-.9s.07,0,0,.05a5.05,5.05,0,0,0-.88.91,6.06,6.06,0,0,0-.35.53l-.13.27a1.69,1.69,0,0,1-.12.27s-.06,0-.06,0A1,1,0,0,1,295.75,138.74Z"/><path class="cls-4" d="M294.66,139a4.27,4.27,0,0,1,.3-.44,2.64,2.64,0,0,1,.34-.41c.12-.13.25-.25.37-.39a0,0,0,1,1,0,0,2.83,2.83,0,0,0-.34.42l-.3.41-.3.42c-.1.14-.19.3-.3.43s-.05,0-.05,0A2.88,2.88,0,0,1,294.66,139Z"/><path class="cls-4" d="M301,164.61s0,0,0,0c0,1.85.13,6.11,3,5.67a6.2,6.2,0,0,0,3-1.73,16.38,16.38,0,0,0,2.28-2.64,22.75,22.75,0,0,0,2.07-3.32c0-.05.1,0,.08,0-.61,1.16-1.11,2.36-1.83,3.47a14.6,14.6,0,0,1-2.46,2.91,6.19,6.19,0,0,1-3.21,1.71,2.34,2.34,0,0,1-2.47-1.6A10.34,10.34,0,0,1,301,164.61Z"/><path class="cls-13" d="M317.42,169.54c2.75,15.64.09,27.35-2.57,28.8-7.15,3.91-24.33-4-29.17-5.59-2-.63,7-15.61,9-14.69,4.71,2.18,11.31,5.87,11.58,5.85.53-.06,1.15-4,3.88-15.69C312.31,158.81,316.29,163.14,317.42,169.54Z"/><path class="cls-9" d="M270.06,170.65c-.49,2,4.46,2.76,4.46,2.76a3.74,3.74,0,0,0-2,1.62c-.72,1.36,1.1,3.09,1.1,3.09a4.6,4.6,0,0,0-1.8,2c-.56,1.38,1,3.38,1,3.38a4,4,0,0,0-.45,2.78c.6,2.53,4.47,3.52,6.74,4.61,2.44,1.16,6.46,1.59,8.29,2.41l7.92-14.5s-7.65-8.1-12-9.36C281,168.78,270.81,167.65,270.06,170.65Z"/><path class="cls-4" d="M274.57,173.37a33.89,33.89,0,0,1,8.21,1c.06,0,0,.1,0,.09-2.66-.58-5.53-.46-8.2-.93C274.49,173.49,274.5,173.37,274.57,173.37Z"/><path class="cls-4" d="M273.78,177.94a7.28,7.28,0,0,1,1.84.34c.65.17,1.29.34,1.93.53,1.28.38,2.55.78,3.8,1.22a.05.05,0,0,1,0,.1q-1.9-.57-3.84-1l-1.94-.46a8.12,8.12,0,0,1-1.81-.51A.09.09,0,0,1,273.78,177.94Z"/><path class="cls-4" d="M272.94,183.54a5,5,0,0,1,1.65.4l1.74.54c1.16.35,2.32.71,3.5,1,.06,0,0,.11,0,.09l-3.59-.93-1.75-.48a4.76,4.76,0,0,1-1.55-.58A0,0,0,0,1,272.94,183.54Z"/><path class="cls-4" d="M306.22,183.91c-2-.86-3.94-1.8-5.9-2.72l-2.91-1.42-1.45-.71c-.47-.22-1-.5-1.4-.64l-.12,0-.06-.06-3.78-3.71c-.64-.62-1.3-1.21-2-1.81a19.6,19.6,0,0,0-2.06-1.68,15.16,15.16,0,0,1,2.27,1.42c.72.53,1.41,1.1,2.09,1.67,1.38,1.13,2.68,2.34,3.95,3.59l-.17-.1a14.5,14.5,0,0,1,1.56.69l1.45.73c1,.49,1.92,1,2.87,1.52C302.5,181.69,304.38,182.75,306.22,183.91Z"/><path class="cls-8" d="M296,177.72l-8.61,17.62s23.3,9.51,27.77,4.35,4.3-22.45,2.21-31.9-6.69-4.87-7.72.35-2.95,15.19-3.41,15.08S296,177.72,296,177.72Z"/><path class="cls-4" d="M298.46,180.93c-1.27,2.26-2.5,4.54-3.62,6.88-.57,1.16-1.11,2.34-1.64,3.52s-.93,2.42-1.47,3.59c0,.06.07.11.1,0,.48-1.2,1.13-2.34,1.67-3.51s1.1-2.34,1.66-3.51c1.12-2.33,2.23-4.67,3.4-7C298.59,180.91,298.49,180.87,298.46,180.93Z"/><path class="cls-4" d="M295.63,178.44c.09-.25.17-.51.26-.76l0-.09.1,0a73.52,73.52,0,0,1,7.57,3.69,65.51,65.51,0,0,1,7.14,4.47,66.11,66.11,0,0,1-7.61-3.6,72.19,72.19,0,0,1-7.19-4.38l.14,0C295.94,178,295.78,178.22,295.63,178.44Z"/><path class="cls-4" d="M308.82,172.22a25.49,25.49,0,0,1-.61,5.66c-.21.92-.44,1.84-.74,2.75a7.86,7.86,0,0,1-1.25,2.59c.26-.91.32-1.86.49-2.78s.33-1.85.52-2.77A33.22,33.22,0,0,1,308.82,172.22Z"/><path class="cls-4" d="M307.78,173a10.11,10.11,0,0,1,.22,1.59c0,.26,0,.52,0,.78s0,.53,0,.81a2.75,2.75,0,0,1-.55-1.55A3.26,3.26,0,0,1,307.78,173Z"/><path class="cls-4" d="M318.47,175.5a52.46,52.46,0,0,1,.55,6.63,55,55,0,0,1-.2,6.67,31.59,31.59,0,0,1-1.27,6.59,14.77,14.77,0,0,1-1.39,3.09,5.29,5.29,0,0,1-2.5,2.2,5.51,5.51,0,0,0,2.07-2.44,14.46,14.46,0,0,0,1.08-3.06,45.36,45.36,0,0,0,1-6.47c.22-2.18.33-4.38.44-6.58.05-1.1.09-2.21.11-3.31Z"/><path class="cls-4" d="M319,176.9a2.16,2.16,0,0,1,.14,1.17,1.94,1.94,0,0,1-.49,1.09,3.76,3.76,0,0,1,0-1.16A3.13,3.13,0,0,1,319,176.9Z"/><path class="cls-9" d="M184.75,253.26c.56,1.32,26.16,30.51,27.84,31,.64.19,5.11-3.29,10.39-7.65,1.14-.94,2.31-1.92,3.49-2.92,7.7-6.49,15.72-13.55,15.72-13.55l-17.07-19.58-15.25,14.09-3.34,3.09s-14.81-6.79-16.71-7.14S184.2,251.94,184.75,253.26Z"/><path class="cls-3" d="M184.75,253.26c.56,1.32,26.16,30.51,27.84,31,.78.23,7.21-5,13.88-10.57l-16.6-19-3.34,3.09s-14.81-6.79-16.71-7.14S184.2,251.94,184.75,253.26Z"/><path class="cls-12" d="M184.75,253.26c.56,1.32,26.16,30.51,27.84,31,.64.19,5.11-3.29,10.39-7.65l-16.45-18.87s-14.81-6.79-16.71-7.14S184.2,251.94,184.75,253.26Z"/><path class="cls-4" d="M186.29,252.65c4.41,4.79,21.75,24.52,25.75,29.59,0,0,0,.07,0,0-4.48-4.65-21.66-24.52-25.8-29.55C186.12,252.62,186.2,252.55,186.29,252.65Z"/><path class="cls-4" d="M192.52,251.57a5.22,5.22,0,0,1,1.37,4,5.1,5.1,0,0,1-1.65,3.39s-.08,0-.05-.06a6,6,0,0,0,.27-7.25A0,0,0,1,1,192.52,251.57Z"/><path class="cls-4" d="M204.37,256.28c1.75,1.93,3,4.81,2.51,7.43,0,.1-.16.07-.18,0a36,36,0,0,0-2.6-7.24A.16.16,0,0,1,204.37,256.28Z"/><path class="cls-4" d="M202.46,255.28c1.74,1.94,3,4.82,2.51,7.44,0,.1-.17.07-.19,0a35.92,35.92,0,0,0-2.59-7.24A.16.16,0,0,1,202.46,255.28Z"/><path class="cls-4" d="M200.54,254.29c1.75,1.93,3.05,4.81,2.51,7.43,0,.1-.16.07-.18,0a36,36,0,0,0-2.6-7.24A.16.16,0,0,1,200.54,254.29Z"/><path class="cls-4" d="M198.63,253.29c1.74,1.94,3,4.82,2.51,7.44,0,.1-.17.07-.19,0a35.92,35.92,0,0,0-2.59-7.24A.16.16,0,0,1,198.63,253.29Z"/><path class="cls-3" d="M215.6,276.92c1.92,2.2-1.5,5.19-3.43,3S213.67,274.71,215.6,276.92Z"/><path class="cls-4" d="M205,252.25c-.44,2.26.12,4.62.38,6.86,0,.23.29.29.46.21a.07.07,0,0,0,.11,0,13.66,13.66,0,0,0,3.45-6.17c.32-1.36,0-3.31-1.67-3.58S205.27,250.94,205,252.25Zm1.54-1.51c2.31-1.68,2.35,1.68,2.08,2.68a16.17,16.17,0,0,1-.69,1.87c-.55,1.27-1.27,2.44-1.94,3.65-.06-1.11-.21-2.2-.31-3.31C205.57,254.31,205.28,251.66,206.55,250.74Z"/><path class="cls-4" d="M213.31,265.2c1.15-1.28.14-3-1-3.84a13.64,13.64,0,0,0-6.56-2.62c-.06,0-.08,0-.08.07-.19.05-.36.27-.23.46,1.21,1.91,2.27,4.09,4,5.57C210.53,265.7,212.23,266.4,213.31,265.2Zm-5.41-3.42c-.61-.92-1.18-1.86-1.83-2.76a39.4,39.4,0,0,1,3.8,1.62,12.86,12.86,0,0,1,1.71,1c.84.59,2.92,3.23.08,3.38C210.09,265.12,208.64,262.88,207.9,261.78Z"/><path class="cls-4" d="M210.59,251.57l17.84,22,55.24-41.92,5.32-4s1.6,1,4,2.17c3.32,1.66,8.18,3.73,12.42,4.17,7.11.75,17.76.18,23.38-8,4.73-6.92,2.78-15.6,2.78-15.6l-7.9-3s-19-14.51-30.93-14.47c-5.06,0-12.25,4.16-18.89,8.45S210.59,251.57,210.59,251.57Z"/><path class="cls-12" d="M289,227.65s1.6,1,4,2.17c3.92-5.12,12.29-14.49,12.55-14.82Z"/><path class="cls-12" d="M316.72,202.52c1.13.71,2.23,1.48,3.34,2.22s2.23,1.4,3.28,2.19,2.08,1.68,3.09,2.56c.48.43,1,.86,1.44,1.3a11.24,11.24,0,0,1,1.38,1.38s0,.1-.08.08a18.24,18.24,0,0,1-1.52-1.14l-1.59-1.24c-1-.8-2.06-1.57-3.08-2.37s-2-1.67-3-2.47-2.21-1.66-3.32-2.47C316.68,202.54,316.7,202.5,316.72,202.52Z"/><path class="cls-12" d="M214.52,250.58c1.14,1.14,2.21,2.36,3.28,3.57s2.15,2.42,3.22,3.64c2.13,2.44,4.27,4.87,6.37,7.34,1.15,1.36,2.29,2.72,3.37,4.14.05.07,0,.14-.11.09-2.28-2.3-4.37-4.77-6.5-7.21s-4.25-4.89-6.35-7.37c-1.14-1.35-2.32-2.7-3.38-4.12C214.38,250.6,214.47,250.53,214.52,250.58Z"/><path class="cls-12" d="M257.83,251.23c2.74-2.35,9-7,11.84-9.2s5.66-4.42,8.54-6.57c.83-.62,1.66-1.22,2.5-1.83s1.7-1.17,2.51-1.79c0,0,.1,0,0,.08-.75.58-1.45,1.23-2.18,1.84s-1.39,1.16-2.1,1.73q-2.07,1.66-4.16,3.3-4.23,3.35-8.53,6.59c-1.63,1.22-6.66,4.85-8.33,6C257.87,251.47,257.74,251.31,257.83,251.23Z"/><path class="cls-12" d="M239,228.47c2.53-2.28,8.32-6.7,11-8.82s5.36-4.31,8.06-6.44l8-6.35c2.6-2.05,5.18-4.13,7.93-6,1.51-1,3.06-1.94,4.66-2.79a31.2,31.2,0,0,1,4.85-2.22s.08.05,0,.08c-1.36.84-2.8,1.56-4.17,2.37s-2.71,1.64-4,2.52c-2.73,1.82-5.3,3.87-7.88,5.9-5.37,4.21-10.72,8.44-16.13,12.6-3,2.33-9,7.13-12.2,9.29C239,228.7,238.88,228.55,239,228.47Z"/><path class="cls-16" d="M21.93,135.49c.43-1.3,23.45-31.72,25-32.3.18-.08,10.48,7.24,10.48,7.24.42.57,20-3.56,20-3.56l.2,23.6L42,129.71s-4.81,2.83-9.22,5.13h0A53.58,53.58,0,0,1,27,137.66C25.16,138.11,21.49,136.79,21.93,135.49Z"/><path class="cls-3" d="M27,137.66a53.58,53.58,0,0,0,5.79-2.81h0c4.4-2.31,9.22-5.14,9.22-5.14l7.93.17,12.42-20c-2.73.48-4.76.77-4.9.59,0,0-10.28-7.32-10.47-7.24-1.57.58-24.59,31-25,32.3S25.16,138.12,27,137.66Z"/><path class="cls-10" d="M21.72,135.53c.45-1.33,23.58-31.73,25.19-32.33.61-.24,5.65,2.87,10.52,7.23L42.49,130s-13.78,7.3-15.62,7.77S21.26,136.87,21.72,135.53Z"/><path class="cls-4" d="M23.26,136c4-5,19.68-25.55,23.25-30.8,0,0,0-.06,0,0-4.07,4.87-19.58,25.55-23.3,30.76C23.1,136.07,23.18,136.13,23.26,136Z"/><path class="cls-4" d="M29.45,136.66a5.13,5.13,0,0,0,1.08-4,5,5,0,0,0-1.86-3.21s-.07,0,0,.06a6,6,0,0,1,.76,7.1S29.42,136.7,29.45,136.66Z"/><path class="cls-4" d="M40.76,131.23c1.58-2,2.66-4.93,2-7.47,0-.1-.17-.06-.18,0a35.51,35.51,0,0,1-2,7.28A.16.16,0,0,0,40.76,131.23Z"/><path class="cls-4" d="M39,132.34c1.58-2,2.66-4.94,2-7.47,0-.1-.17-.06-.18,0a35.63,35.63,0,0,1-2.06,7.29A.16.16,0,0,0,39,132.34Z"/><path class="cls-4" d="M37.14,133.44c1.58-2,2.66-4.93,2-7.46,0-.1-.17-.06-.19,0a35,35,0,0,1-2,7.29A.16.16,0,0,0,37.14,133.44Z"/><path class="cls-4" d="M35.33,134.55c1.58-2,2.66-4.93,2-7.47,0-.1-.16,0-.18,0a35.6,35.6,0,0,1-2.05,7.29A.16.16,0,0,0,35.33,134.55Z"/><path class="cls-4" d="M50.37,110.2c1.73-2.29-1.83-5-3.57-2.69S48.63,112.5,50.37,110.2Z"/><path class="cls-4" d="M44.53,137.57c1.64-.38,1.79-2.32,1.39-3.63a13.45,13.45,0,0,0-3.81-5.82s-.08,0-.1,0a.32.32,0,0,0-.45.24c-.1,2.22-.48,4.57.1,6.76C42,136.41,43,137.93,44.53,137.57Zm-2.43-5.8c0-1.09.1-2.17.08-3.26A40.45,40.45,0,0,1,44.33,132a14.55,14.55,0,0,1,.81,1.8c.33.95.52,4.25-1.86,2.77C42,135.7,42.07,133.07,42.1,131.77Z"/><path class="cls-4" d="M45.21,122.48c-1.62,1.56-2.51,3.78-3.57,5.73a.32.32,0,0,0,.26.44.07.07,0,0,0,.08.07,13.34,13.34,0,0,0,6.26-3c1-.91,1.9-2.65.69-3.82S46.16,121.56,45.21,122.48Zm2.1-.35c2.8,0,.94,2.68.16,3.33a16.49,16.49,0,0,1-1.61,1.12c-1.16.71-2.4,1.25-3.62,1.84.57-.92,1.07-1.89,1.61-2.84C44.5,124.45,45.77,122.15,47.31,122.13Z"/><path class="cls-12" d="M78.49,99.63h16s16.73-8,30.21-4.8c15.45,3.71,17.42,23.12,5.88,30-14.64,8.69-79.75,7-79.75,7L64.91,108s21.65-4.55,41.29-3.89l-27.71,3.77Z"/><path class="cls-4" d="M64,109.5a.53.53,0,0,0,0-.12l0-.1.06-.23c0-.16.11-.31.17-.47s.13-.3.2-.45a3,3,0,0,1,.26-.42s0,0,0,0,0,0,0,0h0l0,0c2.38-.44,18.56-2.75,21-3s4.86-.5,7.29-.71c4.85-.4,9.73-.6,14.6-.52l1.37,0,.3-.07c.23-.06.47-.12.7-.16.44-.09.89-.15,1.33-.22.92-.14,1.84-.24,2.76-.41.06,0,.08.08,0,.09-.92.2-1.83.47-2.75.67l-.8.17c1.79.09,3.57.23,5.35.39.06,0,.06.09,0,.09-2.42-.14-4.86-.16-7.29-.12s-4.83.09-7.23.23c-4.88.28-9.74.72-14.6,1.23-2.72.28-19.22,2.69-22,2.8h0c0,.06,0,.12-.07.19s-.15.29-.23.44l-.25.41-.13.2-.07.09a.67.67,0,0,0-.07.11C64,109.6,63.94,109.56,64,109.5Z"/><path class="cls-4" d="M55.91,130.37c.87-1.39,1.61-2.88,2.41-4.32l2.4-4.32c1.61-2.88,7.35-12.54,7.92-13.22a.06.06,0,0,1,.09.06c-.27.75-3.86,7.14-4.68,8.57-1.65,2.86-3.39,5.65-5.1,8.47-.49.81-1,1.6-1.49,2.4s-1,1.59-1.48,2.41C56,130.47,55.88,130.42,55.91,130.37Z"/><path class="cls-4" d="M68.8,110.92c1.44-.35,2.91-.57,4.36-.85l4.37-.82q4.36-.81,8.75-1.55c5.83-1,11.68-1.79,17.56-2.36,3.32-.32,6.65-.53,10-.77.07,0,.06.11,0,.11-5.92.27-11.84,1.07-17.7,1.91s-11.61,1.75-17.4,2.73l-4.9.84c-1.65.29-3.31.64-5,.85C68.77,111,68.74,110.93,68.8,110.92Z"/><path class="cls-9" d="M46,212.67c1.43-.08,38.54-14.91,39.56-16.34.4-.53-14.45-35.4-14.45-35.4L47.5,170.3l10,23.3S46.17,205.32,45.21,207,44.59,212.75,46,212.67Z"/><path class="cls-4" d="M46,212.67c1.43-.08,38.54-14.91,39.56-16.34.13-.16-1.22-3.65-3.15-8.39-6.35,3.68-29.55,16.62-31.85,16.22-1.61-.28-.89-1.93-.12-3.14a70.06,70.06,0,0,0-5.25,6C44.25,208.68,44.59,212.75,46,212.67Z"/><path class="cls-12" d="M79,176.3,51.7,188.86s-22.4-52.21-23.22-70.59C27.78,102.63,34.84,89.4,70,99.52l8.62.11v6c-3.78.5-13.88,2.08-13.88,2.08-7.34,2.77-9.71,3.92-9.59,4.16C73.5,148.81,79,176.3,79,176.3Z"/><path class="cls-4" d="M50.87,105.22c1.06,1.41,2.05,2.89,3,4.39a63.11,63.11,0,0,1,17.91-4.72c1.73-.22,3.47-.37,5.21-.47.07,0,.07.11,0,.11A79,79,0,0,0,58.75,108c-1.64.51-3.25,1.09-4.86,1.67,1.13,1.8,2.19,3.65,3.21,5.51a108.85,108.85,0,0,1,5.14,10.73c.85,2,1.67,4.07,2.39,6.14a.05.05,0,0,1-.1,0q-4.81-10.73-10.51-21c-1.07-1.94-2.19-3.84-3.24-5.79C50.75,105.23,50.83,105.17,50.87,105.22Z"/><path class="cls-4" d="M51.13,182.51c1.53-.6,3-1.34,4.52-2l4.51-2c3-1.34,13.39-5.64,14.25-5.85a.05.05,0,0,1,0,.1c-.66.44-7.37,3.42-8.88,4.07-3,1.3-6.1,2.5-9.15,3.74l-2.63,1c-.88.34-1.77.66-2.63,1C51.11,182.62,51.08,182.53,51.13,182.51Z"/><path class="cls-4" d="M51,107.93c2.08,3.94,3.84,8.06,5.64,12.13s3.54,8.13,5.23,12.23Q66.93,144.53,71.3,157c1.65,4.72,2.36,8,3.87,12.73,0,.06-.09.09-.11,0-2.79-8.42-5-15.26-8.12-23.56s-6.48-16.47-10-24.59q-1.49-3.42-3-6.82c-1-2.26-2.09-4.52-3-6.81C50.82,107.92,51,107.84,51,107.93Z"/><path class="cls-4" d="M103.92,70.4a.27.27,0,0,1-.25.27l-1.14,0c-.79-2.74-1.71-4.94-1.49-4.09a13.69,13.69,0,0,1,.37,4.06l-2.25-.08c-.48-4.74-1.32-8.3-1.34-7.22-.09,4.33-.46,5.69-.89,7.14-5.43-.21-12.55-.57-17.69-.94-.37-2.63-.65-5.46-.76-5.28a13.41,13.41,0,0,0-1.35,5.13c-1.64-.13-2.94-.27-3.73-.39,0,0-.2-2.2-.19-2.92a14.87,14.87,0,0,1,1-5.38,26.46,26.46,0,0,1,2.81-4.83.05.05,0,0,1,0,0,0,0,0,0,1,0,0,15.08,15.08,0,0,0,1.65-3.25l0,0A14.86,14.86,0,0,0,79.4,50c.51-3.16,2.54-5.77,5.61-6.35,6.11-4.84,11.58-2.12,12.94,2.11.13.41.25.88.36,1.4h0c.43,1.89.74,4.32,1.06,6.21,0,0,0,0,0,0v0h0a18.57,18.57,0,0,0,.48,2.19C101,59,104.11,61.2,103.92,70.4Z"/><path class="cls-4" d="M83.63,44.4a6,6,0,0,0-3.89,4.54,15.38,15.38,0,0,1-1.13,3.89,13.72,13.72,0,0,1-2.56,3.29A10.31,10.31,0,0,0,73,61.61,17.62,17.62,0,0,0,73,68.88s0,0,0,0a18.73,18.73,0,0,1,.39-7.55c.64-2.48,2.21-3.95,3.83-5.74a10.51,10.51,0,0,0,2.59-5,12.58,12.58,0,0,1,.89-3.38,6.87,6.87,0,0,1,3-2.61A.13.13,0,0,0,83.63,44.4Z"/><path class="cls-4" d="M102.85,59.43c-1.23-1.92-2.54-3.58-3.16-5.89-.57-2.11-.8-4.3-1.38-6.4,0,0-.06,0,0,0,.85,3.72.76,7.39,2.83,10.63A23.73,23.73,0,0,1,104,63.24a17.77,17.77,0,0,1,.75,6.66c0,.08.1.08.11,0A14.69,14.69,0,0,0,102.85,59.43Z"/><path class="cls-4" d="M85.73,43.09c-.14.76-4,2.15-6.36-.12s-.81-6,2.7-5.19C84.29,38.29,86,41.48,85.73,43.09Z"/><path class="cls-4" d="M78.48,39.36a4.58,4.58,0,0,1,2.24-2,2.74,2.74,0,0,1,2.71.33,5.5,5.5,0,0,1,1.74,2.37,8.72,8.72,0,0,1,.45,1.45,4.2,4.2,0,0,1,.11,1.54,3.82,3.82,0,0,0,.17-1.58,6.52,6.52,0,0,0-.31-1.57,5.4,5.4,0,0,0-1.82-2.68,3.22,3.22,0,0,0-1.59-.6,3.29,3.29,0,0,0-1.64.33A4,4,0,0,0,78.48,39.36Z"/><path class="cls-9" d="M80.22,67.86C82,77.34,87.43,89.61,92.36,89.8c4.5.18,14.92-4.14,19.26-6.52s-4.21-13.34-6.81-12c-3.47,1.8-9.51,5.89-10.44,5.54-1.15-.44-2.22-2.38-8.46-11.27C83.36,61.93,79.46,63.82,80.22,67.86Z"/><path class="cls-16" d="M109.6,67.68c2.05-.49,4.36-1.2,6.54-.93s3.69,3.37,3.6,4.2-1.47,5.9-3.66,5.67-.44-4.07-.47-4.53-.06-1-.47-1.06-8,2.65-8,2.65Z"/><path class="cls-9" d="M109.71,68c.12,0,6.24-1.66,8.43-1.38s3.69,3.37,3.6,4.2-1.48,5.9-3.67,5.66-.44-4.06-.47-4.52,0-1.06-.47-1.06-8,2.64-8,2.64Z"/><path class="cls-4" d="M117.36,76.11a2.72,2.72,0,0,1-.23-1.33,4.41,4.41,0,0,1,.24-1.39,8.15,8.15,0,0,0,.39-1.18,2.33,2.33,0,0,0-.18-1.19c-.13-.32-.47-.25-.75-.19a10.16,10.16,0,0,0-1.25.41l-1.32.51a11.3,11.3,0,0,0-1.35.56s0,.07,0,.06A12.27,12.27,0,0,0,114.1,72l1.31-.44,1.23-.41a1.39,1.39,0,0,1,.6-.11c.16.06.2.48.22.61a2.09,2.09,0,0,1-.2,1.18A6,6,0,0,0,116.9,74a3.17,3.17,0,0,0,0,1.15,4.16,4.16,0,0,0,.42,1S117.38,76.16,117.36,76.11Z"/><path class="cls-9" d="M102.14,73s6.67-4.87,8-5.84C113,65.22,124.12,62,125.62,62s1.71,3.11-5.88,5.49c-4,1.26-4.92,3.37-5,4.59s.86,3.61,2.9,3.77,3.69-2.66,5.6-2.79.3,3.17-1.24,5a12.57,12.57,0,0,1-6,3.69c-1.83.47-7.55,2.23-7.55,2.23Z"/><path class="cls-4" d="M120.35,74.72a5,5,0,0,1-2.8,1.12,2.46,2.46,0,0,1-2-1.73,3.89,3.89,0,0,1-.23-2.88,4.73,4.73,0,0,1,1.65-2.13,11.27,11.27,0,0,1,3-1.54c.05,0,0-.09,0-.07-1,.32-4,1.19-4.9,3.71a4,4,0,0,0,.26,2.93,2.8,2.8,0,0,0,1.91,1.9c1.2.23,2.34-.63,3.28-1.27C120.45,74.73,120.39,74.7,120.35,74.72Z"/><path class="cls-5" d="M79.62,69.78a41.91,41.91,0,0,0,2.88,11c.31.7.5,1.06.5,1.06l9.19-6.46,1.26-.89a11,11,0,0,0-.65-1c-.71-1-2.15-2.91-4.9-6.24a18.14,18.14,0,0,0-4.23-4C80.35,61.35,78.86,64.05,79.62,69.78Z"/><path class="cls-5" d="M81.51,81.53l1.88,3.33,10.27-7.37L96,75.84c-.24-.25-2.5-2.73-2.5-2.73l-.66.46-1.29.91-9,6.35Z"/><path class="cls-4" d="M79.62,69.78a41.91,41.91,0,0,0,2.88,11l-1,.7,1.88,3.33,10.27-7.37c-.49-.67-1-1.36-1.47-2.06l-.68-1c-3-4.27-6-8.53-7.84-11.13C80.35,61.35,78.86,64.05,79.62,69.78Z"/><path class="cls-9" d="M94.56,100.26,94,88.65S98.61,83,96.93,78.9C96.08,76.84,90,66.36,86.68,63.72c-3.13-2.47-7.94-.09-9.43,2-5.79,7.94-10.18,15.07-14.33,33,0,0,11.75,3.94,22.41,3.94C88.64,102.61,94.56,100.26,94.56,100.26Z"/><path class="cls-7" d="M95.9,97.35,94,88.65S98.61,83,96.93,78.9C96.08,76.84,90,66.36,86.68,63.72c-3.13-2.47-8.21-.41-9.73,1.61-6,7.94-10.7,16.11-14.25,31.24Z"/><path class="cls-4" d="M83.82,88.07a28.61,28.61,0,0,1,4.14.16c.69.08,1.36.2,2,.33l1,.18a4.81,4.81,0,0,0,1.07.06s0,0,0,0a8.66,8.66,0,0,1-1,.11,6.37,6.37,0,0,1-1-.06c-.69-.08-1.38-.2-2.07-.28-1.4-.18-2.79-.36-4.2-.43C83.76,88.18,83.76,88.07,83.82,88.07Z"/><path class="cls-4" d="M80.6,89.71A29.31,29.31,0,0,1,84,89.12a16,16,0,0,1,1.7-.11c.27,0,.55,0,.82,0s.6,0,.9,0c0,0,0,0,0,0-.28,0-.56.07-.84.1l-.85.09-1.7.17q-1.69.15-3.39.36C80.55,89.81,80.54,89.72,80.6,89.71Z"/><path class="cls-9" d="M81,64.54c0,.62,3.06,5.58,5.74,6.27.87.22.8-4.85.8-4.85l.19-.32,2.58-4.54-4.59-5.42L85,54.94s-.62,1.28-1.38,2.89a2.4,2.4,0,0,0-.11.23l-.13.26c-.12.24-.24.49-.35.73l-.26.57-.26.59A32.66,32.66,0,0,0,81,64.54Z"/><path class="cls-4" d="M83.63,57.83a10.46,10.46,0,0,0,4.07,7.81l2.58-4.54-4.59-5.42L85,54.94S84.39,56.22,83.63,57.83Z"/><path class="cls-9" d="M99.65,54c-.27,9.16-5.79,10-7.76,10-1.79-.05-7.89-.47-8.57-9.6s3.66-11.91,7.77-12S99.91,44.79,99.65,54Z"/><path class="cls-4" d="M98,52.23a6,6,0,0,1-.6-.19,1,1,0,0,1-.58-.31.33.33,0,0,1,0-.4.81.81,0,0,1,.81-.11,1.21,1.21,0,0,1,.7.49A.35.35,0,0,1,98,52.23Z"/><path class="cls-4" d="M92.08,51.62a4.34,4.34,0,0,0,.63-.07,1,1,0,0,0,.63-.2.33.33,0,0,0,0-.39.83.83,0,0,0-.78-.27,1.22,1.22,0,0,0-.78.35A.35.35,0,0,0,92.08,51.62Z"/><path class="cls-4" d="M93.17,54.05s0,0-.06.05c0,.62-.15,1.33-.73,1.5,0,0,0,0,0,0C93.07,55.59,93.24,54.64,93.17,54.05Z"/><path class="cls-4" d="M92.66,53.36c-1-.15-1.22,1.85-.3,2S93.49,53.48,92.66,53.36Z"/><path class="cls-4" d="M92.25,53.42c-.18.09-.38.28-.59.27s-.41-.23-.55-.45c0,0,0,0,0,0a.74.74,0,0,0,.46.9c.37.09.67-.22.81-.59C92.38,53.5,92.33,53.38,92.25,53.42Z"/><path class="cls-4" d="M96.54,54.39s0,0,0,.06c-.09.62-.09,1.34.44,1.61,0,0,0,0,0,0C96.34,55.92,96.35,55,96.54,54.39Z"/><path class="cls-4" d="M97.17,53.81c1,0,.85,2-.08,2S96.33,53.77,97.17,53.81Z"/><path class="cls-4" d="M97.58,54c.15.12.29.33.48.36s.4-.18.56-.37c0,0,0,0,0,0,0,.38-.18.77-.56.82s-.56-.31-.62-.7C97.46,54,97.52,53.92,97.58,54Z"/><path class="cls-4" d="M92.63,59.06c.13.16.24.38.46.44a1.78,1.78,0,0,0,.69,0s0,0,0,0a.82.82,0,0,1-.83.22.69.69,0,0,1-.4-.63S92.61,59,92.63,59.06Z"/><path class="cls-4" d="M95.45,57.07a12.79,12.79,0,0,1,0,1.38s-.11,0-.26,0h0a2.1,2.1,0,0,1-2-1s0-.08.07,0a3.19,3.19,0,0,0,1.85.73c0-.12-.12-1.61,0-1.6a3.55,3.55,0,0,1,1,.32c0-2-.34-3.9-.33-5.85,0-.07.1-.08.11,0a31.08,31.08,0,0,1,.64,6.29C96.49,57.58,95.62,57.16,95.45,57.07Z"/><path class="cls-4" d="M94.91,58.23a2.22,2.22,0,0,1-.94.64,1,1,0,0,1-.61,0c-.44-.15-.43-.55-.33-.9a3,3,0,0,1,.23-.52A3,3,0,0,0,94.91,58.23Z"/><path class="cls-15" d="M94,58.87a1,1,0,0,1-.61,0c-.44-.15-.43-.55-.33-.9A1,1,0,0,1,94,58.87Z"/><path class="cls-4" d="M94.54,44.34a4.19,4.19,0,0,1-.38,2.43c-1.24,2-3.72,1.17-4.68,1.9s-.79,2.35-1.61,3c-1.14,1-2.48.39-2.73,1.1s-1,3-2,3.17-3.53-15.7,8.56-13.88c0,0,1.7-.43,4.18,1.09,2.86,1.75,3.49,6.52,3.49,6.52s-.13,0-.5-.43c-.53-.58-.71-1.08-1.1-1.46-.61-.6-1-.44-1.65-1A8.17,8.17,0,0,1,94.54,44.34Z"/><path class="cls-4" d="M94.43,43.65a8.13,8.13,0,0,1,.15,1.9,3.43,3.43,0,0,1-.45,1.77,2.55,2.55,0,0,1-1.52.93c-.6.15-1.24.14-1.89.32a1.9,1.9,0,0,0-.88.52,2.75,2.75,0,0,0-.46.9,3.37,3.37,0,0,1-.86,1.6,2.12,2.12,0,0,1-1.7.51A4.32,4.32,0,0,0,84.93,52a4.46,4.46,0,0,1,1.87.25,2.3,2.3,0,0,0,1.87-.47,3.37,3.37,0,0,0,1-1.69,2.26,2.26,0,0,1,.42-.8,1.58,1.58,0,0,1,.75-.42c.58-.17,1.23-.18,1.87-.34a3.51,3.51,0,0,0,.92-.38,1.91,1.91,0,0,0,.72-.69,3.54,3.54,0,0,0,.41-1.9A8.1,8.1,0,0,0,94.43,43.65Z"/><path class="cls-4" d="M94.6,44.23A7.1,7.1,0,0,0,95,46a3.11,3.11,0,0,0,1.07,1.47,5.13,5.13,0,0,0,.8.42,1.4,1.4,0,0,1,.61.51,4.06,4.06,0,0,0,.45.77,2,2,0,0,0,.72.54,2.11,2.11,0,0,1-.6-.63,4.11,4.11,0,0,1-.36-.79A1.57,1.57,0,0,0,97,47.6a5.25,5.25,0,0,1-.75-.4,3.3,3.3,0,0,1-1-1.33A14.64,14.64,0,0,1,94.6,44.23Z"/><path class="cls-9" d="M84.8,54.44s-1.65-3.07-3-2.51-.35,4.84,1.1,5.58A1.54,1.54,0,0,0,85,56.93Z"/><path class="cls-4" d="M82.1,53.15a0,0,0,0,0,0,0,3.9,3.9,0,0,1,1.73,2.67.85.85,0,0,0-1.24-.38s0,.06,0,.06a.93.93,0,0,1,1,.45,4.26,4.26,0,0,1,.4.9c0,.1.22.07.19,0v0C84.36,55.47,83.53,53.45,82.1,53.15Z"/><path class="cls-9" d="M76.8,71c2.55,9.35,15.57,27.16,20.93,28.32,6.21,1.35,22.65-6,26.45-9.39,1.52-1.36-7.56-11.14-9.51-10.2-8.2,4-15,5.39-16.15,4.75-1.79-1-9.51-9.36-14.57-15C77.59,62.3,75.65,66.77,76.8,71Z"/><path class="cls-9" d="M123.78,90.17a48.52,48.52,0,0,0,8.05-7.62,26.65,26.65,0,0,0,3.95-7.68c1.39-4.36,1.93-7.5,1.36-8.83-.65-1.55-.82-1.79-4.33,5.56-2,4.17-4.2,4.83-6.16,5A32.08,32.08,0,0,0,113,80.83S120.51,91.71,123.78,90.17Z"/><path class="cls-4" d="M139.83,64.09,128,76.25a1.31,1.31,0,0,1-1.36.32l-7.18-3.27c-.4-.19-.44-.63-.09-1L131.2,60.16a1.31,1.31,0,0,1,1.36-.32l7.18,3.27C140.14,63.29,140.18,63.73,139.83,64.09Z"/><path class="cls-12" d="M139.15,63.78,127.27,75.94a1.31,1.31,0,0,1-1.36.31L118.73,73c-.41-.18-.45-.62-.1-1l11.88-12.16a1.31,1.31,0,0,1,1.36-.31l7.18,3.27C139.46,63,139.5,63.42,139.15,63.78Z"/><path class="cls-3" d="M138.1,64.18,127.21,75.33a1.24,1.24,0,0,1-1.26.32l-6.42-2.93c-.36-.16-.39-.57,0-.91l10.89-11.15c.68-.69,1.12-.71,1.48-.55l1.29.59c.07,0,.06.13,0,.22l0,0c-.21.22-.08.28.09.36l3,1.35a.36.36,0,0,0,.51-.08l0,0a.32.32,0,0,1,.3-.1l1.29.59C138.63,63.2,138.72,63.55,138.1,64.18Z"/><path class="cls-3" d="M135.32,61.91l-.81-.37s0,0,0-.07h0a.1.1,0,0,1,.09,0l.81.37a0,0,0,0,1,0,.07h0A.1.1,0,0,1,135.32,61.91Z"/><polygon class="cls-7" points="130.55 70.23 125.09 67.75 129.76 62.96 135.22 65.45 130.55 70.23"/><polygon class="cls-10" points="127.51 69.98 124.32 68.53 124.59 68.25 127.78 69.7 127.51 69.98"/><polygon class="cls-10" points="127.64 70.71 123.87 68.99 124.01 68.85 127.78 70.57 127.64 70.71"/><polygon class="cls-10" points="127.39 70.97 123.62 69.25 123.75 69.11 127.53 70.83 127.39 70.97"/><polygon class="cls-10" points="127.14 71.22 123.37 69.5 123.5 69.36 127.28 71.08 127.14 71.22"/><polygon class="cls-10" points="131.86 61.82 131.18 61.51 131.29 61.39 131.97 61.7 131.86 61.82"/><polygon class="cls-10" points="131.65 62.03 130.97 61.72 131.09 61.6 131.77 61.91 131.65 62.03"/><polygon class="cls-10" points="131.45 62.24 130.77 61.93 130.88 61.82 131.56 62.13 131.45 62.24"/><path class="cls-5" d="M129.79,70.91a1.08,1.08,0,0,1-.31.06.37.37,0,0,1,0-.22c0-.16.18-.31.31-.25s0,.19,0,.19.15-.12.25-.07S130,70.84,129.79,70.91Z"/><polygon class="cls-5" points="126.03 74.08 121.62 72.07 122.7 70.97 127.11 72.97 126.03 74.08"/><path class="cls-17" d="M127.62,76.45c-2,.23,4.16-4.52,4-6.83s-2.3-1.37-3.94.11c-5.7,5.11-10.35,5.35-13,10S127.62,76.45,127.62,76.45Z"/><path class="cls-4" d="M95.14,81.49c.56.46,1.1,1,1.65,1.42a10.79,10.79,0,0,0,1.58,1.28,3.33,3.33,0,0,0,2.2.23c.67-.1,1.33-.24,2-.4a59.82,59.82,0,0,0,7.83-2.59,40.37,40.37,0,0,0,4.23-1.8l-.16.17A9.68,9.68,0,0,1,115.69,78a11,11,0,0,1,1.85-1.7,19.4,19.4,0,0,1,2.24-1.44q.61-.35,1.23-.66l.62-.32a2.58,2.58,0,0,0,.73-.4c0,.07-.14,0-.08-.07l0,0a.06.06,0,0,1,.07,0l0,0a0,0,0,0,1,0,.05c-.06.11-.21.15-.31.22l-.58.39-1.07.7c-.81.52-1.63,1.05-2.4,1.63A19,19,0,0,0,116.17,78c-.3.29-.57.61-.86.91a7.61,7.61,0,0,0-.72,1s-2.51,1.24-3.8,1.82-2.63,1.1-4,1.56-2.71.88-4.08,1.23a15.69,15.69,0,0,1-2.13.41,3.41,3.41,0,0,1-1.95-.13A7.24,7.24,0,0,1,97,83.4c-.65-.62-1.31-1.22-1.93-1.86A0,0,0,0,1,95.14,81.49Z"/><path class="cls-7" d="M95.28,81.14,85.5,89.36s-7.39-10.19-9.07-17.84,2.26-8.47,8.8-1.24C91.63,77.36,95.28,81.14,95.28,81.14Z"/><path class="cls-4" d="M88.41,73.71c1.14,1.12,2.24,2.31,3.32,3.49.53.58,1,1.16,1.57,1.75l.81.93a8.81,8.81,0,0,0,.93,1c.06.05,0,.13-.07.08a16.23,16.23,0,0,0-1.68-1.74c-.58-.58-1.15-1.18-1.72-1.79-1.1-1.19-2.2-2.41-3.21-3.69C88.34,73.72,88.38,73.68,88.41,73.71Z"/><path class="cls-4" d="M78.47,78.61a8.84,8.84,0,0,0,1,1.07l.39.41c-.57-1.08-1.11-2.16-1.6-3.26,0,0,0,0,0,0,1.27,2.11,2.43,4.29,3.69,6.4s2.45,4.39,3.83,6.48a.05.05,0,1,1-.09,0c-1.33-2.11-2.78-4.13-4-6.31-.49-.86-1-1.74-1.46-2.62a4.57,4.57,0,0,1-.44-.44,6.19,6.19,0,0,1-.47-.55c-.3-.39-.6-.77-.91-1.15C78.35,78.62,78.43,78.55,78.47,78.61Z"/><path class="cls-7" d="M97.89,82.22l-2.73-2.51L84,89.12l2.16,3.17Z"/><path class="cls-4" d="M85.35,87.88c1.38-1.28,2.87-2.45,4.32-3.66s3-2.31,4.4-3.57c.05,0,.12,0,.06.08-1.43,1.24-2.76,2.58-4.22,3.78A53.48,53.48,0,0,1,85.42,88C85.36,88,85.29,87.93,85.35,87.88Z"/><path class="cls-4" d="M88.07,90.63c-.7.48-1.37,1-2,1.54l.23,0c-.7-1.07-1.43-2.12-2.21-3.13l0,.12c.26-.25.53-.51.78-.78-.31.21-.6.42-.9.64l-.06,0,0,.07c.66,1.1,1.37,2.16,2.11,3.2l.1.14.13-.11C86.87,91.83,87.49,91.25,88.07,90.63Z"/><polygon class="cls-8" points="153.55 95.88 288.25 95.88 288.25 53.58 153.55 53.58 153.55 53.58 153.55 95.88 153.55 95.88"/><polygon class="cls-8" points="288.25 111.47 288.25 95.86 272 95.86 288.25 111.47"/><rect class="cls-3" x="162.06" y="60.89" width="93.41" height="0.8"/><rect class="cls-3" x="162.06" y="65.23" width="74.03" height="0.8"/><rect class="cls-3" x="162.06" y="73.91" width="85.73" height="0.8"/><rect class="cls-3" x="162.06" y="78.25" width="93.41" height="0.8"/><rect class="cls-3" x="162.06" y="82.59" width="93.41" height="0.8"/><rect class="cls-3" x="162.06" y="86.93" width="67.54" height="0.8"/><path class="cls-3" d="M266.71,79a8.77,8.77,0,0,1,.59-3.29,5.49,5.49,0,0,1,2.47-2.54c.37-.22.83-.47,1.38-.76a11.12,11.12,0,0,0,1.6-1,5.7,5.7,0,0,0,1.33-1.4,3.22,3.22,0,0,0,.54-1.85,3,3,0,0,0-.3-1.38,3.26,3.26,0,0,0-.78-1,3.38,3.38,0,0,0-1.14-.61,4.35,4.35,0,0,0-1.33-.21,4,4,0,0,0-1.49.28,5.35,5.35,0,0,0-1.21.71,5.93,5.93,0,0,0-1,1,10.54,10.54,0,0,0-.73,1l-3.25-2.24a7,7,0,0,1,1.29-2,7.64,7.64,0,0,1,1.83-1.52,8.41,8.41,0,0,1,2.22-.93,9.65,9.65,0,0,1,2.46-.32,9.88,9.88,0,0,1,2.8.41,7.26,7.26,0,0,1,2.49,1.31,6.79,6.79,0,0,1,1.79,2.3,7.45,7.45,0,0,1,.69,3.34,7.1,7.1,0,0,1-.28,2.11,5.93,5.93,0,0,1-.8,1.66,6.56,6.56,0,0,1-1.24,1.34,13,13,0,0,1-1.6,1.16c-.5.3-1,.59-1.49.86a9.05,9.05,0,0,0-1.37.91,4.57,4.57,0,0,0-1,1.16,3,3,0,0,0-.4,1.59Zm.07,8.7V82.59h4.15v5.15Z"/></g></svg>